<?xml version="1.0" encoding="UTF-8"?>
<svg id="a" data-name="Layer 1" xmlns="http://www.w3.org/2000/svg" viewBox="0 0 2237.41 2665.01">
  <defs>
    <style>
      .b {
        fill: #fff;
      }

      .c {
        fill: #0968b0;
      }

      .d {
        fill: #0072ce;
      }

      .e {
        fill: #43b02a;
      }
    </style>
  </defs>
  <g>
    <path class="e" d="m529.61,1760.69h-.04v.04c.33,1.74.71,3.45,1.08,5.15-.37-1.7-.71-3.45-1.04-5.19Zm2.41,11.79c.12.66.25,1.33.42,1.99.21.75.37,1.49.54,2.24-.33-1.41-.66-2.82-.95-4.23Zm2.57,11c.33,1.54.71,3.07,1.12,4.61.58,2.24,1.2,4.53,1.83,6.77-1.04-3.78-1.99-7.56-2.95-11.38Zm-150.74,91.29h-.04c-7.56-22-13.82-44.55-18.85-67.59v-.04c-48.95-3.16-93.08-18.06-132.31-44.84-44.59-30.31-76.93-70.49-97.15-120.48l-51.6,43.51v.04c2.03,3.28,4.07,6.56,6.23,9.76,2.41,3.78,4.94,7.51,7.51,11.21,2.12,3.07,4.32,6.06,6.52,9.05.58.79,1.16,1.58,1.79,2.37,1.29,1.74,2.62,3.49,3.94,5.19,1.74,2.32,3.57,4.61,5.48,6.89,1.62,2.08,3.32,4.15,5.02,6.19,2.62,3.11,5.27,6.19,7.97,9.22v.04c2.74,3.07,5.52,6.1,8.34,9.05,2.78,2.99,5.6,5.94,8.55,8.8,3.82,3.86,7.76,7.64,11.75,11.33,13.99,12.87,28.77,24.7,44.21,35.41,6.6,4.57,13.37,8.93,20.26,13.08,2.28,1.41,4.57,2.74,6.89,4.07,6.97,3.99,14.03,7.76,21.17,11.33,9.55,4.73,19.26,9.01,29.18,12.91,2.78,1.08,5.6,2.16,8.39,3.16,1.2.42,2.37.87,3.49,1.29,1.16.37,2.28.75,3.45,1.12l.04.04c1.29.46,2.57.91,3.86,1.33,1.29.42,2.57.83,3.82,1.25.58.21,1.16.37,1.74.54.58.17,1.16.33,1.74.54,1.16.37,2.32.71,3.49,1.04,1.74.5,3.45,1,5.15,1.49,1.41.42,2.86.79,4.32,1.16,6.85,1.83,13.74,3.4,20.59,4.77,1.7.33,3.4.71,5.11,1,.46.08.87.12,1.25.21,1.2.21,2.45.46,3.65.62.62.12,1.2.21,1.83.29.12.04.21.08.29.08.25.04.5.04.71.08,1.79.33,3.57.58,5.36.83,2.41.33,4.86.66,7.27.95,4.36.5,8.72.91,13.08,1.25.83.08,1.62.17,2.45.21.83.08,1.66.12,2.49.17h.17c.5.04.91.08,1.41.12.71.04,1.41.04,2.12.08-.71-.04-1.41-.08-2.12-.12Z"/>
    <path class="e" d="m687.86,1586.08c0,1.04-.04,2.12-.04,3.2,0,1.49-.04,2.99-.12,4.53,0,1-.04,2.08-.08,3.11-.08,2.66-.25,5.36-.46,8.01-.12,1.79-.29,3.49-.42,5.23-.71,7.35-1.66,14.7-2.95,21.96-.25,1.33-.46,2.62-.75,3.9-.96,5.27-2.16,10.54-3.45,15.78-.58,2.32-1.2,4.61-1.83,6.93-.29.95-.54,1.83-.79,2.78-6.77,23.5-16.56,46.21-28.98,67.5-1.16,2.03-2.37,4.03-3.61,6.06-1.49,2.49-3.07,4.94-4.69,7.39-.17.29-.33.54-.54.87-1.54,2.37-3.11,4.69-4.77,7.02-1.2,1.79-2.45,3.49-3.69,5.23-2.37,3.28-4.82,6.56-7.35,9.71-1.83,2.28-3.65,4.57-5.52,6.81-2.03,2.41-4.07,4.73-6.19,7.1-1.45,1.66-2.95,3.32-4.44,4.9-.54.62-1.08,1.16-1.62,1.74-1.87,2.03-3.78,3.99-5.73,5.94-.17.17-.33.37-.54.5-1.62,1.66-3.28,3.28-4.98,4.86-.66.71-1.37,1.33-2.08,1.95-.42.42-.83.79-1.25,1.16-1.62,1.54-3.28,3.07-4.98,4.57-2.28,1.99-4.57,3.99-6.93,5.94-2.24,1.87-4.57,3.74-6.85,5.6-.08,0-.17.04-.25.12-2.37,1.87-4.82,3.69-7.27,5.52-1.74,1.25-3.45,2.49-5.23,3.74-1,.71-2.03,1.37-3.03,2.12-2.24,1.54-4.48,2.99-6.77,4.44-2.16-5.77-4.19-11.58-6.14-17.44-.54-1.7-1.08-3.36-1.62-5.11-.17-.5-.33-1.04-.5-1.54-.17-.58-.37-1.12-.5-1.7-.37-1.08-.71-2.16-1-3.28-.29-.83-.54-1.66-.75-2.49-.58-1.95-1.12-3.9-1.66-5.9-.62-2.24-1.25-4.53-1.83-6.77-.42-1.54-.79-3.07-1.12-4.61-.08-.29-.12-.62-.21-.91-.12-.42-.25-.83-.33-1.29-.17-.75-.37-1.54-.54-2.28-.04-.21-.08-.37-.12-.58-.12-.54-.29-1.12-.42-1.7-.17-.75-.33-1.49-.54-2.24-.17-.66-.29-1.33-.42-1.99-.5-2.2-.91-4.4-1.37-6.6-.37-1.7-.75-3.4-1.08-5.15v-.04h.04v-.04c6.52-4.77,12.66-9.84,18.6-15.28,20.8-19.01,37.16-41.64,49.03-67.79,11.87-26.2,17.81-53.55,17.81-82.08,0-34.5-6.52-66.96-19.6-97.31-5.27-12.25-11.38-23.91-18.18-34.79v-.04c-1.62-2.57-3.28-5.11-5.02-7.56-.91-1.41-1.91-2.82-2.91-4.19-.04-.04-.04-.08-.08-.12,0-.04-.04-.04-.08-.08-1.41-2.03-2.95-4.03-4.44-6.02-1.58-2.03-3.16-4.03-4.73-5.98-1.25-1.54-2.53-3.03-3.78-4.53-2.53-2.95-5.19-5.9-7.89-8.72-2.08-2.16-4.19-4.36-6.35-6.43v-.04c-1.41-1.37-2.86-2.74-4.32-4.11-1.04-1-2.12-1.95-3.2-2.86-1.49-1.33-2.99-2.66-4.53-3.94-.87-.75-1.74-1.49-2.62-2.24-1.62-1.37-3.28-2.7-4.94-4.03-1.41-1.08-2.78-2.16-4.19-3.24-1.2-.87-2.37-1.79-3.57-2.66-.25-.17-.46-.33-.71-.5-1-.75-2.03-1.45-3.03-2.12-1.37-1.04-2.78-1.99-4.19-2.91-3.94-2.7-7.97-5.27-12.12-7.72-.66-.42-1.25-.79-1.87-1.12-9.59-5.65-19.6-10.67-30.06-15.19-7.06-3.03-14.2-5.73-21.46-8.05-24.04-7.72-49.28-11.58-75.72-11.58-22.58,0-47.2.58-73.98,1.79-26.74,1.2-50.81,2.95-72.19,5.36l265.61-458.62H16.07v-64.6h571.41l-266.07,460.24,49.74-.71c8.3-.12,21.71.17,38.53,2.08.96.08,1.91.21,2.82.33,8.84,1.08,18.56,2.62,28.89,4.77,2.37.5,4.69,1.04,7.06,1.54,4.28,1.04,8.64,2.12,13.08,3.32,2.12.54,4.23,1.16,6.39,1.79,2.91.87,5.81,1.74,8.72,2.7,2.41.79,4.86,1.62,7.31,2.49,2.53.83,5.11,1.79,7.72,2.78,9.84,3.69,19.84,8.01,29.93,13.08,1.37.66,2.7,1.37,4.03,2.08,1.45.71,2.91,1.49,4.36,2.28.66.37,1.29.71,1.95,1.04,3.57,1.95,7.1,4.03,10.67,6.14,1.04.62,2.16,1.33,3.24,1.99,2.82,1.74,5.69,3.61,8.55,5.52,1.87,1.2,3.74,2.49,5.6,3.82,2.62,1.83,5.23,3.74,7.85,5.69,2.78,2.08,5.56,4.23,8.3,6.48.17.12.29.21.42.33,1.41,1.12,2.86,2.28,4.23,3.49,1.16.95,2.24,1.91,3.36,2.86,1.2,1,2.37,2.03,3.53,3.07,1.41,1.29,2.82,2.62,4.23,3.9,1.12,1.04,2.24,2.08,3.32,3.11.42.42.87.83,1.29,1.25,1.33,1.33,2.7,2.62,4.03,3.99,1.29,1.33,2.62,2.7,3.9,4.03,1.49,1.54,3.03,3.24,4.69,5.06.58.58,1.16,1.25,1.7,1.87,1.45,1.62,2.91,3.32,4.44,5.11.91,1.12,1.91,2.24,2.91,3.45,4.44,5.36,9.22,11.5,14.11,18.35.87,1.25,1.79,2.49,2.66,3.78,4.94,7.18,10.01,15.11,14.99,23.7.5.91,1.04,1.87,1.54,2.78,4.32,7.68,8.47,15.94,12.37,24.7.71,1.66,1.45,3.28,2.16,4.98.21.5.42.95.62,1.49.71,1.58,1.33,3.2,1.95,4.82.71,1.79,1.41,3.61,2.12,5.48,2.49,6.64,4.73,13.58,6.77,20.72.58,1.83,1.08,3.65,1.54,5.52.75,2.74,1.41,5.52,2.12,8.34.46,2.08.91,4.11,1.33,6.23.37,1.79.71,3.61,1.04,5.44.17.79.33,1.58.42,2.37.37,2.24.75,4.53,1.12,6.81.37,2.41.71,4.82.95,7.31.33,2.49.58,5.02.79,7.56,0,.08.04.21.04.29.25,2.45.42,4.94.54,7.39.21,2.57.29,5.11.37,7.68-.04.12-.04.25,0,.42.08,2.53.12,5.06.12,7.64Z"/>
    <path class="d" d="m812.41,1628.38c-15.36,156.47-128.36,250.46-176.27,283.59-11,7.64-22.04,14.53-33.17,20.72-11-15.53-21.01-31.8-29.93-48.61v-.04c101.46-61.53,170.05-176.48,171.5-294.09,1.37-110.06-54.63-191.26-88.14-229.83-3.9-4.57-7.56-8.55-10.75-11.87-6.52-6.85-13.12-13.24-19.84-19.22-3.65-3.36-7.39-6.48-11.08-9.55-14.57-12.04-29.48-22.34-44.46-31.22-.62-.42-1.33-.79-1.95-1.16-17.81-10.42-35.7-18.81-53.01-25.53-36.24-14.03-70.24-20.88-97.23-24.16l267.23-462.27H16.07v-55.88h775.5l-.08.08h.33l-131.23,228.21-144.1,251.33c5.52.83,10.96,1.87,16.4,3.07,11.67,2.57,23.08,5.9,34.25,9.96,9.55,3.49,18.89,7.51,28.02,12.08,4.57,2.28,9.09,4.69,13.58,7.22,4.48,2.53,8.88,5.23,13.24,8.05h.04c.62.37,1.29.79,1.91,1.29,0,.04.04.04.04.04,7.51,4.86,14.86,10.13,22.09,15.82,3.61,2.86,7.18,5.77,10.71,8.84,1.79,1.54,3.53,3.07,5.27,4.65,1.74,1.58,3.49,3.16,5.23,4.77,1.16,1.08,2.32,2.2,3.49,3.32.62.54,1.25,1.12,1.83,1.74,1.74,1.7,3.49,3.45,5.23,5.19h.04c2.49,2.53,4.98,5.11,7.43,7.76,7.39,7.89,14.53,16.27,21.5,25.12,18.31,23.08,35.33,49.36,51.06,78.84,21.21,39.61,65.34,122.1,54.55,231.74Z"/>
    <path class="d" d="m433.92,1984.17c-9.01.79-17.77,1.33-26.36,1.62-1.04.04-2.12.08-3.16.12-4.61.12-9.17.17-13.66.17-50.4,0-92.08-7.72-117.36-13.91-16.11-3.94-31.22-8.64-45.17-13.7-24.7-9.42-48.49-21.26-71.36-35.5-67.71-42.26-120.02-97.85-156.84-166.89l40.23-33.92c53.14,82.95,129.69,146.88,217.66,181.34,47.58,18.68,96.11,28.02,143.23,28.02,1.83,0,3.61,0,5.44-.08,8.26,18.06,17.39,35.66,27.36,52.72Z"/>
    <path class="b" d="m744.53,1589.94c-1.45,117.61-70.04,232.57-171.5,294.09-8.88-16.73-16.69-33.96-23.33-51.73,2.28-1.45,4.53-2.91,6.77-4.44,1-.75,2.03-1.41,3.03-2.12,1.79-1.25,3.49-2.49,5.23-3.74,2.45-1.83,4.9-3.65,7.27-5.52.08-.08.17-.12.25-.12,2.28-1.87,4.61-3.74,6.85-5.6,2.37-1.95,4.65-3.94,6.93-5.94,1.7-1.49,3.36-3.03,4.98-4.57.42-.37.83-.75,1.25-1.16.71-.62,1.41-1.25,2.08-1.95,1.7-1.58,3.36-3.2,4.98-4.86.21-.12.37-.33.54-.5,1.95-1.95,3.86-3.9,5.73-5.94.54-.58,1.08-1.12,1.62-1.74,1.49-1.58,2.99-3.24,4.44-4.9,2.12-2.37,4.15-4.69,6.19-7.1,1.87-2.24,3.69-4.53,5.52-6.81,2.53-3.16,4.98-6.43,7.35-9.71,1.25-1.74,2.49-3.45,3.69-5.23,1.66-2.32,3.24-4.65,4.77-7.02.21-.33.37-.58.54-.87,1.62-2.45,3.2-4.9,4.69-7.39,1.25-2.03,2.45-4.03,3.61-6.06,12.41-21.3,22.21-44.01,28.98-67.5.25-.96.5-1.83.79-2.78.62-2.33,1.25-4.61,1.83-6.93,1.29-5.23,2.49-10.5,3.45-15.78.29-1.29.5-2.57.75-3.9,1.29-7.27,2.24-14.61,2.95-21.96.12-1.74.29-3.45.42-5.23.21-2.66.37-5.36.46-8.01.04-1.04.08-2.12.08-3.11.08-1.54.12-3.03.12-4.53,0-1.08.04-2.16.04-3.2,0-2.57-.04-5.11-.12-7.64-.04-.17-.04-.29,0-.42-.08-2.57-.17-5.11-.37-7.68-.12-2.45-.29-4.94-.54-7.39,0-.08-.04-.21-.04-.29-.21-2.53-.46-5.06-.79-7.56-.25-2.49-.58-4.9-.95-7.31-.37-2.28-.75-4.57-1.12-6.81-.08-.79-.25-1.58-.42-2.37-.33-1.83-.66-3.65-1.04-5.44-.42-2.12-.87-4.15-1.33-6.23-.71-2.82-1.37-5.6-2.12-8.34-.46-1.87-.95-3.69-1.54-5.52-2.03-7.14-4.28-14.07-6.77-20.72-.71-1.87-1.41-3.69-2.12-5.48-.62-1.62-1.25-3.24-1.95-4.82-.21-.54-.42-1-.62-1.49-.71-1.7-1.45-3.32-2.16-4.98-3.9-8.76-8.05-17.02-12.37-24.7-.5-.91-1.04-1.87-1.54-2.78-4.98-8.59-10.05-16.52-14.99-23.7-.87-1.29-1.79-2.53-2.66-3.78-4.9-6.85-9.67-12.99-14.11-18.35-1-1.2-1.99-2.32-2.91-3.45-1.54-1.79-2.99-3.49-4.44-5.11-.54-.62-1.12-1.29-1.7-1.87-1.66-1.83-3.2-3.53-4.69-5.06-1.29-1.33-2.62-2.7-3.9-4.03-1.33-1.37-2.7-2.66-4.03-3.99-.42-.42-.87-.83-1.29-1.25-1.08-1.04-2.2-2.08-3.32-3.11-1.41-1.29-2.82-2.62-4.23-3.9-1.16-1.04-2.32-2.08-3.53-3.07-1.12-1-2.2-1.91-3.36-2.86-1.37-1.2-2.82-2.37-4.23-3.49-.12-.12-.25-.21-.42-.33-2.74-2.24-5.52-4.4-8.3-6.48-2.62-1.95-5.23-3.86-7.85-5.69-1.87-1.33-3.74-2.62-5.6-3.82-2.86-1.91-5.73-3.78-8.55-5.52-1.08-.66-2.2-1.37-3.24-1.99-3.57-2.12-7.1-4.19-10.67-6.14-.66-.33-1.29-.66-1.95-1.04-1.45-.79-2.91-1.58-4.36-2.28-1.33-.71-2.66-1.41-4.03-2.08-10.09-5.06-20.09-9.38-29.93-13.08-2.62-1-5.19-1.95-7.72-2.78-2.45-.87-4.9-1.7-7.31-2.49-2.91-.96-5.81-1.83-8.72-2.7-2.16-.62-4.28-1.25-6.39-1.79-4.44-1.2-8.8-2.28-13.08-3.32-2.37-.5-4.69-1.04-7.06-1.54-10.34-2.16-20.05-3.69-28.89-4.77-.91-.12-1.87-.25-2.82-.33-16.81-1.91-30.22-2.2-38.53-2.08l-49.74.71,266.07-460.24H16.07v-56.21h669.22l-267.23,462.27c26.98,3.28,60.99,10.13,97.23,24.16,17.31,6.73,35.2,15.11,53.01,25.53.62.37,1.33.75,1.95,1.16,14.99,8.88,29.89,19.18,44.46,31.22,3.69,3.07,7.43,6.19,11.08,9.55,6.73,5.98,13.33,12.37,19.84,19.22,3.2,3.32,6.85,7.31,10.75,11.87,33.5,38.57,89.51,119.77,88.14,229.83Z"/>
    <path class="b" d="m406.56,1931.44c-1.83.08-3.61.08-5.44.08-47.12,0-95.65-9.34-143.23-28.02-87.97-34.46-164.52-98.39-217.66-181.34l1.74-1.45,41.93-35.33c2.03,3.28,4.07,6.56,6.23,9.76,2.41,3.78,4.94,7.51,7.51,11.21,2.12,3.07,4.32,6.06,6.52,9.05.58.79,1.16,1.58,1.79,2.37,1.25,1.74,2.57,3.49,3.94,5.19,1.74,2.32,3.57,4.61,5.48,6.89,1.62,2.08,3.32,4.15,5.02,6.19,2.62,3.11,5.27,6.19,7.97,9.22v.04c2.74,3.07,5.52,6.1,8.34,9.05,2.78,2.99,5.6,5.94,8.55,8.8,3.82,3.86,7.76,7.64,11.75,11.33,13.99,12.87,28.77,24.7,44.21,35.41,6.6,4.57,13.37,8.93,20.26,13.08,2.28,1.41,4.57,2.74,6.89,4.07,6.93,4.03,13.99,7.8,21.17,11.33,9.55,4.73,19.26,9.01,29.18,12.91,2.78,1.08,5.6,2.16,8.39,3.16,1.2.42,2.37.87,3.49,1.29,1.16.37,2.32.79,3.49,1.16,1.29.46,2.57.91,3.86,1.33,1.29.42,2.57.79,3.82,1.2.58.21,1.16.42,1.74.58.58.17,1.16.33,1.74.54,1.16.37,2.32.71,3.49,1.04,1.74.5,3.45,1,5.15,1.49,1.41.42,2.86.79,4.32,1.16,6.85,1.83,13.74,3.4,20.59,4.77,1.7.33,3.4.71,5.11,1,.46.08.87.12,1.25.21,1.2.21,2.45.46,3.65.62.62.12,1.2.25,1.83.33.08.04.21.04.29.04.25.04.5.04.71.08,1.79.33,3.57.58,5.36.83,2.41.33,4.86.66,7.27.95,4.36.5,8.72.91,13.08,1.25.83.08,1.62.17,2.45.21.83.08,1.66.12,2.49.17h.17c.46.04.91.08,1.37.08h.04c.71.04,1.41.08,2.12.12-.71-.04-1.41-.04-2.12-.08,6.6,19.3,14.16,38.24,22.71,56.63Z"/>
    <path class="b" d="m444.83,1871.99c-.66.12-1.37.21-2.03.33.66-.08,1.41-.21,2.03-.29h.04c.17-.04.37-.04.54-.12-.21.04-.37.08-.58.08Zm525.91-752.79c-131.6,0-252.7,44.88-348.73,120.06.62.37,1.29.79,1.91,1.29,0,.04.04.04.04.04,7.51,4.86,14.86,10.13,22.09,15.82,3.61,2.82,7.18,5.77,10.71,8.84,1.79,1.54,3.53,3.07,5.27,4.65,1.74,1.58,3.49,3.2,5.19,4.82,1.2,1.08,2.37,2.16,3.53,3.28-1.16-1.12-2.32-2.24-3.49-3.32,84.77-62.77,189.72-100.05,303.48-100.05,13.08,0,26.07.5,38.94,1.49v-55.55c-12.87-.96-25.86-1.37-38.94-1.37Z"/>
    <path class="b" d="m1009.69,2179.04v53.39c-12.87.96-25.86,1.37-38.94,1.37-199.6,0-375.05-103.75-474.68-259.64-.04,0-.04-.04-.04-.04-10.09-15.82-19.43-32.26-27.94-49.11-8.59-17.19-16.36-34.79-23.21-52.97.17-.04.37-.04.54-.12-.21.04-.37.08-.58.08-8.22-21.75-15.11-44.17-20.51-67.17-9.71-40.85-14.82-83.45-14.82-127.29,0-107.9,31.18-208.78,85.06-294.18,4.15,2.45,8.18,5.02,12.12,7.72,1.41.91,2.82,1.87,4.19,2.91,1,.66,2.03,1.37,3.03,2.12.25.17.46.33.71.5,1.2.87,2.37,1.79,3.57,2.66,1.41,1.08,2.78,2.16,4.19,3.24,1.66,1.33,3.32,2.66,4.94,4.03.87.75,1.74,1.49,2.62,2.24,1.54,1.29,3.03,2.62,4.53,3.94,1.08.95,2.12,1.95,3.2,2.91-47.2,76.3-74.44,166.02-74.44,261.92,0,38.86,4.48,76.68,12.91,112.96,5.4,23.37,12.5,46.08,21.05,68.04,6.89,17.6,14.74,34.71,23.46,51.27,8.76,16.56,18.31,32.51,28.77,47.91,91.25,134.3,246.02,222.81,421.34,222.81,13.08,0,26.07-.5,38.94-1.49Z"/>
    <path class="d" d="m970.75,1063.44c-154.06,0-295.09,55.96-403.61,148.46,9.55,3.49,18.89,7.51,28.02,12.08,4.57,2.24,9.09,4.65,13.58,7.22,4.48,2.53,8.88,5.23,13.24,8.05h.04c.62.37,1.29.79,1.91,1.29,0,.04.04.04.04.04,95.48-74.64,215.96-119.23,346.78-119.23,13.08,0,26.07.46,38.94,1.37v-58.04c-12.87-.87-25.86-1.25-38.94-1.25Zm-527.95,808.88c.66-.08,1.41-.21,2.03-.29v-.04c-.66.12-1.37.21-2.03.33Zm-58.95,2.45v.04c.71.04,1.41.04,2.12.08-.71-.04-1.41-.08-2.12-.12Z"/>
    <path class="d" d="m1009.69,2232.43v58.04c-12.87.87-25.86,1.25-38.94,1.25-229.12,0-429.56-123.84-536.83-307.54-9.96-17.06-19.1-34.67-27.36-52.72-8.55-18.39-16.11-37.32-22.71-56.63.71.04,1.41.04,2.12.08-.71-.04-1.41-.08-2.12-.12h-.04c-7.56-22-13.82-44.55-18.85-67.59v-.04c-9.13-41.76-13.91-85.15-13.91-129.61,0-116.49,32.96-225.59,90.13-318.55,7.27,2.32,14.41,5.02,21.46,8.05,10.46,4.53,20.47,9.55,30.06,15.19.62.33,1.2.71,1.87,1.12-53.89,85.4-85.06,186.28-85.06,294.18,0,43.84,5.11,86.43,14.82,127.29,5.4,23,12.29,45.42,20.51,67.17-.66.12-1.37.21-2.03.33.66-.08,1.41-.21,2.03-.29h.04c6.85,18.18,14.61,35.79,23.21,52.97,8.51,16.86,17.85,33.3,27.94,49.11,0,0,0,.04.04.04,99.64,155.89,275.08,259.64,474.68,259.64,13.08,0,26.07-.42,38.94-1.37Z"/>
    <path class="e" d="m677.86,1284.93h-.04c2.49,2.53,4.98,5.11,7.47,7.76-2.45-2.66-4.94-5.23-7.43-7.76Zm-10.59-10.25s-.04.04-.04.04c1.2,1.08,2.37,2.16,3.53,3.28-1.16-1.12-2.32-2.24-3.49-3.32Zm-137.66,486.02h-.04v.04c.33,1.74.71,3.45,1.08,5.15-.37-1.7-.71-3.45-1.04-5.19Z"/>
    <path class="e" d="m1009.69,2120.96v58.08c-12.87,1-25.86,1.49-38.94,1.49-175.32,0-330.09-88.51-421.34-222.81-10.46-15.4-20.01-31.34-28.77-47.91-8.72-16.56-16.56-33.67-23.46-51.27-8.55-21.96-15.65-44.67-21.05-68.04-8.43-36.28-12.91-74.1-12.91-112.96,0-95.9,27.23-185.61,74.44-261.92,1.45,1.33,2.91,2.7,4.32,4.11,2.16,2.08,4.28,4.28,6.35,6.43,2.7,2.82,5.31,5.73,7.89,8.72,1.25,1.49,2.53,2.99,3.78,4.53,1.58,1.95,3.16,3.94,4.73,5.98,1.49,1.99,3.03,3.99,4.44,6.02.04.04.08.04.08.08.04.04.04.08.08.12,1,1.37,1.99,2.78,2.91,4.19,1.74,2.45,3.4,4.98,5.02,7.56v.04c-35.45,63.6-55.59,136.58-55.59,214.13,0,28.4,2.7,56.17,7.93,83.11v.04h-.04v.04c.33,1.74.71,3.45,1.08,5.15.46,2.2.87,4.4,1.37,6.6.12.66.25,1.33.42,1.99.21.75.37,1.49.54,2.24.12.58.29,1.16.42,1.7.04.21.08.37.12.58.17.75.37,1.54.54,2.28.08.46.21.87.33,1.29.08.29.12.62.21.91.33,1.54.71,3.07,1.12,4.61.58,2.24,1.2,4.53,1.83,6.77.54,1.99,1.08,3.94,1.66,5.9.21.83.46,1.66.75,2.49.29,1.12.62,2.2,1,3.28.12.58.33,1.12.5,1.7.17.5.33,1.04.5,1.54.54,1.74,1.08,3.4,1.62,5.11,1.95,5.85,3.99,11.67,6.14,17.44,6.64,17.77,14.45,35,23.33,51.73v.04c8.93,16.81,18.93,33.09,29.93,48.61,81.25,114.79,215.84,189.97,367.78,189.97,13.12,0,26.11-.54,38.94-1.7Z"/>
  </g>
  <path class="e" d="m1009.69,1176.12v58.12c-12.83-1.12-25.82-1.66-38.94-1.66-98.56,0-189.81,31.63-263.95,85.23-6.97-8.84-14.11-17.23-21.5-25.12-2.45-2.66-4.94-5.23-7.43-7.76h-.04c-1.74-1.74-3.49-3.49-5.23-5.19-.58-.62-1.2-1.2-1.83-1.74-1.16-1.12-2.32-2.24-3.49-3.32,84.77-62.77,189.72-100.05,303.48-100.05,13.08,0,26.07.5,38.94,1.49Z"/>
  <g>
    <rect class="b" x="1107.73" y="11.22" width="1118.48" height="1108.5"/>
    <rect class="b" x="1102.94" y="1171.7" width="540.27" height="535.45"/>
    <rect class="b" x="1687.93" y="1171.7" width="540.27" height="535.45"/>
    <rect class="b" x="1102.94" y="1756.27" width="540.27" height="535.45"/>
    <rect class="b" x="1687.93" y="1756.27" width="540.27" height="535.45"/>
    <path class="c" d="m1096.51,1165.32v548.21h553.13v-548.21h-553.13Zm412.62,303.86c0,112.35-59.77,158.01-139.72,158.01-75.65,0-132.65-42.31-132.65-156.4v-215.63h48.27v217.22c0,81.46,36.68,116.31,86.03,116.31,54.21,0,89.84-35.88,89.84-116.31v-217.22h48.22v214.02Z"/>
    <path class="c" d="m1683.71,1165.32v548.21h553.09v-548.21h-553.09Zm415.31,457.21h-48.23l-117.27-185.73c-25.72-40.78-50.34-82.61-68.48-122.19l-1.69.52c2.82,46.18,3.35,90.09,3.35,150.95v156.45h-45.02v-366.08h52.64l117.82,185.21c26.91,42.86,48.73,80.89,65.72,118.9l1.69-.48c-4.37-48.9-5.45-93.42-5.45-149.92v-153.71h44.92v366.08Z"/>
    <path class="c" d="m1951.19,1874.14c-20.8,0-36.68,2.18-44.87,3.81v142.25c10.34,2.73,24.07,3.79,39.42,3.79,58.09,0,92.63-28.22,92.63-77.62s-34.53-72.24-87.18-72.24Z"/>
    <path class="c" d="m1683.71,1747.12v548.2h553.09v-548.2h-553.09Zm373.82,272.57c-25.2,26.51-66.29,40.13-112.84,40.13-14.3,0-27.42-.52-38.37-3.22v146.61h-47.72v-361.13c23.05-4.36,53.17-7.63,91.51-7.63,47.19,0,81.66,10.87,103.59,30.4,20.26,17.37,32.85,43.95,32.85,76.6s-9.82,59.16-29.02,78.24Z"/>
    <path class="c" d="m1337.46,1871.49c-24.63,0-43.25,2.13-55.86,4.86v289.46c11.97,2.16,29.5,2.16,48.19,2.16,101.91.55,157.28-56.46,157.28-155.33.56-87.4-48.81-141.14-149.61-141.14Z"/>
    <path class="c" d="m1095.96,1747.66v548.2h553.11v-548.2h-553.11Zm388.38,405.65c-35.11,34.24-92.09,52.67-163.86,52.67-34.52,0-62.48-1.07-87.15-4.31v-360.06c29.63-4.43,64.14-7.66,101.94-7.66,68.51,0,117.25,15.24,149.66,45.06,33.35,29.93,52.54,72.81,52.54,132s-19.19,108.66-53.12,142.3Z"/>
    <path class="c" d="m1789.83,407.04l-.72,1.81c-14,14.46-29.37,29.39-42.76,44.16.91,1.81,2.45,3.47,4.12,4.38.6-3.62,2.55-6.79,2.88-10.55,3.64-4.98,9.13-1.81,13.86-.75,7.29-1.67,14.12,1.65,21.57,1.51,5.5,2.7,5.95,9.64,10.97,12.36,1.35,1.96.32,4.23-1.54,5.73,1.54,11.3,7-3.03,12.81-.3,2.4.9,5.46.6,7.27,3.16.9,4.68,6.7,3.78,7.01,8.29-.46,2.26-2.89,2.86-4.44,4.07,1.37,4.53-4.72,7.37-2.57,12.21,8.82,1.66,9.12-8.44,13.22-12.96-2.29-7.83-3.94-15.82-8.5-22.76-5.04-1.06-8.07-6.94-13.07-8-9.75-3.77,1.5-9.8.29-15.53-5.16-9.64-13.37-18.25-20.41-26.83Z"/>
    <path class="c" d="m1846.77,567.28c-6.41,20.18-13.87,39.94-26.65,57.57-5.02,6.33-9.89,15.08-16.45,18.39l13.85,12.07c.78-.75.34-1.96.46-3.02,0-1.8.91-3.91,3.21-3.61,6.69-.15,6.84,6.93,10.62,10.54-.75,5.74,4.27,10.26,2.6,15.54,38.32-40.1,57.49-89.24,60.99-143.66l2.1-2.42c-13.65,1.37-28.1.46-42.26.61l-3.34-1.07c.92,9.21-1.55,18.1-2.14,27.15l5.02,5.41c1.37,2.12.91,5.27-1.07,6.94-2.11,1.35-4.85,1.2-6.96-.45Z"/>
    <path class="c" d="m1793.51,710.63l2.14-2.87c9.14-7.07,19.01-13.71,27.07-22.45h1.06c-1.82-.61-4.1,1.2-6.25.28-4.25-1.95-5-5.71-5-10.1l-18.72-19.14-1.05-2.87c-1.38,3.62-4.1,5.87-6.86,8.6.19,2.4-.74,6.02,2.15,7.68,6.06,1.96,13.99,5.88,15.33,12.95-2.42,6.63-15.21,12.68-7.3,19.92,2.6,3.6-3.62,4.96-2.57,7.98Z"/>
    <path class="c" d="m1684.31,631.04c3.95.76,1.2,4.98,4.08,6.48,6.25-1.96,11,5.26,16,.76-.3-7.09,7.77-6.47,12.15-8.3,6.85-4.06,14.62-9.49,13.85-18.54l-1.05-1.34c-4.72,0-7.15,3.61-10.65,6.47-4.25,2.42-6.4-4.51-9.89-2.86.15.75.91,1.06,1.54,1.36.9,1.05,1.2,3.33,0,4.37-5.2,4.68-7.61-2.27-12.49-1.81v1.81c.16,1.05-.29,2.71-1.84,2.11-3.04-4.98-9.27-3.16-12.32-7.54-1.97-1.05-3.8.31-5.17,1.51-1.03,2.26-5.9-.3-4.72,3.62-3.78,1.36-4.22,5.42-6.97,7.85-4.7-.76-6.82,4.52-11.27,4.37.47.91,0,2.41,1.39,2.56,2.74,1.21,5.46,1.5,8.82,1.07,4.56-7.24,12.17-1.21,18.56-3.93Z"/>
    <path class="c" d="m1656.92,764.89l1.52-2.27-4.71,1.21c-59.32-4.06-111.81-24.85-155.14-66.33l-.44,1.82-31.35,31.2c47.45,40.69,100.99,66.94,162.14,75.2,9.74,1.67,20.83.76,30.26,3.64l-2.27-3.64v-40.83Z"/>
    <path class="c" d="m1684.76,465.98c3.5,1.96,5.46-1.65,8.36-2.41,4.29.45,7.59,4.07,10.21,6.78,2.7,1.21,5.3-.45,7.75-1.35,1.69-12.52,17.5-10.71,22.2-22.47l-2.9,1.07c-1.2-1.67-4.25-.91-4.07-3.63,2.56-2.4,5.91-6.17,9.1-7.23-13.67-8.44-27.83-15.67-43.34-19.59-6.07-1.37-12.47-1.52-18.27-3.62,2.91,8.6.33,21.26,2.17,31.2l10.92,3.62c3.23-5.28,10.2-6.33,13.22-11.31,2.02-1.66,4.27,0,5.8,1.81.45,4.08-.61,8.14-1.82,12.06-4.1,8.14-13.86,9.19-19.32,15.08Z"/>
    <path class="c" d="m1782.56,618.37c.61,4.99-5.47,7.25-4.7,12.23-1.99,2.24-5.32,2.55-8.37,2.55-12.01-4.53-24.66-7.39-38.03-8.6-1.21.45-1.97,1.52-1.8,2.87,5.46,2.86,12.15,3,17.94,5.42,5.14,1.36,8.66,7.69,15.21,5.74,5.46-3.02,14.59,1.8,18.24-3.93-.6-5.57,4.25-9.66,6.7-14.46l1.83-.45c3.05,3.17,2.9,7.83,4.25,11.3,4.26-4.52,7.62-9.5,11.41-14.17,10.02-14.49,18.56-29.99,22.21-46.59-4.1.16-8.22.91-12.01,2.11-4.39-.3-9.74,2.26-13.52-.75-1.39-1.2-2.29.61-2.14,1.82-1.54,2.25-3.05,5.12-6.54,4.08-2.77-1.21-2.77-4.08-3.66-6.19.15,1.67-.45,3.16-.78,4.67-3.19,3.31-4.25,6.49-6.52,10.11-3.2,3.46-8.37,2.24-11.7,5.11-.62,7.23-8.69,5.72-13.24,8-.34.9.75,1.05,1.2,1.8,2.12.6,5.02.6,6.52-1.49,6.41,1.65,5.06-6.34,8.69-9.05,3.2-.46,6.25-3.17,9.59-1.05,3.34,4.06,4.11,9.93,3.61,15.22-3.61,3.62-1.77,9.51-4.37,13.71Z"/>
    <path class="c" d="m1712.15,602.85c3.65-3.77,11.37-3.61,11.7-9.04-5.32-.76-8.05,2.1-11.7,4.97-.47,1.19-2.15,3.31,0,4.06Z"/>
    <path class="c" d="m1674.57,748.62c11.24-3.76,24.31-3.16,36.51-5.12-2.45-.92-4.87-1.52-6.7-3.92-7.15-.45-10.5-7.83-12.77-13.43-1.06-4.06,1.65-7.36,3.35-10.84-3.03-6.18-12.48-1.66-17.97-3.91-1.51-1.22-2.57-3.03-4.7-3.32l2.29,3.32c0,12.36,1.51,25.01,0,37.22Z"/>
    <path class="c" d="m1835.49,694.35c-4.26,8.31-13.69,13.57-20.83,19.89-9.87,9.81-26,11.9-31.02,26.09-5.31,4.81-7.15,12.36-14.6,15.07-2.74,7.23-10.51,6.79-14.93,12.06-12.76,11.29-20.97-7.23-32.52-9.51l-23.3,4.07c-8.06,0-16.1,2.87-23.71.31,1.06,15.37,1.06,31.95,0,47.33l2.91-1.82c73.3-3.15,136.55-30.73,190.86-79.59l-32.1-30.3-.76-3.61Z"/>
    <path class="c" d="m1808.88,527.18l4.73,4.66c4.7,3.17,1.5,9.96,6.52,12.67,5.92,3.03,8.05,9.8,10.65,14.92.92-1.35.92-3.01,1.37-4.37,2.12-8.28,1.8-17.63,4.4-25.77-9.12.46-19.62,1.37-27.67-2.11Z"/>
    <path class="c" d="m1722.32,364.09c-15.36-5.43-32.21-7.69-48.97-10.26l1.51,3.32-.29,40.85,3.94-.76c25.27,3.47,48.37,11.46,68.32,27.59l1.05,3.16c6.85-9.51,17.17-17.65,25.25-26.69l7.62-4.38-3.66-1.5c-16.74-13.87-34.98-24.43-54.77-31.35Z"/>
    <path class="c" d="m1650.39,627.42c1.08-4.06-.61-9.2,1.53-12.66,1.52-3.33,5.62-3.17,8.66-2.56,1.81-.15,2.91-2.42,1.81-3.92-4.4-.9-2.4-5.73-3.94-8.44.14-1.51,2.74-1.21,2.12-3.18-3.04-2.41,1.54-5.12-1.06-7.69.73-.49,1.31-1.36,2.05-1.91-9.21,3.84-19.02-1.71-27.15-5.31-3.95-2.27-9.72-4.53-10.65-9.35-6.55,10.57-19.01,20.2-28.15,30,16.29,13.25,34.53,21.56,54.77,25.03Z"/>
    <path class="c" d="m1439.44,532.3l3.32,27.74c1.39,10.71,6.11,20.95,5.78,31.5,1.7-2.27.62-6.77,4.73-7.23-1.68-3.32,3.19-6.17.46-9.04,1.35-7.23,2.27-14.62,8.67-19.89,7.76-.32,8.36-10.42,16.1-10.87,3.96-.15,6.39,5.13,8.08,6.93-4.89-5.87-4.58-15.52-3.36-22.15l-3.36,1.51c-14.11-.32-28.9.89-42.28-1.05l1.84,2.55Z"/>
    <path class="c" d="m1614.34,562.3l-5.17-2.56c-.9,3.77-3.5,7.09-6.25,9.8l.47.3c3.65-2.56,6.24-7.25,10.95-7.54Z"/>
    <path class="c" d="m1489.01,686.66c-5.17-3.62-9.74-9.51-14.15-14.49-5.01-1.34-10.19-4.81-12.79-9.62-1.51-1.67-.13-4.68-1.83-5.89l-1.83,2.26c-5.29,2.58-7.29-2.86-10.93-5.13-4.74-2.56-2.44-11.46-8.83-9.79-2.43-.15-3.2-2.86-4.72-4.37-5.93.6-7.42-5.88-10.64-9.04-.61,1.34,0,3.15-1.83,4.06-6.08,1.36-8.21-6.03-12.31-9.04-1.08.45-1.82,1.65-3.36,1.36-3.64-3.18-6.07-7.69-6.24-12.66-5.01-5.59-2.74-14.47-1.81-21.26.91-1.81,3.49-2.86,3.04-5.13,1.37-3.15,4.72-3.46,7.91-3.62,1.22.6,2.44,1.82,3.06,2.86,1.96-1.21,6.38.16,4.71-4.2,2.59-2.27,6.39-3.03,9.89-3.64,2.42,3.03,3.64,6.49,6.84,9.35l-2.12-3.3c-3.67-14.78-6.54-29.86-7.29-45.84.14-.9-1.99-1.34-.78-2.26l.31.46c.15-3.32-.16-6.19.47-8.45l-4.12,1.51-42.28-.32c2.44,48.25,15.36,92.1,37.26,132.37,10.81,19.87,26.62,37.82,40.45,56.37l30.28-31.05,3.65-1.52Z"/>
    <path class="c" d="m1653.29,706.26c-36.97-1.82-69.37-15.22-98.1-36.48.91,3.61,5.76,5.88,4.41,10.41-2.6,4.07-7.92,4.21-12.19,4.07-8.66-1.37-15.05,5.11-23.27,6.03-7.45,2.26-10.02-6.78-16.87-6.03,42.28,36.61,90.65,59.54,147.22,62.53l4.27,2.88-1.84-5.12v-39.82l-3.64,1.52Z"/>
    <path class="c" d="m1537.69,334.68c-9.44,6.49-18.12,14.92-27.83,20.66,11.25,7.08,20.52,18.84,30.7,28.18l1.07,2.88c25.86-24.58,57.33-38.91,91.28-45.82,8.05-.77,16.11-3.48,24.01-1.82-.6-14.33-1.84-29.25-.31-43.42-44.09,2.58-83.64,15.84-118.92,39.35Z"/>
    <path class="c" d="m1579.97,555.38c-1.53-.77-1.69-.6-2.9.74-.75,0-1.67.15-2.26-.3,0-8.58-9.74-3.46-13.4-7.98,4.29,7.83,6.54,16.72,10.95,24.56,2.74,6.94,8.81,12.38,11.56,19.15,2.9-5.41,8.67-9.8,12.8-14.77.26-2.26-.15-4.22-1.37-5.88-1.4-3.15-.18-7.67-2.61-10.39-3.94,1.35,1.39,5.28-.3,7.54-1.67,1.05-3.49-.3-3.64-1.82-3.51-.6-6.26-3.62-7.31-6.79,2.89-1.81-.75-2.57-1.51-4.05Z"/>
    <path class="c" d="m1501.49,492.05c-1.68,7.23-.76,15.68-3.66,22.46,5.31-2.41,13.09-1.51,19.02-.75-3.49-1.81-.61-6.19-2.6-8.6-.44-3.77-1.06-8.44,2.6-10.85-.46-6.19,6.21-9.35,6.86-14.93,1.66-6.32,8.95-2.1,12.46-5.42,2.28-1.21.29-3.31.29-4.97,3.04-4.07,7.76-3.93,11.4-6.19,2.59-3.93,5.93-8.14,10.2-10.56,9.12.32,9.28-12.36,17.94-12.65-11.86-8.89-23.1-20.8-33.62-31.05-20.97,24.87-35.27,52.31-40.9,83.51Z"/>
    <path class="c" d="m1498.59,368l-16.42,20.65c-26.92,36.64-39.71,78.99-43.51,125.11l41.68-.76,3.96,1.51c-1.68-1.05-1.22-2.86-1.83-4.36,3.35-42.96,18.55-81.26,48.52-113.22-11.55-9.95-22.36-20.48-32.11-31.8l-.29,2.87Z"/>
    <path class="c" d="m1507.27,553.27c.46-2.73-3.65-3.47-3.2-6.19,2.9-5.57.15-14.62,7.62-17.04-5.32.92-10.05,1.97-14.62-1.36l2.3,3.62c.28,9.95,4.26,19.45,2.13,29.54,1.65-2.86,2.13-6.78,5.78-8.58Z"/>
    <path class="c" d="m1523.06,530.04l-1.2,8c-1.84,4.67-7.74,1.2-10.5,4.37-1.97,3.02.16,6.18,1.83,8.58-4.26,9.66,9.57,12.68,9.46,21.4,4.24,5.43-.62,13.28,5.46,18.1,1.35,9.79-1.36,23.06,7.31,30.74l1.53,9.36c1.81,6.47-7.77,4.8-6.56,10.54,1.83-.91,2.28,1.51,2.45,2.1v-.29c11.71-13.42,25.25-27.59,39.1-39.5l-5.79-5.73c-10.81-15.98-19.33-33.01-23.42-51.7l-4.43-2.26c-.16,4.83-2.44,8.6-2.11,13.41l-1.53,1.81c-3.19-.15-5.18-2.71-7.89-4.38-.62-1.65-2.31-4.38.29-5.72,1.54-.14,2.59.29,3.64,1.05,1.37-1.66.77-4.06,1.53-6.17.46-3.61-2.74-6.94-.47-10.1,2.91-.3,5.04,3.16,6.26,5.12,2.89.9,5.17-1.51,7.61-2.56,0-2.56,3.64-6.02-.33-7.54,2.14-5.87.63-12.05-.29-17.78-1.66-4.98-7.28-4.07-11.39-3.62-12.32,3.93,1.97,13.12-1.08,20.67-1.67,4.36-6.23.28-9.44,2.09Z"/>
    <path class="c" d="m1627.11,649.89c3.36-3.57,7.22-5.88,11.4-7.39-13.47,2.7-25.45-6.93-36.95-12.22-6.56-4.83-15.06-8.74-19.04-15.97-8.95,10.85-19.6,22.17-30.24,30.75,4.71.29,7.31,5.43,11.23,7.68,22.82,18.85,51.27,27.9,77.74,34.37l-7.32-3.31c-5.46-6.19-13.22-13.42-13.52-22.01,5.48-1.82,4.85-7.84,6.7-11.9Z"/>
    <path class="c" d="m1840.21,354.28c3.19.76,4.11,4.53,6.24,6.8,11.11,5.87,14,17.63,23.72,24.27,5.45,11.31,18.1,20.03,18.56,32.99,13.22,28.96,22.2,59.56,23.1,93.63l-1.21,1.81c1.39,0,2.62-.6,3.64-1.36l43.81-.76c-2.89-4.22-1.66-10.4-2.4-15.53-5.8-67.07-34.7-124.51-80.04-175.15-8.34,11.15-19.75,21.55-30.23,32.26l-5.17,1.05Z"/>
    <path class="c" d="m1424.08,514.22l-1.08-5.88c2.91-48.09,18.4-90.9,45.64-129.18,6.83-7.69,11.83-17.34,20.37-23.06-9.89-9.2-20.21-19.91-30.59-30.01l-1.05-4.07c-43.35,47.79-70.12,102.36-77.86,164.62-1.69,9.04-.61,18.39-2.45,27.59,15.22-1.21,31.8-1.21,47.02,0Z"/>
    <path class="c" d="m1500.73,344.77l.76-2.09c44.41-40.1,96.1-62.12,155.43-64.83l-1.39-3.61-.45-36.18,1.24-4.22c-61.15,2.41-115.45,23.07-163.64,57.44-9.29,6.32-17.51,15.97-26.92,21.4h1.35c12,8.73,23.43,21.25,33.61,32.09Z"/>
    <path class="c" d="m1656.92,414.73c-24.47,3.16-47.01,11.45-64.93,30.3h3.35c3.62,3.62,9.57,2.86,12.32,7.69,1.36,2.71-2.61,2.4-2.45,4.67.76.59,1.83.75,2.45,1.8,2.86,1.06,2.25-1.65,3.31-2.86,3.81-3.77,4.44,3.62,8.07,3.62,2.59-1.66,6.21-1.81,8.06,1.05,2.42-2.12,7.6-.15,8.36-4.06,4.72-4.98,2.14-12.66,9.14-15.84,2.42,1.36-.15,3.62.76,5.74,4.7,1.96,10.04-3.91,13.82.76-3.46-9.81-2.59-22.01-2.27-32.86Z"/>
    <path class="c" d="m1096.52,0v1130.93h1140.89V0h-1140.89Zm978.84,588.97c-15.97,22.47-35.31,43.43-50.06,66.34,1.66-18.1,3.82-40.39-3.35-57.59-12.3-36.93-23.11-74.46-26.6-115.01l.44-15.53c9.29,41.45,50.36,69.95,47.76,116.39.92,11.28-2.6,20.79-4.7,30.74l.75.74,1.82-2.1c6.1-22.76,9.14-46.74,18.57-67.99,13.52-30.6,30.25-61.5,23.42-98.43,20.52,43.57,14.29,101.75-8.06,142.44Zm-25.26-234.69c26.92,36.18,32.85,93.76,13.22,135.22-7.3,17.63-12.47,36.33-15.36,55.78-1.36-3.31-1.66-7.83-2.86-11.61-10.67-40.55-49.47-69.48-65.42-107.79-5.02-12.51-9.27-25.46-11.72-39.04,17.05,31.21,59.01,47.34,70.43,81.7,4.71,8.75,4.4,19.59,7.3,28.94.61,0,1.22-.45,1.22-1.05-5.04-35.43-3.51-72.51,1.35-107.48-.3-18.99-2.11-37.38-12.77-52.01,6.86,3.93,9.9,11.46,14.61,17.34Zm-19-6.93c7.16,31.65-3.2,62.57,3.32,94.51l-.3.3c-17.37-33.91-54.29-49.89-79.69-77.03-14.75-16.13-21.15-35.72-24.8-56.52,14.6,34.81,53.83,42.5,76.35,71.74,7.62,6.78,10.05,16.14,14.91,23.82l.75-.75c-12.94-27.43-17.32-58.34-26.3-87.58-4.57-12.66-13.55-25.17-25.57-33.15,29.52,6.01,55.22,36.61,61.32,64.65Zm-79.12-72.65c22.35,19.74,32.4,45.37,38.93,71.88l3.67,8.45c-32.41-23.06-61.75-54.11-82.44-86.82l-25.26-25.32c22.22,9.34,46.1,14.91,65.09,31.8Zm-423.13-24.58c42.14-20.66,88.23-31.65,138.4-32.56,114.7.14,224.18,66.93,274.09,172.14,31.63,60.45,40.63,143.66,20.07,211.93-20.82,80.65-89.28,162.19-168.97,195.36-89.74,43.57-217.22,32.7-297.22-24.13-111.17-75.52-156.66-205.59-123.03-334.02,20.37-76.29,81.66-153.31,156.65-188.73Zm-87.9-3.02c-22.37,19.43-37.88,44.02-54.47,66.93-14.89,18.24-33.9,30.29-50.78,45.99,9.12-18.7,9.42-41.02,22.35-58.19,18.4-31.81,52.47-42.96,82.9-54.72Zm-122.3,67.68c10.81-13.4,24.64-22.76,40.16-26.67-30.1,20.5-28.14,57.28-37.71,87.87-3.04,11.31-8.36,21.71-10.97,33.32l.79.6c5-13.12,13.82-25.47,24.79-36.18,21.43-19.59,53.08-31.8,63.56-60.74-.46,40.25-34.36,71.91-66.77,94.52-13.39,11.61-26.3,24.87-33.6,39.8-.77-10.11,1.52-20.36.75-31.2-3.5-35.13-6.08-75.23,19.01-101.31Zm-60.98,120.15c-.91-35.58,14-64.68,34.97-91.2.62-.3,1.08-.91,1.84-.76-23.12,34.84-3.96,78.69-5.04,118.34l-3.05,40.55c.46.3.46,1.51,1.52,1.05,1.37-4.51,1.69-9.34,2.6-14.02,5.46-32.7,34.08-55.91,59.16-78.54,5.31-5.87,10.03-11.9,12.76-18.83-1.98,16.29-7.15,32.71-13.97,47.78-19.49,37.69-55.54,68.59-62.08,111.7-3.19-41.29-31.63-72.2-28.73-116.06Zm-17.49,50.64c2.58-11.14,4.55-22.61,9.44-32.86-9.29,47.03,22.67,80.95,33.16,121.8,4.39,15.23,5.46,31.65,11.71,45.97.59.3,1.07-.29,1.5-.74-15.65-43.42,6.86-83.67,29.5-117.59,5.49-9.19,8.69-19.44,11.42-29.99,2.42,19.6-2.57,42.21-5.47,62.57-5.49,25.92-13.7,50.49-20.85,75.66-4.71,15.68-3.49,33.46-1.06,49.9l-2.28-1.81c-16.59-30.3-49.44-53.96-59.17-87.13-8.04-26.38-13.38-56.98-7.9-85.78Zm-1.53,91.97c3.66,49.89,57.79,76.26,82.9,117.58,5.94,8.44,11.1,17.78,19,24.86-1.22-5.28-6.22-9.8-8.07-15.24-8.8-17.32-11.99-37.98-9.86-58.92,2.43-25.47,13.22-49.15,9.11-75.96,22.07,47.17,15.37,105.95,27.69,157.05,3.18,11.16,9.73,21.11,13.99,31.8-45.31-30.6-107.07-59.68-127.15-115.75-8.51-19.31-9.45-43.25-7.61-65.42Zm27.07,114.55c25.26,56.66,88.51,61.36,130.98,95.87,7.74,6.78,15.94,12.66,24.77,16.73l.46-.45c-9.75-8.75-21-18.7-27.85-30.01-24.79-34.2-16.11-82.15-34.66-118.92,16.89,20.05,32.24,40.83,42.43,63.6,15.22,37.09,21,79.01,56.12,107.04-38.03-12.36-82.58-8.9-116.05-32.12-36.65-22.31-69.36-60.13-76.2-101.74Zm64.95,105.68c40.45,45.66,106.62,30.44,160.61,42.34,7.6,1.07,14.6,4.08,22.67,2.87-6.4-4.07-15.36-3.61-22.35-7.24-42.29-14.77-48.53-60.13-71.5-90.72,29.35,19.29,54,45.37,81.06,70.53,19.48,16.89,42.88,24.73,67.54,29.7-5.94,2.11-13.7,1.5-20.08,3.17-44.26,10.84-93.55,28.49-140.55,12.66-30.56-9.5-62.05-33.47-77.41-63.31Zm549.69,106.42c-45.64,16.88-93.24-.76-128.85-27.58-14.45-9.05-27.22-22.16-45.92-20.96-6.72-.15-13.25.15-19.04,1.8,34.68,15.99,66.78,37.98,96.29,66.18-5,5.59-11.4,10.86-17.48,15.67-28.3-30.29-59.77-59.39-94.91-76.41-6.85.89-13.4,4.97-19.62,8.29-28.6,17.94-56.89,40.99-78.17,69.18l-18.26-14.93c29.21-29.24,61.45-51.99,96.75-68.27-34.67-10.86-57.34,17.94-83.66,32.56-30.72,21.24-74.82,31.22-111.93,16.58-19.95-7.53-39.26-18.55-53.71-36.47,29.21,19.89,72.71,22.01,105.86,9.04,44.57-19.16,90.79-43.41,144.5-31.81,8.35.15,16.56,8.44,24.47,1.36,39.83-10.26,85.03-3.17,119.38,14.91l35.45,14.03c32.87,12.05,75.43,8.75,103.59-11.16-14.45,17.94-34.21,30.75-54.74,37.99Zm48.96-46.74c-51.26,19.16-102.81-4.37-151.94-12.2l-9.42-1.21v-.29c23.42-5.27,46.24-12.22,64.94-28.95,27.55-26.23,52.02-53.21,82.59-73.87-22.67,28.81-25.07,69.79-62.52,88.33-9.26,6.03-21,7.09-30.55,11.62,13.67.3,26.12-4.53,39.67-5.88,50.19-7.83,107.69.16,142.83-42.21-13.07,29.53-45.78,54.27-75.6,64.66Zm28.43-51.72c-26.15,6.96-54.12,9.2-79.54,17.79,43.04-36.62,40.62-93.29,69.37-136.4,9.15-12.21,16.72-25.02,27.36-36.62-17.46,34.82-9.89,79.88-29.93,113.64-7.77,13.42-18.87,26.39-31.05,36.94,3.97-.15,7.47-3.6,10.95-5.87,32.7-32.28,75.29-41.32,110.57-67.53,14.16-11.16,27.08-25.78,33.31-41.61-6.7,53.51-60.38,103.71-111.04,119.66Zm64.67-91.19c-20.25,13.13-40.79,25.33-60.24,40.24v-1.8c29.82-49.15,15.2-116.52,33.61-170.48l6.84-18.1c-3.79,33.63,10.99,62.12,9.9,95.88-1.07,20.35-7.75,38.43-18.55,54.71h1.81c14.61-18.98,26.01-39.2,43.06-57.28,26.46-25.32,53.39-51.25,56.89-86.37,8.94,58.63-24.22,110.03-73.32,143.19Z"/>
    <path class="c" d="m1912.92,529.29l-2.6-1.83,1.51,4.08c-2.42,50.2-19.31,94.52-48.21,133.86-5.62,6.64-10.94,14.78-17.95,19.45,11.56,9.04,24.37,22.61,33.92,33.02l1.22-2.27c46.52-52.61,73-113.51,75.92-184.06l1.8-3.6-2.29,1.05-43.33.3Z"/>
    <path class="c" d="m1654.81,355.03c-38.63,2.71-72.12,18.69-101.47,42.66,11.58,7.99,21.89,20.8,32.4,30,.76-1.05,1.52-2.12,2.3-3.32,14.45-10.25,29.35-19.58,46.37-23.82,7.6-.74,15.05-4.37,22.97-2.56-1.65-14.17-1.65-29.85,0-44.47l-2.58,1.51Z"/>
    <path class="c" d="m1673.78,273.94c0-1.34.62-2.56,1.4-3.61,2.13-1.21,3.93.6,4.85,2.11.15,2.1,1.07,5.73-.72,6.93,1.8.3,2.71-1.05,4.37-1.05,34.85,2.56,67.1,12.65,96,28.94v-.76c5.91-2.87,13.54-6.63,19.6-1.5,7.32-2.71,8.67,6.18,14.61,7.23,7.16,4.22,15.21,12.07,16.12,20.35,1.36,2.73,5.61,4.67,6.24,7.54,4.88-10.25,14.6-17.5,22.97-26.38l5.17-2.11c-45.92-43.41-100.53-67.37-161.38-75.67-9.76-1.67-20.38-.76-29.67-3.62,1.84,11.92,1.39,28.19.44,41.6Zm136.91,20.19c3.04.91,5.8,2.27,6.84,5.44-.76,3.44,3.2,6.33.78,9.04-8.2,2.11-8.96-7.1-15.36-9.36-.91-1.21-1.21-2.71-1.05-4.35,2.89-3.48,5.61,2.25,8.8-.77Zm-130.66-27.41c1.22-2.43,4.73-1.52,6.54-.77l21.91-9.35c8.82.76,18.57,1.81,23.73,9.04v1.08c-5.46,4.5-12.46,8.13-19.77,5.1-10.04,1.96-24.06,7.7-32.11-2.55-.3-.75-1.22-1.8-.3-2.55Z"/>
    <path class="c" d="m1673.78,338.76c5.8-1.96,11.72.45,17.52.61,29.81,4.82,57.94,14.33,81.81,32.55-2.86-3.01-6.37-6.48-7-10.84.47-.6,1.09-.76,1.84-.6.3-4.69-4.71-7.09-5.48-11.32.76-.89,1.84-1.8,3.34-1.36,5.17,4.83,9.59,10.1,13.39,15.53,3.35-1.36,6.07.76,8.52,2.56,4.42,2.57,1.67,8.15,5.03,11.17.61,8.89,11.55,13.86,10.92,22.76.17,2.1,2.75.45,3.67,1.5l9.14,11.16c-1.69,2.11-.34,4.68,1.5,6.19,4.11,1.8,6.41-3.32,10.51-2.56,5.93,3.32-.91,7.22-.32,10.84,2.29.15,5.17-1.8,6.99.46.76,3.31-2.7,5.42-4.09,7.53,0,3.31,2.72,2.56,5.17,3.31,2.74-.15,4.4,3.16,3.65,5.42,7.61,7.84-2.26,16.28,1.37,24.58,2.44,5.43-.63,10.69-3.95,14.77.14,6.63-5.95,10.7-8.37,16.27l-7.75,1.5c-4.1,4.08,3.47,9.07-.61,11.63l17.05.3-1.84-1.81c-2.45-6.65-1.85-15.53,2.28-21.4,2.57-5.43,3.2-11.91,8.07-16.58,1.05-.29,3.03-2.26,3.95,0,.28,5.11-.16,11-2.59,15.52,4.86,6.94,4.26,15.99,4.72,24.58,15.05-.9,29.8-1.21,44.54-1.05l-1.36-2.86c-2.3-27.9-8.06-54.28-19.8-78.09-3.16.14-5.45,2.71-9.1,1.8-1.22-.45-1.97-1.66-1.84-3.02-6.09-5.72-9.87-13.27-16.74-18.38-7.74.75-11.25-8.14-18.25-9.05-6.22-2.56-1.96-12.51-10.95-9.8-4.4-1.8-8.65-5.12-9.57-10.09,0-7.85-1.53-16.3-8.67-21.4-5.47-1.96-7.75,5.27-13.22,4.06-3.05-1.5-1.69-5.43-2.61-7.99-1.04-2.26-3.64-3.92-3.16-6.93,7.15-9.34-8.65-9.2-5.2-18.39-.9-6.64-7.74-9.2-11.26-14.47-23.55-10.55-47.12-17.78-73.74-20.95-6.55-.89-12.62.45-18.27-2.56l1.54,2.86c-.31,14.03.61,28.94-.79,42.06Z"/>
    <path class="c" d="m1658.45,482.27c-4.56,7.53-12.19,9.19-19.31,11.3-1.99,2.43-1.52,7.69-6.22,7.24-1.54,3.31-6.72,5.27-4.72,10.1-2.45,5.13-1.22,11.77-2.6,17.33-8.97,5.59-6.37-7.38-10.95-10.1l-1.51,2.56c-1.81.45-3.04-.61-4.24-1.81-1.4-.46-3.67-.9-4.87.31-2,3.31-5.05,6.02-4.27,10.55-.93,2.71-5.49,1.8-4.88,4.67,5.01-.15,10.5-1.06,15.35-2.12,3.53.91,6.4-1.64,9.9-1.81,1.22.61,2.59,1.81,2.12,3.63h1.22c2.42-1.81,3.5-4.53,2.42-7.24.3-3.16,3.81-3.16,5.95-4.06,1.97.91.75,2.86,1.07,4.37,6.82,2.57-1.68,7.54-2.6,11.15-1.84,2.87,0,9.35-5.77,8.45-1.07-.31-1.84-1.36-1.52-2.58h-.77c-.15,2.41,1.7,5.73,4.12,6.78,4.26-3.45,4.4-9.35,10.47-10.1,3.2-3.3-1.36-8.43,3.36-11.14,7.94-.16,16.41-3.47,22.69,2.86-.5,2.71-1.55,3.93.72,6.18-1.5,3.47-2.56,7.23-5.45,10.1.74,1.95.12,4.38-1.55,5.72-2.13,9.2-12.77,4.82-19,7.98,9.57,7.25,21.15,9.95,33.6,9.05,6.56-.3,3.65-8.29,7-11.9,2.12-10.56,11.9-3.32,17.8-6.17,2.27-4.54,4.59-8.9,5.17-14.03-3.77-2.4-5.32-6.93-4.1-11.31-2.57-3.47-2.28-9.8-7.9-10.39-.92-1.21-.17-2.72.6-3.62-.15-3.32,3.19-4.37,4.1-6.94-3.49-2.25-2.57-7.23-2.28-10.08-5.94,1.65-6.57-6.03-10.96-7.7-1.06-3.47-4.85-4.06-7.89-4.66-7.31,3.46-8.55-5.44-14-7.54-.6-1.66-1.84-4.07,0-5.43,2.72-2.27,6.37-.3,9.56-.45l-2.58-1.36c-2.45-2.71-7.76-1.05-10.94,0,3.03,3.01,1.8,8.42,3.64,12.21Z"/>
  </g>
  <g>
    <path class="d" d="m106.1,2645.47c2.76,1.3,7.27,2.08,10.28,2.08,8.28,0,13.79-2.87,18.06-13.29l8.02-19.02-50.65-127.16h20.56l40.12,103.19,40.37-103.19h20.31l-60.68,151.39c-7.27,18.24-19.56,25.28-35.61,25.53-4.01,0-10.28-.78-13.54-1.82l2.76-17.72Z"/>
    <path class="d" d="m225.7,2550.88c0-36.48,25.08-65.92,59.68-65.92,36.61,0,58.18,29.7,58.18,67.49v4.95h-97.8c1.5,23.71,17.3,43.51,43.38,43.51,14.04,0,27.83-5.73,37.61-16.15l9.03,12.77c-12.29,12.51-28.59,19.54-48.15,19.54-36.11,0-61.94-26.84-61.94-66.18Zm59.43-49.77c-25.83,0-38.62,22.67-39.62,41.69h79.49c-.25-18.5-12.29-41.69-39.87-41.69Z"/>
    <path class="d" d="m449.62,2613.94v-14.33c-9.78,11.47-23.82,17.46-40.12,17.46-20.31,0-42.13-14.33-42.13-41.69s21.57-41.43,42.13-41.43c16.55,0,30.34,5.47,40.12,16.94v-22.67c0-16.68-13.04-26.32-30.59-26.32-14.54,0-26.33,5.21-37.11,17.46l-8.78-13.55c13.04-14.07,28.59-20.85,48.4-20.85,25.83,0,46.89,11.99,46.89,42.47v86.51h-18.81Zm0-26.58v-23.97c-7.27-10.16-20.06-15.37-33.1-15.37-17.8,0-30.09,11.47-30.09,27.36s12.29,27.62,30.09,27.62c13.04,0,25.83-5.21,33.1-15.63Z"/>
    <path class="d" d="m506.29,2613.94v-125.85h18.81v20.06c9.78-13.03,23.82-22.93,40.37-22.93v20.06c-2.26-.26-4.51-.52-7.27-.52-11.79,0-27.58,9.9-33.1,20.06v89.11h-18.81Z"/>
    <path class="d" d="m578.75,2597.26l9.53-14.07c8.02,9.64,23.32,17.98,39.87,17.98,18.56,0,28.84-9.12,28.84-21.63,0-30.49-74.98-11.73-74.98-58.37,0-19.8,16.05-36.22,44.89-36.22,20.81,0,35.36,8.08,44.89,18.24l-8.78,13.55c-7.27-9.12-20.31-15.89-36.11-15.89s-26.83,8.6-26.83,19.8c0,27.36,74.98,9.38,74.98,58.37,0,21.11-16.3,38.04-47.39,38.04-20.06,0-36.61-6.51-48.9-19.8Z"/>
    <path class="d" d="m767.31,2457.08c0-7.3,5.77-13.29,12.79-13.29s12.54,5.99,12.54,13.29-5.52,13.03-12.54,13.03-12.79-5.73-12.79-13.03Zm3.26,156.86v-125.85h18.81v125.85h-18.81Z"/>
    <path class="d" d="m908.99,2613.94v-82.34c0-22.41-11.03-29.18-27.33-29.18-14.79,0-28.59,9.38-35.86,19.54v91.98h-18.81v-125.85h18.81v18.24c8.53-10.68,25.08-21.37,43.38-21.37,25.08,0,38.37,13.29,38.37,40.65v88.33h-18.56Z"/>
    <path class="d" d="m1031.09,2546.45v-106.31h21.06v105.79c0,31.79,16.3,51.85,47.14,51.85s47.39-20.06,47.39-51.85v-105.79h21.07v106.05c0,43.25-23.07,70.87-68.46,70.87s-68.21-27.88-68.21-70.61Z"/>
    <path class="d" d="m1200.34,2613.94v-15.37l66.7-93.28h-66.7v-17.2h91.28v14.85l-67.2,93.8h68.21v17.2h-92.28Z"/>
    <path class="d" d="m1324.46,2613.94v-173.8h18.81v66.97c9.78-13.81,24.58-22.15,40.87-22.15,31.85,0,53.91,25.8,53.91,66.18s-22.32,65.92-53.91,65.92c-17.05,0-31.85-9.12-40.87-21.89v18.76h-18.81Zm55.17-14.33c24.32,0,38.87-20.58,38.87-48.47s-14.55-48.73-38.87-48.73c-15.04,0-29.84,9.38-36.36,20.32v57.06c6.52,10.94,21.31,19.8,36.36,19.8Z"/>
    <path class="d" d="m1461.61,2550.88c0-36.48,25.07-65.92,59.68-65.92,36.61,0,58.18,29.7,58.18,67.49v4.95h-97.8c1.51,23.71,17.3,43.51,43.38,43.51,14.04,0,27.83-5.73,37.61-16.15l9.03,12.77c-12.29,12.51-28.59,19.54-48.15,19.54-36.11,0-61.94-26.84-61.94-66.18Zm59.43-49.77c-25.83,0-38.62,22.67-39.62,41.69h79.49c-.25-18.5-12.29-41.69-39.87-41.69Z"/>
    <path class="d" d="m1692.3,2613.94l-43.38-56.54-20.31,20.58v35.96h-18.81v-173.8h18.81v114.91l63.69-66.97h23.82l-53.66,57.06,53.91,68.79h-24.07Z"/>
    <path class="d" d="m1735.43,2457.08c0-7.3,5.77-13.29,12.79-13.29s12.54,5.99,12.54,13.29-5.52,13.03-12.54,13.03-12.79-5.73-12.79-13.03Zm3.26,156.86v-125.85h18.81v125.85h-18.81Z"/>
    <path class="d" d="m1784.82,2597.26l9.53-14.07c8.02,9.64,23.32,17.98,39.87,17.98,18.56,0,28.84-9.12,28.84-21.63,0-30.49-74.98-11.73-74.98-58.37,0-19.8,16.05-36.22,44.89-36.22,20.81,0,35.36,8.08,44.89,18.24l-8.78,13.55c-7.27-9.12-20.31-15.89-36.11-15.89s-26.83,8.6-26.83,19.8c0,27.36,74.98,9.38,74.98,58.37,0,21.11-16.3,38.04-47.39,38.04-20.06,0-36.61-6.51-48.9-19.8Z"/>
    <path class="d" d="m1915.46,2587.62v-82.34h-20.06v-17.2h20.06v-34.39h19.06v34.39h24.58v17.2h-24.58v78.17c0,9.38,4.01,16.15,12.04,16.15,5.52,0,10.28-2.6,12.79-5.47l5.52,14.85c-4.76,4.69-11.54,8.08-22.32,8.08-18.05,0-27.08-10.68-27.08-29.44Z"/>
    <path class="d" d="m2061.15,2613.94v-14.33c-9.78,11.47-23.82,17.46-40.12,17.46-20.31,0-42.13-14.33-42.13-41.69s21.57-41.43,42.13-41.43c16.55,0,30.34,5.47,40.12,16.94v-22.67c0-16.68-13.04-26.32-30.59-26.32-14.54,0-26.33,5.21-37.11,17.46l-8.78-13.55c13.04-14.07,28.59-20.85,48.4-20.85,25.83,0,46.89,11.99,46.89,42.47v86.51h-18.81Zm0-26.58v-23.97c-7.27-10.16-20.06-15.37-33.1-15.37-17.8,0-30.09,11.47-30.09,27.36s12.29,27.62,30.09,27.62c13.04,0,25.83-5.21,33.1-15.63Z"/>
    <path class="d" d="m2199.81,2613.94v-82.34c0-22.41-11.03-29.18-27.33-29.18-14.8,0-28.59,9.38-35.86,19.54v91.98h-18.81v-125.85h18.81v18.24c8.53-10.68,25.08-21.37,43.38-21.37,25.07,0,38.37,13.29,38.37,40.65v88.33h-18.56Z"/>
  </g>
</svg>