<svg width="666" height="666" viewBox="0 0 666 666" fill="none" xmlns="http://www.w3.org/2000/svg">
<path d="M548.411 518.841C548.566 510.505 551.78 502.517 557.442 496.396C560.173 507.665 548.411 518.841 548.411 518.841Z" fill="#EBEBEB"/>
<path d="M561.531 512.487C569.236 509.309 577.839 509.072 585.707 511.821C576.476 518.814 561.531 512.487 561.531 512.487Z" fill="#EBEBEB"/>
<path d="M563.023 505.188C561.776 498.731 562.947 492.042 566.313 486.393C570.269 494.652 563.023 505.188 563.023 505.188Z" fill="#EBEBEB"/>
<path d="M512.314 478.867C531.481 483.982 541.765 500.646 541.765 500.646C525.381 500.646 512.314 478.867 512.314 478.867Z" fill="#EBEBEB"/>
<path d="M542.923 486.726C541.924 466.067 562.104 442.677 562.104 442.677C559.054 468.331 542.897 486.726 542.897 486.726" fill="#EBEBEB"/>
<path d="M542.83 427.878C543.224 438.229 540.709 448.482 535.57 457.475C532.72 444.182 542.83 427.878 542.83 427.878Z" fill="#EBEBEB"/>
<path d="M535.038 469.863C519.933 468.238 511.715 453.213 511.715 453.213C529.99 458.328 535.038 469.863 535.038 469.863Z" fill="#EBEBEB"/>
<path d="M502.457 533.026C509.544 528.64 517.998 527.014 526.207 528.458C518.228 536.796 502.457 533.026 502.457 533.026Z" fill="#EBEBEB"/>
<path d="M541.604 539.806C539.68 544.7 536.084 548.754 531.455 551.248C532.094 544.282 541.604 539.806 541.604 539.806Z" fill="#EBEBEB"/>
<path d="M539.66 537.582C534.204 540.742 527.809 541.879 521.598 540.792C527.472 534.745 539.66 537.582 539.66 537.582Z" fill="#EBEBEB"/>
<path d="M547.452 565.407C547.432 565.302 547.432 565.193 547.452 565.088C547.452 564.848 547.452 564.555 547.452 564.195V560.772C547.452 559.267 547.452 557.429 547.452 555.298C547.452 553.166 547.452 550.729 547.306 548.038C547.172 542.71 546.799 536.29 546.24 529.204C545.681 522.117 544.775 514.365 543.576 506.253C541.192 490.03 537.928 475.524 535.304 465.108C533.972 459.9 532.867 455.691 532.054 452.8C531.681 451.388 531.375 450.269 531.148 449.457C531.069 449.097 530.989 448.817 530.935 448.578C530.924 448.476 530.924 448.373 530.935 448.271C530.991 448.362 531.032 448.461 531.055 448.564C531.135 448.791 531.228 449.07 531.335 449.417L532.361 452.72C533.253 455.597 534.438 459.78 535.824 464.988C539.338 478.549 542.1 492.294 544.096 506.16C545.281 514.285 546.12 522.064 546.76 529.15C547.399 536.237 547.612 542.657 547.679 548.025C547.759 550.689 547.679 553.153 547.679 555.298C547.679 557.442 547.679 559.294 547.599 560.772C547.519 562.251 547.505 563.436 547.479 564.235V565.141C547.482 565.231 547.473 565.32 547.452 565.407Z" fill="#E0E0E0"/>
<path d="M519.653 521.664C519.76 521.505 525.874 525.514 533.293 530.602C540.712 535.69 546.613 539.926 546.546 540.099C546.48 540.273 540.339 536.25 532.907 531.162C525.474 526.073 519.547 521.824 519.653 521.664Z" fill="#E0E0E0"/>
<path d="M546.546 523.862C546.821 523.485 547.138 523.141 547.492 522.837L550.156 520.173C552.594 517.868 555.75 514.925 559.227 511.648L568.311 503.136L571.069 500.552C571.721 499.953 572.094 499.633 572.134 499.673C571.884 500.062 571.589 500.42 571.255 500.739C570.656 501.405 569.763 502.337 568.591 503.483C566.353 505.76 563.196 508.811 559.64 512.154C556.083 515.497 552.82 518.414 550.423 520.519C549.224 521.571 548.251 522.41 547.559 522.983C547.265 523.323 546.924 523.619 546.546 523.862Z" fill="#E0E0E0"/>
<path d="M500.259 511.874C500.259 511.874 515.87 511.581 522.477 523.862C518.096 523.734 513.805 522.583 509.947 520.502C506.09 518.42 502.772 515.466 500.259 511.874Z" fill="#EBEBEB"/>
<path d="M521.585 505.614C521.585 505.614 534.292 514.671 532.241 528.484C528.806 525.766 526.053 522.282 524.203 518.311C522.353 514.341 521.456 509.993 521.585 505.614Z" fill="#EBEBEB"/>
<path d="M588.544 483.263C588.544 483.263 583.523 500.739 567.592 503.882C569.233 499.049 571.983 494.667 575.622 491.087C579.26 487.506 583.685 484.827 588.544 483.263Z" fill="#EBEBEB"/>
<path d="M514.645 418.248C514.645 418.248 534.625 431.235 532.361 452.374C526.954 448.458 522.537 443.334 519.462 437.409C516.386 431.484 514.737 424.923 514.645 418.248Z" fill="#EBEBEB"/>
<path d="M580.938 533.866C580.53 534.256 580.084 534.604 579.606 534.905C578.741 535.517 577.515 536.45 576.037 537.635C572.167 540.706 568.558 544.092 565.247 547.758C561.955 551.447 558.97 555.398 556.323 559.573C555.311 561.185 554.525 562.49 553.992 563.423C553.742 563.918 553.443 564.386 553.1 564.821C553.266 564.288 553.49 563.775 553.766 563.29C554.218 562.33 554.951 560.972 555.923 559.294C558.467 555.021 561.42 551.006 564.741 547.306C568.077 543.608 571.762 540.24 575.744 537.249C577.275 536.117 578.554 535.238 579.46 534.678C579.922 534.355 580.418 534.082 580.938 533.866Z" fill="#E0E0E0"/>
<path d="M563.609 546.839C562.164 538.63 563.79 530.177 568.178 523.09C570.323 537.902 563.609 546.839 563.609 546.839Z" fill="#EBEBEB"/>
<path d="M577.009 539.527C582.281 536.537 588.467 535.589 594.392 536.863C584.748 541.938 577.009 539.527 577.009 539.527Z" fill="#EBEBEB"/>
<path d="M518.348 567.019L525.82 616.13H569.23L579.314 567.738L518.348 567.019Z" fill="#EBEBEB"/>
<path d="M573.24 598.494C573.24 598.641 562.117 598.761 548.398 598.761C534.678 598.761 523.543 598.641 523.543 598.494C523.543 598.348 534.665 598.241 548.398 598.241C562.131 598.241 573.24 598.361 573.24 598.494Z" fill="#FAFAFA"/>
<path d="M573.399 596.083C573.399 596.23 562.211 596.336 548.398 596.336C534.585 596.336 523.383 596.23 523.383 596.083C523.383 595.937 534.572 595.83 548.398 595.83C562.224 595.83 573.399 595.95 573.399 596.083Z" fill="#FAFAFA"/>
<path d="M573.32 593.353C573.32 593.499 562.117 593.606 548.305 593.606C534.492 593.606 523.29 593.499 523.29 593.353C523.29 593.206 534.492 593.1 548.305 593.1C562.117 593.1 573.32 593.219 573.32 593.353Z" fill="#FAFAFA"/>
<path d="M530.802 613.333C530.197 611.311 529.752 609.244 529.47 607.152C529.019 605.088 528.743 602.989 528.644 600.879C529.249 602.901 529.694 604.967 529.976 607.059C530.419 609.125 530.695 611.223 530.802 613.333Z" fill="#FAFAFA"/>
<path d="M533.759 612.813C533.307 608.8 533.031 604.769 532.933 600.732C533.41 602.701 533.677 604.714 533.733 606.739C533.949 608.758 533.958 610.793 533.759 612.813Z" fill="#FAFAFA"/>
<path d="M539.14 612.813C538.551 610.793 538.171 608.718 538.008 606.619C537.687 604.545 537.575 602.443 537.675 600.346C538.08 602.4 538.361 604.478 538.514 606.566C538.845 608.635 539.054 610.72 539.14 612.813Z" fill="#FAFAFA"/>
<path d="M542.923 613.066C542.5 610.998 542.294 608.891 542.311 606.779C542.166 604.673 542.233 602.558 542.51 600.466C542.738 602.558 542.845 604.661 542.83 606.766C542.975 608.863 543.006 610.966 542.923 613.066Z" fill="#FAFAFA"/>
<path d="M549.61 612.813C549.284 610.841 549.128 608.845 549.144 606.846C548.981 604.856 548.981 602.855 549.144 600.865C549.469 602.837 549.625 604.834 549.61 606.833C549.772 608.823 549.772 610.823 549.61 612.813Z" fill="#FAFAFA"/>
<path d="M554.498 613.066C554.252 611.02 554.181 608.957 554.285 606.899C554.221 604.839 554.324 602.776 554.592 600.732C554.838 602.778 554.909 604.841 554.805 606.899C554.861 608.96 554.758 611.021 554.498 613.066Z" fill="#FAFAFA"/>
<path d="M559.08 612.414C559.022 610.258 559.143 608.102 559.44 605.967C559.569 603.812 559.863 601.67 560.319 599.56C560.368 601.72 560.243 603.88 559.946 606.02C559.825 608.171 559.535 610.308 559.08 612.414Z" fill="#FAFAFA"/>
<path d="M564.981 611.774C564.993 609.922 565.24 608.078 565.714 606.286C566.014 604.447 566.556 602.656 567.326 600.958C567.048 602.775 566.674 604.576 566.207 606.353C565.899 608.181 565.49 609.991 564.981 611.774Z" fill="#FAFAFA"/>
<path d="M513.366 557.296V566.486C513.364 566.961 513.457 567.432 513.637 567.872C513.818 568.311 514.083 568.711 514.419 569.047C514.754 569.384 515.153 569.651 515.592 569.833C516.03 570.016 516.501 570.109 516.976 570.109H579.846C580.807 570.109 581.729 569.728 582.408 569.048C583.088 568.369 583.469 567.447 583.469 566.486V557.296H513.366Z" fill="#EBEBEB"/>
<path d="M518.814 570.109L519.333 573.04L577.342 577.169L578.821 570.109H518.814Z" fill="#E0E0E0"/>
<path d="M554.618 160.706C557.822 159.279 560.537 156.946 562.431 153.995C564.324 151.043 565.313 147.602 565.274 144.096C565.274 134.172 557.802 126.1 548.504 126.047C539.207 125.994 531.628 134.039 531.588 143.936C531.518 147.48 532.501 150.965 534.412 153.95C536.323 156.935 539.076 159.286 542.324 160.706C516.403 164.609 517.575 192.78 517.575 192.78L578.847 193.073C578.847 193.073 580.313 164.595 554.618 160.706Z" fill="#EBEBEB"/>
<path d="M119.694 324.502L102.231 319.054C102.231 319.054 97.6623 333.706 82.3443 329.23C79.3711 328.419 76.7257 326.699 74.7771 324.311C72.8286 321.923 71.6742 318.986 71.4752 315.91C71.2681 313.335 71.6729 310.747 72.6568 308.358C73.6406 305.969 75.1755 303.847 77.1362 302.164C81.6117 298.168 89.4838 295.797 100.606 301.538L112.887 262.164L95.571 256.836L88.3782 279.893C88.3782 279.893 62.2178 278.561 53.8928 305.281C45.9008 330.816 66.973 343.909 76.7632 346.946C84.3157 349.25 110.41 355.404 119.694 324.502Z" fill="#F5F5F5"/>
<path d="M97.9609 248.63L115.483 254.097L120.589 237.732L103.067 232.265L97.9609 248.63Z" fill="#F5F5F5"/>
<path d="M160.826 307.212L169.55 304.908C169.55 304.908 167.619 297.582 175.211 295.451C176.655 295.011 178.2 295.031 179.632 295.508C181.064 295.985 182.312 296.896 183.203 298.115C183.975 299.133 184.491 300.321 184.709 301.579C184.927 302.837 184.84 304.13 184.455 305.348C183.616 308.172 180.952 311.248 174.798 311.768L179.993 331.442L188.625 329.164L185.574 317.642C185.574 317.642 196.856 311.315 193.34 297.982C189.97 285.208 177.742 285.261 172.84 286.566C169.164 287.592 156.603 291.868 160.826 307.212Z" fill="#EBEBEB"/>
<path d="M189.838 333.222L181.08 335.533L183.238 343.711L191.996 341.401L189.838 333.222Z" fill="#EBEBEB"/>
<path d="M77.2561 144.455L85.9274 143.443C85.9274 143.443 85.0749 136.17 92.5874 135.158C94.0386 134.936 95.5229 135.173 96.8335 135.834C98.1442 136.495 99.2161 137.549 99.9001 138.848C100.489 139.93 100.815 141.135 100.849 142.367C100.884 143.598 100.627 144.821 100.1 145.934C98.9144 148.598 95.944 151.102 89.99 150.756L92.2677 170.283L100.832 169.284L99.5005 157.842C102.897 156.401 105.726 153.884 107.552 150.679C109.379 147.473 110.102 143.756 109.61 140.1C108.132 127.432 96.4369 125.821 91.5618 126.38C87.9121 126.82 75.3646 129.204 77.2561 144.455Z" fill="#F5F5F5"/>
<path d="M101.502 173.287L92.8096 174.3L93.7567 182.424L102.449 181.41L101.502 173.287Z" fill="#F5F5F5"/>
<path d="M487.326 404.821H157.855V540.246H487.326V404.821Z" fill="#FAFAFA"/>
<path d="M487.326 540.246C487.326 540.246 487.326 539.42 487.326 537.835C487.326 536.25 487.326 533.839 487.326 530.802C487.326 524.635 487.326 515.551 487.259 503.856C487.259 480.466 487.259 446.646 487.126 404.821L487.379 405.061L157.935 405.168L158.282 404.821C158.282 452.267 158.282 498.061 158.282 540.246L157.949 539.913L394.259 540.059L462.75 540.153H481.065H485.794H487.419H485.834H481.145H462.897L394.485 540.246L157.949 540.406H157.616V540.073C157.616 497.875 157.616 452.161 157.616 404.648V404.302H157.989L487.432 404.395H487.512V404.648C487.512 446.54 487.419 480.412 487.379 503.829C487.379 515.511 487.379 524.568 487.379 530.722C487.379 533.786 487.379 536.13 487.379 537.702C487.379 539.273 487.326 540.246 487.326 540.246Z" fill="#1F1F1F"/>
<path d="M200.213 465.987C213.131 465.987 223.603 455.515 223.603 442.597C223.603 429.679 213.131 419.207 200.213 419.207C187.295 419.207 176.823 429.679 176.823 442.597C176.823 455.515 187.295 465.987 200.213 465.987Z" fill="#EBEBEB"/>
<path d="M339.181 439.56C339.181 439.76 315.804 439.906 286.966 439.906C258.128 439.906 234.738 439.76 234.738 439.56C234.738 439.36 258.115 439.214 286.966 439.214C315.817 439.214 339.181 439.4 339.181 439.56Z" fill="#1F1F1F"/>
<path d="M313.353 454.065C313.353 454.265 295.504 454.412 273.486 454.412C251.468 454.412 233.606 454.265 233.606 454.065C233.606 453.866 251.455 453.719 273.486 453.719C295.518 453.719 313.353 453.879 313.353 454.065Z" fill="#E0E0E0"/>
<path d="M448.085 484.062C448.085 484.262 392.794 484.408 324.608 484.408C256.423 484.408 201.119 484.262 201.119 484.062C201.119 483.862 256.397 483.716 324.608 483.716C392.82 483.716 448.085 483.876 448.085 484.062Z" fill="#1F1F1F"/>
<path d="M448.085 500.739C448.085 500.939 392.794 501.085 324.608 501.085C256.423 501.085 201.119 500.939 201.119 500.739C201.119 500.539 256.397 500.392 324.608 500.392C392.82 500.392 448.085 500.552 448.085 500.739Z" fill="#1F1F1F"/>
<path d="M186.826 417.822C185.921 407.672 191.062 398.681 201.225 398.055H202.171C206.748 398.035 211.165 399.741 214.542 402.831C217.919 405.921 220.008 410.17 220.393 414.732C221.139 423.536 221.845 433.26 221.805 437.988C221.711 447.765 211.935 449.324 211.935 449.324L212.148 452.454C212.258 454.134 212.016 455.818 211.437 457.399C210.858 458.979 209.956 460.422 208.787 461.633C207.618 462.845 206.209 463.799 204.65 464.434C203.091 465.069 201.416 465.371 199.733 465.321C196.66 465.231 193.736 463.973 191.558 461.802C189.381 459.632 188.112 456.712 188.012 453.639L186.826 417.822Z" fill="#FFBE9D"/>
<path d="M211.948 449.31C207.434 449.419 202.99 448.176 199.187 445.741C199.187 445.741 202.224 452.76 211.988 451.841L211.948 449.31Z" fill="#EB996E"/>
<path d="M217.342 422.057C217.343 422.419 217.205 422.766 216.958 423.029C216.71 423.291 216.371 423.449 216.01 423.469C215.833 423.484 215.655 423.463 215.486 423.407C215.317 423.352 215.161 423.263 215.027 423.147C214.893 423.03 214.784 422.888 214.706 422.728C214.627 422.568 214.582 422.395 214.572 422.217C214.568 421.854 214.704 421.503 214.952 421.238C215.2 420.972 215.541 420.813 215.904 420.792C216.082 420.778 216.261 420.799 216.431 420.855C216.601 420.912 216.757 421.002 216.892 421.12C217.026 421.238 217.135 421.382 217.212 421.543C217.29 421.704 217.334 421.879 217.342 422.057Z" fill="#1F1F1F"/>
<path d="M218.448 419.007C218.275 419.194 217.223 418.421 215.717 418.421C214.212 418.421 213.12 419.194 212.947 419.007C212.774 418.821 213.053 418.594 213.533 418.248C214.181 417.794 214.953 417.552 215.744 417.555C216.523 417.55 217.283 417.793 217.915 418.248C218.448 418.608 218.541 418.927 218.448 419.007Z" fill="#1F1F1F"/>
<path d="M203.263 422.43C203.267 422.794 203.131 423.145 202.883 423.41C202.635 423.676 202.294 423.835 201.931 423.856C201.752 423.872 201.571 423.852 201.4 423.797C201.229 423.741 201.071 423.652 200.935 423.533C200.799 423.415 200.689 423.271 200.611 423.108C200.532 422.946 200.488 422.77 200.479 422.59C200.479 422.229 200.617 421.882 200.864 421.619C201.112 421.357 201.451 421.199 201.811 421.178C201.99 421.162 202.169 421.182 202.34 421.236C202.51 421.291 202.668 421.379 202.803 421.496C202.939 421.613 203.049 421.756 203.128 421.916C203.207 422.077 203.253 422.252 203.263 422.43Z" fill="#1F1F1F"/>
<path d="M203.476 418.648C203.33 418.847 202.144 418.181 200.692 418.355C199.241 418.528 198.188 419.394 198.028 419.234C197.869 419.074 198.028 418.821 198.508 418.421C199.108 417.902 199.851 417.577 200.639 417.489C201.414 417.405 202.196 417.563 202.877 417.942C203.356 418.248 203.556 418.554 203.476 418.648Z" fill="#1F1F1F"/>
<path d="M209.031 430.982C209.822 430.734 210.641 430.582 211.468 430.529C211.855 430.529 212.214 430.409 212.281 430.156C212.316 429.757 212.228 429.357 212.028 429.011C211.655 428.091 211.282 427.119 210.882 426.093C209.818 423.623 208.954 421.07 208.298 418.461C209.558 420.844 210.622 423.325 211.482 425.88C211.868 426.893 212.241 427.878 212.587 428.811C212.831 429.273 212.901 429.806 212.787 430.316C212.73 430.449 212.644 430.568 212.536 430.665C212.428 430.761 212.3 430.833 212.161 430.875C211.948 430.934 211.729 430.966 211.508 430.969C210.686 431.077 209.854 431.082 209.031 430.982Z" fill="#1F1F1F"/>
<path d="M204.622 432.034C204.862 432.034 204.875 433.659 206.274 434.805C207.672 435.95 209.404 435.777 209.417 436.004C209.43 436.23 209.031 436.323 208.298 436.337C207.33 436.368 206.383 436.046 205.634 435.431C204.909 434.858 204.432 434.028 204.302 433.113C204.329 432.434 204.502 432.034 204.622 432.034Z" fill="#1F1F1F"/>
<path d="M203.277 413.693C203.17 414.119 201.651 414.052 199.92 414.425C198.188 414.798 196.803 415.384 196.537 415.051C196.27 414.718 196.63 414.478 197.176 414.026C197.894 413.469 198.734 413.09 199.627 412.92C200.509 412.741 201.421 412.769 202.291 413C202.97 413.213 203.33 413.493 203.277 413.693Z" fill="#1F1F1F"/>
<path d="M217.742 415.184C217.476 415.517 216.41 415.184 215.198 415.184C213.986 415.184 212.894 415.424 212.654 415.065C212.414 414.705 212.654 414.558 213.173 414.225C213.787 413.829 214.508 413.633 215.238 413.666C215.971 413.679 216.682 413.916 217.276 414.345C217.715 414.665 217.862 415.011 217.742 415.184Z" fill="#1F1F1F"/>
<path d="M192.874 420.819C192.754 420.819 193.313 421.858 194.565 422.271C194.915 422.436 195.301 422.51 195.688 422.487C196.074 422.464 196.449 422.344 196.776 422.137C196.082 422.075 195.392 421.968 194.712 421.818C194.073 421.535 193.458 421.201 192.874 420.819Z" fill="#EB996E"/>
<path d="M192.874 424.135C192.874 424.255 193.66 424.016 194.552 423.802C195.444 423.589 196.204 423.456 196.204 423.323C196.204 423.19 195.391 423.11 194.445 423.323C193.5 423.536 192.82 424.016 192.874 424.135Z" fill="#EB996E"/>
<path d="M215.784 430.156C215.784 430.263 216.077 430.303 216.37 430.236C216.663 430.169 216.876 430.023 216.85 429.916C216.823 429.81 216.57 429.783 216.277 429.85C215.984 429.916 215.784 430.063 215.784 430.156Z" fill="#EB996E"/>
<path d="M215.784 430.982C215.784 431.088 215.891 431.195 216.077 431.235C216.264 431.275 216.41 431.235 216.437 431.102C216.463 430.969 216.33 430.875 216.144 430.849C215.957 430.822 215.784 430.862 215.784 430.982Z" fill="#EB996E"/>
<path d="M202.291 433.033C202.291 433.033 202.517 432.927 202.744 432.687C203.021 432.383 203.34 432.118 203.689 431.901C204.029 431.708 204.424 431.638 204.808 431.701C205.101 431.701 205.261 431.888 205.315 431.834C205.368 431.781 205.315 431.555 204.915 431.382C204.682 431.286 204.43 431.245 204.178 431.261C203.927 431.277 203.682 431.35 203.463 431.475C203.056 431.726 202.718 432.074 202.477 432.487C202.304 432.78 202.238 432.993 202.291 433.033Z" fill="#EB996E"/>
<path d="M193.26 446.62C193.26 446.62 193.167 446.526 193.073 446.38C192.959 446.153 192.931 445.893 192.994 445.647C193.073 445.328 193.313 444.981 193.486 444.475C193.58 444.189 193.58 443.882 193.486 443.596C193.362 443.333 193.205 443.087 193.02 442.863C192.964 442.796 192.933 442.711 192.933 442.624C192.933 442.536 192.964 442.451 193.02 442.384C193.184 442.21 193.357 442.045 193.54 441.891C193.747 441.705 193.88 441.449 193.913 441.172C193.939 440.945 193.907 440.716 193.819 440.506C193.698 440.222 193.516 439.967 193.287 439.76C193.127 439.613 193.033 439.56 193.007 439.573C192.98 439.587 193.287 439.986 193.5 440.612C193.557 440.779 193.564 440.959 193.519 441.13C193.474 441.301 193.379 441.454 193.247 441.571C193.029 441.728 192.828 441.906 192.647 442.104C192.538 442.253 192.479 442.432 192.479 442.617C192.479 442.801 192.538 442.981 192.647 443.13C192.807 443.326 192.95 443.535 193.073 443.756C193.133 443.951 193.133 444.16 193.073 444.355C192.917 444.754 192.788 445.164 192.687 445.581C192.655 445.744 192.662 445.913 192.708 446.073C192.755 446.233 192.839 446.379 192.954 446.5C193.14 446.66 193.26 446.646 193.26 446.62Z" fill="#EB996E"/>
<path d="M190.782 445.714C190.782 445.714 190.689 445.714 190.649 445.554C190.609 445.394 190.742 445.354 190.889 444.981C190.925 444.593 190.831 444.205 190.623 443.876C190.546 443.723 190.521 443.549 190.553 443.38C190.584 443.212 190.669 443.059 190.796 442.943C191.123 442.637 191.402 442.282 191.622 441.891C191.707 441.698 191.734 441.485 191.701 441.277C191.668 441.069 191.576 440.875 191.435 440.719C191.35 440.615 191.244 440.53 191.125 440.469C191.006 440.407 190.876 440.37 190.742 440.359C190.556 440.359 190.463 440.359 190.463 440.359C190.463 440.359 190.876 440.359 191.169 440.865C191.241 440.981 191.279 441.115 191.279 441.252C191.279 441.388 191.241 441.522 191.169 441.638C190.939 441.974 190.675 442.287 190.383 442.57C190.201 442.762 190.081 443.003 190.036 443.263C190.006 443.511 190.052 443.762 190.17 443.982C190.369 444.355 190.543 444.622 190.516 444.835C190.484 444.957 190.444 445.077 190.396 445.194C190.366 445.254 190.35 445.32 190.35 445.387C190.35 445.455 190.366 445.521 190.396 445.581C190.636 445.847 190.822 445.74 190.782 445.714Z" fill="#EB996E"/>
<path d="M187.652 425.054C187.479 424.988 180.992 423.096 181.165 429.77C181.339 436.443 188.065 434.845 188.065 434.645C188.065 434.445 187.652 425.054 187.652 425.054Z" fill="#FFBE9D"/>
<path d="M185.934 432.194C185.934 432.194 185.827 432.274 185.628 432.367C185.491 432.426 185.344 432.457 185.195 432.457C185.046 432.457 184.898 432.426 184.762 432.367C184.318 432.113 183.952 431.743 183.701 431.298C183.45 430.852 183.324 430.348 183.337 429.836C183.297 429.264 183.388 428.69 183.603 428.158C183.655 427.946 183.76 427.75 183.906 427.587C184.052 427.424 184.236 427.3 184.442 427.226C184.575 427.185 184.719 427.192 184.848 427.245C184.977 427.299 185.083 427.395 185.148 427.519C185.241 427.705 185.148 427.838 185.241 427.852C185.335 427.865 185.374 427.732 185.308 427.465C185.273 427.3 185.178 427.153 185.041 427.052C184.851 426.922 184.617 426.87 184.389 426.906C184.116 426.97 183.864 427.103 183.656 427.292C183.449 427.481 183.293 427.719 183.203 427.985C182.945 428.576 182.831 429.219 182.87 429.863C182.859 430.458 183.023 431.044 183.343 431.547C183.663 432.049 184.124 432.446 184.669 432.687C184.851 432.728 185.04 432.731 185.224 432.694C185.408 432.657 185.581 432.582 185.734 432.474C185.934 432.354 185.961 432.207 185.934 432.194Z" fill="#1F1F1F"/>
<path d="M221.432 403.33C221.308 402.684 221 402.088 220.543 401.615C220.086 401.142 219.502 400.812 218.861 400.666C219.144 400.034 219.203 399.324 219.027 398.654C218.852 397.984 218.453 397.395 217.896 396.983C217.34 396.571 216.659 396.361 215.967 396.389C215.276 396.417 214.614 396.68 214.092 397.136C214.072 396.638 213.933 396.153 213.687 395.721C213.44 395.288 213.094 394.921 212.677 394.65C212.259 394.378 211.783 394.211 211.288 394.162C210.793 394.112 210.293 394.182 209.83 394.365C209.84 393.78 209.656 393.208 209.308 392.737C208.96 392.267 208.467 391.924 207.905 391.761C207.342 391.599 206.742 391.627 206.197 391.84C205.652 392.053 205.192 392.439 204.888 392.94C204.505 392.375 203.999 391.903 203.409 391.56C202.818 391.217 202.158 391.011 201.477 390.959C200.796 390.906 200.112 391.008 199.475 391.257C198.839 391.505 198.267 391.894 197.802 392.394C196.45 391.967 194.988 392.05 193.692 392.626C192.397 393.203 191.357 394.234 190.769 395.524C189.675 395.605 188.63 396.01 187.769 396.689C186.907 397.368 186.268 398.289 185.934 399.334C185.224 399.383 184.541 399.621 183.954 400.023C183.368 400.424 182.899 400.975 182.596 401.619C182.293 402.262 182.168 402.975 182.232 403.683C182.297 404.391 182.549 405.069 182.964 405.647C182.565 405.877 182.224 406.196 181.969 406.579C181.714 406.963 181.551 407.4 181.493 407.856C181.435 408.313 181.484 408.777 181.635 409.211C181.786 409.646 182.035 410.04 182.364 410.363C181.862 410.609 181.441 410.993 181.15 411.47C180.859 411.947 180.709 412.497 180.719 413.056C180.729 413.615 180.897 414.16 181.205 414.626C181.513 415.093 181.947 415.462 182.457 415.691C181.472 415.824 181.125 417.129 181.378 418.075C181.803 418.987 182.274 419.876 182.79 420.739C183.11 421.485 183.203 422.311 183.483 423.083C183.751 423.804 184.172 424.458 184.717 425.001C185.262 425.543 185.918 425.962 186.64 426.227L186.48 426.24C186.307 427.092 187.506 427.679 188.305 427.346C189.061 426.893 189.664 426.225 190.036 425.428C190.617 424.615 191.067 423.716 191.368 422.764C191.532 422.28 191.53 421.757 191.364 421.275C191.197 420.793 190.876 420.379 190.449 420.1C191.009 419.862 191.498 419.483 191.867 419C192.236 418.516 192.473 417.945 192.554 417.342C192.698 416.131 192.621 414.903 192.327 413.719L191.368 408.391C192.584 408.342 193.763 407.961 194.777 407.29C195.792 406.618 196.603 405.682 197.123 404.582C197.566 404.888 198.069 405.097 198.599 405.196C199.129 405.295 199.673 405.281 200.197 405.156C200.721 405.03 201.213 404.795 201.64 404.467C202.068 404.138 202.421 403.724 202.677 403.25C203.112 404.432 203.981 405.404 205.106 405.97C206.231 406.537 207.529 406.655 208.738 406.3C208.485 407.632 210.962 408.964 212.334 409.324C213.393 409.46 214.468 409.25 215.398 408.724C215.398 408.724 217.742 410.056 219.021 409.577C220.299 409.097 222.004 407.592 221.112 406.26C221.456 405.324 221.566 404.318 221.432 403.33Z" fill="#1F1F1F"/>
<path d="M182.018 410.256C182.018 410.256 182.124 410.722 182.684 411.122C182.844 411.231 183.025 411.305 183.216 411.337C183.407 411.369 183.603 411.359 183.789 411.308C184.016 411.241 184.221 411.114 184.383 410.94C184.544 410.767 184.657 410.554 184.709 410.323L184.788 409.923L185.095 410.189C185.359 410.417 185.685 410.561 186.032 410.602C186.378 410.643 186.729 410.579 187.039 410.418C187.348 410.257 187.603 410.008 187.769 409.701C187.936 409.394 188.006 409.045 187.972 408.698V408.298L188.345 408.458C188.736 408.617 189.171 408.629 189.57 408.492C189.97 408.355 190.306 408.078 190.516 407.712C190.661 407.4 190.773 407.074 190.849 406.74C190.849 406.74 191.049 407.152 190.756 407.845C190.576 408.253 190.261 408.587 189.863 408.791C189.603 408.923 189.319 408.999 189.027 409.015C188.736 409.031 188.445 408.987 188.172 408.884L188.478 408.644C188.536 409.119 188.437 409.6 188.196 410.013C187.956 410.427 187.587 410.75 187.146 410.935C186.758 411.098 186.333 411.147 185.918 411.079C185.504 411.011 185.117 410.827 184.802 410.549L185.188 410.416C185.117 410.742 184.953 411.041 184.717 411.277C184.481 411.513 184.182 411.677 183.856 411.748C183.622 411.795 183.381 411.788 183.15 411.728C182.919 411.668 182.705 411.556 182.524 411.402C181.898 410.829 181.991 410.256 182.018 410.256Z" fill="#FAFAFA"/>
<path d="M181.032 416.703C181.032 416.703 181.272 416.889 181.751 416.983C182.071 417.046 182.403 417.012 182.702 416.884C183.002 416.755 183.256 416.539 183.43 416.263L183.563 416.024L183.749 416.223C183.967 416.445 184.239 416.605 184.538 416.69C184.837 416.774 185.153 416.778 185.454 416.703C185.797 416.6 186.1 416.393 186.322 416.112C186.543 415.831 186.673 415.489 186.693 415.131V414.692L187.066 414.931C187.158 414.999 187.262 415.048 187.373 415.078C187.616 415.147 187.874 415.139 188.112 415.056C188.351 414.972 188.558 414.817 188.705 414.612C188.821 414.409 188.883 414.179 188.883 413.946C188.883 413.712 188.821 413.482 188.705 413.28L188.451 412.867H188.918C189.463 412.941 190.016 412.803 190.463 412.48C190.809 412.228 191.07 411.874 191.209 411.468C191.31 411.086 191.364 410.692 191.369 410.296C191.469 410.485 191.53 410.692 191.548 410.904C191.567 411.117 191.542 411.332 191.475 411.535C191.356 412.026 191.08 412.466 190.689 412.787C190.435 412.991 190.143 413.142 189.829 413.231C189.516 413.321 189.188 413.346 188.864 413.306L189.077 412.973C189.263 413.264 189.354 413.604 189.34 413.948C189.325 414.292 189.205 414.624 188.995 414.897C188.786 415.17 188.497 415.373 188.169 415.477C187.84 415.58 187.488 415.581 187.159 415.477C187.005 415.43 186.857 415.363 186.72 415.278L187.106 415.078C187.079 415.541 186.906 415.984 186.612 416.343C186.317 416.702 185.917 416.958 185.468 417.076C185.09 417.166 184.694 417.152 184.323 417.034C183.952 416.917 183.621 416.701 183.363 416.41H183.683C183.563 416.606 183.404 416.776 183.216 416.909C183.029 417.042 182.816 417.135 182.591 417.182C182.268 417.271 181.927 417.271 181.605 417.182C181.152 417.009 181.006 416.716 181.032 416.703Z" fill="#FAFAFA"/>
<path d="M208.951 394.112C208.725 393.926 208.468 393.782 208.192 393.686C207.879 393.563 207.532 393.563 207.219 393.686C207.02 393.778 206.844 393.912 206.704 394.081C206.563 394.249 206.462 394.446 206.407 394.658L206.327 395.045L206.114 394.698C205.897 394.349 205.595 394.061 205.236 393.86C204.877 393.66 204.473 393.554 204.062 393.553C203.564 393.565 203.083 393.733 202.686 394.034C202.289 394.336 201.997 394.754 201.851 395.231L201.731 395.671L201.452 395.311C201.172 394.966 200.819 394.687 200.418 394.496C200.017 394.305 199.578 394.206 199.134 394.205C198.66 394.215 198.195 394.341 197.781 394.574C197.368 394.806 197.018 395.137 196.763 395.537C196.554 395.87 196.414 396.242 196.35 396.63V396.896L196.097 396.829C195.475 396.688 194.822 396.759 194.245 397.032C193.668 397.305 193.199 397.763 192.914 398.335C192.681 398.844 192.603 399.411 192.688 399.965C192.774 400.518 193.018 401.035 193.393 401.451L193.646 401.731L193.287 401.798C192.467 401.959 191.744 402.438 191.275 403.13C190.919 403.652 190.729 404.269 190.729 404.901C190.749 405.46 190.871 406.011 191.089 406.526C191.089 406.526 190.956 406.42 190.822 406.153C190.621 405.774 190.502 405.357 190.476 404.928C190.428 404.238 190.606 403.551 190.982 402.97C191.229 402.584 191.55 402.252 191.928 401.994C192.306 401.735 192.731 401.555 193.18 401.465L193.073 401.798C192.612 401.288 192.325 400.644 192.254 399.959C192.183 399.275 192.332 398.586 192.68 397.992C193.027 397.398 193.555 396.93 194.186 396.657C194.817 396.383 195.519 396.317 196.19 396.47L195.884 396.67C195.946 396.194 196.115 395.739 196.377 395.338C196.671 394.863 197.08 394.471 197.567 394.198C198.054 393.926 198.603 393.781 199.161 393.779C199.677 393.785 200.184 393.908 200.646 394.139C201.107 394.37 201.51 394.702 201.825 395.111L201.425 395.191C201.55 394.657 201.837 394.174 202.247 393.81C202.657 393.445 203.169 393.215 203.715 393.153C204.26 393.09 204.811 393.197 205.293 393.459C205.774 393.722 206.164 394.127 206.407 394.618H206.114C206.187 394.365 206.317 394.133 206.495 393.938C206.673 393.744 206.894 393.594 207.139 393.499C207.5 393.365 207.898 393.365 208.258 393.499C208.48 393.576 208.677 393.709 208.831 393.886C208.924 394.032 208.964 394.112 208.951 394.112Z" fill="#FAFAFA"/>
<path d="M139.154 586.679C136.224 586.533 135.358 582.404 136.49 579.686C137.622 576.969 139.74 574.545 139.767 571.601C139.767 569.057 138.182 566.753 138.022 564.209C137.742 559.626 142.164 555.897 142.364 551.301C142.511 547.732 140.02 544.322 140.633 540.792C141.272 537.009 145.215 534.532 146.12 530.789C147.093 526.793 144.336 522.624 145.388 518.667C146.44 514.711 151.075 511.848 150.423 507.825C150.196 506.493 149.397 505.334 149.091 504.029C148.265 501.032 149.903 497.915 151.875 495.517C153.846 493.12 156.297 490.989 157.522 488.125C159.4 483.729 158.095 478.388 160.32 474.152C162.171 470.636 166.287 468.265 166.806 464.309C168.898 467.865 166.806 472.38 167.326 476.483C167.646 479.147 169.017 481.558 169.87 484.102C170.725 486.714 171.028 489.476 170.759 492.211C170.491 494.947 169.657 497.596 168.312 499.993C166.527 503.136 163.756 506.107 163.903 509.73C164.076 514.112 168.458 517.296 169.231 521.611C170.336 527.778 163.756 533.333 164.675 539.54C164.902 541.152 165.634 542.657 165.781 544.268C166.247 549.756 160.013 553.592 159.121 559.054C158.428 563.05 160.732 567.179 159.787 571.108C159.041 574.145 156.43 576.876 157.123 579.926C157.561 581.208 158.123 582.443 158.801 583.616C159.306 584.812 159.47 586.125 159.275 587.408C159.08 588.692 158.533 589.896 157.695 590.888C156.826 591.854 155.67 592.515 154.398 592.776C153.125 593.038 151.802 592.885 150.623 592.34" fill="#1F1F1F"/>
<g opacity="0.5">
<path d="M158.601 583.616C157.923 582.443 157.361 581.208 156.923 579.926C156.284 576.876 158.894 574.145 159.587 571.108C160.533 567.179 158.255 563.05 158.921 559.054C159.867 553.632 166.1 549.73 165.581 544.268C165.434 542.657 164.702 541.152 164.475 539.54C163.556 533.333 170.136 527.778 169.031 521.611C168.258 517.296 163.876 514.112 163.703 509.73C163.556 506.107 166.367 503.136 168.112 499.993C169.458 497.596 170.291 494.947 170.559 492.211C170.828 489.476 170.525 486.714 169.67 484.102C168.831 481.558 167.446 479.147 167.126 476.483C166.66 472.38 168.698 467.865 166.607 464.309C166.087 468.305 161.971 470.636 160.12 474.152C157.895 478.388 159.201 483.729 157.323 488.125C156.097 490.989 153.66 493.12 151.675 495.517C149.69 497.915 148.065 501.032 148.891 504.029C149.251 505.361 150.05 506.493 150.223 507.825C150.876 511.821 146.227 514.738 145.188 518.667C144.149 522.597 146.893 526.819 145.921 530.789C145.015 534.532 141.072 537.009 140.433 540.792C139.82 544.322 142.311 547.732 142.164 551.301C141.965 555.897 137.542 559.626 137.822 564.209C137.982 566.753 139.594 569.057 139.567 571.601C139.567 574.545 137.382 576.929 136.29 579.686C135.198 582.444 136.064 586.533 138.954 586.679L150.223 592.34C151.403 592.885 152.725 593.038 153.998 592.776C155.271 592.515 156.426 591.854 157.296 590.888C158.167 589.917 158.75 588.722 158.981 587.437C159.211 586.153 159.08 584.83 158.601 583.616Z" fill="white"/>
</g>
<path d="M154.778 580.939C153.999 579.627 153.606 578.121 153.646 576.596C153.953 574.918 156.776 573.453 157.482 570.602C158.401 566.913 156.75 560.386 157.482 556.669C158.441 551.608 163.663 548.278 163.45 543.256C163.45 541.778 163.596 537.835 163.45 536.383C162.89 530.722 167.859 526.926 167.139 521.305C166.633 517.389 162.571 512.78 162.557 508.757C162.557 505.441 164.942 502.524 166.553 499.513C168.912 495.003 169.528 489.783 168.285 484.848C167.659 482.557 166.593 480.426 166.42 477.988C166.154 474.245 167.992 469.996 166.42 466.813C165.874 470.489 162.424 472.94 160.732 476.297C158.761 480.293 159.68 485.181 157.975 489.35C156.87 492.014 154.792 494.185 153.073 496.516C151.355 498.847 149.903 501.844 150.489 504.508C150.898 505.619 151.24 506.754 151.515 507.905C151.941 511.568 148.012 514.565 147.013 518.215C146.014 521.864 148.158 525.607 147.239 529.337C146.374 532.827 142.95 537.582 142.298 541.098C141.685 544.388 144.669 546.533 144.429 549.823C144.136 554.059 139.887 559.147 139.967 563.396C139.967 565.727 141.965 566.473 141.871 568.817C141.751 571.481 139.487 576.889 138.501 579.473C137.972 580.637 137.758 581.919 137.882 583.191C138.006 584.463 138.463 585.68 139.207 586.719L151.795 592.966C157.363 590.249 157.176 584.748 154.778 580.939Z" fill="#1F1F1F"/>
<path d="M163.237 485.887C163.246 485.98 163.246 486.074 163.237 486.167V486.993C163.237 487.712 163.237 488.777 163.117 490.136C162.998 491.808 162.611 493.449 161.971 494.998C160.954 496.959 159.682 498.778 158.188 500.406C157.389 501.376 156.779 502.487 156.39 503.683C156 504.976 155.846 506.33 155.937 507.679C156.07 510.516 156.95 513.486 157.362 516.709C157.608 518.375 157.554 520.071 157.203 521.718C156.978 522.564 156.647 523.379 156.217 524.142C155.734 524.855 155.29 525.593 154.885 526.353C154.318 528.007 154.29 529.798 154.805 531.468C154.991 532.347 155.191 533.253 155.298 534.132C155.418 535.069 155.418 536.018 155.298 536.956C154.947 538.799 154.36 540.59 153.553 542.284C152.807 543.891 152.158 545.541 151.608 547.226C151.13 548.858 150.985 550.571 151.182 552.261C151.419 553.914 151.477 555.589 151.355 557.256C151.063 558.825 150.529 560.34 149.77 561.744C149.069 563.036 148.533 564.409 148.172 565.834C147.639 568.617 148.438 571.281 148.371 573.746C148.235 575.957 147.749 578.133 146.933 580.193C146.355 581.739 145.94 583.342 145.694 584.974C145.575 586.011 145.684 587.061 146.014 588.051C146.267 588.704 146.467 589.037 146.44 589.05C146.235 588.744 146.061 588.419 145.921 588.078C145.536 587.087 145.395 586.018 145.508 584.961C145.703 583.305 146.092 581.678 146.666 580.113C147.427 578.069 147.876 575.923 147.998 573.746C147.998 572.547 147.825 571.282 147.692 569.95C147.48 568.559 147.48 567.144 147.692 565.754C148.225 562.837 150.356 560.332 150.809 557.189C150.926 555.557 150.859 553.917 150.609 552.301C150.415 550.552 150.569 548.781 151.062 547.092C152.021 543.669 154.112 540.539 154.712 536.916C154.828 536.032 154.828 535.136 154.712 534.252C154.597 533.356 154.437 532.467 154.232 531.588C153.734 529.789 153.832 527.878 154.512 526.14C154.915 525.362 155.359 524.606 155.844 523.876C156.261 523.158 156.579 522.387 156.79 521.585C157.135 519.996 157.189 518.358 156.95 516.749C156.563 513.579 155.697 510.596 155.618 507.679C155.533 506.27 155.705 504.857 156.124 503.509C156.542 502.275 157.183 501.129 158.015 500.126C159.506 498.519 160.786 496.728 161.825 494.798C162.469 493.285 162.873 491.681 163.023 490.043C163.17 488.711 163.21 487.619 163.25 486.913C163.25 486.566 163.25 486.3 163.25 486.087C163.24 486.021 163.235 485.954 163.237 485.887Z" fill="#1F1F1F"/>
<path d="M121.212 588.118C117.123 588.717 114.792 583.229 115.564 579.154C116.337 575.078 118.655 571.162 117.895 567.072C117.229 563.543 114.352 560.785 113.446 557.309C111.808 551.035 116.91 544.641 115.924 538.235C115.138 533.24 110.769 529.204 110.596 524.155C110.463 518.734 115.245 514.205 115.484 508.784C115.724 503.016 110.756 497.955 111.142 492.187C111.528 486.42 117.149 481.185 115.138 475.79C114.472 474.006 113.047 472.62 112.181 470.915C110.21 466.919 111.622 462.204 113.713 458.341C115.804 454.478 118.588 450.869 119.507 446.566C120.906 439.906 117.629 432.913 119.507 426.44C121.105 421.112 126.167 416.636 125.794 411.029C129.67 415.371 128.072 422.204 129.79 427.745C130.949 431.355 133.52 434.312 135.398 437.615C137.296 440.999 138.471 444.739 138.85 448.6C139.228 452.461 138.801 456.359 137.596 460.046C135.971 464.908 132.96 469.77 134.146 474.698C135.584 480.719 142.524 483.929 144.802 489.697C148.025 497.942 140.433 507.439 143.39 515.79C144.149 517.948 145.588 519.786 146.214 522.024C148.372 529.51 140.806 536.583 140.979 544.362C141.112 550.076 145.428 555.164 145.188 560.879C145.002 565.287 142.111 569.776 143.856 573.839C144.602 575.597 146.12 576.903 147.186 578.488C148.215 580.007 148.804 581.782 148.889 583.615C148.974 585.448 148.55 587.269 147.666 588.877C146.728 590.458 145.31 591.697 143.618 592.416C141.927 593.135 140.05 593.295 138.262 592.873" fill="#1F1F1F"/>
<g opacity="0.5">
<path d="M147.266 578.541C146.2 576.956 144.682 575.65 143.936 573.892C142.204 569.83 145.095 565.341 145.268 560.932C145.508 555.218 141.192 550.129 141.059 544.415C140.886 536.636 148.451 529.563 146.294 522.077C145.667 519.893 144.229 518.001 143.47 515.844C140.513 507.492 148.105 497.995 144.882 489.75C142.617 483.982 135.677 480.772 134.226 474.751C133.04 469.77 136.05 464.908 137.675 460.099C138.881 456.412 139.308 452.514 138.93 448.653C138.551 444.792 137.376 441.052 135.478 437.669C133.6 434.365 131.029 431.408 129.87 427.798C128.085 422.257 129.683 415.424 125.874 411.082C126.247 416.69 121.185 421.112 119.587 426.493C117.656 432.967 120.919 440.013 119.587 446.62C118.668 450.922 115.884 454.532 113.793 458.395C111.701 462.257 110.29 467.039 112.261 470.969C113.127 472.674 114.552 474.059 115.218 475.844C117.229 481.238 111.595 486.5 111.222 492.241C110.849 497.982 115.804 503.07 115.564 508.837C115.325 514.259 110.543 518.787 110.676 524.209C110.809 529.257 115.178 533.293 116.004 538.288C116.99 544.695 111.888 551.088 113.526 557.362C114.432 560.839 117.309 563.596 117.975 567.126C118.734 571.202 116.403 575.118 115.644 579.207C114.885 583.296 117.069 588.744 121.212 588.118L138.395 592.873C140.183 593.295 142.06 593.135 143.752 592.416C145.443 591.697 146.861 590.458 147.799 588.877C148.665 587.271 149.074 585.457 148.98 583.634C148.886 581.812 148.293 580.05 147.266 578.541Z" fill="white"/>
</g>
<path d="M141.192 575.877C139.749 574.278 138.793 572.3 138.435 570.176C138.435 567.778 141.911 564.954 142.111 560.852C142.364 555.524 138.302 546.893 138.248 541.551C138.248 534.279 144.522 528.231 142.857 521.331C142.364 519.307 141.525 513.779 140.966 511.794C138.648 504.122 144.482 497.489 141.951 489.91C140.166 484.582 133.28 479.36 132.161 473.779C131.255 469.184 133.76 464.455 135.118 459.873C137.197 452.954 136.647 445.512 133.573 438.974C132.081 435.977 130.017 433.313 129.111 429.983C127.779 424.881 129.111 418.421 125.981 414.532C126.22 419.766 121.985 424.109 120.653 429.184C119.028 435.324 121.625 441.784 120.413 448.018C119.614 452.081 117.323 455.584 115.578 459.287C113.833 462.99 112.634 467.532 114.246 471.115C114.912 472.674 116.071 473.912 116.59 475.551C118.175 480.506 113.54 485.687 113.167 491.068C112.794 496.45 116.79 501.005 116.523 506.413C116.284 511.488 112.847 519 112.9 524.075C112.9 528.791 117.669 530.935 118.228 535.584C118.974 541.525 114.499 549.796 115.764 555.564C116.47 558.774 119.374 559.28 119.88 562.557C120.453 566.326 118.788 574.385 118.122 578.234C117.719 580.008 117.793 581.857 118.336 583.592C118.879 585.328 119.871 586.89 121.212 588.118L140.366 593.326C147.373 588.078 145.534 580.579 141.192 575.877Z" fill="#1F1F1F"/>
<path d="M126.926 441.878C127.381 443.826 127.71 445.801 127.912 447.792C128.202 450.135 128.117 452.509 127.659 454.825C127.327 456.262 126.822 457.653 126.154 458.967C125.461 460.366 124.635 461.791 123.876 463.323C123.028 464.898 122.485 466.62 122.278 468.398C122.078 470.319 122.236 472.261 122.744 474.125C123.716 478.042 125.741 481.918 127.193 486.26C127.99 488.489 128.374 490.846 128.325 493.213C128.259 494.438 128.026 495.648 127.632 496.809C127.149 497.928 126.735 499.076 126.393 500.246C125.807 502.63 126.713 505.094 127.725 507.412C128.218 508.598 128.751 509.783 129.151 511.035C129.539 512.307 129.763 513.623 129.817 514.951C129.822 517.573 129.504 520.186 128.871 522.73C128.271 525.168 127.826 527.642 127.539 530.136C127.323 532.54 127.59 534.963 128.325 537.262C129.106 539.48 129.647 541.775 129.937 544.109C129.969 546.366 129.641 548.615 128.964 550.769C128.361 552.761 127.998 554.818 127.885 556.896C127.95 558.831 128.295 560.747 128.911 562.584C129.485 564.301 129.965 566.049 130.35 567.818C130.627 569.45 130.69 571.112 130.536 572.76C130.429 574.305 130.243 575.77 130.07 577.129C129.686 579.43 129.561 581.767 129.697 584.095C129.817 585.568 130.273 586.994 131.029 588.265C131.562 589.117 131.935 589.503 131.908 589.53C131.549 589.155 131.224 588.749 130.936 588.318C130.143 587.049 129.659 585.612 129.524 584.122C129.356 581.774 129.454 579.415 129.817 577.089C129.977 575.757 130.15 574.279 130.243 572.733C130.363 571.112 130.274 569.483 129.977 567.885C129.576 566.13 129.087 564.396 128.511 562.69C127.869 560.818 127.51 558.861 127.446 556.883C127.542 554.773 127.9 552.683 128.511 550.662C129.165 548.559 129.48 546.364 129.444 544.162C129.163 541.857 128.636 539.588 127.872 537.395C127.11 535.042 126.833 532.559 127.059 530.096C127.343 527.579 127.788 525.083 128.391 522.624C129.016 520.123 129.329 517.555 129.324 514.978C129.28 513.694 129.065 512.422 128.685 511.195C128.285 509.97 127.779 508.797 127.353 507.612C126.803 506.441 126.358 505.224 126.021 503.976C125.728 502.714 125.728 501.401 126.021 500.139C126.369 498.953 126.787 497.787 127.273 496.65C127.656 495.531 127.884 494.366 127.952 493.186C127.998 490.878 127.624 488.581 126.846 486.406C125.434 482.104 123.41 478.215 122.437 474.232C121.938 472.312 121.789 470.317 121.998 468.345C122.222 466.528 122.787 464.77 123.663 463.163C124.435 461.618 125.288 460.206 125.967 458.821C126.641 457.558 127.151 456.216 127.486 454.825C127.963 452.539 128.08 450.193 127.832 447.872C127.659 445.967 127.406 444.488 127.259 443.476C127.179 442.997 127.126 442.624 127.086 442.344C127.046 442.064 126.926 441.878 126.926 441.878Z" fill="#1F1F1F"/>
<path d="M118.548 590.822C116.204 591.967 113.753 589.13 113.433 586.546C113.113 583.962 113.726 581.152 112.487 578.861C111.408 576.876 109.157 575.784 107.932 573.879C105.747 570.442 107.572 565.634 105.734 561.984C104.309 559.147 100.912 557.575 99.8467 554.578C98.7145 551.368 100.712 547.732 99.8467 544.442C98.8743 540.939 94.9183 538.874 94.0392 535.344C93.1601 531.814 95.5044 527.592 93.2533 524.688C92.4053 523.862 91.5162 523.08 90.5893 522.344C88.6579 520.372 88.5647 517.242 89.0708 514.525C89.577 511.808 90.5493 509.104 90.2696 506.36C89.8301 502.137 86.5001 498.541 86.4068 494.305C86.3269 490.762 88.4981 487.152 87.1927 483.862C90.3495 485.714 90.7225 490.109 92.8537 493.08C94.1857 495.011 96.3569 496.29 98.1817 497.902C99.973 499.558 101.4 501.57 102.372 503.808C103.345 506.046 103.841 508.462 103.829 510.902C103.829 514.125 102.937 517.629 104.615 520.372C106.64 523.702 111.408 524.275 113.939 527.286C117.469 531.601 114.765 538.754 118.148 543.176C119.027 544.322 120.24 545.174 121.039 546.373C123.703 550.369 120.613 556.123 122.224 560.745C123.41 564.142 126.98 566.353 127.939 569.816C128.685 572.48 127.819 575.744 129.644 577.808C130.538 578.611 131.506 579.329 132.534 579.953C133.444 580.66 134.139 581.607 134.544 582.686C134.948 583.765 135.046 584.935 134.825 586.067C134.564 587.192 133.951 588.205 133.074 588.958C132.197 589.71 131.102 590.163 129.95 590.249" fill="#1F1F1F"/>
<g opacity="0.5">
<path d="M132.374 580.046C131.346 579.423 130.379 578.705 129.484 577.901C127.659 575.81 128.525 572.573 127.779 569.909C126.82 566.446 123.25 564.235 122.064 560.839C120.453 556.217 123.61 550.516 120.879 546.466C120.08 545.268 118.868 544.415 117.989 543.269C114.605 538.847 117.309 531.694 113.779 527.379C111.315 524.368 106.547 523.796 104.455 520.466C102.777 517.722 103.643 514.219 103.67 510.995C103.681 508.555 103.185 506.139 102.213 503.901C101.24 501.663 99.8132 499.652 98.0219 497.995C96.2636 496.383 94.1591 495.104 92.6939 493.173C90.5627 490.203 90.1897 485.807 87.0329 483.956C88.3649 487.246 86.1671 490.855 86.247 494.398C86.3402 498.634 89.6703 502.231 90.1098 506.453C90.3895 509.197 89.4172 511.901 88.911 514.618C88.4048 517.335 88.4981 520.466 90.4295 522.437C91.407 523.178 92.3452 523.969 93.24 524.808C95.4911 527.645 93.1334 531.894 94.0259 535.464C94.9183 539.034 98.861 541.058 99.8334 544.562C100.739 547.852 98.7412 551.488 99.8334 554.698C100.899 557.695 104.296 559.267 105.721 562.104C107.559 565.754 105.721 570.562 107.919 573.999C109.144 575.904 111.395 576.996 112.474 578.98C113.713 581.271 113.087 584.082 113.42 586.666C113.753 589.25 116.19 592.087 118.535 590.942L129.723 590.462C130.876 590.376 131.97 589.923 132.847 589.171C133.724 588.418 134.338 587.405 134.599 586.28C134.85 585.137 134.775 583.946 134.382 582.843C133.989 581.741 133.293 580.771 132.374 580.046Z" fill="white"/>
</g>
<path d="M128.245 579.606C127.08 578.934 126.128 577.946 125.501 576.756C125.008 575.331 126.567 572.96 125.887 570.442C125.008 567.192 120.906 562.837 119.853 559.64C118.401 555.311 121.039 550.462 118.694 546.653C118.015 545.534 116.47 542.39 115.724 541.325C112.847 537.182 115.071 532.081 112.088 528.005C109.997 525.168 104.855 523.356 103.11 520.239C101.672 517.655 102.271 514.365 102.191 511.341C102.101 506.798 100.337 502.449 97.236 499.127C95.6153 497.777 94.1379 496.264 92.827 494.612C91.0022 491.828 90.576 487.698 87.9652 485.967C89.1241 489.057 87.4724 492.467 87.6456 495.784C87.8587 499.78 90.6559 503.136 91.1354 507.106C91.4551 509.69 90.7491 512.234 90.4294 514.778C90.1098 517.322 90.243 520.279 91.908 522.144C92.7016 522.836 93.4574 523.569 94.1724 524.342C96.0771 527.006 94.3056 531.002 95.1314 534.292C95.9572 537.582 99.2206 539.54 100.1 542.817C100.979 546.093 100.34 551.075 101.352 554.099C102.298 556.909 105.534 557.282 106.773 559.946C108.371 563.369 107.293 569.177 109.171 572.4C110.21 574.185 112.048 573.919 112.98 575.784C114.059 577.941 114.619 583.083 114.965 585.507C115.059 586.639 115.448 587.727 116.093 588.661C116.738 589.596 117.616 590.346 118.641 590.835L131.109 590.249C134.279 585.734 131.721 581.591 128.245 579.606Z" fill="#1F1F1F"/>
<path d="M93.7861 502.164C93.836 502.231 93.8805 502.303 93.9193 502.377C94.0259 502.537 94.1458 502.75 94.2923 503.003C94.5986 503.563 95.0515 504.335 95.5444 505.494C96.1825 506.843 96.5964 508.287 96.7698 509.77C96.8238 511.732 96.6223 513.693 96.1704 515.604C95.9641 516.7 95.9641 517.825 96.1704 518.921C96.4048 520.099 96.8564 521.224 97.5024 522.237C98.8344 524.382 100.792 526.3 102.511 528.631C103.431 529.825 104.122 531.18 104.549 532.627C104.75 533.383 104.844 534.163 104.828 534.945C104.763 535.702 104.736 536.462 104.748 537.222C105.023 538.748 105.773 540.147 106.893 541.218C107.412 541.831 107.959 542.444 108.451 543.123C108.936 543.816 109.33 544.568 109.624 545.361C110.134 546.937 110.447 548.57 110.556 550.223C110.672 551.792 110.881 553.353 111.182 554.898C111.52 556.368 112.145 557.758 113.02 558.987C113.92 560.17 114.688 561.448 115.311 562.797C115.763 564.145 116.001 565.557 116.017 566.979C116.033 568.28 116.212 569.573 116.55 570.829C117.323 573.2 119.094 574.931 120.12 576.876C120.962 578.661 121.519 580.566 121.771 582.524C121.98 583.972 122.351 585.393 122.877 586.759C123.22 587.614 123.753 588.379 124.435 588.997C124.928 589.41 125.221 589.583 125.195 589.597C124.902 589.452 124.626 589.278 124.369 589.077C123.641 588.474 123.066 587.707 122.691 586.839C122.138 585.466 121.736 584.037 121.492 582.577C121.242 580.654 120.699 578.78 119.88 577.022C118.881 575.144 117.083 573.439 116.23 570.922C115.378 568.404 115.964 565.594 114.898 562.93C114.281 561.62 113.526 560.378 112.647 559.227C111.733 557.956 111.081 556.516 110.729 554.991C109.997 551.901 110.276 548.571 109.171 545.507C108.894 544.757 108.522 544.046 108.065 543.389C107.599 542.737 107.066 542.137 106.547 541.525C105.356 540.377 104.562 538.879 104.282 537.249C104.268 536.467 104.295 535.684 104.362 534.905C104.389 534.197 104.322 533.49 104.162 532.8C103.748 531.417 103.085 530.121 102.204 528.977C100.539 526.686 98.5813 524.741 97.2227 522.544C96.5454 521.485 96.0669 520.311 95.8108 519.08C95.5962 517.94 95.5962 516.77 95.8108 515.631C96.2868 513.75 96.5152 511.816 96.4901 509.876C96.3365 508.42 95.9591 506.995 95.3712 505.654C94.905 504.548 94.4788 503.709 94.199 503.136L93.8794 502.484C93.8128 502.257 93.7728 502.164 93.7861 502.164Z" fill="#1F1F1F"/>
<path d="M100.699 580.965L105.548 590.822H164.622L171.295 580.965H100.699Z" fill="#455A64"/>
<path d="M106.96 587.425L115.804 617.955L155.604 617.981L163.61 587.479L106.96 587.425Z" fill="#455A64"/>
<path d="M164.369 590.742C164.369 590.889 151.182 590.995 134.918 590.995C118.655 590.995 105.481 590.889 105.481 590.742C105.481 590.595 118.668 590.489 134.918 590.489C151.169 590.489 164.369 590.609 164.369 590.742Z" fill="#1F1F1F"/>
<path d="M480.719 63.6696H155.538V236.976H480.719V63.6696Z" fill="#FAFAFA"/>
<path d="M480.732 236.976C480.732 234.885 480.626 170.27 480.466 63.6696L480.732 63.936L155.564 64.0159L155.911 63.6696C155.911 124.942 155.911 183.55 155.911 236.976L155.578 236.656L389.397 236.816L456.636 236.896H474.565H479.187H480.772H479.227H474.592H456.743L389.583 236.989L155.538 237.149H155.218V236.816C155.218 183.35 155.218 124.715 155.218 63.5098V63.1635H155.591L480.759 63.2434H481.025V63.5098C480.852 170.27 480.732 234.885 480.732 236.976Z" fill="#1F1F1F"/>
<path d="M334.519 91.9746C334.519 92.1744 311.435 92.3209 282.97 92.3209C254.505 92.3209 231.435 92.1744 231.435 91.9746C231.435 91.7748 254.505 91.6283 282.97 91.6283C311.435 91.6283 334.519 91.7881 334.519 91.9746Z" fill="#1F1F1F"/>
<path d="M313.313 103.536C313.313 103.723 295.691 103.883 273.953 103.883C252.214 103.883 234.592 103.723 234.592 103.536C234.592 103.35 252.214 103.19 273.953 103.19C295.691 103.19 313.313 103.337 313.313 103.536Z" fill="#E0E0E0"/>
<path d="M351.382 180.339C351.382 179.007 350.21 178.168 348.451 178.168C347.67 178.139 346.893 178.308 346.195 178.66C345.496 179.012 344.898 179.534 344.455 180.18L341.165 178.248C342.025 177.028 343.186 176.05 344.535 175.411C345.884 174.771 347.375 174.492 348.864 174.599C352.953 174.599 355.777 176.423 355.777 179.634C355.777 183.989 351.209 184.482 351.209 187.359H347.093C347.133 183.55 351.382 182.71 351.382 180.339ZM346.6 191.715C346.722 191.113 347.049 190.571 347.525 190.182C348 189.793 348.596 189.581 349.211 189.581C349.825 189.581 350.421 189.793 350.896 190.182C351.372 190.571 351.699 191.113 351.821 191.715C351.699 192.317 351.372 192.858 350.896 193.247C350.421 193.636 349.825 193.849 349.211 193.849C348.596 193.849 348 193.636 347.525 193.247C347.049 192.858 346.722 192.317 346.6 191.715Z" fill="#1F1F1F"/>
<path d="M203.69 151.435C203.69 152.767 204.862 153.62 206.62 153.62C207.403 153.647 208.18 153.476 208.879 153.122C209.578 152.768 210.175 152.243 210.616 151.595L213.906 153.526C213.044 154.745 211.883 155.721 210.535 156.36C209.186 156.999 207.696 157.28 206.207 157.176C202.118 157.176 199.294 155.351 199.294 152.141C199.294 147.785 203.863 147.293 203.863 144.415H207.965C207.925 148.225 203.69 149.064 203.69 151.435ZM208.471 140.06C208.349 140.662 208.022 141.203 207.547 141.592C207.071 141.981 206.475 142.194 205.861 142.194C205.246 142.194 204.651 141.981 204.175 141.592C203.699 141.203 203.372 140.662 203.25 140.06C203.372 139.458 203.699 138.916 204.175 138.527C204.651 138.138 205.246 137.926 205.861 137.926C206.475 137.926 207.071 138.138 207.547 138.527C208.022 138.916 208.349 139.458 208.471 140.06Z" fill="#1F1F1F"/>
<path d="M442.451 150.33C442.451 150.516 392.687 150.676 331.308 150.676C269.93 150.676 220.153 150.516 220.153 150.33C220.153 150.143 269.903 149.983 331.308 149.983C392.714 149.983 442.451 150.13 442.451 150.33Z" fill="#1F1F1F"/>
<path d="M442.45 166.78C442.45 166.98 387.838 167.126 320.586 167.126C253.333 167.126 198.694 166.98 198.694 166.78C198.694 166.58 253.306 166.433 320.586 166.433C387.865 166.433 442.45 166.593 442.45 166.78Z" fill="#1F1F1F"/>
<path d="M333 187.133C333 187.319 302.71 187.479 265.374 187.479C228.038 187.479 197.749 187.319 197.749 187.133C197.749 186.946 228.012 186.786 265.374 186.786C302.737 186.786 333 186.946 333 187.133Z" fill="#1F1F1F"/>
<path d="M209.524 217.782V219.221H203.796V218.075L206.753 215.278C207.432 214.638 207.552 214.239 207.552 213.866C207.552 213.267 207.139 212.907 206.327 212.907C206.019 212.895 205.714 212.959 205.437 213.094C205.161 213.229 204.922 213.43 204.742 213.679L203.41 212.854C203.759 212.384 204.219 212.007 204.749 211.759C205.279 211.51 205.862 211.397 206.447 211.428C208.165 211.428 209.297 212.294 209.297 213.693C209.282 214.173 209.153 214.643 208.922 215.065C208.69 215.486 208.363 215.846 207.965 216.117L206.207 217.782H209.524Z" fill="#1F1F1F"/>
<path d="M221.365 217.582H217.795L217.116 219.221H215.305L218.714 211.548H220.473L223.896 219.221H222.044L221.365 217.582ZM220.806 216.25L219.58 213.306L218.368 216.25H220.806Z" fill="#1F1F1F"/>
<path d="M230.609 215.851V219.221H228.904V216.117C228.904 215.158 228.465 214.718 227.705 214.718C226.946 214.718 226.294 215.225 226.294 216.303V219.221H224.589V213.333H226.214V214.026C226.469 213.768 226.775 213.566 227.112 213.431C227.448 213.296 227.809 213.231 228.172 213.24C228.512 213.219 228.853 213.274 229.17 213.401C229.487 213.527 229.772 213.722 230.005 213.972C230.238 214.221 230.413 214.519 230.517 214.844C230.622 215.168 230.653 215.512 230.609 215.851Z" fill="#1F1F1F"/>
<path d="M231.595 218.674L232.168 217.449C232.783 217.82 233.487 218.018 234.206 218.022C234.991 218.022 235.298 217.809 235.298 217.476C235.298 216.517 231.728 217.476 231.728 215.145C231.728 214.026 232.74 213.24 234.459 213.24C235.245 213.223 236.023 213.401 236.723 213.759L236.164 214.972C235.644 214.677 235.056 214.525 234.459 214.532C233.699 214.532 233.366 214.772 233.366 215.078C233.366 216.09 236.923 215.078 236.923 217.436C236.923 218.528 235.911 219.314 234.139 219.314C233.25 219.327 232.372 219.107 231.595 218.674Z" fill="#1F1F1F"/>
<path d="M247.339 213.333L245.208 219.221H243.556L242.224 215.558L240.892 219.221H239.241L237.096 213.333H238.708L240.04 217.329L241.492 213.333H242.93L244.342 217.329L245.767 213.333H247.339Z" fill="#1F1F1F"/>
<path d="M253.719 216.756H249.257C249.351 217.124 249.573 217.445 249.883 217.663C250.194 217.88 250.572 217.979 250.949 217.942C251.222 217.954 251.494 217.909 251.748 217.811C252.003 217.712 252.234 217.562 252.427 217.369L253.333 218.355C252.872 218.798 252.296 219.104 251.67 219.237C251.045 219.371 250.394 219.328 249.792 219.112C249.19 218.896 248.66 218.516 248.262 218.015C247.864 217.514 247.613 216.912 247.539 216.277C247.535 215.868 247.614 215.462 247.772 215.085C247.93 214.708 248.163 214.366 248.458 214.082C248.752 213.798 249.101 213.577 249.483 213.432C249.866 213.287 250.274 213.222 250.682 213.24C251.091 213.219 251.499 213.284 251.881 213.43C252.263 213.577 252.61 213.801 252.9 214.09C253.19 214.378 253.416 214.724 253.564 215.106C253.712 215.487 253.779 215.895 253.759 216.304C253.759 216.423 253.733 216.61 253.719 216.756ZM249.244 215.757H252.148C252.083 215.42 251.902 215.116 251.637 214.897C251.372 214.678 251.039 214.558 250.696 214.558C250.352 214.558 250.019 214.678 249.754 214.897C249.489 215.116 249.309 215.42 249.244 215.757Z" fill="#1F1F1F"/>
<path d="M258.555 213.24V214.825H258.168C257.952 214.807 257.735 214.838 257.532 214.915C257.329 214.992 257.147 215.114 256.997 215.271C256.848 215.428 256.735 215.617 256.668 215.823C256.601 216.03 256.581 216.248 256.61 216.463V219.247H254.892V213.36H256.53V214.132C256.769 213.83 257.079 213.591 257.432 213.435C257.785 213.28 258.17 213.213 258.555 213.24Z" fill="#1F1F1F"/>
<path d="M213.306 111.8C221.608 103.498 221.608 90.0376 213.306 81.7356C205.004 73.4335 191.544 73.4335 183.242 81.7356C174.94 90.0376 174.94 103.498 183.242 111.8C191.544 120.102 205.004 120.102 213.306 111.8Z" fill="#1F1F1F"/>
<path d="M205.847 94.3589C205.847 95.8579 205.403 97.3232 204.57 98.5696C203.737 99.816 202.554 100.787 201.169 101.361C199.784 101.935 198.26 102.085 196.79 101.792C195.319 101.5 193.969 100.778 192.909 99.7181C191.849 98.6582 191.127 97.3077 190.835 95.8375C190.542 94.3673 190.692 92.8434 191.266 91.4585C191.84 90.0736 192.811 88.8899 194.058 88.0571C195.304 87.2243 196.769 86.7798 198.268 86.7798C200.278 86.7798 202.206 87.5783 203.628 88.9997C205.049 90.421 205.847 92.3488 205.847 94.3589Z" fill="#FAFAFA"/>
<path d="M186.773 112.394C186.773 112.394 190.583 104.842 198.308 104.842C206.034 104.842 210.296 112.021 210.296 112.021C207.007 114.959 202.716 116.522 198.308 116.39C190.623 116.324 186.773 112.394 186.773 112.394Z" fill="#FAFAFA"/>
<path d="M620.273 617.528C620.273 617.728 492.241 617.875 334.345 617.875C176.45 617.875 48.3916 617.728 48.3916 617.528C48.3916 617.329 176.397 617.182 334.345 617.182C492.294 617.182 620.273 617.342 620.273 617.528Z" fill="#1F1F1F"/>
<path d="M382.884 270.649C382.884 270.649 377.289 300.419 378.048 302.311C378.808 304.202 387.292 312.407 390.329 311.635C391.151 311.164 391.893 310.566 392.527 309.863L404.209 305.867L398.401 255.384L389.077 274.578L382.884 270.649Z" fill="#455A64"/>
<path d="M392.527 309.85C392.407 309.85 393.047 307.892 393.34 304.655C393.69 300.436 393.623 296.193 393.14 291.988C392.698 287.776 391.901 283.61 390.755 279.534C389.876 276.403 388.984 274.578 389.09 274.525C389.379 274.906 389.616 275.322 389.796 275.764C390.349 276.94 390.825 278.15 391.222 279.387C392.534 283.459 393.427 287.654 393.886 291.908C394.39 296.16 394.39 300.456 393.886 304.708C393.732 305.998 393.469 307.273 393.1 308.518C392.964 308.984 392.772 309.431 392.527 309.85Z" fill="#1F1F1F"/>
<path d="M446.073 185.881C448.268 183.273 450.163 180.427 451.721 177.396C453.272 174.323 453.742 170.818 453.053 167.446C452.587 165.514 451.601 163.703 451.308 161.731C450.922 159.067 451.854 156.07 450.682 153.58C448.844 149.69 443.396 149.464 439.906 146.92C437.242 144.962 435.671 141.592 432.713 139.94C430.143 138.608 426.986 138.808 424.135 139.42C421.285 140.033 418.408 140.966 415.491 140.752C413.42 140.475 411.365 140.084 409.337 139.58C407.282 139.086 405.115 139.391 403.276 140.433C401.558 141.605 400.746 144.229 402.064 145.854C398.588 144.522 394.525 147.466 393.886 151.089C393.246 154.712 395.378 158.441 398.401 160.586C401.554 162.581 405.16 163.75 408.884 163.983C419.314 165.168 430.383 163.277 438.814 157.096" fill="#1F1F1F"/>
<path d="M446.287 172.667L443.623 224.615C443.514 226.712 442.978 228.764 442.048 230.647C441.119 232.53 439.815 234.203 438.216 235.564C436.618 236.926 434.759 237.947 432.752 238.565C430.746 239.184 428.634 239.386 426.547 239.161C418.288 238.308 411.894 237.056 412.334 228.798C412.534 224.895 412.92 215.704 412.907 215.304C412.907 215.304 399.68 213.333 399.374 200.186C399.227 193.833 400.013 180.712 400.839 168.871C401.289 162.727 404.044 156.98 408.552 152.781C413.059 148.582 418.987 146.241 425.148 146.227H426.48C440.213 146.973 447.339 159.001 446.287 172.667Z" fill="#FFD5BD"/>
<path d="M412.92 215.158C419.013 215.238 424.993 213.509 430.103 210.19C430.103 210.19 426.107 219.673 412.933 218.568L412.92 215.158Z" fill="#FFB294"/>
<path d="M403.942 180.22C403.942 180.711 404.135 181.183 404.478 181.534C404.822 181.885 405.289 182.087 405.781 182.098C406.02 182.118 406.26 182.089 406.488 182.013C406.716 181.937 406.926 181.816 407.105 181.656C407.284 181.497 407.43 181.303 407.532 181.086C407.634 180.868 407.69 180.633 407.699 180.393C407.695 179.905 407.504 179.437 407.164 179.087C406.824 178.737 406.361 178.532 405.874 178.515C405.634 178.495 405.393 178.523 405.164 178.599C404.936 178.675 404.725 178.796 404.545 178.955C404.364 179.115 404.218 179.309 404.114 179.526C404.011 179.743 403.952 179.979 403.942 180.22Z" fill="#1F1F1F"/>
<path d="M403.783 175.344C404.022 175.584 405.448 174.532 407.472 174.519C409.497 174.505 411.002 175.518 411.215 175.265C411.428 175.011 411.082 174.718 410.429 174.252C409.548 173.648 408.501 173.331 407.432 173.346C406.379 173.351 405.354 173.686 404.502 174.306C403.876 174.798 403.676 175.238 403.783 175.344Z" fill="#1F1F1F"/>
<path d="M423.123 181.219C423.13 181.71 423.326 182.18 423.671 182.53C424.016 182.88 424.483 183.083 424.975 183.097C425.213 183.115 425.453 183.085 425.68 183.008C425.907 182.931 426.116 182.81 426.295 182.651C426.474 182.492 426.619 182.298 426.722 182.082C426.825 181.866 426.883 181.631 426.893 181.392C426.893 180.9 426.7 180.429 426.357 180.078C426.013 179.727 425.546 179.524 425.054 179.514C424.815 179.494 424.573 179.522 424.345 179.598C424.116 179.674 423.906 179.795 423.725 179.954C423.545 180.114 423.398 180.308 423.295 180.525C423.191 180.742 423.133 180.978 423.123 181.219Z" fill="#1F1F1F"/>
<path d="M423.749 175.611C423.989 175.851 425.401 174.798 427.425 174.785C429.45 174.772 430.955 175.784 431.182 175.531C431.408 175.278 431.048 174.985 430.382 174.519C429.501 173.914 428.454 173.598 427.385 173.613C426.333 173.62 425.308 173.955 424.455 174.572C423.842 175.065 423.576 175.504 423.749 175.611Z" fill="#1F1F1F"/>
<path d="M416.53 190.636C415.455 190.315 414.346 190.123 413.226 190.063C412.707 190.063 412.214 189.917 412.134 189.57C412.079 189.039 412.191 188.503 412.454 188.038C412.933 186.786 413.426 185.468 413.946 184.042C416.023 178.435 417.515 173.826 417.289 173.746C417.062 173.666 415.198 178.142 413.12 183.749C412.627 185.081 412.147 186.413 411.694 187.745C411.376 188.37 411.291 189.088 411.455 189.77C411.532 189.952 411.648 190.114 411.796 190.246C411.943 190.377 412.118 190.474 412.307 190.529C412.595 190.599 412.89 190.635 413.186 190.636C414.296 190.785 415.42 190.785 416.53 190.636Z" fill="#1F1F1F"/>
<path d="M422.524 192.008C422.191 192.008 422.204 194.179 420.339 195.751C418.474 197.322 416.117 197.083 416.104 197.402C416.09 197.722 416.636 197.815 417.622 197.842C418.913 197.852 420.167 197.409 421.165 196.59C422.112 195.8 422.714 194.673 422.843 193.446C422.923 192.541 422.67 191.994 422.524 192.008Z" fill="#1F1F1F"/>
<path d="M423.136 167.699C423.35 168.245 425.374 167.965 427.758 168.245C430.143 168.525 432.074 169.151 432.38 168.658C432.527 168.418 432.181 167.912 431.395 167.326C430.361 166.663 429.182 166.261 427.958 166.154C426.742 166.012 425.509 166.163 424.362 166.593C423.483 167.006 423.057 167.432 423.136 167.699Z" fill="#1F1F1F"/>
<path d="M404.475 169.497C404.835 169.95 406.233 169.497 407.912 169.497C409.59 169.497 411.015 169.79 411.348 169.311C411.481 169.071 411.255 168.618 410.629 168.192C409.79 167.67 408.815 167.411 407.828 167.447C406.841 167.482 405.887 167.811 405.088 168.391C404.502 168.791 404.315 169.271 404.475 169.497Z" fill="#1F1F1F"/>
<path d="M445.314 182.404C445.541 182.311 454.359 179.74 454.172 188.678C453.986 197.616 444.941 195.578 444.928 195.338C444.915 195.098 445.314 182.404 445.314 182.404Z" fill="#FFD5BD"/>
<path d="M447.765 191.981C447.765 191.981 447.925 192.101 448.178 192.221C448.549 192.397 448.975 192.421 449.363 192.288C449.953 191.933 450.438 191.428 450.768 190.824C451.099 190.22 451.262 189.539 451.242 188.851C451.279 188.08 451.142 187.311 450.842 186.6C450.765 186.315 450.619 186.052 450.417 185.836C450.215 185.621 449.963 185.457 449.683 185.361C449.504 185.311 449.313 185.324 449.143 185.4C448.972 185.475 448.834 185.607 448.751 185.774C448.618 186.014 448.671 186.2 448.631 186.214C448.591 186.227 448.431 186.054 448.511 185.681C448.577 185.469 448.707 185.282 448.884 185.148C449.139 184.966 449.454 184.89 449.763 184.935C450.132 185.018 450.473 185.194 450.755 185.445C451.037 185.697 451.251 186.016 451.375 186.373C451.742 187.16 451.911 188.024 451.868 188.891C451.893 189.694 451.68 190.487 451.255 191.169C450.831 191.852 450.215 192.394 449.483 192.727C449.238 192.788 448.982 192.794 448.733 192.746C448.485 192.697 448.25 192.596 448.045 192.447C447.778 192.208 447.738 191.994 447.765 191.981Z" fill="#FFB294"/>
<path d="M400.599 156.657C401.492 160.173 408.977 162.904 414.971 162.291C420.486 161.731 422.963 158.801 426.879 156.577C429.33 155.165 429.33 155.165 432.82 155.471C435.657 155.724 437.349 158.894 439.107 161.132C436.616 167.792 438.415 175.278 440.226 182.204C440.341 182.992 440.716 183.719 441.292 184.269C442.371 185.081 443.956 184.442 444.888 183.456C446.238 181.772 447.067 179.731 447.272 177.582C448.166 172.753 448.084 167.794 447.033 162.997C445.962 158.175 443.503 153.771 439.96 150.33C435.343 146.161 429.301 143.929 423.083 144.096C416.908 144.32 410.958 146.477 406.074 150.263C403.747 151.908 401.866 154.105 400.599 156.657Z" fill="#1F1F1F"/>
<path d="M414.412 181.152C414.332 181.152 414.505 180.393 414.412 179.061C414.244 177.163 413.452 175.374 412.161 173.973C411.223 172.939 410.043 172.155 408.727 171.69C407.411 171.225 406.001 171.094 404.622 171.309C402.952 171.579 401.406 172.355 400.192 173.532C398.977 174.708 398.152 176.229 397.828 177.889C397.522 179.556 397.731 181.276 398.428 182.821C399.126 184.366 400.278 185.661 401.731 186.533C402.927 187.256 404.283 187.669 405.678 187.737C407.074 187.804 408.464 187.523 409.723 186.92C411.45 186.109 412.857 184.745 413.719 183.043C414.319 181.831 414.425 181.072 414.505 181.085C414.516 181.274 414.493 181.464 414.438 181.645C414.349 182.165 414.193 182.671 413.972 183.15C413.18 184.985 411.765 186.48 409.976 187.372C408.488 188.121 406.821 188.438 405.162 188.29C403.503 188.141 401.918 187.531 400.587 186.53C399.256 185.528 398.232 184.175 397.629 182.622C397.026 181.07 396.869 179.379 397.176 177.742C397.528 175.943 398.427 174.297 399.75 173.029C401.074 171.761 402.756 170.932 404.568 170.656C406.038 170.441 407.538 170.595 408.933 171.104C410.328 171.613 411.575 172.462 412.56 173.573C413.863 175.051 414.62 176.932 414.705 178.901C414.726 179.432 414.686 179.964 414.585 180.486C414.492 180.979 414.438 181.152 414.412 181.152Z" fill="#1F1F1F"/>
<path d="M435.87 181.552C435.791 181.552 435.964 180.792 435.87 179.46C435.704 177.566 434.912 175.78 433.619 174.385C432.681 173.352 431.502 172.568 430.186 172.103C428.87 171.638 427.459 171.507 426.08 171.721C424.468 171.976 422.968 172.709 421.778 173.826C420.844 174.701 420.126 175.78 419.68 176.98C419.235 178.179 419.074 179.466 419.211 180.738C419.348 182.011 419.779 183.234 420.469 184.311C421.16 185.388 422.091 186.29 423.19 186.946C424.386 187.666 425.742 188.079 427.137 188.146C428.532 188.213 429.922 187.934 431.182 187.332C432.908 186.521 434.314 185.157 435.178 183.456C435.777 182.244 435.884 181.485 435.964 181.498C435.993 181.684 435.993 181.872 435.964 182.058C435.864 182.577 435.703 183.082 435.484 183.563C434.692 185.398 433.277 186.893 431.488 187.785C430.001 188.533 428.335 188.85 426.678 188.701C425.02 188.553 423.437 187.944 422.107 186.945C420.776 185.945 419.751 184.594 419.147 183.044C418.543 181.493 418.384 179.804 418.688 178.168C419.036 176.366 419.933 174.716 421.257 173.445C422.581 172.174 424.266 171.344 426.08 171.069C427.55 170.854 429.05 171.008 430.445 171.517C431.84 172.026 433.087 172.875 434.072 173.986C435.389 175.482 436.147 177.388 436.217 179.38C436.238 179.912 436.198 180.444 436.097 180.966C435.95 181.378 435.897 181.565 435.87 181.552Z" fill="#1F1F1F"/>
<path d="M418.701 178.488C418.581 178.648 417.569 177.915 416.197 178.062C414.825 178.208 413.986 179.114 413.826 178.981C413.666 178.848 413.826 178.608 414.239 178.222C414.747 177.727 415.41 177.421 416.117 177.356C416.827 177.275 417.543 177.444 418.141 177.835C418.594 178.182 418.767 178.488 418.701 178.488Z" fill="#1F1F1F"/>
<path d="M448.058 181.592C445.934 181.519 443.825 181.206 441.771 180.659C439.672 180.334 437.613 179.785 435.631 179.021C437.755 179.094 439.864 179.407 441.918 179.953C444.018 180.276 446.077 180.825 448.058 181.592Z" fill="#1F1F1F"/>
<path d="M398.095 147.559C398.049 147.841 398.049 148.129 398.095 148.411C398.205 149.199 398.538 149.938 399.054 150.543C399.814 151.446 400.824 152.104 401.958 152.434C403.334 152.809 404.753 153.006 406.18 153.02C408.749 153.152 411.323 153.152 413.892 153.02L416.223 152.834L416.849 152.754H417.076C417.076 152.754 416.996 152.754 416.849 152.754H416.21L413.879 152.874C411.921 152.967 409.19 153.007 406.18 152.874C404.773 152.862 403.372 152.674 402.011 152.314C400.91 152.004 399.924 151.379 399.174 150.516C398.659 149.937 398.313 149.227 398.175 148.465C398.068 147.852 398.122 147.559 398.095 147.559Z" fill="white"/>
<path d="M395.777 149.184C395.744 150.038 395.843 150.891 396.07 151.715C396.589 153.738 397.7 155.559 399.262 156.945C400.824 158.332 402.765 159.219 404.835 159.494C405.677 159.63 406.536 159.63 407.379 159.494C407.379 159.494 407.139 159.494 406.7 159.494C406.08 159.492 405.461 159.443 404.848 159.347C402.824 159.033 400.934 158.142 399.403 156.782C397.872 155.421 396.766 153.648 396.217 151.675C396.043 151.083 395.923 150.477 395.857 149.863C395.804 149.397 395.791 149.184 395.777 149.184Z" fill="white"/>
<path d="M438.095 565.927L453.173 590.196C453.173 590.196 433.566 613.679 435.857 618.434L483.969 590.889L462.031 552.101L438.095 565.927Z" fill="#1F1F1F"/>
<path d="M466.853 579.593C467.399 579.466 467.973 579.546 468.465 579.816C468.957 580.087 469.331 580.529 469.517 581.058C469.667 581.602 469.602 582.183 469.334 582.68C469.066 583.177 468.616 583.55 468.078 583.722C467.502 583.849 466.9 583.758 466.386 583.468C465.872 583.178 465.484 582.709 465.294 582.151C465.2 581.574 465.334 580.984 465.667 580.504C466 580.025 466.506 579.693 467.079 579.58" fill="#E0E0E0"/>
<path d="M484.022 590.889L481.665 587.066L436.377 614.905C436.377 614.905 434.765 617.062 435.87 618.434L484.022 590.889Z" fill="white"/>
<path d="M452.254 590.396C452.387 590.635 453.586 590.063 455.224 590.156C456.863 590.249 457.982 590.889 458.155 590.675C458.328 590.462 457.183 589.343 455.264 589.223C453.346 589.104 452.081 590.209 452.254 590.396Z" fill="#1F1F1F"/>
<path d="M448.405 595.404C448.471 595.657 449.737 595.484 451.069 596.017C452.401 596.55 453.266 597.469 453.493 597.349C453.719 597.229 453.106 595.79 451.388 595.151C449.67 594.512 448.271 595.151 448.405 595.404Z" fill="#1F1F1F"/>
<path d="M448.991 603.063C449.23 602.983 448.884 601.624 447.552 600.679C446.22 599.733 444.821 599.866 444.888 600.119C444.955 600.372 445.967 600.665 447.059 601.451C448.151 602.237 448.751 603.17 448.991 603.063Z" fill="#1F1F1F"/>
<path d="M449.43 584.495C449.643 584.641 450.536 583.709 451.921 583.03C453.306 582.35 454.585 582.191 454.585 581.924C454.585 581.658 453.12 581.378 451.495 582.191C449.87 583.003 449.204 584.375 449.43 584.495Z" fill="#1F1F1F"/>
<path d="M466.853 579.593C467.399 579.466 467.973 579.546 468.465 579.816C468.957 580.087 469.331 580.529 469.517 581.058C469.667 581.602 469.602 582.183 469.334 582.68C469.066 583.177 468.616 583.55 468.078 583.722C467.502 583.849 466.9 583.758 466.386 583.468C465.872 583.178 465.484 582.709 465.294 582.151C465.2 581.574 465.334 580.984 465.667 580.504C466 580.025 466.506 579.693 467.079 579.58" fill="#E0E0E0"/>
<path d="M484.022 590.889L481.665 587.066L436.377 614.905C436.377 614.905 434.765 617.062 435.87 618.434L484.022 590.889Z" fill="white"/>
<path d="M452.254 590.396C452.387 590.635 453.586 590.063 455.224 590.156C456.863 590.249 457.982 590.889 458.155 590.675C458.328 590.462 457.183 589.343 455.264 589.223C453.346 589.104 452.081 590.209 452.254 590.396Z" fill="#1F1F1F"/>
<path d="M448.405 595.404C448.471 595.657 449.737 595.484 451.069 596.017C452.401 596.55 453.266 597.469 453.493 597.349C453.719 597.229 453.106 595.79 451.388 595.151C449.67 594.512 448.271 595.151 448.405 595.404Z" fill="#1F1F1F"/>
<path d="M448.991 603.063C449.23 602.983 448.884 601.624 447.552 600.679C446.22 599.733 444.821 599.866 444.888 600.119C444.955 600.372 445.967 600.665 447.059 601.451C448.151 602.237 448.751 603.17 448.991 603.063Z" fill="#1F1F1F"/>
<path d="M449.43 584.495C449.643 584.641 450.536 583.709 451.921 583.03C453.306 582.35 454.585 582.191 454.585 581.924C454.585 581.658 453.12 581.378 451.495 582.191C449.87 583.003 449.204 584.375 449.43 584.495Z" fill="#1F1F1F"/>
<path d="M435.737 573.626L437.362 602.157C437.362 602.157 408.911 613.399 408.698 618.701L464.122 617.528L463.416 572.973L435.737 573.626Z" fill="#1F1F1F"/>
<path d="M454.452 599.4C454.988 599.55 455.45 599.892 455.75 600.362C456.05 600.831 456.166 601.394 456.077 601.944C455.946 602.487 455.612 602.958 455.143 603.261C454.675 603.563 454.107 603.674 453.559 603.569C452.999 603.41 452.516 603.051 452.202 602.561C451.887 602.07 451.764 601.481 451.854 600.905C452.051 600.354 452.454 599.901 452.978 599.64C453.502 599.379 454.106 599.331 454.665 599.507" fill="#E0E0E0"/>
<path d="M464.122 617.529L463.882 613.04L410.829 615.837C410.829 615.837 408.378 616.969 408.698 618.701L464.122 617.529Z" fill="white"/>
<path d="M436.456 601.891C436.456 602.171 437.788 602.264 439.12 603.103C440.452 603.942 441.212 605.074 441.451 604.954C441.691 604.835 441.265 603.289 439.613 602.29C437.962 601.291 436.39 601.651 436.456 601.891Z" fill="#1F1F1F"/>
<path d="M430.689 604.422C430.689 604.688 431.821 605.128 432.767 606.246C433.713 607.365 433.992 608.577 434.272 608.564C434.552 608.551 434.672 607.006 433.473 605.634C432.274 604.262 430.702 604.169 430.689 604.422Z" fill="#1F1F1F"/>
<path d="M427.572 611.455C427.812 611.455 428.158 610.123 427.439 608.671C426.72 607.219 425.427 606.646 425.321 606.873C425.214 607.099 426.014 607.872 426.586 609.097C427.159 610.322 427.266 611.388 427.572 611.455Z" fill="#1F1F1F"/>
<path d="M436.816 595.404C436.923 595.657 438.148 595.257 439.693 595.324C441.238 595.391 442.357 595.857 442.57 595.617C442.783 595.377 441.531 594.445 439.733 594.378C437.935 594.312 436.669 595.138 436.816 595.404Z" fill="#1F1F1F"/>
<path d="M454.452 599.4C454.988 599.55 455.45 599.892 455.75 600.362C456.05 600.831 456.166 601.394 456.077 601.944C455.946 602.487 455.612 602.958 455.143 603.261C454.675 603.563 454.107 603.674 453.559 603.569C452.999 603.41 452.516 603.051 452.202 602.561C451.887 602.07 451.764 601.481 451.854 600.905C452.051 600.354 452.454 599.901 452.978 599.64C453.502 599.379 454.106 599.331 454.665 599.507" fill="#E0E0E0"/>
<path d="M464.122 617.529L463.882 613.04L410.829 615.837C410.829 615.837 408.378 616.969 408.698 618.701L464.122 617.529Z" fill="white"/>
<path d="M436.456 601.891C436.456 602.171 437.788 602.264 439.12 603.103C440.452 603.942 441.212 605.074 441.451 604.954C441.691 604.835 441.265 603.289 439.613 602.29C437.962 601.291 436.39 601.651 436.456 601.891Z" fill="#1F1F1F"/>
<path d="M430.689 604.422C430.689 604.688 431.821 605.128 432.767 606.246C433.713 607.365 433.992 608.577 434.272 608.564C434.552 608.551 434.672 607.006 433.473 605.634C432.274 604.262 430.702 604.169 430.689 604.422Z" fill="#1F1F1F"/>
<path d="M427.572 611.455C427.812 611.455 428.158 610.123 427.439 608.671C426.72 607.219 425.427 606.646 425.321 606.873C425.214 607.099 426.014 607.872 426.586 609.097C427.159 610.322 427.266 611.388 427.572 611.455Z" fill="#1F1F1F"/>
<path d="M436.816 595.404C436.923 595.657 438.148 595.257 439.693 595.324C441.238 595.391 442.357 595.857 442.57 595.617C442.783 595.377 441.531 594.445 439.733 594.378C437.935 594.312 436.669 595.138 436.816 595.404Z" fill="#1F1F1F"/>
<path d="M459.234 390.556C459.234 390.556 462.67 406.22 461.152 408.511C459.523 411.59 458.117 414.782 456.942 418.061L459.247 488.724L466.107 592.62H433.1L418.941 500.992C416.057 496.051 413.751 490.795 412.067 485.327C410.149 478.081 398.881 405.874 398.881 405.874V378.035L459.234 390.556Z" fill="#1F1F1F"/>
<path d="M383.936 379.926C383.936 379.926 390.822 474.605 393.113 483.01C395.404 491.415 442.397 577.355 442.397 577.355L470.649 563.436L433.1 472.7V385.148L383.936 379.926Z" fill="#1F1F1F"/>
<path d="M395.231 388.078C395.219 388.256 395.219 388.434 395.231 388.611C395.231 388.997 395.364 389.517 395.444 390.183C395.657 391.595 395.964 393.606 396.363 396.19C397.176 401.438 398.361 408.964 399.813 418.261C401.265 427.559 403.076 438.681 405.034 450.989C406.033 457.156 407.033 463.616 408.178 470.316C409.275 477.259 410.995 484.089 413.32 490.722C415.81 497.502 419.354 503.682 420.552 510.369C421.978 517.029 422.963 523.463 423.936 529.617C425.8 541.951 427.306 553.086 428.584 562.424C429.863 571.761 430.889 579.34 431.674 584.561C432.074 587.225 432.38 589.197 432.634 590.555C432.767 591.221 432.86 591.728 432.927 592.114C432.947 592.291 432.988 592.465 433.046 592.633C433.067 592.456 433.067 592.278 433.046 592.101C433.046 591.714 432.927 591.195 432.82 590.542C432.634 589.13 432.354 587.106 431.994 584.522C431.315 579.194 430.329 571.694 429.117 562.37C427.905 553.046 426.453 541.871 424.615 529.523C423.656 523.356 422.684 516.883 421.258 510.223C420.046 503.429 416.476 497.196 414.012 490.482C411.718 483.884 410.016 477.096 408.924 470.196C407.765 463.536 406.753 457.049 405.74 450.895C403.716 438.588 401.904 427.505 400.412 418.181C398.921 408.857 397.615 401.385 396.736 396.15L395.71 390.156C395.591 389.503 395.497 388.984 395.417 388.598C395.373 388.419 395.31 388.245 395.231 388.078Z" fill="#455A64"/>
<path d="M462.417 536.796C462.362 537.528 462.362 538.262 462.417 538.994C462.417 540.392 462.55 542.43 462.697 544.935C462.977 549.956 463.483 556.923 464.029 564.542C464.575 572.161 465.121 579.114 465.441 584.122C465.601 586.546 465.734 588.544 465.827 590.063C465.85 590.791 465.926 591.517 466.054 592.234C466.123 591.507 466.123 590.776 466.054 590.049C466.054 588.651 465.987 586.613 465.88 584.095C465.681 579.074 465.254 572.107 464.682 564.488C464.109 556.869 463.523 550.023 463.123 544.908C462.91 542.484 462.737 540.486 462.617 538.967C462.614 538.239 462.547 537.512 462.417 536.796Z" fill="#455A64"/>
<path d="M412.374 225.601L408.458 228.265C408.458 228.265 392.94 262.91 390.276 274.206C387.612 285.501 376.53 403.41 376.53 403.41L385.734 404.142V385.654L412.374 225.601Z" fill="#455A64"/>
<path d="M412.107 227.772C412.107 227.772 399.507 254.345 396.456 269.131C394.099 280.533 381.285 385.681 381.285 385.681L418.248 383.896L440.346 254.092L445.101 220.193C445.101 220.193 423.296 233.513 418.288 232.7C416.901 232.536 415.587 231.987 414.496 231.117C413.404 230.246 412.576 229.088 412.107 227.772Z" fill="#1F1F1F"/>
<path d="M471.395 238.628L447.858 220.193L446.966 214.599L418.022 232.114L404.036 402.171H464.189L457.276 332.56L470.036 257.809L471.395 238.628Z" fill="#455A64"/>
<path d="M418.102 231.835C418.188 232.389 418.331 232.934 418.528 233.46L419.926 237.802C420.077 238.273 420.237 238.752 420.406 239.241C420.52 239.837 420.812 240.386 421.245 240.812C421.563 240.974 421.924 241.03 422.276 240.973C422.628 240.915 422.953 240.747 423.203 240.493C423.683 240.106 424.162 239.72 424.668 239.334L431.155 234.152C435.737 230.463 439.826 227.039 442.717 224.482C444.169 223.15 445.314 222.151 446.1 221.405C446.533 221.044 446.926 220.638 447.272 220.193C446.792 220.48 446.345 220.819 445.94 221.205L442.424 224.109C439.453 226.573 435.324 229.93 430.742 233.619L424.282 238.841C423.31 239.534 422.311 240.786 421.618 240.346C421.285 240.133 421.139 239.56 420.952 239.014L420.433 237.589L418.834 233.313C418.647 232.794 418.401 232.298 418.102 231.835Z" fill="#1F1F1F"/>
<path d="M396.43 256.29C396.423 256.418 396.396 256.544 396.35 256.663L396.084 257.742C395.844 258.674 395.404 260.033 394.978 261.831C394.552 263.629 394.059 265.827 393.566 268.385C393.073 270.942 392.474 273.873 391.981 277.123C389.77 290.123 387.399 308.172 385.161 328.152C382.923 348.132 381.099 366.247 379.833 379.367C379.167 385.88 378.634 391.182 378.261 394.898C378.062 396.683 377.915 398.095 377.809 399.107C377.742 399.56 377.702 399.92 377.662 400.213C377.658 400.34 377.635 400.465 377.595 400.586C377.578 400.457 377.578 400.328 377.595 400.199L377.662 399.107C377.742 398.082 377.848 396.67 377.995 394.871C378.315 391.142 378.781 385.84 379.327 379.314C380.526 366.193 382.231 348.065 384.495 328.072C386.76 308.078 389.197 290.03 391.528 277.043C392.061 273.793 392.714 270.876 393.22 268.305C393.726 265.734 394.339 263.563 394.752 261.765C395.164 259.966 395.697 258.621 395.977 257.689C396.11 257.262 396.23 256.916 396.31 256.65C396.34 256.527 396.38 256.407 396.43 256.29Z" fill="#1F1F1F"/>
<path d="M578.319 254.406L224.649 281.744L235.885 427.111L589.555 399.773L578.319 254.406Z" fill="#FAFAFA"/>
<path d="M589.557 399.787C589.41 397.895 585.161 344.202 578.075 254.439L578.341 254.665L224.695 282.104L225.015 281.731C229.011 332.654 232.74 381.804 236.244 427.106L235.884 426.799L489.577 407.339L589.583 399.787C589.583 399.787 589.024 399.853 587.892 399.946L582.843 400.346L563.263 401.904L489.83 407.672L235.911 427.452H235.578V427.132C232.074 381.844 228.265 332.68 224.322 281.758V281.412H224.668L578.328 254.172H578.568V254.412C585.347 344.189 589.41 397.895 589.557 399.787Z" fill="#1F1F1F"/>
<path d="M294.153 322.089C294.251 310.569 284.993 301.151 273.473 301.052C261.953 300.953 252.535 310.212 252.436 321.732C252.338 333.252 261.596 342.67 273.116 342.769C284.636 342.867 294.054 333.608 294.153 322.089Z" fill="#EBEBEB"/>
<path d="M421.911 302.87C421.911 303.057 396.843 305.161 365.887 307.545C334.931 309.93 309.81 311.728 309.797 311.541C309.783 311.355 334.865 309.264 365.834 306.866C396.803 304.469 421.898 302.684 421.911 302.87Z" fill="#1F1F1F"/>
<path d="M395.391 320.559C395.391 320.746 376.263 322.384 352.62 324.209C328.977 326.034 309.797 327.366 309.783 327.166C309.77 326.966 328.924 325.341 352.567 323.516C376.21 321.691 395.378 320.359 395.391 320.559Z" fill="#E0E0E0"/>
<path d="M542.51 341.578C542.51 341.765 483.183 346.506 409.99 352.167C336.796 357.828 277.416 362.251 277.402 362.064C277.389 361.878 336.716 357.136 409.936 351.475C483.156 345.814 542.497 341.378 542.51 341.578Z" fill="#1F1F1F"/>
<path d="M543.896 359.48C543.896 359.667 484.568 364.409 411.375 370.07C338.181 375.731 278.801 380.153 278.788 379.966C278.774 379.78 338.102 375.038 411.322 369.377C484.542 363.716 543.882 359.28 543.896 359.48Z" fill="#1F1F1F"/>
<path d="M439.56 249.377C439.916 246.398 440.998 243.552 442.71 241.089C444.422 238.625 446.712 236.619 449.38 235.246C452.048 233.874 455.011 233.177 458.011 233.216C461.011 233.255 463.955 234.029 466.586 235.471C472.207 238.468 477.429 243.823 480.705 252.281C489.177 274.206 506.227 308.118 503.003 315.364C499.78 322.61 482.797 328.684 482.797 328.684L466.999 301.778L461.764 302.59L437.708 261.538C437.708 261.538 438.721 256.583 439.56 249.377Z" fill="#455A64"/>
<path d="M475.524 292.654C474.829 292.29 474.036 292.155 473.26 292.267C472.307 292.309 471.372 292.542 470.511 292.952C469.65 293.362 468.879 293.94 468.246 294.653C467.613 295.366 467.129 296.199 466.823 297.103C466.517 298.006 466.396 298.962 466.466 299.913C466.447 300.698 466.671 301.47 467.106 302.124C467.226 302.124 466.919 301.258 466.946 299.9C466.978 298.144 467.618 296.454 468.758 295.118C469.945 293.819 471.554 292.984 473.3 292.76C474.672 292.574 475.524 292.774 475.524 292.654Z" fill="#1F1F1F"/>
<path d="M441.158 250.602C441.292 250.602 441.585 248.485 442.917 245.274C443.705 243.434 444.726 241.702 445.954 240.12C447.44 238.183 449.313 236.577 451.455 235.404C453.641 234.32 456.047 233.75 458.488 233.739C460.485 233.669 462.479 233.935 464.388 234.525C466.147 235.101 467.802 235.956 469.29 237.056C469.29 237.056 469.224 236.936 469.037 236.763C468.783 236.483 468.502 236.229 468.198 236.004C467.1 235.158 465.866 234.505 464.548 234.072C462.597 233.392 460.541 233.063 458.474 233.1C455.93 233.085 453.417 233.665 451.135 234.792C448.907 236.012 446.967 237.697 445.447 239.733C444.214 241.362 443.214 243.156 442.477 245.061C441.971 246.355 441.588 247.693 441.331 249.057C441.195 249.561 441.137 250.082 441.158 250.602Z" fill="#1F1F1F"/>
<path d="M466.999 301.778L416.237 302.124L413.879 318.348C413.879 318.348 453.373 327.672 480.732 325.314L466.999 301.778Z" fill="#FFD5BD"/>
<path d="M397.202 285.155C397.202 285.155 406.886 286.007 408.311 286.287C409.736 286.566 415.557 291.135 415.557 291.135L418.301 304.202L413.879 318.348C410.854 317.849 407.922 316.897 405.181 315.524C401.185 313.393 395.218 304.282 395.218 304.282C395.218 304.282 391.381 304.429 391.088 303.856C390.795 303.283 389.756 300.592 391.088 299.86C391.088 299.86 390.089 296.157 391.515 295.171L393.366 294.878C393.366 294.878 391.661 290.19 394.938 290.19C394.938 290.136 393.366 285.727 397.202 285.155Z" fill="#FFD5BD"/>
<path d="M395.165 289.777C395.165 289.976 397.829 289.777 401.145 290.043C404.462 290.309 407.059 290.802 407.099 290.602C405.226 289.811 403.218 289.391 401.185 289.364C399.171 289.106 397.125 289.246 395.165 289.777Z" fill="#FFB294"/>
<path d="M392.66 294.812C392.66 294.918 393.246 294.891 394.179 294.931L397.802 295.145C399.527 295.33 401.269 295.289 402.983 295.025C401.301 294.613 399.573 294.421 397.842 294.452C396.618 294.378 395.39 294.378 394.166 294.452C393.207 294.532 392.647 294.732 392.66 294.812Z" fill="#FFB294"/>
<path d="M400 298.927C398.597 298.303 397.054 298.059 395.527 298.22C394 298.382 392.543 298.943 391.302 299.847C391.395 300.033 393.193 299.141 395.604 298.901C398.015 298.661 399.946 299.127 400 298.927Z" fill="#FFB294"/>
<path d="M356.35 269.184C355.429 267.784 354.322 266.516 353.06 265.414C352.527 265.083 351.915 264.899 351.288 264.883C350.66 264.867 350.04 265.018 349.49 265.321L348.731 265.934C348.731 265.934 345.015 264.082 343.15 265.321C343.15 265.321 339.62 263.47 337.822 265.321C337.822 265.321 335.158 263.416 333.826 264.935C333.292 265.75 332.951 266.677 332.829 267.644C332.707 268.611 332.806 269.593 333.12 270.516C333.626 271.848 334.452 276.63 335.331 276.736C335.331 276.736 337.529 277.069 337.875 275.884C338.221 274.698 338.368 274.126 338.368 274.126C338.368 274.126 339.034 278.388 340.046 278.641C341.059 278.894 343.003 278.854 343.15 277.003C343.15 277.003 344.029 278.441 344.975 278.068C345.92 277.695 347.079 277.069 347.026 275.924C346.973 274.778 347.026 273.619 347.026 273.619C347.026 273.619 347.466 275.311 348.358 274.951C349.25 274.592 350.036 274.738 350.569 273.34C351.102 271.941 352.407 269.184 352.407 269.184H356.35Z" fill="#FFD5BD"/>
<path d="M347.119 273.553C347.119 273.553 346.973 273.087 346.813 272.341C346.591 271.377 346.591 270.374 346.813 269.41C347.034 268.44 347.466 267.53 348.078 266.746C348.544 266.134 348.917 265.827 348.891 265.787C348.864 265.747 348.424 265.987 347.878 266.573C347.186 267.326 346.695 268.243 346.453 269.237C346.218 270.254 346.254 271.316 346.56 272.314C346.641 272.767 346.834 273.192 347.119 273.553Z" fill="#FFB294"/>
<path d="M342.91 265.334C342.649 265.856 342.465 266.412 342.364 266.986C342.045 268.352 341.901 269.753 341.938 271.155C341.978 272.557 342.193 273.949 342.577 275.298C342.716 275.861 342.932 276.404 343.216 276.909C342.73 275.02 342.427 273.089 342.311 271.142C342.321 269.191 342.522 267.246 342.91 265.334Z" fill="#FFB294"/>
<path d="M337.729 265.401C337.401 266.869 337.32 268.382 337.489 269.877C337.551 271.376 337.852 272.855 338.381 274.259C338.488 274.259 338.035 272.287 337.862 269.85C337.689 267.412 337.835 265.414 337.729 265.401Z" fill="#FFB294"/>
<path d="M258.022 304.842C256.284 302.944 254.765 300.857 253.493 298.621C252.222 296.36 251.752 293.736 252.161 291.175C252.441 289.71 253.12 288.311 253.253 286.82C253.453 284.755 252.654 282.57 253.44 280.666C254.678 277.669 258.768 277.322 261.285 275.338C263.257 273.766 264.269 271.155 266.413 269.85C268.406 268.871 270.682 268.634 272.834 269.184C274.965 269.732 277.16 269.988 279.36 269.943C280.905 269.658 282.435 269.293 283.942 268.851C285.463 268.419 287.092 268.581 288.498 269.304C289.167 269.694 289.657 270.33 289.866 271.075C290.075 271.821 289.985 272.619 289.617 273.3C292.174 272.208 295.318 274.272 295.93 276.989C296.145 278.369 295.974 279.781 295.435 281.07C294.897 282.358 294.013 283.472 292.88 284.289C290.588 285.884 287.931 286.878 285.155 287.179C277.376 288.405 269.011 287.339 262.511 282.957" fill="#1F1F1F"/>
<path d="M293.52 314.126C293.4 309.33 292.347 299.474 291.295 290.589C290.731 285.995 288.461 281.78 284.936 278.78C281.41 275.78 276.886 274.214 272.261 274.392H271.302C261.019 275.378 256.117 284.662 257.382 294.918L260.819 329.87C261.805 340.526 268.451 341.432 274.592 341.059C280.732 340.686 284.848 335.597 284.235 329.404C283.942 326.46 283.929 326.273 283.916 325.967C283.916 325.94 293.759 324.036 293.52 314.126Z" fill="#FFD5BD"/>
<path d="M283.929 325.807C279.357 326.057 274.814 324.945 270.875 322.61C270.875 322.61 274.192 329.63 284.049 328.365L283.929 325.807Z" fill="#FFB294"/>
<path d="M287.712 298.648C287.73 299.02 287.6 299.385 287.351 299.662C287.101 299.939 286.752 300.106 286.38 300.126C286.2 300.15 286.017 300.137 285.842 300.088C285.667 300.038 285.504 299.954 285.363 299.839C285.222 299.724 285.106 299.582 285.022 299.42C284.938 299.259 284.888 299.082 284.875 298.901C284.86 298.529 284.991 298.167 285.24 297.891C285.489 297.614 285.836 297.446 286.207 297.422C286.387 297.398 286.57 297.411 286.745 297.461C286.92 297.51 287.083 297.595 287.224 297.71C287.365 297.824 287.481 297.967 287.565 298.128C287.649 298.29 287.699 298.466 287.712 298.648Z" fill="#1F1F1F"/>
<path d="M289.35 295.531C289.177 295.731 288.018 294.971 286.553 295.038C285.088 295.105 283.889 295.904 283.769 295.717C283.649 295.531 283.849 295.304 284.329 294.931C284.967 294.449 285.74 294.179 286.54 294.159C287.334 294.115 288.121 294.335 288.778 294.785C289.257 295.118 289.43 295.451 289.35 295.531Z" fill="#1F1F1F"/>
<path d="M273.3 299.607C273.314 299.978 273.183 300.341 272.935 300.617C272.686 300.893 272.339 301.061 271.968 301.085C271.788 301.109 271.604 301.096 271.429 301.047C271.254 300.998 271.091 300.913 270.95 300.798C270.809 300.683 270.693 300.541 270.609 300.379C270.525 300.218 270.476 300.041 270.463 299.86C270.444 299.487 270.574 299.123 270.824 298.846C271.073 298.569 271.422 298.402 271.795 298.381C271.975 298.357 272.158 298.37 272.333 298.42C272.508 298.469 272.671 298.554 272.812 298.669C272.953 298.783 273.069 298.926 273.153 299.087C273.237 299.249 273.287 299.425 273.3 299.607Z" fill="#1F1F1F"/>
<path d="M274.392 296.383C274.219 296.57 273.127 295.824 271.595 295.877C270.063 295.93 268.931 296.743 268.824 296.57C268.718 296.397 268.904 296.144 269.37 295.771C270.013 295.288 270.791 295.018 271.595 294.998C272.383 294.97 273.161 295.188 273.819 295.624C274.299 295.97 274.472 296.29 274.392 296.383Z" fill="#1F1F1F"/>
<path d="M280.346 307.466C281.134 307.173 281.959 306.989 282.797 306.919C283.183 306.919 283.543 306.773 283.609 306.507C283.622 306.107 283.515 305.713 283.303 305.374L282.038 302.457C280.88 299.989 279.923 297.433 279.174 294.812C280.525 297.18 281.688 299.652 282.65 302.204L283.862 305.135C284.125 305.594 284.215 306.133 284.116 306.653C284.066 306.793 283.985 306.92 283.879 307.024C283.773 307.128 283.644 307.206 283.503 307.252C283.29 307.313 283.071 307.354 282.85 307.372C282.022 307.502 281.181 307.533 280.346 307.466Z" fill="#1F1F1F"/>
<path d="M275.897 308.678C276.15 308.678 276.217 310.316 277.669 311.435C279.121 312.554 280.879 312.301 280.906 312.54C280.932 312.78 280.519 312.873 279.773 312.913C278.816 312.96 277.873 312.668 277.109 312.088C276.381 311.524 275.902 310.696 275.777 309.783C275.617 309.091 275.791 308.678 275.897 308.678Z" fill="#1F1F1F"/>
<path d="M274.565 290.376C274.432 290.789 272.9 290.656 271.129 290.935C269.357 291.215 267.918 291.761 267.665 291.402C267.412 291.042 267.799 290.829 268.358 290.403C269.116 289.882 269.982 289.541 270.891 289.405C271.801 289.269 272.729 289.341 273.606 289.617C274.272 289.883 274.618 290.203 274.565 290.376Z" fill="#1F1F1F"/>
<path d="M288.618 291.149C288.365 291.508 287.286 291.149 286.047 291.149C284.808 291.149 283.729 291.468 283.463 291.149C283.197 290.829 283.463 290.616 283.956 290.283C284.565 289.858 285.291 289.63 286.034 289.63C286.775 289.615 287.502 289.834 288.112 290.256C288.578 290.629 288.738 290.975 288.618 291.149Z" fill="#1F1F1F"/>
<path d="M258.475 302.191C258.301 302.124 251.588 300.433 252.054 307.199C252.521 313.966 259.22 312.101 259.22 311.901C259.22 311.701 258.475 302.191 258.475 302.191Z" fill="#FFD5BD"/>
<path d="M256.969 309.477C256.969 309.477 256.863 309.57 256.663 309.677C256.392 309.818 256.076 309.847 255.784 309.757C255.329 309.511 254.948 309.148 254.681 308.705C254.414 308.263 254.27 307.756 254.265 307.239C254.203 306.658 254.276 306.07 254.479 305.521C254.525 305.306 254.623 305.107 254.765 304.939C254.906 304.772 255.087 304.642 255.291 304.562C255.423 304.515 255.568 304.516 255.699 304.565C255.83 304.614 255.941 304.707 256.01 304.828C256.117 305.015 256.077 305.148 256.117 305.161C256.157 305.175 256.263 305.041 256.184 304.762C256.131 304.601 256.028 304.461 255.89 304.362C255.694 304.234 255.455 304.187 255.224 304.229C254.951 304.304 254.702 304.448 254.499 304.646C254.297 304.844 254.148 305.09 254.066 305.361C253.821 305.969 253.725 306.627 253.786 307.279C253.798 307.882 253.986 308.467 254.327 308.964C254.668 309.461 255.146 309.848 255.704 310.076C255.889 310.119 256.082 310.118 256.266 310.074C256.451 310.03 256.623 309.944 256.77 309.823C256.969 309.65 256.996 309.49 256.969 309.477Z" fill="#FFB294"/>
<path d="M291.069 281.372C290.523 284.036 285.008 286.34 280.493 286.074C276.337 285.834 274.339 283.703 271.355 282.078C269.477 281.092 269.477 281.092 266.866 281.438C264.748 281.718 263.589 284.102 262.364 285.9C264.469 290.869 263.39 296.556 262.284 301.805C262.216 302.402 261.96 302.962 261.552 303.403C261.117 303.635 260.617 303.713 260.133 303.623C259.649 303.533 259.21 303.282 258.888 302.91C257.805 301.687 257.105 300.172 256.876 298.554C256.035 294.95 255.917 291.215 256.53 287.565C257.164 283.907 258.854 280.513 261.392 277.802C264.696 274.515 269.146 272.639 273.806 272.567C278.456 272.528 282.998 273.964 286.78 276.67C288.593 277.826 290.086 279.42 291.122 281.305" fill="#1F1F1F"/>
<path d="M281.585 300.259C281.585 300.259 281.492 299.687 281.585 298.674C281.637 297.244 282.162 295.872 283.077 294.772C283.75 293.973 284.612 293.354 285.583 292.971C286.555 292.587 287.607 292.451 288.644 292.574C289.867 292.714 291.018 293.22 291.948 294.026C292.956 294.875 293.666 296.026 293.973 297.308C294.28 298.591 294.168 299.938 293.653 301.152C293.184 302.288 292.386 303.257 291.362 303.936C290.494 304.517 289.494 304.872 288.454 304.967C287.414 305.063 286.367 304.896 285.408 304.482C284.092 303.925 283 302.945 282.304 301.698C281.811 300.806 281.705 300.233 281.638 300.259C281.624 300.397 281.624 300.535 281.638 300.672C281.73 301.06 281.869 301.436 282.051 301.791C282.707 303.141 283.814 304.22 285.181 304.842C285.992 305.211 286.868 305.413 287.759 305.438C288.649 305.462 289.535 305.308 290.365 304.984C291.194 304.659 291.95 304.172 292.588 303.551C293.226 302.929 293.733 302.186 294.079 301.365C294.635 300.043 294.756 298.578 294.425 297.183C294.096 295.787 293.325 294.535 292.227 293.613C291.548 293.036 290.76 292.602 289.91 292.336C289.06 292.069 288.165 291.976 287.278 292.062C286.391 292.148 285.531 292.41 284.747 292.835C283.964 293.259 283.273 293.836 282.717 294.532C281.78 295.707 281.281 297.171 281.305 298.674C281.304 299.074 281.354 299.472 281.452 299.86C281.48 299.998 281.524 300.132 281.585 300.259Z" fill="#1F1F1F"/>
<path d="M265.521 301.245C265.521 301.245 265.414 300.672 265.454 299.66C265.508 298.232 266.038 296.863 266.959 295.771C267.63 294.971 268.488 294.352 269.458 293.968C270.428 293.584 271.478 293.449 272.514 293.573C273.735 293.708 274.887 294.209 275.817 295.011C276.55 295.637 277.127 296.424 277.504 297.31C277.881 298.196 278.048 299.157 277.991 300.119C277.935 301.08 277.656 302.015 277.177 302.851C276.698 303.687 276.032 304.4 275.231 304.935C274.361 305.511 273.362 305.862 272.323 305.957C271.284 306.053 270.237 305.889 269.277 305.481C267.96 304.92 266.868 303.935 266.174 302.684C265.694 301.805 265.574 301.232 265.521 301.245C265.468 301.258 265.521 301.392 265.521 301.658C265.609 302.05 265.743 302.43 265.92 302.79C266.585 304.136 267.696 305.209 269.064 305.827C269.875 306.196 270.751 306.399 271.641 306.423C272.532 306.448 273.418 306.293 274.248 305.969C275.077 305.645 275.833 305.158 276.471 304.536C277.109 303.915 277.616 303.172 277.962 302.351C278.527 301.033 278.652 299.569 278.319 298.174C277.985 296.78 277.211 295.531 276.11 294.612C275.431 294.035 274.643 293.601 273.793 293.335C272.943 293.068 272.048 292.975 271.161 293.061C270.274 293.147 269.413 293.409 268.63 293.834C267.847 294.258 267.156 294.835 266.6 295.531C265.662 296.701 265.163 298.161 265.188 299.66C265.193 300.059 265.242 300.457 265.334 300.846C265.454 301.112 265.494 301.245 265.521 301.245Z" fill="#1F1F1F"/>
<path d="M278.281 298.368C278.375 298.488 279.107 297.902 280.146 297.968C281.185 298.035 281.838 298.688 281.944 298.581C282.051 298.475 281.944 298.301 281.625 298.022C281.22 297.67 280.709 297.463 280.174 297.434C279.638 297.405 279.108 297.556 278.668 297.862C278.388 298.155 278.228 298.368 278.281 298.368Z" fill="#1F1F1F"/>
<path d="M256.383 301.671C257.971 301.544 259.539 301.24 261.059 300.766C262.622 300.458 264.146 299.976 265.601 299.327C264.014 299.455 262.446 299.759 260.926 300.233C259.362 300.54 257.839 301.023 256.383 301.671Z" fill="#1F1F1F"/>
<path d="M292.614 274.392C292.653 274.603 292.653 274.82 292.614 275.031C292.555 275.626 292.334 276.193 291.974 276.67C291.438 277.378 290.699 277.907 289.857 278.188C288.844 278.519 287.791 278.711 286.726 278.761C284.8 278.932 282.866 279.003 280.932 278.974C280.2 278.974 279.6 278.974 279.187 278.907H278.708H278.535H281.052C282.531 278.907 284.582 278.907 286.833 278.654C287.887 278.602 288.93 278.414 289.936 278.095C290.749 277.825 291.467 277.326 292.001 276.656C292.363 276.204 292.594 275.66 292.667 275.085C292.674 274.853 292.656 274.62 292.614 274.392Z" fill="white"/>
<path d="M294.372 275.564C294.428 276.202 294.383 276.845 294.239 277.469C293.927 279.005 293.161 280.411 292.04 281.506C290.919 282.601 289.494 283.334 287.952 283.609C287.326 283.739 286.683 283.771 286.047 283.703C286.216 283.691 286.385 283.691 286.553 283.703C287.001 283.68 287.446 283.622 287.885 283.53C289.389 283.223 290.773 282.489 291.872 281.417C292.97 280.345 293.736 278.979 294.079 277.482C294.185 277.045 294.252 276.599 294.279 276.15C294.372 275.724 294.372 275.564 294.372 275.564Z" fill="white"/>
</svg>
