<svg width="246" height="246" viewBox="0 0 246 246" fill="none" xmlns="http://www.w3.org/2000/svg">
<path d="M123 246C190.931 246 246 190.931 246 123C246 55.0689 190.931 0 123 0C55.069 0 0 55.0689 0 123C0 190.931 55.069 246 123 246Z" fill="#F59487"/>
<path d="M203.732 17.3374H42.2682C36.6822 17.3374 32.1538 19.3733 32.1538 21.8846V224.114C32.1538 226.625 36.6822 228.661 42.2682 228.661H203.732C209.318 228.661 213.846 226.625 213.846 224.114V21.8846C213.846 19.3733 209.318 17.3374 203.732 17.3374Z" fill="#FEFEFE" stroke="#F59487" stroke-width="1.59987" stroke-miterlimit="22.9256" stroke-linecap="round" stroke-linejoin="round"/>
<path d="M64.3123 63.6083V48.9084C64.3123 45.1995 67.3458 42.1659 71.0547 42.1659H85.7561M160.245 42.1659H174.945C178.654 42.1659 181.689 45.1995 181.689 48.9084V63.6083M181.689 121.855V136.555C181.689 140.264 178.654 143.297 174.945 143.297H160.245M85.7561 143.297H71.0547C67.3458 143.297 64.3123 140.264 64.3123 136.555V121.855" stroke="#F59487" stroke-width="1.59987" stroke-miterlimit="22.9256" stroke-linecap="round" stroke-linejoin="round"/>
<path d="M171.412 197.754C179.529 197.754 186.109 191.174 186.109 183.057C186.109 174.941 179.529 168.361 171.412 168.361C163.295 168.361 156.715 174.941 156.715 183.057C156.715 191.174 163.295 197.754 171.412 197.754Z" fill="#FEFEFE" stroke="#F59487" stroke-width="1.59987" stroke-miterlimit="22.9256" stroke-linecap="round" stroke-linejoin="round"/>
<path d="M164.591 183.543L170.409 189.359L176.607 178.624" stroke="#F59487" stroke-width="1.59987" stroke-miterlimit="22.9256" stroke-linecap="round" stroke-linejoin="round"/>
<path d="M64.3123 168.361H142.558" stroke="#F59487" stroke-width="1.59987" stroke-miterlimit="22.9256" stroke-linecap="round" stroke-linejoin="round"/>
<path d="M64.3123 183.057H93.7056" stroke="#F59487" stroke-width="1.59987" stroke-miterlimit="22.9256" stroke-linecap="round" stroke-linejoin="round"/>
<path d="M64.3123 197.756H125.08" stroke="#F59487" stroke-width="1.59987" stroke-miterlimit="22.9256" stroke-linecap="round" stroke-linejoin="round"/>
<path fill-rule="evenodd" clip-rule="evenodd" d="M120.825 34.705C131.698 34.705 140.513 43.5197 140.513 54.3925C140.513 65.2653 131.698 74.0802 120.825 74.0802C109.953 74.0802 101.139 65.2653 101.139 54.3925C101.139 43.5197 109.953 34.705 120.825 34.705ZM120.825 83.1839C144.99 83.1839 164.578 102.773 164.578 126.935H77.074C77.074 102.773 96.6625 83.1839 120.825 83.1839Z" fill="#F59487"/>
</svg>
