<svg width="333" height="315" viewBox="0 0 333 315" fill="none" xmlns="http://www.w3.org/2000/svg">
<path d="M167.491 315C258.899 315 333 272.202 333 219.409C333 166.615 258.899 123.817 167.491 123.817C76.0827 123.817 1.98181 166.615 1.98181 219.409C1.98181 272.202 76.0827 315 167.491 315Z" fill="#F0F0F0"/>
<path opacity="0.05" d="M196.605 199.715C191.27 197.962 184.42 198.793 180.58 201.658L161.428 215.948C149.221 225.056 140.138 235.63 139.471 247.017C139.007 254.93 140.179 263.936 146.079 270.249C146.428 270.622 146.7 270.962 146.956 271.282C147.559 272.036 148.073 272.679 149.294 273.384C150.516 274.09 151.63 274.387 152.936 274.735C153.489 274.883 154.077 275.04 154.722 275.241C165.67 278.651 181.312 279.291 195.017 278.987C214.555 278.554 232.675 273.337 248.304 266.35L273.268 255.19C278.228 252.972 279.666 249.016 276.633 245.935L266.401 235.543C261.198 230.26 256.665 224.761 252.833 219.086C251.088 216.501 247.568 214.468 243.092 213.46C233.267 211.247 223.744 208.629 214.597 205.624L196.605 199.715Z" fill="black"/>
<rect x="173.741" y="223.647" width="56.4877" height="29.7026" fill="#455A64"/>
<path fill-rule="evenodd" clip-rule="evenodd" d="M195.88 193.919C190.546 192.167 183.695 192.997 179.856 195.862L160.704 210.152C148.496 219.261 139.414 229.834 138.747 241.221C138.283 249.134 139.455 258.14 145.355 264.453C145.704 264.826 145.976 265.166 146.232 265.486C146.835 266.24 147.349 266.883 148.57 267.588C149.792 268.294 150.905 268.591 152.212 268.94C152.765 269.087 153.353 269.244 153.998 269.445C164.946 272.855 180.588 273.495 194.293 273.191C213.831 272.758 231.951 267.541 247.58 260.554L272.544 249.394C277.504 247.177 278.942 243.22 275.909 240.139L265.677 229.748C260.474 224.465 255.94 218.965 252.109 213.29C250.364 210.705 246.843 208.672 242.368 207.664C232.543 205.451 223.02 202.833 213.873 199.828L195.88 193.919ZM221.905 243.113C224.89 242.983 227.186 241.482 227.033 239.761C226.879 238.039 224.334 236.749 221.349 236.878L190.028 238.24L190.792 232.378C191.017 230.654 188.782 229.184 185.801 229.096C182.82 229.007 180.222 230.333 179.997 232.057L178.771 241.463C178.654 242.36 179.21 243.233 180.296 243.861C181.382 244.488 182.894 244.809 184.447 244.741L221.905 243.113Z" fill="#B1DAFB"/>
<path opacity="0.1" d="M42.3851 241.583L14.4816 225.471L195.858 120.716L223.761 136.827L42.3851 241.583Z" fill="black"/>
<path d="M32.9416 211.127C32.9416 211.127 32.6374 201.05 28.3211 192.892C24.0049 184.735 17.5885 179.323 11.2662 178.288C4.94391 177.252 -0.683139 182.685 5.79122 187.271C12.2656 191.857 24.0194 196.978 28.3284 212.482L32.9416 211.127Z" fill="#37474F"/>
<path d="M31.2903 208.381H31.3628C31.4482 208.353 31.5194 208.293 31.5613 208.213C31.6031 208.133 31.6125 208.04 31.5873 207.954C26.2499 190.85 14.0399 182.873 8.33314 181.048C8.29035 181.034 8.24525 181.029 8.20044 181.032C8.15562 181.036 8.11196 181.048 8.07195 181.069C8.03193 181.089 7.99635 181.118 7.96724 181.152C7.93812 181.186 7.91603 181.226 7.90224 181.269C7.88845 181.312 7.88323 181.357 7.88686 181.401C7.8905 181.446 7.90293 181.49 7.92344 181.53C7.94395 181.57 7.97214 181.606 8.00641 181.635C8.04067 181.664 8.08033 181.686 8.12312 181.7C13.714 183.489 25.6778 191.32 30.9355 208.157C30.9599 208.229 31.0085 208.291 31.0731 208.332C31.1377 208.373 31.2144 208.39 31.2903 208.381Z" fill="white"/>
<path d="M0.120757 202.68C0.548036 203.955 1.82263 204.715 3.01756 205.331C4.2125 205.947 5.51606 206.614 6.08094 207.838C7.21069 210.301 4.68323 213.38 5.92161 215.807C6.2195 216.292 6.61231 216.713 7.07648 217.042C7.54065 217.372 8.06663 217.605 8.62289 217.727C9.54292 217.945 10.4735 218.117 11.4111 218.241C11.8573 218.266 12.3046 218.266 12.7508 218.241C14.0832 218.075 15.433 218.355 16.5891 219.038C18.3489 220.255 18.7038 222.66 19.6597 224.573C20.2566 225.707 21.0919 226.698 22.1083 227.479C23.1247 228.259 24.298 228.81 25.5475 229.093C27.6332 229.564 30.8342 229.39 31.4642 228.507C31.9494 227.84 30.9138 225.609 30.9645 224.761C31.0937 222.649 31.0234 220.529 30.7545 218.429C30.5938 217.472 30.5501 216.499 30.6241 215.532C30.7328 214.452 30.8342 213.358 30.9283 212.301C31.0224 211.243 31.3918 210.243 31.0804 209.026C30.731 207.879 30.2136 206.79 29.5451 205.795C28.9295 204.795 28.3067 203.795 27.6766 202.81C26.9712 201.611 26.1198 200.504 25.1419 199.514C24.2577 198.693 23.2152 198.061 22.0782 197.657C20.9412 197.254 19.7338 197.087 18.53 197.167C16.5384 197.312 14.5179 198.232 12.5119 197.949C10.5058 197.667 8.68082 196.971 6.6603 196.92C5.59615 196.85 4.5299 197.022 3.54239 197.425C2.55488 197.828 1.67205 198.451 0.960831 199.246C0.546773 199.703 0.253157 200.257 0.106491 200.857C-0.0401746 201.456 -0.0352714 202.083 0.120757 202.68Z" fill="#455A64"/>
<path d="M30.2186 223.116C30.2581 223.11 30.2959 223.096 30.33 223.075C30.3641 223.055 30.3938 223.027 30.4173 222.995C30.4409 222.963 30.4578 222.926 30.4672 222.887C30.4766 222.848 30.4783 222.808 30.4721 222.769C27.3073 203.991 8.2608 199.528 3.72006 199.427C3.63939 199.427 3.56202 199.459 3.50498 199.516C3.44794 199.573 3.41589 199.65 3.41589 199.731C3.41589 199.812 3.44794 199.889 3.50498 199.946C3.56202 200.003 3.63939 200.035 3.72006 200.035C8.16666 200.129 26.7931 204.498 29.8855 222.87C29.8996 222.946 29.9418 223.013 30.0036 223.059C30.0654 223.104 30.1422 223.125 30.2186 223.116Z" fill="white"/>
<path d="M9.65122 211.822C9.71307 211.817 9.77147 211.791 9.81779 211.75C11.7466 210.374 13.9549 209.44 16.2855 209.014C18.6161 208.588 21.0119 208.681 23.3024 209.287C23.341 209.296 23.3811 209.298 23.4203 209.292C23.4596 209.286 23.4972 209.272 23.5309 209.251C23.5647 209.23 23.5939 209.203 23.6169 209.17C23.6398 209.138 23.656 209.101 23.6645 209.062C23.6742 209.024 23.676 208.984 23.6698 208.944C23.6637 208.905 23.6498 208.867 23.6288 208.834C23.6079 208.8 23.5804 208.771 23.548 208.748C23.5155 208.725 23.4788 208.708 23.44 208.7C21.059 208.074 18.5692 207.981 16.1481 208.428C13.727 208.875 11.4345 209.851 9.43396 211.286C9.37326 211.338 9.33488 211.412 9.32679 211.491C9.31871 211.571 9.34152 211.65 9.39051 211.714C9.42269 211.751 9.46296 211.78 9.50817 211.798C9.55339 211.817 9.60234 211.825 9.65122 211.822Z" fill="white"/>
<path d="M107.006 54.6378H104.818V57.5284H107.006V54.6378Z" fill="#B1DAFB"/>
<path opacity="0.15" d="M107.006 54.6378H104.818V57.5284H107.006V54.6378Z" fill="black"/>
<path d="M30.9498 102.858L206.475 1.48499V131.017L30.9498 232.39V102.858Z" fill="#B1DAFB"/>
<path opacity="0.15" d="M30.9498 102.858L206.475 1.48499V131.017L30.9498 232.39V102.858Z" fill="black"/>
<path d="M118.701 54.8482L121.403 56.442C124.734 58.4052 137.748 57.9271 146.359 52.9573L216.085 12.6777L203.904 5.64331L118.701 54.8482Z" fill="white"/>
<path d="M216.099 12.6848L146.373 52.9571C137.762 57.9413 124.741 58.4122 121.417 56.4562L118.701 54.8479V178.729L121.403 180.323C124.741 182.286 137.755 181.808 146.366 176.839L216.049 136.573H216.092L216.099 12.6848Z" fill="#FAFAFA"/>
<path d="M216.099 12.6848L146.373 52.9571C137.762 57.9413 124.741 58.4122 121.417 56.4562L118.701 54.8479V178.729L121.403 180.323C124.741 182.286 137.755 181.808 146.366 176.839L216.092 136.559L216.099 12.6848Z" fill="#F5F5F5"/>
<path d="M145.627 53.3997C137.038 57.9928 124.625 58.384 121.417 56.4859L118.701 54.8486V178.73L121.403 180.324C124.647 182.229 137.024 181.831 145.62 177.245L145.627 53.3997Z" fill="#EBEBEB"/>
<path d="M131.426 57.3551C126.885 57.7753 123.018 57.3986 121.417 56.4568L118.701 54.8485V178.73L121.403 180.324C123.018 181.273 126.885 181.65 131.418 181.229L131.426 57.3551Z" fill="#E0E0E0"/>
<path d="M121.222 56.3336C124.553 58.3042 123.814 66.0268 115.218 71.0255L45.7815 111.436L33.2456 104.205L118.701 54.8485L121.222 56.3336Z" fill="white"/>
<path d="M33.2673 104.205L45.7815 111.435V235.339L33.2673 228.109V104.205Z" fill="#E0E0E0"/>
<path d="M115.218 71.018L112.111 72.8291L45.7814 111.435V235.317L115.218 194.899C121.526 191.234 123.039 188.032 123.061 185.17V59.5934C123.046 64.0995 120.331 67.8377 115.218 71.018Z" fill="#F5F5F5"/>
<path d="M28.4297 101.373L30.9499 102.858V232.39L28.4297 230.934V101.373Z" fill="#B1DAFB"/>
<path opacity="0.3" d="M28.4297 101.373L30.9499 102.858V232.39L28.4297 230.934V101.373Z" fill="black"/>
<path d="M28.4297 101.373L203.962 0L206.475 1.47788L30.9499 102.858L28.4297 101.373Z" fill="#B1DAFB"/>
<path d="M125.089 44.3867C124.536 44.1044 123.924 43.9572 123.304 43.9572C122.683 43.9572 122.071 44.1044 121.519 44.3867L105.586 53.609C104.601 54.1741 104.601 55.1014 105.586 55.6665L109.135 57.7167L128.688 46.4369L125.089 44.3867Z" fill="#B1DAFB"/>
<g opacity="0.3">
<path d="M54.2476 120.244L112.104 86.8106L113.733 85.8615C114.125 85.6336 114.458 85.3193 114.709 84.9427C114.96 84.566 115.122 84.1369 115.182 83.6882C115.182 82.9637 114.523 82.7609 113.733 83.239L112.104 84.188L54.2476 117.607C53.8494 117.83 53.5083 118.143 53.2507 118.52C52.9932 118.897 52.8263 119.328 52.7629 119.78C52.7991 120.512 53.4364 120.715 54.2476 120.244Z" fill="black"/>
<path d="M54.2477 126.569L112.104 93.1356L113.734 92.1866C114.125 91.9587 114.458 91.6444 114.709 91.2677C114.96 90.8911 115.122 90.462 115.182 90.0132C115.182 89.2888 114.523 89.0859 113.734 89.5641L112.104 90.5131L54.2477 123.939C53.8495 124.163 53.5084 124.475 53.2509 124.852C52.9933 125.229 52.8264 125.661 52.7631 126.113C52.7993 126.844 53.4366 127.055 54.2477 126.569Z" fill="black"/>
<path d="M54.2476 132.908L112.111 99.4743L113.741 98.5253C114.132 98.2974 114.466 97.9831 114.717 97.6064C114.968 97.2297 115.129 96.8006 115.189 96.3519C115.189 95.6275 114.53 95.4246 113.741 95.9028L112.111 96.8663L54.2476 130.271C53.8494 130.494 53.5083 130.807 53.2507 131.184C52.9932 131.561 52.8263 131.992 52.7629 132.444C52.7991 133.176 53.4364 133.386 54.2476 132.908Z" fill="black"/>
<path d="M54.2477 139.239L112.104 105.805L113.734 104.856C114.125 104.628 114.458 104.314 114.709 103.937C114.96 103.561 115.122 103.132 115.182 102.683C115.182 101.958 114.523 101.756 113.734 102.234L112.104 103.183L54.2477 136.602C53.8495 136.825 53.5084 137.137 53.2509 137.514C52.9933 137.891 52.8264 138.323 52.7631 138.775C52.7993 139.507 53.4366 139.717 54.2477 139.239Z" fill="black"/>
<path d="M54.2477 145.571L112.104 112.137L113.734 111.188C114.125 110.96 114.458 110.646 114.709 110.269C114.96 109.893 115.122 109.463 115.182 109.015C115.182 108.29 114.523 108.087 113.734 108.566L112.104 109.515L54.2477 142.934C53.8495 143.157 53.5084 143.469 53.2509 143.846C52.9933 144.223 52.8264 144.655 52.7631 145.107C52.7993 145.839 53.4366 146.049 54.2477 145.571Z" fill="black"/>
<path d="M54.2477 151.924L112.104 118.491L113.734 117.542C114.125 117.314 114.458 117 114.709 116.623C114.96 116.246 115.122 115.817 115.182 115.368C115.182 114.644 114.523 114.441 113.734 114.919L112.104 115.868L54.2477 149.266C53.8495 149.489 53.5084 149.801 53.2509 150.178C52.9933 150.555 52.8264 150.987 52.7631 151.439C52.7993 152.171 53.4366 152.381 54.2477 151.924Z" fill="black"/>
<path d="M54.2477 158.234L112.104 124.801L113.734 123.852C114.124 123.623 114.458 123.309 114.709 122.932C114.96 122.556 115.122 122.127 115.182 121.678C115.182 120.954 114.523 120.744 113.734 121.222L112.104 122.171L54.2477 155.597C53.8495 155.821 53.5084 156.133 53.2509 156.51C52.9933 156.887 52.8264 157.318 52.7631 157.771C52.7993 158.502 53.4366 158.712 54.2477 158.234Z" fill="black"/>
<path d="M54.2476 164.566L112.111 131.132L113.741 130.183C114.131 129.955 114.465 129.641 114.716 129.264C114.967 128.887 115.129 128.459 115.189 128.01C115.189 127.286 114.53 127.076 113.741 127.554L112.111 128.503L54.2476 161.929C53.8494 162.152 53.5083 162.465 53.2507 162.842C52.9932 163.219 52.8263 163.65 52.7629 164.102C52.7991 164.834 53.4364 165.044 54.2476 164.566Z" fill="black"/>
<path d="M54.2477 170.897L112.111 137.435L113.741 136.486C114.132 136.258 114.465 135.943 114.716 135.567C114.967 135.19 115.129 134.761 115.189 134.313C115.189 133.588 114.53 133.378 113.741 133.856L112.111 134.805L54.2477 168.26C53.8495 168.484 53.5084 168.796 53.2509 169.173C52.9933 169.55 52.8264 169.982 52.7631 170.434C52.7993 171.166 53.4366 171.376 54.2477 170.897Z" fill="black"/>
<path d="M54.2476 177.23L112.104 143.796L113.733 142.847C114.124 142.619 114.458 142.305 114.709 141.928C114.96 141.551 115.121 141.122 115.182 140.674C115.182 139.949 114.523 139.739 113.733 140.217L112.104 141.166L54.2476 174.593C53.8494 174.816 53.5083 175.128 53.2507 175.505C52.9932 175.882 52.8263 176.314 52.7629 176.766C52.7991 177.498 53.4364 177.708 54.2476 177.23Z" fill="black"/>
<path d="M54.2477 183.561L112.104 150.127L113.734 149.178C114.124 148.95 114.458 148.636 114.709 148.259C114.96 147.882 115.122 147.454 115.182 147.005C115.182 146.281 114.523 146.07 113.734 146.549L112.104 147.498L54.2477 180.902C53.8563 181.13 53.5223 181.444 53.2712 181.821C53.0201 182.197 52.8587 182.627 52.7993 183.076C52.7993 183.8 53.4366 184.039 54.2477 183.561Z" fill="black"/>
<path d="M54.2476 189.893L112.104 156.459L113.733 155.51C114.124 155.282 114.458 154.968 114.709 154.591C114.96 154.214 115.121 153.785 115.182 153.337C115.182 152.612 114.523 152.402 113.733 152.88L112.104 153.83L54.2476 187.256C53.8494 187.479 53.5083 187.791 53.2507 188.168C52.9932 188.545 52.8263 188.977 52.7629 189.429C52.7991 190.161 53.4364 190.371 54.2476 189.893Z" fill="black"/>
<path d="M54.2476 196.225L112.111 162.791L113.741 161.842C114.131 161.614 114.465 161.299 114.716 160.923C114.967 160.546 115.129 160.117 115.189 159.669C115.189 158.944 114.53 158.734 113.741 159.212L112.111 160.161L54.2476 193.588C53.8498 193.811 53.5089 194.124 53.2514 194.501C52.994 194.878 52.8268 195.309 52.7629 195.761C52.7991 196.493 53.4364 196.703 54.2476 196.225Z" fill="black"/>
<path d="M54.2476 202.557L112.104 169.123L113.733 168.174C114.124 167.946 114.458 167.631 114.709 167.255C114.96 166.878 115.121 166.449 115.182 166.001C115.182 165.276 114.523 165.066 113.733 165.544L112.104 166.493L54.2476 199.92C53.8498 200.143 53.5089 200.456 53.2514 200.833C52.994 201.21 52.8268 201.641 52.7629 202.093C52.7991 202.825 53.4364 203.035 54.2476 202.557Z" fill="black"/>
<path d="M54.2477 208.888L112.104 175.455L113.734 174.506C114.124 174.277 114.458 173.963 114.709 173.586C114.96 173.21 115.122 172.781 115.182 172.332C115.182 171.608 114.523 171.398 113.734 171.876L112.104 172.825L54.2477 206.259C53.8567 206.486 53.5229 206.801 53.2719 207.177C53.0208 207.554 52.8592 207.983 52.7993 208.432C52.7993 209.156 53.4366 209.366 54.2477 208.888Z" fill="black"/>
<path d="M54.2477 215.22L112.104 181.787L113.734 180.838C114.124 180.609 114.458 180.295 114.709 179.918C114.96 179.542 115.122 179.113 115.182 178.664C115.182 177.94 114.523 177.73 113.734 178.208L112.104 179.157L54.2477 212.583C53.8499 212.807 53.509 213.119 53.2516 213.496C52.9941 213.873 52.8269 214.304 52.7631 214.756C52.7993 215.488 53.4366 215.676 54.2477 215.22Z" fill="black"/>
<path d="M54.2476 221.552L112.111 188.147L113.741 187.198C114.131 186.97 114.465 186.655 114.716 186.279C114.967 185.902 115.129 185.473 115.189 185.025C115.189 184.3 114.53 184.09 113.741 184.568L112.111 185.517L54.2476 218.915C53.8498 219.138 53.5089 219.451 53.2514 219.828C52.994 220.205 52.8268 220.636 52.7629 221.088C52.7991 221.82 53.4364 222.03 54.2476 221.552Z" fill="black"/>
</g>
<g opacity="0.3">
<path d="M137.277 68.0039C136.35 68.2139 135.597 68.9312 135.597 69.6411C135.597 70.3511 136.321 70.793 137.277 70.5757C140.459 69.8864 143.523 68.7369 146.373 67.1635L207.308 31.8899C207.7 31.6632 208.034 31.3493 208.286 30.9724C208.537 30.5955 208.698 30.1657 208.756 29.7165C208.756 28.9921 208.09 28.8182 207.308 29.2891L146.373 64.5627C143.525 66.146 140.46 67.3053 137.277 68.0039Z" fill="black"/>
<path d="M137.277 74.3355C136.35 74.5529 135.597 75.2701 135.597 75.9801C135.597 76.69 136.321 77.1247 137.277 76.9146C140.461 76.2115 143.525 75.0473 146.373 73.459L207.308 38.1853C207.7 37.9592 208.035 37.6453 208.286 37.2683C208.537 36.8913 208.698 36.4614 208.756 36.012C208.756 35.2875 208.09 35.1064 207.308 35.5846L146.373 70.8582C143.527 72.4543 140.462 73.6258 137.277 74.3355Z" fill="black"/>
<path d="M137.277 80.6751C136.86 80.7366 136.472 80.9288 136.17 81.2242C135.868 81.5197 135.668 81.9031 135.597 82.3197C135.597 83.0441 136.321 83.4643 137.277 83.247C140.461 82.5463 143.525 81.3846 146.373 79.7986L207.308 44.5249C207.7 44.2983 208.034 43.9844 208.286 43.6075C208.537 43.2305 208.698 42.8008 208.756 42.3516C208.756 41.6271 208.09 41.4533 207.308 41.9242L146.373 77.1978C143.527 78.7937 140.462 79.9651 137.277 80.6751Z" fill="black"/>
<path d="M137.277 87.0068C136.35 87.2241 135.597 87.9413 135.597 88.6513C135.597 89.3612 136.321 89.7959 137.277 89.5858C140.46 88.8819 143.524 87.7203 146.373 86.1374L207.308 50.8565C207.7 50.6304 208.035 50.3165 208.286 49.9395C208.537 49.5625 208.698 49.1326 208.756 48.6832C208.756 47.9587 208.09 47.7776 207.308 48.2558L146.373 83.5294C143.527 85.1255 140.462 86.297 137.277 87.0068Z" fill="black"/>
<path d="M137.277 93.3447C136.86 93.4061 136.472 93.5983 136.17 93.8938C135.868 94.1892 135.668 94.5727 135.597 94.9892C135.597 95.7137 136.321 96.1338 137.277 95.9165C140.461 95.2158 143.525 94.0541 146.373 92.4681L207.308 57.1945C207.7 56.9679 208.034 56.6539 208.286 56.277C208.537 55.9001 208.698 55.4704 208.756 55.0211C208.756 54.2967 208.09 54.1228 207.308 54.5937L146.373 89.8673C143.527 91.4632 140.462 92.6347 137.277 93.3447Z" fill="black"/>
<path d="M137.277 99.6769C136.35 99.8942 135.597 100.611 135.597 101.321C135.597 102.031 136.321 102.473 137.277 102.256C140.46 101.552 143.524 100.39 146.373 98.8075L207.308 63.5412C207.7 63.315 208.035 63.0012 208.286 62.6242C208.537 62.2472 208.698 61.8172 208.756 61.3678C208.756 60.6434 208.09 60.4623 207.308 60.9404L146.373 96.214C143.526 97.8051 140.462 98.9717 137.277 99.6769Z" fill="black"/>
<path d="M137.277 106.016C136.86 106.077 136.472 106.269 136.17 106.565C135.868 106.86 135.668 107.244 135.597 107.66C135.597 108.385 136.321 108.805 137.277 108.588C140.461 107.887 143.525 106.725 146.373 105.139L207.308 69.8656C207.7 69.639 208.034 69.3251 208.286 68.9482C208.537 68.5712 208.698 68.1415 208.756 67.6923C208.756 66.9678 208.09 66.794 207.308 67.2648L146.373 102.538C143.527 104.134 140.462 105.306 137.277 106.016Z" fill="black"/>
<path d="M137.277 112.348C136.35 112.565 135.597 113.282 135.597 113.992C135.597 114.702 136.321 115.144 137.277 114.927C140.46 114.223 143.524 113.061 146.373 111.479L207.308 76.2049C207.699 75.9775 208.033 75.6633 208.284 75.2865C208.535 74.9098 208.697 74.4805 208.756 74.0316C208.756 73.3071 208.09 73.126 207.308 73.6042L146.373 108.878C143.526 110.471 140.462 111.64 137.277 112.348Z" fill="black"/>
<path d="M137.277 118.686C136.86 118.748 136.472 118.94 136.17 119.236C135.868 119.531 135.668 119.914 135.597 120.331C135.597 121.055 136.321 121.476 137.277 121.258C140.461 120.558 143.525 119.396 146.373 117.81L207.308 82.5362C207.7 82.31 208.035 81.9962 208.286 81.6192C208.537 81.2422 208.698 80.8123 208.756 80.3629C208.756 79.6384 208.09 79.4645 207.308 79.9354L146.373 115.209C143.527 116.805 140.462 117.976 137.277 118.686Z" fill="black"/>
<path d="M137.277 125.019C136.35 125.236 135.597 125.953 135.597 126.663C135.597 127.373 136.321 127.815 137.277 127.598C140.46 126.894 143.524 125.732 146.373 124.149L207.308 88.8974C207.699 88.6699 208.033 88.3557 208.284 87.979C208.535 87.6022 208.697 87.1729 208.756 86.724C208.756 85.9996 208.09 85.8185 207.308 86.2966L146.373 121.57C143.525 123.156 140.461 124.318 137.277 125.019Z" fill="black"/>
<path d="M137.277 131.358C136.86 131.419 136.472 131.611 136.17 131.907C135.868 132.202 135.668 132.586 135.597 133.002C135.597 133.727 136.321 134.147 137.277 133.929C140.462 133.232 143.527 132.07 146.373 130.481L207.308 95.2073C207.7 94.9811 208.035 94.6673 208.286 94.2903C208.537 93.9133 208.698 93.4834 208.756 93.034C208.756 92.3095 208.09 92.1284 207.308 92.5993L146.373 127.873C143.527 129.471 140.463 130.645 137.277 131.358Z" fill="black"/>
<path d="M137.277 137.689C136.35 137.906 135.597 138.623 135.597 139.333C135.597 140.043 136.321 140.485 137.277 140.268C140.46 139.564 143.524 138.402 146.373 136.82L207.308 101.546C207.699 101.318 208.033 101.004 208.284 100.628C208.535 100.251 208.697 99.8215 208.756 99.3726C208.756 98.6481 208.09 98.467 207.308 98.9452L146.373 134.219C143.526 135.812 140.462 136.981 137.277 137.689Z" fill="black"/>
<path d="M137.277 144.028C136.35 144.245 135.597 144.963 135.597 145.673C135.597 146.383 136.321 146.817 137.277 146.607C140.461 145.904 143.525 144.74 146.373 143.151L207.308 107.878C207.7 107.652 208.035 107.338 208.286 106.961C208.537 106.584 208.698 106.154 208.756 105.704C208.756 104.98 208.09 104.799 207.308 105.27L146.373 140.551C143.525 142.144 140.461 143.315 137.277 144.028Z" fill="black"/>
<path d="M137.277 150.359C136.35 150.577 135.597 151.294 135.597 152.004C135.597 152.714 136.321 153.156 137.277 152.938C140.46 152.234 143.524 151.073 146.373 149.49L207.308 114.253C207.699 114.025 208.033 113.711 208.284 113.334C208.535 112.957 208.697 112.528 208.756 112.079C208.756 111.355 208.09 111.174 207.308 111.652L146.373 146.925C143.524 148.506 140.46 149.663 137.277 150.359Z" fill="black"/>
<path d="M137.277 156.699C136.35 156.917 135.597 157.634 135.597 158.344C135.597 159.054 136.321 159.488 137.277 159.278C140.461 158.575 143.525 157.411 146.373 155.823L207.308 120.549C207.7 120.323 208.035 120.009 208.286 119.632C208.537 119.255 208.698 118.825 208.756 118.376C208.756 117.651 208.09 117.47 207.308 117.948L146.373 153.222C143.525 154.815 140.461 155.986 137.277 156.699Z" fill="black"/>
<path d="M137.277 163.031C136.35 163.248 135.597 163.965 135.597 164.675C135.597 165.385 136.321 165.827 137.277 165.61C140.461 164.909 143.525 163.747 146.373 162.161L207.308 126.888C207.699 126.66 208.033 126.346 208.284 125.969C208.535 125.593 208.697 125.163 208.756 124.714C208.756 123.99 208.09 123.809 207.308 124.287L146.373 159.561C143.526 161.154 140.462 162.323 137.277 163.031Z" fill="black"/>
<path d="M137.277 169.369C136.35 169.586 135.597 170.304 135.597 171.014C135.597 171.724 136.321 172.158 137.277 171.948C140.461 171.245 143.525 170.081 146.373 168.492L207.308 133.219C207.7 132.993 208.035 132.679 208.286 132.302C208.537 131.925 208.698 131.495 208.756 131.045C208.756 130.321 208.09 130.14 207.308 130.618L146.373 165.892C143.525 167.485 140.461 168.656 137.277 169.369Z" fill="black"/>
</g>
<path opacity="0.2" d="M43.0222 109.921L53.0162 103.401L42.1532 109.335V121.607L43.0222 109.921Z" fill="black"/>
<path opacity="0.2" d="M36.8015 106.234L56.3043 94.9684L37.6995 106.77L36.8015 131.575V106.234Z" fill="black"/>
<path opacity="0.2" d="M43.0223 233.745L42.6529 214.583L41.7042 232.984L43.0223 233.745Z" fill="black"/>
<path opacity="0.2" d="M38.1412 230.898L37.4315 202.354L36.9752 230.253L38.1412 230.898Z" fill="black"/>
<path opacity="0.2" d="M198.139 19.2127L212.123 10.4033L213.159 10.9974L198.139 19.2127Z" fill="black"/>
<path opacity="0.2" d="M208.408 8.24414L184.415 22.5448L209.176 8.68606L208.408 8.24414Z" fill="black"/>
<path opacity="0.3" d="M50.7567 175.506V180.346L117.724 141.667V136.828L50.7567 175.506Z" fill="#B1DAFB"/>
<path opacity="0.3" d="M50.7567 181.744V186.583L117.724 147.897V143.065L50.7567 181.744Z" fill="#B1DAFB"/>
<path opacity="0.3" d="M50.7567 188.307V193.139L117.724 154.46V149.628L50.7567 188.307Z" fill="#B1DAFB"/>
<path opacity="0.3" d="M50.7567 194.638V199.47L87.6403 177.925V173.093L50.7567 194.638Z" fill="#B1DAFB"/>
<path opacity="0.3" d="M156.787 114.268L209.806 83.6456V88.485L156.787 119.513V114.268Z" fill="#B1DAFB"/>
<path opacity="0.3" d="M145.627 127.163L209.806 90.1292V94.9685L145.627 132.408C142.383 134.4 138.472 135.306 134.294 135.857V130.655C138.274 130.298 142.136 129.108 145.627 127.163Z" fill="#B1DAFB"/>
<path opacity="0.3" d="M145.627 133.27L209.806 96.236V101.075L145.627 138.515C142.383 140.507 138.472 141.413 134.294 141.963V136.762C138.275 136.408 142.137 135.218 145.627 133.27Z" fill="#B1DAFB"/>
<path opacity="0.3" d="M145.627 139.378L209.806 102.351V107.183L145.627 144.63C142.383 146.615 138.472 147.528 134.294 148.079V142.87C138.275 142.516 142.137 141.326 145.627 139.378Z" fill="#B1DAFB"/>
<path opacity="0.3" d="M50.7567 118.571V123.403L117.724 84.7248V79.8927L50.7567 118.571Z" fill="#B1DAFB"/>
<path opacity="0.3" d="M50.7567 124.809V129.641L117.724 90.9623V86.1302L50.7567 124.809Z" fill="#B1DAFB"/>
<path opacity="0.1" d="M177.058 52.7047V99.8159L216.07 77.2854V30.1743L177.058 52.7047Z" fill="black"/>
<path d="M225.985 74.6629C225.985 74.6629 224.087 77.8867 217.294 81.8205L182.931 101.67L178.81 60.7171L217.801 38.1866L220.372 66.0853C220.727 69.9467 222.226 74.0543 225.985 74.6629Z" fill="#455A64"/>
<path fill-rule="evenodd" clip-rule="evenodd" d="M191.382 64.9187C190.265 65.9182 189.543 67.613 189.693 68.8828L190.438 75.2176C190.914 79.2553 192.145 82.7659 194.687 84.4397C196.453 85.6028 198.69 86.5335 200.936 86.0119C201.069 85.9811 201.184 85.9635 201.292 85.9471C201.546 85.9082 201.763 85.8751 202.089 85.6869C202.415 85.4985 202.633 85.2807 202.887 85.0252C202.995 84.917 203.11 84.802 203.243 84.6797C205.491 82.6035 207.726 79.0726 209.485 75.8635C211.992 71.2886 213.204 66.4032 213.676 61.8576L214.428 54.5967C214.578 53.1541 213.856 52.2936 212.739 52.5839L208.973 53.5629C207.058 54.0607 205.182 54.3751 203.36 54.5036C202.53 54.5622 201.591 55.1049 200.761 56.0051C198.938 57.9814 197.063 59.8336 195.148 61.5475L191.382 64.9187ZM206.22 65.4662C206.588 64.7587 206.548 64.0276 206.13 63.8334C205.711 63.6392 205.074 64.0553 204.705 64.7628L200.841 72.1858L199.588 71.2271C199.22 70.945 198.582 71.2655 198.164 71.9429C197.746 72.6202 197.705 73.398 198.074 73.68L200.083 75.2185C200.275 75.3651 200.551 75.3533 200.841 75.1859C201.13 75.0184 201.406 74.7117 201.598 74.3437L206.22 65.4662Z" fill="white"/>
<path d="M217.642 38.1864L178.629 60.7169L178.622 53.4869L217.642 30.9564V38.1864Z" fill="#37474F"/>
</svg>
