<svg width="402" height="525" viewBox="0 0 402 525" fill="none" xmlns="http://www.w3.org/2000/svg">
<path d="M237.955 261.944C238.426 262.717 238.951 263.406 239.531 264.014C241.732 266.318 244.025 268.341 246.408 270.085C248.568 271.948 250.463 273.89 252.093 275.909L250.796 276.377C250.566 276.458 250.348 276.432 250.141 276.3C243.908 272.22 237.421 266.474 234.844 259.366C234.81 259.276 234.725 259.217 234.629 259.217C234.55 259.217 234.477 259.258 234.435 259.326C230.245 266.223 223.213 268.775 216.31 272.01C216.201 272.06 216.125 272.163 216.111 272.282L216.063 272.67C214.55 271.427 212.617 272.468 211.7 273.858C211.207 274.534 210.896 275.252 210.769 276.012L210.725 275.835C210.692 275.692 210.565 275.59 210.419 275.59C210.345 275.59 210.273 275.617 210.216 275.665C207.529 277.94 205.922 280.927 205.397 284.628C204.916 283.33 204.599 282.008 204.447 280.663C207.179 272.379 213.46 270.07 220.971 267.304C222.296 266.851 223.768 266.256 225.385 265.518C227.882 264.378 230.033 262.768 231.839 260.69C233.138 259.013 234.111 257.146 234.759 255.087C234.788 255.002 234.868 254.945 234.957 254.945C235.059 254.945 235.145 255.018 235.164 255.117C235.591 257.593 236.521 259.869 237.955 261.944Z" fill="#D78C74"/>
<path d="M217.156 274.969C217.331 275.562 217.309 276.182 217.09 276.829L217.156 274.969Z" fill="#725E41"/>
<path d="M201.11 327.887C200.693 334.251 199.965 342.344 199.447 348.666C199.361 349.724 199.152 350.802 198.821 351.901C198.583 352.693 198.352 353.493 198.128 354.301L195.034 354.838L201.11 327.887Z" fill="#D78C74"/>
<path d="M203.32 386.943C203.318 386.941 203.316 386.938 203.316 386.935C203.316 386.931 203.32 386.927 203.324 386.927C203.325 386.927 203.327 386.927 203.328 386.928C203.745 387.063 204.14 387.26 204.513 387.518C208.747 390.429 212.969 393.346 217.178 396.267C217.285 396.342 217.43 396.349 217.548 396.283L237.248 384.482C237.893 384.096 237.933 384.15 237.365 384.645L218.614 401.01C218.553 401.063 218.475 401.092 218.394 401.092C218.308 401.092 218.224 401.058 218.161 400.999C213.304 396.374 208.357 391.688 203.32 386.943Z" fill="#60C0E1"/>
<path fill-rule="evenodd" clip-rule="evenodd" d="M197.381 344.668L161.6 355.295L164.575 360.128L198.129 354.301L197.381 344.668Z" fill="#D78C74"/>
<path d="M297.072 338.979H289.789C286.576 338.979 283.971 340.21 283.971 341.727V352.058C283.971 353.576 286.576 354.806 289.789 354.806H297.072C300.285 354.806 302.89 353.576 302.89 352.058V341.727C302.89 340.21 300.285 338.979 297.072 338.979Z" stroke="#60C0E1" stroke-width="3.99987" stroke-miterlimit="22.9256"/>
<path fill-rule="evenodd" clip-rule="evenodd" d="M67.7261 362.048V357.725C67.7261 355.049 69.9123 352.858 72.5843 352.858H63.3914C60.7194 352.858 58.5332 355.049 58.5332 357.725V362.048H67.7261Z" fill="#E24760"/>
<path fill-rule="evenodd" clip-rule="evenodd" d="M233.481 326.335C233.19 325.703 231.076 336.038 218.496 334.458C218.496 334.458 231.839 339.887 233.481 326.335Z" fill="#E6E7E8"/>
<path fill-rule="evenodd" clip-rule="evenodd" d="M161.6 355.295C161.6 355.295 150.062 357.006 150.062 359.526C150.062 362.047 164.575 360.127 164.575 360.127L161.6 355.295Z" fill="#D78C74"/>
<path fill-rule="evenodd" clip-rule="evenodd" d="M127.731 341.392C127.731 339.287 129.049 337.49 130.904 336.785C130.362 336.579 129.774 336.467 129.161 336.467C126.446 336.467 124.245 338.672 124.245 341.392C124.245 344.112 126.446 346.317 129.161 346.317C129.774 346.317 130.362 346.204 130.904 345.998C129.049 345.293 127.731 343.497 127.731 341.392Z" fill="#259DC3"/>
<path d="M116.585 204.355H29.7025C24.3363 204.355 19.9861 208.714 19.9861 214.089V321.956C19.9861 327.332 24.3363 331.69 29.7025 331.69H116.585C121.951 331.69 126.301 327.332 126.301 321.956V214.089C126.301 208.714 121.951 204.355 116.585 204.355Z" fill="#8ED7F3" stroke="#42B5DA" stroke-width="8.00013" stroke-miterlimit="22.9256"/>
<path d="M348.947 470.733H53.2738C45.6218 470.733 39.4187 476.767 39.4187 484.209C39.4187 491.651 45.6218 497.685 53.2738 497.685H348.947C356.599 497.685 362.803 491.651 362.803 484.209C362.803 476.767 356.599 470.733 348.947 470.733Z" fill="#2FA5CC"/>
<path d="M134.813 497.685H6.03461C2.70179 497.685 0 503.718 0 511.16C0 518.603 2.70179 524.636 6.03461 524.636H134.813C138.146 524.636 140.848 518.603 140.848 511.16C140.848 503.718 138.146 497.685 134.813 497.685Z" fill="#2FA5CC"/>
<path d="M243.841 497.685H161.751C159.627 497.685 157.904 503.718 157.904 511.16C157.904 518.603 159.627 524.636 161.751 524.636H243.841C245.966 524.636 247.688 518.603 247.688 511.16C247.688 503.718 245.966 497.685 243.841 497.685Z" fill="#2FA5CC"/>
<path d="M353.473 497.685H264.003C261.688 497.685 259.811 503.718 259.811 511.16C259.811 518.603 261.688 524.636 264.003 524.636H353.473C355.789 524.636 357.666 518.603 357.666 511.16C357.666 503.718 355.789 497.685 353.473 497.685Z" fill="#2FA5CC"/>
<path d="M299.043 443.782H216.953C214.828 443.782 213.106 449.815 213.106 457.258C213.106 464.7 214.828 470.734 216.953 470.734H299.043C301.168 470.734 302.89 464.7 302.89 457.258C302.89 449.815 301.168 443.782 299.043 443.782Z" fill="#2FA5CC"/>
<path d="M175.063 443.782H92.9722C90.8477 443.782 89.1255 449.815 89.1255 457.258C89.1255 464.7 90.8477 470.734 92.9722 470.734H175.063C177.187 470.734 178.909 464.7 178.909 457.258C178.909 449.815 177.187 443.782 175.063 443.782Z" fill="#2FA5CC"/>
<path d="M386.78 204.355H299.898C294.531 204.355 290.181 208.714 290.181 214.089V321.956C290.181 327.332 294.531 331.69 299.898 331.69H386.78C392.146 331.69 396.496 327.332 396.496 321.956V214.089C396.496 208.714 392.146 204.355 386.78 204.355Z" fill="#8ED7F3" stroke="#42B5DA" stroke-width="8.00013" stroke-miterlimit="22.9256"/>
<path fill-rule="evenodd" clip-rule="evenodd" d="M14.4829 11.3086C98.1445 49.6183 150.479 -9.20975 208.241 49.9991C266.004 -9.20926 318.338 49.6183 402 11.3086C402 102.045 402 180.669 402 271.405C318.338 308.396 284.769 247.909 208.241 302.705C131.714 247.909 98.1445 308.396 14.4829 271.405C14.4829 180.669 14.4829 102.045 14.4829 11.3086Z" fill="#F06277"/>
<path fill-rule="evenodd" clip-rule="evenodd" d="M19.9861 0.636719C101.272 37.8582 152.12 -19.2988 208.241 38.2285C208.241 126.388 208.241 214.547 208.241 302.706C133.887 249.466 101.272 301.055 19.9861 265.114C19.9861 176.954 19.9861 88.7956 19.9861 0.636719Z" fill="url(#paint0_linear_233_6193)"/>
<path fill-rule="evenodd" clip-rule="evenodd" d="M40.1519 18.9287C112.73 52.1629 158.131 1.1286 208.241 52.4933C258.351 1.12884 303.752 52.1629 376.33 18.9287C376.33 97.6439 376.33 165.852 376.33 244.567C303.752 276.658 274.631 243.62 208.241 291.157C141.852 243.62 112.73 276.658 40.1519 244.567C40.1519 165.852 40.1519 97.6439 40.1519 18.9287Z" fill="#60C0E1"/>
<path d="M208.241 52.4922V287.167" stroke="#8ED7F3" stroke-width="1.33342" stroke-miterlimit="22.9256"/>
<path fill-rule="evenodd" clip-rule="evenodd" d="M208.241 291.157C133.887 239.953 101.272 289.569 19.9861 255.002C19.9861 258.373 19.9861 261.743 19.9861 265.114C101.272 301.055 133.887 249.466 208.241 302.706C208.241 298.856 208.241 295.007 208.241 291.157Z" fill="url(#paint1_linear_233_6193)"/>
<path fill-rule="evenodd" clip-rule="evenodd" d="M396.496 255.002C315.211 289.569 282.596 239.953 208.241 291.157C208.241 295.007 208.241 298.856 208.241 302.706C282.596 249.466 315.211 301.055 396.496 265.114C396.496 261.743 396.496 258.373 396.496 255.002Z" fill="url(#paint2_linear_233_6193)"/>
<path d="M229.168 412.948H221.974V481.516H229.168V412.948Z" fill="#259DC3"/>
<path d="M237.655 481.516C240.493 481.516 242.793 479.903 242.793 477.913C242.793 475.923 240.493 474.31 237.655 474.31L213.484 474.31C210.647 474.31 208.346 475.923 208.346 477.913C208.346 479.903 210.647 481.516 213.484 481.516L237.655 481.516Z" fill="#259DC3"/>
<path d="M248.917 397.801H198.765C194.741 397.801 191.478 401.069 191.478 405.101V405.649C191.478 409.681 194.741 412.949 198.765 412.949H248.917C252.942 412.949 256.205 409.681 256.205 405.649V405.101C256.205 401.069 252.942 397.801 248.917 397.801Z" fill="#259DC3"/>
<path d="M250.712 306.997H230.507C217.091 306.997 204.649 317.892 202.716 331.332L196.657 373.466C194.725 386.905 204.033 397.801 217.449 397.801H237.654C251.07 397.801 263.512 386.905 265.445 373.466L271.504 331.332C273.436 317.892 264.128 306.997 250.712 306.997Z" fill="#259DC3"/>
<path fill-rule="evenodd" clip-rule="evenodd" d="M224.044 488.733C224.044 488.733 230.375 496.756 218.463 512.032C218.463 512.032 214.303 516.946 212.28 510.546C210.257 504.145 209.989 493.733 213.768 486.262C217.547 478.792 224.044 488.733 224.044 488.733Z" fill="#373435"/>
<path fill-rule="evenodd" clip-rule="evenodd" d="M151.638 484.456C149.974 484.328 121.255 482.49 131.306 489.876C135.247 492.772 157.627 498.15 159.082 491.905C160.536 485.661 161.316 483.969 151.638 484.456Z" fill="#373435"/>
<path d="M255.126 260.535C249.069 262.191 244.696 262.209 237.954 261.944C236.521 259.868 235.591 257.593 235.163 255.116C235.145 255.017 235.058 254.945 234.957 254.945C234.867 254.945 234.788 255.002 234.758 255.087C234.111 257.145 233.137 259.013 231.839 260.69C230.013 260.299 228.277 259.747 226.633 259.034C227.435 257.932 227.914 256.818 228.069 255.692C228.069 255.691 228.069 255.689 228.069 255.688C228.069 255.647 228.036 255.614 227.995 255.614C227.972 255.614 227.95 255.625 227.936 255.644C227.278 256.706 226.482 257.671 225.547 258.539C219.656 256.299 215.086 252.56 211.836 247.323C216.605 244.116 221.481 241.715 226.463 240.119C230.44 238.847 235.042 240.735 238.249 242.602C238.352 242.661 238.462 242.681 238.58 242.664C248.72 241.063 253.616 252.771 255.126 260.535Z" fill="#373435"/>
<path d="M211.836 247.323C215.086 252.561 219.656 256.3 225.547 258.54C222.406 260.86 218.673 262.427 215.179 264.663C210.242 262.169 206.14 259.868 202.308 256.102C205.032 252.669 208.208 249.743 211.836 247.323Z" fill="#50352E"/>
<path d="M226.633 259.034C223.729 262.021 219.557 263.245 215.86 264.983L213.206 266.576C213.015 266.692 212.989 266.662 213.129 266.488C213.627 265.868 214.31 265.259 215.18 264.662C218.673 262.427 222.407 260.859 225.547 258.539C226.482 257.671 227.279 256.706 227.937 255.644C227.951 255.625 227.972 255.614 227.996 255.614C228.036 255.614 228.069 255.647 228.069 255.688C228.069 255.689 228.069 255.69 228.069 255.692C227.915 256.818 227.436 257.932 226.633 259.034Z" fill="#D78C74"/>
<path d="M202.307 256.102C206.14 259.867 210.241 262.169 215.179 264.662C214.31 265.26 213.626 265.868 213.128 266.488C212.988 266.663 213.014 266.692 213.205 266.577L215.86 264.983L220.97 267.303C213.459 270.07 207.178 272.379 204.446 280.663C203.732 281.024 204.052 282.496 203.85 283.289C202.763 287.54 202.467 291.695 202.963 295.752C203.316 298.646 204.275 301.744 205.838 305.047C200.742 300.409 197.461 294.692 195.993 287.896C193.512 276.388 194.955 265.577 202.307 256.102Z" fill="#373435"/>
<path d="M226.633 259.034C228.277 259.747 230.013 260.299 231.839 260.69C230.032 262.768 227.881 264.377 225.385 265.518C223.767 266.256 222.296 266.851 220.97 267.303L215.86 264.983C219.557 263.246 223.728 262.022 226.633 259.034Z" fill="#50352E"/>
<path d="M252.092 275.909C256.959 275.721 256.761 281.545 255.008 284.481L254.636 285.038C254.118 284.898 253.38 284.92 252.42 285.104C250.689 285.436 249.138 284.931 247.766 283.588C247.641 283.465 247.537 283.481 247.453 283.636C244.898 288.387 241.603 292.481 237.148 295.823C232.256 299.489 226.336 300.919 219.387 300.112C214.765 298.607 211.073 295.648 208.309 291.234C207.028 289.188 206.057 286.986 205.397 284.628C205.922 280.928 207.528 277.94 210.216 275.665C210.273 275.617 210.345 275.591 210.419 275.591C210.565 275.591 210.692 275.692 210.724 275.835L210.768 276.012C209.818 279.808 213.522 283.057 216.155 279.059L217.09 276.827C217.308 276.181 217.33 275.561 217.156 274.968C217.075 274.056 216.711 273.29 216.063 272.67L216.111 272.283C216.125 272.163 216.201 272.06 216.31 272.01C223.213 268.776 230.245 266.223 234.435 259.326C234.476 259.258 234.55 259.217 234.629 259.217C234.725 259.217 234.81 259.276 234.843 259.366C237.421 266.474 243.908 272.22 250.141 276.3C250.347 276.433 250.566 276.458 250.796 276.377L252.092 275.909ZM235.653 275.083C234.578 276.354 234.163 277.918 234.409 279.774C234.887 283.393 238.768 283.013 240.108 280.265C240.972 278.652 241.205 277.17 240.808 275.82C240.009 273.117 237.387 273.024 235.653 275.083ZM217.127 285.108C213.426 284.817 217.038 289.859 217.8 290.744C222.925 296.697 230.072 294.768 233.698 288.649C234.928 286.568 232.921 286.369 231.434 286.247C226.667 285.861 221.898 285.482 217.127 285.108Z" fill="#E5A185"/>
<path d="M255.126 260.535C255.668 262.733 256.028 264.9 256.204 267.034C253.085 268.298 249.819 269.315 246.407 270.084C244.024 268.341 241.731 266.317 239.53 264.013C238.951 263.406 238.425 262.716 237.954 261.944C244.695 262.21 249.069 262.191 255.126 260.535Z" fill="#50352E"/>
<path d="M256.205 267.034C257.076 273.764 257.231 280.514 256.669 287.284C256.34 287.21 256.055 286.899 255.814 286.35C255.769 286.248 255.757 286.134 255.781 286.027C255.921 285.374 255.664 284.859 255.008 284.48C256.761 281.544 256.959 275.72 252.092 275.908C250.463 273.89 248.568 271.948 246.408 270.084C249.819 269.315 253.085 268.298 256.205 267.034Z" fill="#373435"/>
<path d="M216.063 272.67C216.711 273.289 217.075 274.055 217.156 274.967L217.09 276.826L216.155 279.058L211.7 273.857C212.617 272.467 214.55 271.427 216.063 272.67Z" fill="#381911"/>
<path d="M240.108 280.265C238.425 278.647 236.94 276.92 235.653 275.083C237.387 273.025 240.009 273.117 240.808 275.82C241.206 277.17 240.972 278.652 240.108 280.265Z" fill="#381911"/>
<path d="M211.7 273.858L216.155 279.059C213.522 283.057 209.818 279.808 210.768 276.012C210.896 275.253 211.206 274.534 211.7 273.858Z" fill="#50352E"/>
<path d="M235.654 275.082C236.94 276.919 238.425 278.646 240.109 280.264C238.768 283.012 234.888 283.392 234.409 279.774C234.164 277.917 234.579 276.353 235.654 275.082Z" fill="#50352E"/>
<path d="M204.447 280.663C204.599 282.008 204.915 283.33 205.397 284.628C206.057 286.986 207.028 289.188 208.309 291.234C211.073 295.648 214.765 298.607 219.387 300.112L220.823 300.75C220.946 300.807 221 300.903 220.985 301.038L220.676 303.694L220.422 306.176C220.41 306.281 220.335 306.368 220.233 306.394C219.698 306.539 219.235 306.53 218.842 306.368C216.628 305.682 214.591 305.674 212.731 306.346C211.39 306.803 210.318 307.551 209.513 308.588L205.838 305.047C204.275 301.745 203.316 298.647 202.963 295.753C202.467 291.695 202.763 287.541 203.85 283.289C204.053 282.496 203.732 281.024 204.447 280.663Z" fill="#230F0D"/>
<path d="M254.637 285.038C253.252 287.222 250.951 288.49 248.484 287.332C248.347 287.271 248.24 287.304 248.164 287.432C244.339 293.846 238.628 298.538 231.549 300.681C231.433 300.715 231.37 300.792 231.361 300.913L231.107 303.941C231.089 303.639 231.012 303.507 230.875 303.546C227.49 304.491 224.09 304.54 220.676 303.694L220.985 301.038C221 300.903 220.946 300.807 220.824 300.751L219.387 300.113C226.336 300.919 232.257 299.489 237.148 295.823C241.603 292.481 244.898 288.387 247.454 283.636C247.537 283.481 247.641 283.465 247.766 283.589C249.139 284.931 250.69 285.436 252.42 285.104C253.38 284.92 254.119 284.898 254.637 285.038Z" fill="#D78C74"/>
<path d="M255.008 284.48C255.664 284.859 255.922 285.374 255.782 286.026C255.758 286.135 255.77 286.248 255.815 286.351C256.055 286.899 256.34 287.21 256.669 287.284C255.38 296.283 252.118 303.435 244.199 308.212C243.401 307.7 242.719 307.397 242.152 307.301C241.079 307.259 240.328 307.158 239.899 306.998C237.842 306.224 235.948 306.065 234.218 306.522L231.195 306.375C231.05 306.367 230.982 306.291 230.989 306.146L231.107 303.94L231.361 300.912C231.37 300.792 231.433 300.714 231.548 300.68C238.628 298.537 244.339 293.845 248.164 287.431C248.24 287.303 248.347 287.27 248.484 287.332C250.951 288.49 253.252 287.221 254.637 285.037L255.008 284.48Z" fill="#230F0D"/>
<path d="M217.801 290.744C217.039 289.859 213.427 284.817 217.127 285.108C221.899 285.482 226.668 285.861 231.434 286.247C232.922 286.369 234.928 286.568 233.698 288.649C230.072 294.768 222.926 296.697 217.801 290.744Z" fill="white"/>
<path d="M231.107 303.942L230.989 306.147C230.981 306.292 231.05 306.368 231.195 306.376L234.218 306.523L230.959 309.898C228.264 311.059 225.548 311.725 222.812 311.897C219.288 312.119 218.147 310.378 218.824 306.988C218.826 306.977 218.828 306.966 218.828 306.954C218.828 306.861 218.752 306.785 218.658 306.785C218.653 306.785 218.649 306.785 218.644 306.785L218.496 306.8C218.744 306.623 218.86 306.479 218.843 306.368C219.235 306.531 219.699 306.539 220.234 306.394C220.335 306.368 220.411 306.282 220.422 306.178L220.676 303.694C224.09 304.54 227.49 304.491 230.875 303.547C231.012 303.508 231.089 303.639 231.107 303.942Z" fill="#E5A185"/>
<path d="M228.879 349.043C228.871 349.579 229.394 349.068 230.1 349.035L234.82 348.995C234.955 348.995 235.057 349.053 235.125 349.168C240.401 358.294 249.368 368.961 251.012 378.318C252.04 393.109 206.883 403.164 201.111 405.374C193.33 410.476 195.008 406.306 191.778 406.306C192.271 394.082 193.122 381.976 194.896 369.868C195.832 363.477 197.14 357.488 198.821 351.901C199.153 350.802 199.361 349.724 199.447 348.667C213.099 348.482 201.83 347.96 228.879 349.043Z" fill="#F06277"/>
<path d="M242.152 307.301C242.719 307.397 243.401 307.7 244.199 308.212C246.034 311.35 247.244 315.119 247.825 319.521C248.51 324.721 248.941 328.276 249.117 330.184C249.156 330.6 248.211 330.498 247.217 330.593C244.427 330.888 241.683 331.229 238.985 331.615C238.875 331.632 238.851 331.723 238.916 331.888C238.371 330.953 237.645 332.89 237.645 328.909L237.41 328.9C235.978 335.274 233.967 343.001 234.63 349.035C217.833 348.61 213.1 352.358 199.447 348.667C199.73 345.129 200.586 325.476 202.153 323.711C202.491 323.329 199.184 322.934 199.487 322.438C202.062 318.255 204.848 314.232 207.845 310.37C208.154 309.971 208.71 309.377 209.513 308.588C211.925 305.876 215.205 305.241 218.843 306.368C218.86 306.478 218.745 306.622 218.496 306.799C218.568 306.792 218.874 306.732 218.824 306.987C218.147 310.377 219.288 312.118 222.812 311.897C225.548 311.724 228.264 311.058 230.959 309.897L234.218 306.523C235.948 306.065 237.842 306.224 239.899 306.998C240.328 307.158 241.079 307.259 242.152 307.301Z" fill="#FEFEFE"/>
<path d="M279.985 323.094C280.975 321.984 281.616 320.966 283.203 320.7C283.282 320.687 283.366 320.689 283.448 320.707C283.796 320.781 284.02 321.112 283.949 321.447C283.932 321.526 283.9 321.601 283.853 321.667C283.812 321.726 283.795 321.787 283.799 321.851C283.804 321.976 283.868 322.048 283.991 322.065L284.532 322.146C284.979 322.212 285.146 322.464 285.033 322.902C284.182 326.192 282.846 331.153 279.617 332.706C277.896 333.534 274.517 334.706 271.007 335.221C266.984 335.811 262.789 335.667 260.722 335.362C260.582 335.342 260.487 335.397 260.435 335.528C257.792 342.282 254.898 348.928 251.754 355.464C250.535 357.994 249.114 361.701 245.634 360.307C242.542 358.524 241.052 355.743 241.165 351.963C241.169 351.842 241.138 351.727 241.077 351.626L240.705 350.982L240.911 351.034C240.962 351.046 240.997 351.028 241.014 350.978C241.029 350.934 241.016 350.9 240.977 350.875L241.11 350.982C241.227 351.081 241.308 351.057 241.352 350.912C242.523 347.072 245.542 343.347 248.296 340.197C248.446 340.025 248.585 339.798 248.712 339.515C248.815 339.529 254.842 333.082 255.516 332.411C255.595 332.334 255.644 332.223 255.645 332.107C255.682 329.32 257.663 327.679 259.931 326.572C259.788 326.966 259.84 327.162 260.085 327.162C262.299 327.17 264.437 327.564 266.499 328.346C266.511 328.351 266.52 328.354 266.529 328.356C266.724 328.412 266.927 328.301 266.983 328.107C266.986 328.098 266.988 328.089 266.989 328.08C267.353 326.465 269.131 319.914 270.943 319.605C271.058 319.585 271.164 319.611 271.26 319.682C272.747 320.8 271.506 326.919 270.957 328.855C270.901 329.05 270.973 329.152 271.175 329.162L271.679 329.187C271.843 329.195 271.952 329.118 272.003 328.959C272.651 326.904 275.044 318.93 277.614 319.169C277.734 319.179 277.813 319.243 277.85 319.361C278.523 321.593 276.929 326.543 276.219 328.638C276.185 328.746 276.191 328.857 276.233 328.956C276.331 329.186 276.595 329.295 276.823 329.197C276.922 329.155 277.002 329.079 277.05 328.982L279.985 323.094Z" fill="#E5A185"/>
<path d="M247.217 330.593L248.712 339.515C248.585 339.798 248.446 340.025 248.296 340.197C245.542 343.347 242.523 347.072 241.352 350.912C241.308 351.057 241.227 351.081 241.109 350.982L240.977 350.875C239.636 344.653 239.228 338.228 238.915 331.887C238.851 331.723 238.874 331.631 238.985 331.614C241.682 331.228 244.427 330.888 247.217 330.593Z" fill="#D78C74"/>
<path fill-rule="evenodd" clip-rule="evenodd" d="M282.966 293.25C282.966 293.25 274.57 288.306 264.36 290.185C264.36 290.185 249.926 308.874 262.23 331.749L282.966 293.25Z" fill="#FEFEFE"/>
<path fill-rule="evenodd" clip-rule="evenodd" d="M282.966 293.251C282.966 293.251 291.701 297.567 295.739 307.148C295.739 307.148 288.07 329.495 262.23 331.749L282.966 293.251Z" fill="#F06277"/>
<path fill-rule="evenodd" clip-rule="evenodd" d="M196.35 370.52C196.35 370.52 171.539 393.329 164.241 407.365C156.944 421.402 149.063 483.689 149.063 483.689L161.03 487.26L199.853 411.459C199.853 411.459 219.41 401.517 221.745 395.083C224.081 388.65 223.836 371.105 223.836 371.105L196.35 370.52Z" fill="url(#paint3_linear_233_6193)"/>
<path fill-rule="evenodd" clip-rule="evenodd" d="M249.968 373.391C249.968 373.391 262.371 400.751 203.697 423.212C203.697 423.212 197.584 427.22 203.697 435.837C209.81 444.454 226.743 487.26 226.743 487.26H211.245L172.908 436.115C172.908 436.115 161.603 418.047 172.908 407.485C184.214 396.922 199.545 384.136 199.545 384.136L217.148 370.52L249.968 373.391Z" fill="#F06277"/>
<path d="M320.244 362.047H53.1775V368.812H320.244V362.047Z" fill="#259DC3"/>
<path fill-rule="evenodd" clip-rule="evenodd" d="M279.249 337.686H293.31C294.646 337.686 295.739 338.781 295.739 340.119V354.746C295.739 358.761 292.46 362.047 288.452 362.047H284.108C280.1 362.047 276.82 358.761 276.82 354.746V340.119C276.82 338.781 277.913 337.686 279.249 337.686Z" fill="#60C0E1"/>
<path fill-rule="evenodd" clip-rule="evenodd" d="M295.738 354.746V346.84V340.119C295.738 338.781 294.645 337.686 293.309 337.686H288.129C289.465 337.686 290.558 338.781 290.558 340.119V346.606V354.746C290.558 358.621 287.504 361.816 283.689 362.035C283.827 362.043 283.967 362.047 284.107 362.047H288.451C292.459 362.047 295.738 358.761 295.738 354.746Z" fill="#2FA5CC"/>
<path fill-rule="evenodd" clip-rule="evenodd" d="M81.6603 368.812H89.1252L58.9014 481.814C58.3512 483.871 56.2218 485.553 54.169 485.553H54.1688C52.1159 485.553 50.8863 483.871 51.4365 481.814L81.6603 368.812Z" fill="#259DC3"/>
<path fill-rule="evenodd" clip-rule="evenodd" d="M96.5901 368.812H89.1252L119.349 481.814C119.899 483.871 122.029 485.553 124.081 485.553H124.082C126.135 485.553 127.364 483.871 126.814 481.814L96.5901 368.812Z" fill="#259DC3"/>
<path fill-rule="evenodd" clip-rule="evenodd" d="M285.966 368.812H293.43L263.207 481.814C262.656 483.871 260.527 485.553 258.474 485.553H258.474C256.421 485.553 255.191 483.871 255.742 481.814L285.966 368.812Z" fill="#259DC3"/>
<path fill-rule="evenodd" clip-rule="evenodd" d="M300.896 368.812H293.431L323.654 481.814C324.205 483.871 326.334 485.553 328.387 485.553H328.387C330.44 485.553 331.67 483.871 331.119 481.814L300.896 368.812Z" fill="#259DC3"/>
<path fill-rule="evenodd" clip-rule="evenodd" d="M58.5332 362.048H91.0319V357.725C91.0319 355.049 88.8457 352.858 86.1737 352.858H63.3914C60.7194 352.858 58.5332 355.049 58.5332 357.725V362.048Z" fill="#F06277"/>
<path d="M74.7829 352.858V339.288L34.6885 281.124L96.5268 248.335" stroke="#F06277" stroke-width="2.66683" stroke-miterlimit="22.9256" stroke-linecap="round" stroke-linejoin="round"/>
<path d="M74.7824 342.108C76.3374 342.108 77.5979 340.845 77.5979 339.287C77.5979 337.73 76.3374 336.467 74.7824 336.467C73.2274 336.467 71.9668 337.73 71.9668 339.287C71.9668 340.845 73.2274 342.108 74.7824 342.108Z" fill="#8ED7F3" stroke="#F06277" stroke-width="2.66683" stroke-miterlimit="22.9256"/>
<path d="M34.6884 283.945C36.2434 283.945 37.5039 282.682 37.5039 281.124C37.5039 279.567 36.2434 278.304 34.6884 278.304C33.1334 278.304 31.8728 279.567 31.8728 281.124C31.8728 282.682 33.1334 283.945 34.6884 283.945Z" fill="#8ED7F3" stroke="#F06277" stroke-width="2.66683" stroke-miterlimit="22.9256"/>
<path fill-rule="evenodd" clip-rule="evenodd" d="M93.3347 273.44L120.814 257.546L103.831 236.785C102.568 235.241 100.604 234.461 98.8828 235.457L85.2055 243.368C83.484 244.364 83.1779 246.461 83.8797 248.325L93.3347 273.44Z" fill="#2FA5CC"/>
<path fill-rule="evenodd" clip-rule="evenodd" d="M99.2029 264.427L91.4852 243.926C90.7834 242.062 91.0895 239.965 92.811 238.969L85.2055 243.368C83.484 244.364 83.1779 246.461 83.8797 248.325L93.1248 272.883C92.7364 271.002 94.8879 267.974 98.5736 264.934C98.7786 264.765 98.9887 264.596 99.2029 264.427Z" fill="#88D5F0"/>
<path fill-rule="evenodd" clip-rule="evenodd" d="M297.953 469.157H328.107C329.443 469.157 330.716 470.266 330.537 471.591L328.107 489.554C327.57 493.53 324.826 496.854 320.82 496.854H305.24C301.235 496.854 298.491 493.533 297.953 489.554L295.524 471.591C295.345 470.264 296.617 469.157 297.953 469.157Z" fill="#F06277"/>
<path fill-rule="evenodd" clip-rule="evenodd" d="M330.607 456.686C330.993 454.956 332.805 450.062 341.129 447.755C352.154 444.699 363.446 447.097 375.057 431.308C375.057 431.308 362.873 474.048 331.076 457.6C322.542 461.759 320.19 466.687 319.542 469.158H318.493C319.124 466.534 321.519 461.123 330.607 456.686ZM316.998 469.158C316.469 464.948 316.269 453.668 326.959 444.006C328.836 440.062 336.86 427.074 362.73 422.269C362.73 422.269 355.683 449.637 327.12 445.257C317.181 454.615 317.517 465.326 318.028 469.158H316.998ZM308.715 469.158C307.748 466.25 304.655 459.978 295.119 454.336C284.119 454.686 275.591 456.727 269.289 459.076L273.508 443.299C274.56 443.016 275.656 442.861 276.795 442.861C288.666 442.861 294.086 450.735 295.59 453.423C305.735 459.412 308.863 466.201 309.786 469.158H308.715ZM310.292 469.158C310.626 465.264 310.709 454.276 302.971 442.684C300.108 441.663 286.598 435.97 286.598 419.444C286.598 400.96 309.644 385.537 309.644 385.537C303.834 397.087 306.744 401.182 309.644 417.452C312.139 431.455 305.79 440.175 303.972 442.334C311.664 453.997 311.655 465.066 311.32 469.158H310.292ZM314.617 469.158C313.212 465.608 312.219 456.455 322.063 435.51C323.256 432.398 330.168 412.971 324.309 394.759C324.309 394.759 349.162 419.539 323.408 435.069C312.628 457.657 314.296 466.327 315.679 469.158H314.617ZM264.333 449.692C258.232 456.851 255.126 467.071 255.126 467.071C255.126 467.071 256.926 465.294 260.757 463.066L264.333 449.692Z" fill="#FFCC29"/>
<path fill-rule="evenodd" clip-rule="evenodd" d="M120.814 257.546L136.721 278.334C138.495 281.411 132.462 288.226 123.247 293.556C122.701 293.872 122.156 294.176 121.613 294.467C113.001 299.085 105.02 300.53 103.351 297.635L93.3346 273.44C91.7826 269.319 100.145 263.541 103.109 261.697C103.539 261.429 103.98 261.165 104.43 260.904C107.415 259.178 117.83 253.899 120.814 257.546Z" fill="#FEFEFE"/>
<path d="M157.546 286.565H90.635C86.6103 286.565 84.2219 289.834 85.3003 293.866L98.5089 343.251C99.5873 347.283 103.724 350.551 107.749 350.551H174.66C178.685 350.551 181.073 347.283 179.995 343.251L166.786 293.866C165.707 289.834 161.571 286.565 157.546 286.565Z" fill="#F06277"/>
<path fill-rule="evenodd" clip-rule="evenodd" d="M124.299 327.282H143.568C144.904 327.282 145.704 328.377 145.346 329.716L136.698 362.048H122.288C116.944 362.048 113.743 357.668 115.175 352.314L121.219 329.716C121.577 328.377 122.963 327.282 124.299 327.282Z" fill="#42B5DA"/>
<path fill-rule="evenodd" clip-rule="evenodd" d="M186.769 343.251L173.561 293.866C172.487 289.851 168.329 286.565 164.321 286.565H157.546C161.554 286.565 165.712 289.851 166.786 293.866L179.995 343.251C181.069 347.266 178.668 350.551 174.66 350.551H177.571H181.435C183.656 350.551 185.384 349.542 186.3 347.959C187.036 346.685 187.248 345.041 186.769 343.251Z" fill="#42B5DA"/>
<path fill-rule="evenodd" clip-rule="evenodd" d="M142.09 358.029L149.663 329.716C150.021 328.377 149.221 327.282 147.885 327.282H143.568C144.904 327.282 145.704 328.377 145.346 329.716C142.463 340.493 139.581 351.27 136.698 362.048H138.857H141.015H165.889V358.029H142.09Z" fill="#E1465F"/>
<path d="M109.719 270.08C117.307 265.691 122.275 260.079 120.814 257.545C119.354 255.011 112.018 256.515 104.43 260.904C96.8419 265.293 91.8743 270.905 93.3346 273.439C94.795 275.973 102.13 274.469 109.719 270.08Z" fill="#E86666"/>
<path fill-rule="evenodd" clip-rule="evenodd" d="M110.842 257.84C112.428 261.161 111.218 265.198 107.982 267.07C104.746 268.942 100.651 267.973 98.5732 264.936C100.242 263.56 102.225 262.181 104.43 260.906C106.635 259.631 108.818 258.6 110.842 257.84Z" fill="#FFCC29"/>
<path d="M129.161 346.317C131.876 346.317 134.077 344.112 134.077 341.392C134.077 338.672 131.876 336.467 129.161 336.467C126.446 336.467 124.245 338.672 124.245 341.392C124.245 344.112 126.446 346.317 129.161 346.317Z" fill="#F06277"/>
<path d="M172.614 52.2736L73.6993 42.5205C69.2033 42.0771 65.5586 44.1872 65.5586 47.2333C65.5586 50.2795 69.2033 53.1082 73.6993 53.5515L172.614 63.3047C177.11 63.748 180.755 61.638 180.755 58.5918C180.755 55.5457 177.11 52.7169 172.614 52.2736Z" fill="#42B5DA"/>
<path d="M172.614 75.9826L73.6993 66.2294C69.2033 65.7861 65.5586 67.8961 65.5586 70.9423C65.5586 73.9884 69.2033 76.8172 73.6993 77.2605L172.614 87.0136C177.11 87.457 180.755 85.3469 180.755 82.3008C180.755 79.2546 177.11 76.4259 172.614 75.9826Z" fill="#42B5DA"/>
<path d="M172.614 99.6915L73.6993 89.9384C69.2033 89.4951 65.5586 91.6051 65.5586 94.6513C65.5586 97.6974 69.2033 100.526 73.6993 100.97L172.614 110.723C177.11 111.166 180.755 109.056 180.755 106.01C180.755 102.964 177.11 100.135 172.614 99.6915Z" fill="#42B5DA"/>
<path d="M172.614 123.402L73.6993 113.648C69.2033 113.205 65.5586 115.315 65.5586 118.361C65.5586 121.407 69.2033 124.236 73.6993 124.679L172.614 134.433C177.11 134.876 180.755 132.766 180.755 129.72C180.755 126.674 177.11 123.845 172.614 123.402Z" fill="#42B5DA"/>
<path d="M172.614 147.111L73.6993 137.358C69.2033 136.915 65.5586 139.025 65.5586 142.071C65.5586 145.117 69.2033 147.946 73.6993 148.389L172.614 158.143C177.11 158.586 180.755 156.476 180.755 153.43C180.755 150.384 177.11 147.555 172.614 147.111Z" fill="#42B5DA"/>
<path d="M172.614 170.82L73.6993 161.067C69.2033 160.624 65.5586 162.734 65.5586 165.78C65.5586 168.826 69.2033 171.655 73.6993 172.098L172.614 181.852C177.11 182.295 180.755 180.185 180.755 177.139C180.755 174.093 177.11 171.264 172.614 170.82Z" fill="#42B5DA"/>
<path d="M172.614 194.531L73.6993 184.778C69.2033 184.335 65.5586 186.445 65.5586 189.491C65.5586 192.537 69.2033 195.366 73.6993 195.809L172.614 205.562C177.11 206.006 180.755 203.896 180.755 200.85C180.755 197.803 177.11 194.975 172.614 194.531Z" fill="#42B5DA"/>
<path d="M172.614 218.237L73.6993 208.484C69.2033 208.041 65.5586 210.151 65.5586 213.197C65.5586 216.243 69.2033 219.072 73.6993 219.515L172.614 229.269C177.11 229.712 180.755 227.602 180.755 224.556C180.755 221.51 177.11 218.681 172.614 218.237Z" fill="#42B5DA"/>
<path d="M248.249 52.2736L347.163 42.5205C351.659 42.0771 355.304 44.1872 355.304 47.2333C355.304 50.2795 351.659 53.1082 347.163 53.5515L248.249 63.3047C243.753 63.748 240.108 61.638 240.108 58.5918C240.108 55.5457 243.753 52.7169 248.249 52.2736Z" fill="#42B5DA"/>
<path d="M248.249 75.9826L347.163 66.2294C351.659 65.7861 355.304 67.8961 355.304 70.9423C355.304 73.9884 351.659 76.8172 347.163 77.2605L248.249 87.0136C243.753 87.457 240.108 85.3469 240.108 82.3008C240.108 79.2546 243.753 76.4259 248.249 75.9826Z" fill="#42B5DA"/>
<path d="M248.249 99.6915L347.163 89.9384C351.659 89.4951 355.304 91.6051 355.304 94.6513C355.304 97.6974 351.659 100.526 347.163 100.97L248.249 110.723C243.753 111.166 240.108 109.056 240.108 106.01C240.108 102.964 243.753 100.135 248.249 99.6915Z" fill="#42B5DA"/>
<path d="M248.249 123.402L347.163 113.648C351.659 113.205 355.304 115.315 355.304 118.361C355.304 121.407 351.659 124.236 347.163 124.679L248.249 134.433C243.753 134.876 240.108 132.766 240.108 129.72C240.108 126.674 243.753 123.845 248.249 123.402Z" fill="#42B5DA"/>
<path d="M248.249 147.111L347.163 137.358C351.659 136.915 355.304 139.025 355.304 142.071C355.304 145.117 351.659 147.946 347.163 148.389L248.249 158.143C243.753 158.586 240.108 156.476 240.108 153.43C240.108 150.384 243.753 147.555 248.249 147.111Z" fill="#42B5DA"/>
<path d="M248.249 170.82L347.163 161.067C351.659 160.624 355.304 162.734 355.304 165.78C355.304 168.826 351.659 171.655 347.163 172.098L248.249 181.852C243.753 182.295 240.108 180.185 240.108 177.139C240.108 174.093 243.753 171.264 248.249 170.82Z" fill="#42B5DA"/>
<path d="M248.249 194.531L347.163 184.778C351.659 184.335 355.304 186.445 355.304 189.491C355.304 192.537 351.659 195.366 347.163 195.809L248.249 205.562C243.753 206.006 240.108 203.896 240.108 200.85C240.108 197.803 243.753 194.975 248.249 194.531Z" fill="#42B5DA"/>
<path d="M248.249 218.237L347.163 208.484C351.659 208.041 355.304 210.151 355.304 213.197C355.304 216.243 351.659 219.072 347.163 219.515L248.249 229.269C243.753 229.712 240.108 227.602 240.108 224.556C240.108 221.51 243.753 218.681 248.249 218.237Z" fill="#42B5DA"/>
<path fill-rule="evenodd" clip-rule="evenodd" d="M208.241 13.7892C208.241 13.7892 172.487 12.4763 142.749 36.3962C142.749 36.3962 128.629 122.044 208.241 174.493V13.7892Z" fill="#42B5DA"/>
<path fill-rule="evenodd" clip-rule="evenodd" d="M208.241 13.7892C208.241 13.7892 243.996 12.4763 273.733 36.3962C273.733 36.3962 287.854 122.044 208.241 174.493V13.7892Z" fill="#F06277"/>
<defs>
<linearGradient id="paint0_linear_233_6193" x1="90.4593" y1="151.671" x2="208.241" y2="151.671" gradientUnits="userSpaceOnUse">
<stop stop-color="#42B5DA"/>
<stop offset="1" stop-color="#88D5F0"/>
</linearGradient>
<linearGradient id="paint1_linear_233_6193" x1="7067.32" y1="2640.2" x2="18845.5" y2="2640.2" gradientUnits="userSpaceOnUse">
<stop stop-color="#88D5F0"/>
<stop offset="1" stop-color="#42B5DA"/>
</linearGradient>
<linearGradient id="paint2_linear_233_6193" x1="7255.57" y1="2640.2" x2="19033.8" y2="2640.2" gradientUnits="userSpaceOnUse">
<stop stop-color="#88D5F0"/>
<stop offset="1" stop-color="#42B5DA"/>
</linearGradient>
<linearGradient id="paint3_linear_233_6193" x1="196.35" y1="370.52" x2="196.351" y2="378.656" gradientUnits="userSpaceOnUse">
<stop stop-color="#F06277"/>
<stop offset="1" stop-color="#E24760"/>
</linearGradient>
</defs>
</svg>
