<svg width="457" height="451" viewBox="0 0 457 451" fill="none" xmlns="http://www.w3.org/2000/svg">
<path d="M254.091 421.529C360.352 421.529 446.494 335.459 446.494 229.285C446.494 123.112 360.352 37.041 254.091 37.041C147.829 37.041 61.687 123.112 61.687 229.285C61.687 335.459 147.829 421.529 254.091 421.529Z" fill="#6A8DC7"/>
<path fill-rule="evenodd" clip-rule="evenodd" d="M446.492 229.123C446.492 229.176 446.494 229.228 446.494 229.281C446.494 231.558 446.441 233.823 446.362 236.081H369.018V229.129L446.492 229.123ZM445.954 243.748C445.778 246.084 445.554 248.406 445.297 250.718L369.018 250.725V243.742L445.954 243.748ZM389.147 193.32H380.753L380.757 209.788H389.161L389.147 193.32ZM408.305 193.345L400.096 193.312C399.622 197.86 399.867 204.978 399.874 209.805L408.349 209.788L408.305 193.345ZM419.084 194.4C418.752 198.009 419.084 206.883 419.084 209.788V221.303L369.018 221.296V156.07H419.084V166.915V183.41V194.4ZM389.164 166.95L380.757 166.915L380.753 183.432C382.831 183.377 387.465 183.692 389.151 183.23L389.164 166.95ZM408.349 166.925L399.88 166.895L399.874 183.45L408.317 183.276L408.349 166.925Z" fill="#7FA2D4"/>
<path fill-rule="evenodd" clip-rule="evenodd" d="M284.422 0.216797C258.912 0.216797 237.01 15.6366 227.533 37.6551C221.719 34.9416 215.235 33.4232 208.394 33.4232C192.313 33.4232 178.192 41.7988 170.157 54.4212C166.402 53.0853 162.359 52.3554 158.144 52.3554C138.368 52.3554 122.336 68.3743 122.336 88.1345H395.025C395.025 64.7449 376.048 45.7836 352.638 45.7836C349.808 45.7836 347.044 46.063 344.369 46.5917C337.493 19.9219 313.261 0.216797 284.422 0.216797Z" fill="#3B69B0"/>
<path fill-rule="evenodd" clip-rule="evenodd" d="M45.8828 250.716L139.142 250.725V243.742L45.8828 243.749V250.716ZM45.8828 236.081H139.142V229.129L45.8828 229.122V236.081ZM119.012 193.32H127.406L127.403 209.788H118.998L119.012 193.32ZM99.8548 193.345L108.064 193.312C108.538 197.86 108.293 204.978 108.286 209.805L99.8112 209.788L99.8548 193.345ZM89.0763 194.4C89.4075 198.009 89.0763 206.883 89.0763 209.788V221.303L139.142 221.296V156.07H89.0763V166.915V183.41V194.4ZM118.995 166.95L127.403 166.915L127.406 183.432C125.329 183.377 120.695 183.692 119.009 183.23L118.995 166.95ZM99.8109 166.925L108.28 166.895L108.286 183.45L99.8433 183.276L99.8109 166.925Z" fill="#7FA2D4"/>
<path d="M22.5925 329.35V428.726" stroke="#93AFDB" stroke-width="8.00013" stroke-miterlimit="22.9256"/>
<path fill-rule="evenodd" clip-rule="evenodd" d="M239.28 177.531L268.847 177.488L268.904 213.851L239.293 213.924L239.28 177.531ZM127.426 250.696L380.755 250.728V243.746L127.426 243.77V250.696ZM127.426 236.084H380.755V229.132L127.426 229.109V236.084ZM231.1 49.2684L231.096 64.8774C237.065 68.8078 251.212 60.9296 251.978 64.1898L252.157 71.3823C252.146 73.8238 252.158 76.2541 252.159 78.6944C252.162 83.5697 252.046 88.5426 252.158 93.4059C242.165 96.9201 204.278 113.616 196.441 118.578L311.778 118.657C293.196 110.168 274.752 101.548 256.018 93.4255L256.062 46.1889L252.19 46.1875L252.158 48.1259C243.606 46.3121 241.402 52.3391 231.1 49.2684ZM360.626 193.323H369.02L369.016 209.791H360.612L360.626 193.323ZM341.468 193.349L349.677 193.315C350.151 197.863 349.906 204.982 349.899 209.808L341.424 209.792L341.468 193.349ZM322.304 193.353L330.531 193.314C331.109 195.685 330.69 206.52 330.69 209.791L322.258 209.782L322.304 193.353ZM360.609 166.953L369.016 166.918L369.02 183.435C366.942 183.38 362.308 183.695 360.622 183.233L360.609 166.953ZM341.424 166.929L349.893 166.898L349.899 183.453L341.456 183.28L341.424 166.929ZM322.258 166.927L330.69 166.918V183.413L322.293 183.353L322.258 166.927ZM380.755 221.299V156.074H310.667L310.546 221.312L380.755 221.299ZM177.492 193.323L185.924 193.387C185.851 198.821 185.901 204.267 185.883 209.704L177.492 209.791V193.323ZM158.504 193.315L166.644 193.321L166.732 209.681L158.282 209.819C158.432 206.524 157.853 195.468 158.504 193.315ZM139.153 193.259L147.594 193.297L147.606 209.808H139.248L139.153 193.259ZM177.503 166.918L185.882 167.054C185.9 172.495 185.946 177.95 185.887 183.389L177.811 183.419L177.492 183.435L177.503 166.918ZM158.282 166.898C160.403 166.914 164.926 166.605 166.727 167.078L166.721 183.244C164.926 183.753 160.402 183.423 158.303 183.423L158.282 166.898ZM139.142 166.897L147.607 166.865L147.594 183.447L139.152 183.457L139.142 166.897ZM127.426 221.312L197.635 221.311L197.634 156.059L127.426 156.074V221.312ZM284.258 177.494L292.559 177.572L292.46 205.651L284.244 205.659C283.955 196.449 284.083 186.721 284.258 177.494ZM216.802 177.497L225.086 177.466L225.188 205.694L216.777 205.679L216.802 177.497ZM284.246 135.555L292.572 135.618L292.498 163.777L284.206 163.801C284.064 154.404 284.208 144.95 284.246 135.555ZM270.014 163.788L261.709 163.79L261.777 135.558L270.108 135.592C270.163 144.82 270.426 154.612 270.014 163.788ZM239.284 135.559L247.655 135.544L247.544 163.799L239.27 163.723L239.284 135.559ZM216.815 135.584L225.186 135.556L225.049 163.789L216.802 163.718L216.815 135.584ZM202.323 221.261L305.872 221.31C305.653 188.504 305.783 155.605 305.857 122.794L202.342 122.851C202.331 155.496 202.923 188.664 202.323 221.261Z" fill="#7FA2D4"/>
<path d="M68.1433 329.35V428.726" stroke="#93AFDB" stroke-width="8.00013" stroke-miterlimit="22.9256"/>
<path d="M371.279 348.754L388.984 344.014L416.149 445.312L398.444 450.052L371.279 348.754Z" fill="#D2AE6D"/>
<path fill-rule="evenodd" clip-rule="evenodd" d="M385.572 344.93L374.69 347.843L401.856 449.141L412.737 446.228L385.572 344.93Z" fill="#FEFEFE"/>
<path d="M349.989 336.764H331.659V450.053H349.989V336.764Z" fill="#D2AE6D"/>
<path d="M346.456 336.764H335.191V450.053H346.456V336.764Z" fill="#FEFEFE"/>
<path d="M373.595 336.764H349.988V450.053H373.595V336.764Z" fill="#2E5AA7"/>
<path d="M369.045 336.764H354.537V450.053H369.045V336.764Z" fill="#FEFEFE"/>
<path fill-rule="evenodd" clip-rule="evenodd" d="M388.984 344.014H373.595V344.927H385.572L388.984 344.014Z" fill="#D2AE6D"/>
<path fill-rule="evenodd" clip-rule="evenodd" d="M373.595 347.843V344.93H385.572L374.691 347.843H373.595Z" fill="#FEFEFE"/>
<path fill-rule="evenodd" clip-rule="evenodd" d="M374.691 347.842H373.595V348.135L374.691 347.842Z" fill="#D2AE6D"/>
<path d="M61.8547 407.396H161.98H165.99H268.054C270.747 407.396 273.193 408.495 274.964 410.265C276.735 412.034 277.834 414.478 277.834 417.168V440.286C277.834 442.976 276.735 445.42 274.964 447.19C273.193 448.959 270.747 450.058 268.054 450.058H165.99H161.98H61.8547V444.36H161.98H165.99C167.108 444.36 168.127 443.9 168.867 443.161C169.607 442.421 170.067 441.403 170.067 440.286V417.168C170.067 416.052 169.607 415.033 168.867 414.294C168.127 413.554 167.108 413.095 165.99 413.095H161.98H61.8547V407.396Z" fill="#2E5AA7"/>
<path d="M200.58 407.396H203.431C206.124 407.396 208.57 408.495 210.341 410.265C212.112 412.034 213.211 414.478 213.211 417.168V440.286C213.211 442.976 212.112 445.42 210.341 447.19C208.57 448.959 206.124 450.058 203.431 450.058H200.58C204.39 450.058 207.508 446.943 207.508 443.135V440.286V417.168V414.319C207.508 410.512 204.39 407.396 200.58 407.396Z" fill="#5172B0"/>
<path d="M247.978 407.396H250.829C253.522 407.396 255.968 408.495 257.738 410.265C259.509 412.034 260.609 414.478 260.609 417.168V440.286C260.609 442.976 259.509 445.42 257.738 447.19C255.968 448.959 253.522 450.058 250.829 450.058H247.978C251.788 450.058 254.906 446.943 254.906 443.135V440.286V417.168V414.319C254.906 410.512 251.788 407.396 247.978 407.396Z" fill="#5172B0"/>
<path fill-rule="evenodd" clip-rule="evenodd" d="M293.902 411.383L295.443 406.077C295.678 405.245 296.28 405.548 296.411 405.724C296.638 406.03 296.34 406.723 296.242 407.076C295.994 407.966 295.744 408.844 295.486 409.72C295.366 410.127 294.47 413.485 294.293 413.684C294.162 413.83 293.879 413.914 293.644 413.774C293.471 413.671 293.414 413.5 293.344 413.248C293.198 412.723 291.903 408.113 291.819 407.993L290.305 413.263C290.236 413.508 290.158 413.684 289.947 413.769C289.666 413.881 289.433 413.745 289.317 413.591C289.166 413.391 287.585 407.68 287.401 407.032C287.289 406.637 286.993 405.998 287.268 405.684C287.417 405.513 287.674 405.457 287.909 405.576C288.102 405.674 288.135 405.818 288.213 406.089L289.729 411.344C289.869 411.212 290.996 407.064 291.081 406.759C291.21 406.293 291.284 405.54 291.857 405.57C292.391 405.598 292.442 406.311 292.588 406.804C292.742 407.322 292.878 407.817 293.025 408.334C293.302 409.307 293.595 410.432 293.902 411.383ZM299.647 409.698C301.042 409.619 302.657 409.691 304.076 409.691C304.814 409.691 305.552 409.691 306.29 409.691C306.886 409.691 307.975 409.893 307.971 409.166C307.967 408.449 306.901 408.647 306.29 408.647C305.552 408.647 304.814 408.647 304.076 408.647C303.02 408.647 300.521 408.694 299.643 408.64L299.642 406.576C301.036 406.496 302.657 406.569 304.076 406.569C304.814 406.569 305.552 406.569 306.29 406.569C307.011 406.569 307.963 406.745 307.971 406.053C307.98 405.317 306.893 405.525 306.29 405.525C305.552 405.525 304.814 405.525 304.076 405.525C302.661 405.525 301.041 405.598 299.643 405.518L299.663 403.449C301.627 403.384 304.21 403.446 306.29 403.446C306.915 403.446 307.995 403.645 307.97 402.9C307.958 402.546 307.715 402.407 307.358 402.401L304.035 402.402C302.618 402.402 301.057 402.463 299.644 402.397L299.654 400.322L309.021 400.337L309.016 418.016L299.643 418.011L299.663 415.941C301.627 415.876 304.21 415.938 306.29 415.938C306.915 415.938 307.995 416.137 307.97 415.392C307.958 415.039 307.715 414.9 307.358 414.893L304.035 414.894C302.618 414.894 301.057 414.956 299.644 414.889L299.654 412.82C301.067 412.752 302.645 412.815 304.076 412.815C304.814 412.815 305.552 412.815 306.29 412.815C306.909 412.815 307.979 413.016 307.971 412.279C307.964 411.56 306.83 411.771 306.249 411.771C304.171 411.771 301.621 411.834 299.645 411.768L299.647 409.698ZM299.642 419.068C301.289 418.974 309.293 419.2 309.75 419.01C310.126 418.855 310.061 418.479 310.061 418.054V400.278C310.061 399.838 310.105 399.458 309.747 399.323C309.443 399.209 300.908 399.318 299.665 399.276C299.565 398.854 299.733 397.888 299.605 397.534C299.415 397.005 298.786 397.259 298.297 397.369C294.419 398.235 290.522 399.181 286.638 400.057C284.902 400.449 285.056 400.158 285.056 402.039V418.136C285.054 418.932 285.097 418.987 285.851 419.104L295.148 420.534C296.206 420.695 297.208 420.851 298.252 421.01C299.829 421.25 299.652 421.226 299.642 419.068Z" fill="url(#paint0_linear_233_6293)"/>
<path fill-rule="evenodd" clip-rule="evenodd" d="M170.067 440.281V417.163C170.067 416.047 169.607 415.028 168.867 414.289C168.127 413.549 167.108 413.09 165.99 413.09H161.98H64.0803V444.355H161.98H165.99C167.108 444.355 168.127 443.895 168.867 443.156C169.608 442.416 170.067 441.398 170.067 440.281Z" fill="#FEFEFE"/>
<path fill-rule="evenodd" clip-rule="evenodd" d="M209.445 364.729H213.455H313.581V370.427H213.455H209.445C208.328 370.427 207.309 370.886 206.568 371.626C205.828 372.366 205.368 373.384 205.368 374.501V397.618C205.368 398.735 205.828 399.753 206.568 400.493C207.309 401.232 208.328 401.692 209.445 401.692H213.455H313.581V407.39H213.455H209.445H107.381C104.689 407.39 102.243 406.291 100.472 404.522C98.7006 402.752 97.6011 400.308 97.6011 397.618V374.501C97.6011 371.81 98.7006 369.366 100.472 367.597C102.243 365.827 104.689 364.729 107.381 364.729H209.445Z" fill="#D2AE6D"/>
<path d="M174.856 364.729H172.004C169.312 364.729 166.866 365.827 165.095 367.597C163.324 369.366 162.224 371.81 162.224 374.501V397.618C162.224 400.308 163.324 402.752 165.095 404.522C166.866 406.291 169.312 407.39 172.004 407.39H174.856C171.045 407.39 167.927 404.275 167.927 400.467V397.618V374.501V371.651C167.927 367.844 171.045 364.729 174.856 364.729Z" fill="#B69253"/>
<path d="M127.458 364.729H124.607C121.914 364.729 119.468 365.827 117.697 367.597C115.926 369.366 114.826 371.81 114.826 374.501V397.618C114.826 400.308 115.926 402.752 117.697 404.522C119.468 406.291 121.914 407.39 124.607 407.39H127.458C123.648 407.39 120.53 404.275 120.53 400.467V397.618V374.501V371.651C120.53 367.844 123.648 364.729 127.458 364.729Z" fill="#B69253"/>
<path fill-rule="evenodd" clip-rule="evenodd" d="M205.368 397.621V374.503C205.368 373.386 205.828 372.368 206.568 371.629C207.308 370.889 208.327 370.43 209.445 370.43H213.455H311.355V401.694H213.455H209.445C208.327 401.694 207.308 401.235 206.568 400.495C205.828 399.756 205.368 398.738 205.368 397.621Z" fill="#FEFEFE"/>
<path d="M141.594 359.032H184.272H197.173C199.957 359.032 202.49 357.891 204.328 356.055C206.166 354.218 207.307 351.687 207.307 348.905C207.307 346.123 206.166 343.592 204.328 341.756C202.49 339.919 199.956 338.778 197.173 338.778H184.272H141.594V333.08H184.272H197.173H286.772C291.13 333.08 295.091 334.86 297.96 337.726C300.829 340.593 302.61 344.55 302.61 348.905C302.61 353.26 300.829 357.217 297.96 360.084C295.091 362.95 291.131 364.73 286.772 364.73H197.173H184.272H141.594V359.032Z" fill="#5172B0"/>
<path fill-rule="evenodd" clip-rule="evenodd" d="M207.307 348.906C207.307 346.124 206.166 343.593 204.328 341.756C202.49 339.92 199.956 338.779 197.172 338.779H184.271H144.2V359.032H184.271H197.172C199.957 359.032 202.49 357.892 204.328 356.055C206.166 354.219 207.307 351.688 207.307 348.906Z" fill="#FEFEFE"/>
<path d="M178.351 219.495L158.498 214.18L128.038 327.766L147.89 333.081L178.351 219.495Z" fill="#D2AE6D"/>
<path fill-rule="evenodd" clip-rule="evenodd" d="M162.324 215.205L174.525 218.472L144.064 332.058L131.863 328.792L162.324 215.205Z" fill="#FEFEFE"/>
<path d="M222.777 206.051H202.224V333.082H222.777V206.051Z" fill="#D2AE6D"/>
<path d="M218.816 206.051H206.185V333.082H218.816V206.051Z" fill="#FEFEFE"/>
<path d="M202.223 206.051H175.753V333.082H202.223V206.051Z" fill="#2E5AA7"/>
<path d="M197.123 206.051H180.854V333.082H197.123V206.051Z" fill="#FEFEFE"/>
<path fill-rule="evenodd" clip-rule="evenodd" d="M158.498 214.18H175.754V215.204H162.324L158.498 214.18Z" fill="#D2AE6D"/>
<path fill-rule="evenodd" clip-rule="evenodd" d="M175.753 218.472V215.205H162.324L174.525 218.472H175.753Z" fill="#FEFEFE"/>
<path fill-rule="evenodd" clip-rule="evenodd" d="M174.525 218.471H175.754V218.8L174.525 218.471Z" fill="#D2AE6D"/>
<path fill-rule="evenodd" clip-rule="evenodd" d="M147.89 333.082L175.753 229.182V333.082H147.89Z" fill="url(#paint1_linear_233_6293)"/>
<path fill-rule="evenodd" clip-rule="evenodd" d="M222.777 206.051H288.051C290.591 206.051 292.67 208.128 292.67 210.666V328.467C292.67 331.005 290.591 333.082 288.051 333.082H222.777V206.051Z" fill="#B69253"/>
<path fill-rule="evenodd" clip-rule="evenodd" d="M307.724 162.387L370.032 235.678L291.471 221.347C287.508 218.542 283.136 215.737 278.457 213.038C273.778 210.339 269.161 207.958 264.747 205.931L213.046 145.117L307.724 162.387Z" fill="#B69253"/>
<path fill-rule="evenodd" clip-rule="evenodd" d="M296.122 182.466C318.75 195.519 334.236 211.045 330.711 217.145L313.045 247.717C316.57 241.617 301.084 226.091 278.457 213.038C255.83 199.985 234.63 194.348 231.105 200.448L248.77 169.875C252.295 163.776 273.495 169.413 296.122 182.466Z" fill="#D2AE6D"/>
<path fill-rule="evenodd" clip-rule="evenodd" d="M278.457 213.038C301.084 226.091 316.57 241.617 313.046 247.717C311.028 251.208 303.22 250.853 292.67 247.465V245.757C302.135 248.872 309.032 249.334 310.736 246.385C313.795 241.09 298.966 226.813 277.615 214.496C256.263 202.179 236.474 196.485 233.415 201.78C232.79 202.86 232.912 204.315 233.68 206.05H231.567C230.494 203.776 230.289 201.859 231.105 200.448C234.63 194.348 255.83 199.985 278.457 213.038Z" fill="#B69253"/>
<path fill-rule="evenodd" clip-rule="evenodd" d="M292.67 224.253C305.437 233.595 313.005 242.459 310.736 246.384C309.032 249.334 302.135 248.872 292.67 245.756V224.253ZM233.68 206.049C232.912 204.314 232.79 202.86 233.415 201.78C235.647 197.916 246.791 199.905 260.949 206.049H233.68Z" fill="#2E5AA7"/>
<path fill-rule="evenodd" clip-rule="evenodd" d="M215.306 141.205L213.046 145.116L307.724 162.387L370.032 235.677L372.292 231.765L309.984 158.475L215.306 141.205Z" fill="#D2AE6D"/>
<path fill-rule="evenodd" clip-rule="evenodd" d="M138.709 391.991C138.709 392.723 139.199 393.207 139.73 393.207C140.64 393.207 140.843 392.872 141.11 392.074C142.039 389.297 142.91 386.402 143.838 383.62C143.937 383.323 144.913 380.423 144.913 380.182C144.913 379.803 144.855 379.535 144.61 379.269C144.212 378.838 143.399 378.77 142.9 379.269C142.556 379.613 142.143 381.212 141.973 381.717L138.95 391.093C138.87 391.332 138.709 391.711 138.709 391.991Z" fill="#B69253"/>
<path fill-rule="evenodd" clip-rule="evenodd" d="M144.717 383.321C144.717 383.847 144.961 384.19 145.397 384.407C145.804 384.609 146.189 384.786 146.601 384.969L148.997 386.067C148.908 386.188 148.865 386.163 148.723 386.225L147.845 386.643C147.73 386.696 147.646 386.722 147.543 386.772L145.428 387.759C144.003 388.353 144.91 390.624 146.432 389.899L151.548 387.518C151.858 387.365 152.186 387.263 152.464 387.06C153.084 386.609 153.062 385.643 152.502 385.154C152.377 385.045 151.402 384.592 151.133 384.481C150.506 384.222 149.523 383.707 148.828 383.411L146.522 382.34C145.634 381.894 144.717 382.413 144.717 383.321Z" fill="#B69253"/>
<path fill-rule="evenodd" clip-rule="evenodd" d="M130.699 386.065C130.699 386.479 130.796 386.692 131.056 386.964C131.062 386.97 131.069 386.979 131.075 386.984C131.085 386.994 131.135 387.04 131.136 387.041C131.32 387.197 131.786 387.374 132.047 387.504L133.924 388.374C134.103 388.447 134.206 388.514 134.379 388.587L135.293 389.007C135.762 389.244 137.34 390.028 137.728 390.028C138.997 390.028 139.363 388.323 138.226 387.764L135.215 386.379C135.117 386.335 135.036 386.285 134.927 386.235C134.771 386.165 134.716 386.188 134.626 386.065L137.02 384.966C137.123 384.916 137.207 384.89 137.322 384.836L138.199 384.418C139.455 383.801 138.853 382.181 137.885 382.181C137.388 382.181 137.489 382.151 137.074 382.352L132.943 384.266C132.785 384.33 132.662 384.408 132.489 384.48L131.142 385.134C130.914 385.318 130.699 385.668 130.699 386.065Z" fill="#B69253"/>
<path fill-rule="evenodd" clip-rule="evenodd" d="M241.015 344.241C242.26 344.241 243.508 344.25 244.752 344.242L248.259 344.242C248.466 344.24 248.442 344.22 248.475 344.28C248.48 344.301 248.477 352.284 248.477 353.07L248.474 353.566L241.018 353.565C240.984 350.464 241.003 347.344 241.015 344.241ZM242.446 346.829L242.421 346.937C242.386 347.292 242.413 347.779 242.413 348.148V350.56C242.413 350.907 242.455 351.246 242.951 351.23C243.142 351.179 243.476 350.962 243.59 350.952C243.637 350.893 244.28 350.583 244.388 350.544C244.429 350.502 245.018 350.212 245.084 350.206C245.141 350.134 245.397 350.033 245.497 349.983C245.628 349.918 245.79 349.823 245.921 349.779C245.963 349.739 246.209 349.627 246.276 349.594C246.382 349.543 246.549 349.429 246.654 349.421C246.719 349.347 246.858 349.311 246.928 349.25C246.995 349.192 247.052 349.079 247.071 348.952C247.091 348.81 247.029 348.676 246.967 348.597C246.887 348.495 246.743 348.474 246.687 348.412C246.553 348.365 246.41 348.278 246.276 348.215C246.18 348.169 245.946 348.073 245.888 348.005C245.829 347.998 245.203 347.691 245.155 347.646C245.023 347.602 244.875 347.512 244.742 347.45C244.676 347.419 244.598 347.38 244.537 347.348C244.476 347.317 244.396 347.287 244.355 347.239C244.297 347.232 243.663 346.921 243.622 346.88C243.278 346.76 242.996 346.457 242.672 346.623C242.519 346.701 242.525 346.766 242.446 346.829ZM249.436 353.194C249.389 353.135 249.399 352.255 249.415 352.115C249.432 351.961 249.525 351.832 249.624 351.771C249.771 351.681 249.932 351.701 250.116 351.701L250.502 351.701C250.901 351.7 251.203 351.713 251.27 352.087C251.29 352.201 251.294 353.127 251.257 353.17C251.26 353.342 251.116 353.478 250.983 353.53C250.844 353.584 249.85 353.576 249.739 353.542C249.596 353.499 249.435 353.358 249.436 353.194ZM238.244 352.054C238.242 351.986 238.253 351.959 238.291 351.929C238.314 351.87 238.302 351.886 238.349 351.838C238.364 351.824 238.398 351.794 238.422 351.778C238.486 351.733 238.547 351.717 238.64 351.705L239.008 351.701H239.384C239.543 351.701 239.714 351.691 239.837 351.757C239.924 351.804 240.048 351.921 240.049 352.041C240.106 352.106 240.097 353.094 240.062 353.223C239.958 353.613 239.587 353.565 239.157 353.564C238.732 353.564 238.374 353.619 238.241 353.256C238.197 353.133 238.213 352.554 238.214 352.36L238.244 352.054ZM238.243 348.334C238.232 348.189 238.402 348.041 238.529 347.999C238.651 347.958 239.643 347.96 239.752 347.993C239.884 348.034 240.042 348.163 240.048 348.31C240.105 348.371 240.093 349.264 240.077 349.412C240.06 349.572 239.976 349.694 239.871 349.761C239.72 349.856 239.568 349.836 239.38 349.835H239.011C238.835 349.836 238.628 349.862 238.475 349.788C238.358 349.732 238.255 349.62 238.224 349.463C238.219 349.435 238.183 348.427 238.243 348.334ZM251.26 349.425C251.272 349.591 251.136 349.726 251.026 349.783C250.884 349.858 250.678 349.835 250.503 349.835H250.115C249.915 349.835 249.782 349.854 249.63 349.764C249.543 349.712 249.41 349.58 249.432 349.435L249.41 348.837C249.408 348.034 249.43 347.971 250.347 347.971C250.769 347.971 251.116 347.913 251.25 348.28C251.29 348.39 251.305 349.357 251.26 349.425ZM238.588 344.269C238.668 344.208 239.065 344.244 239.196 344.244C239.363 344.244 239.632 344.216 239.771 344.275C239.905 344.315 240.048 344.441 240.05 344.59C240.118 344.676 240.083 345.08 240.083 345.219C240.083 345.315 240.094 345.68 240.062 345.762C240.037 345.828 240.052 345.788 240.032 345.812C240.026 345.91 239.891 346.052 239.795 346.056C239.778 346.069 239.782 346.069 239.753 346.083L239.599 346.107C239.53 346.109 239.459 346.107 239.39 346.107H239.002C238.878 346.107 238.633 346.145 238.548 346.072C238.429 346.069 238.268 345.925 238.263 345.813C238.227 345.772 238.221 345.735 238.216 345.679L238.213 344.739C238.213 344.714 238.214 344.688 238.219 344.664C238.219 344.661 238.293 344.26 238.588 344.269ZM251.252 345.776C251.203 345.957 251.075 346.072 250.865 346.101L250.498 346.107H250.12C250.019 346.107 249.828 346.127 249.753 346.084C249.582 346.044 249.511 345.949 249.437 345.804C249.396 345.599 249.411 345.178 249.411 344.931L249.415 344.704C249.425 344.652 249.421 344.675 249.431 344.657L249.417 344.642C249.455 344.442 249.573 344.309 249.753 344.267L249.805 344.266C249.872 344.228 250.12 344.243 250.347 344.243C250.43 344.243 250.827 344.228 250.882 344.266C251.007 344.252 251.13 344.357 251.19 344.434C251.263 344.529 251.279 344.655 251.279 344.797C251.279 344.939 251.306 345.645 251.258 345.707L251.252 345.776ZM238.223 343.384C238.138 343.435 238.043 343.459 237.941 343.524C237.754 343.643 237.618 343.776 237.498 343.963C237.447 344.043 237.399 344.185 237.356 344.242C237.328 344.382 237.295 344.478 237.282 344.642L237.28 345.029V352.687V353.064L237.296 353.4L237.348 353.518C237.363 353.564 237.375 353.598 237.394 353.644C237.47 353.817 237.538 353.915 237.656 354.051C237.712 354.115 237.792 354.156 237.829 354.228L237.845 354.233C237.965 354.278 238.029 354.375 238.344 354.455C238.554 354.508 238.78 354.497 239.001 354.496L250.271 354.498C250.503 354.498 250.834 354.513 251.045 354.477C251.389 354.418 251.547 354.263 251.633 354.246C251.682 354.159 251.777 354.122 251.842 354.044C252.286 353.512 252.211 353.13 252.211 352.475V345.525C252.211 344.687 252.327 343.786 251.262 343.384L250.883 343.314L250.501 343.312H239.004L238.62 343.313L238.223 343.384Z" fill="#2E5AA7"/>
<path fill-rule="evenodd" clip-rule="evenodd" d="M125.775 320.549H132.116L131.293 328.207H125.775V320.549Z" fill="#5172B0"/>
<path fill-rule="evenodd" clip-rule="evenodd" d="M0.550293 211.881H108.138C115.759 211.881 121.995 218.111 121.995 225.726V315.502C121.995 323.117 115.759 329.348 108.138 329.348H0.550293V211.881Z" fill="#6A8DC7"/>
<path d="M0.550293 211.881H108.138C115.759 211.881 121.995 218.112 121.995 225.726V315.502C121.995 323.117 115.759 329.348 108.138 329.348H0.550293" stroke="#93AFDB" stroke-width="8.00013" stroke-miterlimit="22.9256"/>
<path d="M77.3414 386.277L76.1447 388.673C74.1479 388.217 72.47 387.186 71.1108 385.583L72.0316 383.465L77.3414 386.277Z" fill="#474950"/>
<path d="M94.2265 397.014L93.1826 399.106C91.2638 398.57 89.5889 397.489 88.1582 395.863L89.0079 393.965L94.2265 397.014Z" fill="#474950"/>
<path d="M71.1112 385.582C72.4704 387.186 74.1485 388.216 76.1451 388.672C77.0231 388.837 77.3813 389.664 76.6037 390.206C76.5421 390.251 76.5171 390.31 76.5291 390.385L76.6797 391.305C76.7146 393.176 75.836 395.169 74.9714 396.76C74.8709 396.871 74.9129 397.014 75.0975 397.188C77.4095 399.373 80.1747 400.5 83.393 400.568C85.757 400.617 87.1781 399.084 86.1633 396.731C86.1367 396.668 86.139 396.597 86.1693 396.536L86.2778 396.323C86.397 396.35 86.4577 396.326 86.4598 396.251C86.5009 395.101 87.5725 394.99 88.1582 395.863C89.589 397.49 91.2638 398.571 93.1826 399.107C94.1122 399.191 94.7586 400.02 93.9027 400.661C93.8443 400.706 93.8196 400.764 93.8283 400.835L93.9616 401.922C93.86 405.104 91.708 408.609 89.8079 411.043C89.4135 411.547 88.9456 411.763 88.3716 411.454C87.0342 410.739 85.4921 409.859 83.745 408.814C82.881 408.295 83.0055 408.035 83.4055 407.243C83.4357 407.181 83.414 407.107 83.3558 407.072C83.3441 407.065 83.3311 407.06 83.3177 407.057C80.5415 406.385 77.2285 405.747 74.8709 404.545C72.7621 403.469 71.0757 401.939 69.4126 400.259C68.571 399.407 67.3329 398.891 66.3197 398.24C65.6675 397.824 65.7765 397.408 66.0943 396.817C66.1571 396.698 66.1241 396.623 65.9947 396.59C64.3238 396.16 62.6145 395.724 60.8667 395.282C56.6045 394.201 53.1589 391.394 50.5522 387.789C50.515 387.739 50.5115 387.685 50.5422 387.629C52.2069 384.514 54.1405 382.442 57.1821 385.979C57.4158 386.251 57.6551 386.32 57.9872 386.384C58.0177 386.477 58.007 386.586 57.9553 386.711C57.9304 386.772 57.9426 386.825 57.9925 386.869C60.6011 389.209 63.5411 390.287 66.8123 390.102C68.1019 390.031 68.9087 389.32 69.232 387.968C69.3096 387.649 69.1874 386.951 68.8652 385.875C69.1329 385.872 69.2507 385.693 69.2186 385.336C69.2126 385.26 69.2412 385.187 69.2962 385.137C69.6075 384.852 69.9629 384.764 70.363 384.873C70.4297 384.89 70.4944 384.927 70.5461 384.98L71.1112 385.582Z" fill="#2D2626"/>
<path d="M86.2778 396.32L86.1693 396.533C86.139 396.594 86.1367 396.665 86.1633 396.728C87.1781 399.081 85.757 400.614 83.393 400.565C80.1747 400.497 77.4095 399.37 75.0974 397.185C74.9129 397.011 74.8709 396.868 74.9713 396.757C78.0568 397.585 82.208 397.079 85.2505 396.526L86.2778 396.32Z" fill="#383633"/>
<path d="M68.8653 385.875C69.1875 386.951 69.3097 387.649 69.2321 387.968C68.9087 389.32 68.102 390.031 66.8124 390.102C63.5412 390.287 60.6012 389.209 57.9926 386.869C57.9427 386.825 57.9305 386.772 57.9554 386.711C58.0071 386.586 58.0178 386.477 57.9873 386.384C60.876 387.072 64.7604 386.636 67.8193 386.064L68.8653 385.875Z" fill="#383633"/>
<path fill-rule="evenodd" clip-rule="evenodd" d="M91.2759 357.843C90.6001 358.026 90.1364 358.592 90.0913 359.29L87.8299 394.354C87.7786 395.15 88.3066 395.852 89.0862 396.025L93.8563 397.077C94.7196 397.267 95.5291 396.707 95.7709 395.857L103.325 369.312C103.505 368.681 103.948 368.192 104.594 368.082L125.258 364.554C125.621 364.492 128.751 364.687 131.418 362.348C133.474 360.544 135.259 356.141 135.295 355.859L137.071 342.158C137.136 341.657 137.073 341.197 136.758 340.803C136.443 340.41 136.009 340.201 135.504 340.201H112.438C111.796 340.201 111.4 340.654 110.978 341.138L104.742 348.295C104.384 348.707 104.078 349.049 103.554 349.209L90.4997 353.208C89.9678 353.299 87.9495 354.472 87.6795 354.938L72.0046 382.004C71.5773 382.742 71.9397 383.693 72.6885 384.1L76.2647 386.045C76.9738 386.43 77.8458 386.237 78.3251 385.588L89.0796 371.015C89.2705 370.757 89.3692 370.487 89.3899 370.166L90.0913 359.29C90.1364 358.592 90.6001 358.026 91.2759 357.843Z" fill="#464546"/>
<path d="M113.734 280.895C113.835 280.975 113.906 281.075 113.945 281.194L113.02 283.214L111.997 285.92C111.897 285.862 111.872 285.824 111.921 285.805C111.941 284.795 111.949 283.777 111.945 282.75C111.941 282.205 112.119 281.606 112.099 280.972L113.734 280.895Z" fill="#381911"/>
<path d="M118.219 286.037C118.347 286.759 118.277 287.455 118.011 288.125C117.866 288.584 117.628 288.936 117.297 289.178C116.495 289.765 115.91 289.63 115.543 288.775C115.16 287.886 115.272 286.922 115.878 285.883L118.219 286.037Z" fill="#381911"/>
<path d="M111.921 285.803C111.872 285.821 111.897 285.859 111.997 285.917L111.438 291.653C109.248 290.584 109.092 286.172 111.921 285.803Z" fill="#D78C74"/>
<path d="M129.892 289.145C129.507 290.225 127.992 291.428 127.383 289.644C127.167 289.012 127.176 288.354 127.407 287.668L127.838 286.729L127.88 286.674L130.076 286.819C130.109 286.948 130.133 287.091 130.145 287.249C130.222 287.906 130.137 288.538 129.892 289.145Z" fill="#50352E"/>
<path d="M138.471 289.945C138.375 291.714 137.267 293.573 135.354 293.435C135.289 293.43 135.251 293.46 135.241 293.525C134.607 298.089 131.261 301.51 126.699 302.171C126.63 302.181 126.597 302.221 126.599 302.292L126.653 303.754C126.686 304.462 126.724 305.158 126.767 305.84C126.927 308.376 124.731 310.102 122.332 309.725C121.005 309.515 119.239 308.323 119.39 306.748C119.475 305.849 119.56 304.91 119.644 303.929L119.803 301.891C119.803 301.887 119.803 301.884 119.803 301.881C119.803 301.826 119.767 301.779 119.714 301.765C119.006 301.569 118.231 301.403 117.598 301.124C114.168 299.61 112.14 296.958 111.512 293.165C111.545 293.125 111.567 293.08 111.577 293.03C111.589 292.968 111.608 292.966 111.632 293.024C112.99 296.2 114.322 298.619 117.716 299.911C119.548 300.608 121.511 300.911 123.606 300.818C129.405 300.562 133.12 296.869 134.464 291.407C134.481 291.341 134.522 291.313 134.588 291.324C135.982 291.542 137.276 291.082 138.471 289.945Z" fill="#D78C74"/>
<path d="M117.678 293.483C117.554 292.995 118.085 292.622 118.54 292.661C120.902 292.862 123.259 293.119 125.625 293.295C126.407 293.352 127.532 293.439 127.03 294.548C124.637 299.843 118.976 298.551 117.678 293.483Z" fill="white"/>
<path d="M111.537 305.33L110.648 305.589C110.933 305.414 111.229 305.328 111.537 305.33Z" fill="#D78C74"/>
<path d="M121.187 313.073C120.973 313.196 120.757 313.234 120.538 313.19C120.716 313.084 120.933 313.045 121.187 313.073Z" fill="#E5A185"/>
<path fill-rule="evenodd" clip-rule="evenodd" d="M116.419 285.212L115.96 285.744C115.282 286.836 115.143 287.846 115.542 288.774C115.91 289.629 116.495 289.763 117.296 289.177C117.628 288.934 117.866 288.583 118.01 288.123C118.289 287.423 118.352 286.695 118.201 285.938C118.093 285.504 117.868 285.204 117.525 285.038C117.154 284.861 116.785 284.919 116.419 285.212ZM133.887 283.567C133.394 281.682 132.649 279.517 130.267 277.951C130.267 277.951 126.708 279.753 122.26 279.753C120.735 279.753 119.067 279.11 117.598 278.038C117.598 278.038 117.164 278.238 116.522 278.835C115.93 279.386 115.161 280.275 114.392 281.658C114.294 281.527 114.201 281.388 114.114 281.242C114.092 281.204 114.06 281.189 114.016 281.196C113.986 281.201 113.962 281.2 113.944 281.192L113.019 283.212L111.996 285.918L111.438 291.653L111.512 293.165C111.545 293.126 111.567 293.081 111.577 293.03C111.589 292.969 111.607 292.967 111.632 293.025C112.99 296.2 114.322 298.619 117.716 299.911C119.547 300.609 121.511 300.911 123.606 300.819C129.405 300.562 133.119 296.869 134.464 291.407C134.48 291.341 134.522 291.313 134.588 291.324C135.982 291.543 137.276 291.083 138.471 289.946C138.51 289.431 138.354 288.925 138.003 288.43C137.5 287.72 136.789 287.539 135.966 287.72C136.142 286.824 136.257 285.938 136.308 285.063C136.334 284.608 136.503 284.318 136.739 283.961L134.516 283.037L133.887 283.567ZM127.407 287.667C127.175 288.352 127.167 289.01 127.383 289.642C127.992 291.426 129.507 290.223 129.891 289.144C130.137 288.536 130.221 287.904 130.145 287.247C130.017 285.622 128.704 285.524 127.838 286.728L127.407 287.667ZM118.539 292.661C118.084 292.622 117.553 292.995 117.677 293.483C118.976 298.551 124.636 299.843 127.03 294.548C127.531 293.439 126.406 293.352 125.624 293.295C123.258 293.119 120.901 292.862 118.539 292.661Z" fill="#E5A185"/>
<path fill-rule="evenodd" clip-rule="evenodd" d="M117.599 278.037C117.599 278.037 113.873 279.75 112.094 288.18H111.402C111.402 288.18 109.737 274.03 114.124 273.74C118.511 273.45 117.599 278.037 117.599 278.037Z" fill="#4B4B4D"/>
<path fill-rule="evenodd" clip-rule="evenodd" d="M117.599 278.04C117.599 278.04 117.165 278.24 116.523 278.837C115.89 278.258 113.884 274.118 114.124 273.743C116.516 270.007 117.599 278.04 117.599 278.04Z" fill="#373435"/>
<path fill-rule="evenodd" clip-rule="evenodd" d="M135.05 288.182C135.05 288.182 133.762 281.212 130.267 278.573C130.267 278.573 126.313 280.149 121.865 280.149C117.417 280.149 112.157 274.284 113.746 268.686H119.719L119.02 266.691C119.02 266.691 127.725 267.335 132.428 270.681L133.572 268.365L135.05 272.354C135.05 272.354 138.846 272.097 138.782 276.15C138.719 280.204 135.923 288.182 135.923 288.182H135.05Z" fill="#4B4B4D"/>
<path d="M136.673 354.938C134.156 354.94 122.382 351.265 113.648 350.031C109.693 349.472 104.793 348.838 104.4 348.673C104.361 344.41 106.468 321.985 106.501 317.089C106.523 317.001 106.497 316.983 106.421 317.036L104.106 318.651C104.089 318.662 104.07 318.669 104.05 318.669C104.05 318.669 101.488 320.362 99.1967 321.68C88.1727 328.025 90.5559 318.816 93.6703 315.82C99.7027 310.015 109.511 305.012 116.531 304.11L116.558 304.072L117.094 304.047C117.753 303.987 118.101 304.001 118.101 304.001L119.644 303.929C119.56 304.91 119.475 305.85 119.39 306.748C119.239 308.323 121.005 309.515 122.332 309.726C124.731 310.103 126.926 308.377 126.767 305.841C126.724 305.158 126.686 304.463 126.653 303.754L130.123 304.279L130.12 304.286L133.652 305.206L133.658 305.205L133.727 305.226L133.729 305.227C138.853 306.787 141.186 307.601 145.315 311.051C145.351 311.08 145.366 311.113 145.361 311.149C150.126 314.885 152.674 323.016 152.914 329.489C153.155 335.962 149.164 345.296 149.164 345.296L143.332 343.745C146.104 334.167 145.328 330.853 145.106 328.199C144.789 324.403 141.502 321.827 138.428 320.181C138.397 320.166 138.363 320.164 138.332 320.177C138.319 320.182 138.303 320.188 138.284 320.195C138.204 320.555 138.194 320.915 138.255 321.274C138.257 321.334 138.249 321.395 138.23 321.457C137.719 326.672 137.363 349.802 136.673 354.938Z" fill="#2E5AA7"/>
<path fill-rule="evenodd" clip-rule="evenodd" d="M89.3894 370.167L90.7098 359.908C90.7098 359.908 90.7555 358.657 91.5176 357.779C91.8772 357.364 92.3962 357.033 93.1449 356.955C93.9318 356.873 97.0787 356.16 100.908 355.25C103.655 354.597 106.752 353.843 109.58 353.149C114.511 351.938 118.622 350.906 118.622 350.906C125.244 352.253 132.266 354.256 135.432 354.798L135.295 355.86C135.258 356.144 133.474 360.545 131.418 362.348C128.751 364.688 125.621 364.493 125.257 364.555L104.594 368.082C103.947 368.193 103.504 368.681 103.325 369.312L95.7706 395.857C95.5501 396.633 94.8572 397.167 94.0817 397.111C94.0071 397.105 93.9318 397.094 93.856 397.078L90.0188 396.231L89.0859 396.025C88.3263 395.857 87.8056 395.187 87.8268 394.416C87.8273 394.396 87.8282 394.375 87.8296 394.355L89.3894 370.167Z" fill="#4B4B4D"/>
<path d="M148.685 345.297L148.627 345.515C148.612 345.574 148.623 345.627 148.66 345.675C150.81 348.405 150.202 351.899 147.911 354.337C147.779 354.474 147.592 354.531 147.413 354.494C146.98 354.409 146.436 354.195 146.013 354.546C144.987 355.394 144.258 353.586 143.475 354.431C142.822 355.288 142.19 354.498 141.415 354.413C140.873 354.352 140.351 354.739 139.911 354.997C139.856 355.028 139.796 355.038 139.738 355.028C138.075 354.752 139.014 351.124 139.375 350.092C139.396 350.032 139.389 349.975 139.356 349.922C138.362 348.387 139.217 346.865 140.286 345.672C141.261 344.904 142.343 344.452 143.531 344.317C143.592 344.31 143.626 344.275 143.633 344.213L143.684 343.746L148.685 345.297Z" fill="#E5A185"/>
<path d="M73.4496 316.648L73.3069 316.506C73.2681 316.467 73.2217 316.452 73.1679 316.46C70.089 316.903 67.6509 314.869 66.7853 312.004C66.7382 311.841 66.7772 311.671 66.8867 311.549C67.146 311.252 67.5548 310.926 67.4721 310.441C67.2735 309.267 69.0015 309.512 68.6969 308.528C68.3246 307.638 69.22 307.502 69.6322 306.94C69.9218 306.548 69.8558 305.971 69.8521 305.514C69.853 305.458 69.8719 305.407 69.9054 305.367C70.8637 304.203 73.2572 306.553 73.8961 307.294C73.9337 307.337 73.9804 307.357 74.0367 307.355C75.6723 307.273 76.47 308.616 76.9169 309.977C77.0758 311.076 76.9423 312.116 76.5164 313.096C76.4943 313.147 76.506 313.189 76.5511 313.222L76.8901 313.47L73.4496 316.648Z" fill="#D78C74"/>
<path d="M65.3524 314.613C64.6256 315.563 64.1596 316.743 65.1307 317.758C65.5206 318.166 66.0589 318.493 66.6127 318.55C67.5513 318.647 68.2696 317.961 68.7532 317.243C73.3736 310.382 100.312 273.933 99.8827 273.629C99.1487 273.11 70.2398 308.222 65.3524 314.613Z" fill="#2E5AA7"/>
<path d="M71.8733 308.904C72.8179 308.904 73.5837 308.139 73.5837 307.195C73.5837 306.251 72.8179 305.486 71.8733 305.486C70.9286 305.486 70.1628 306.251 70.1628 307.195C70.1628 308.139 70.9286 308.904 71.8733 308.904Z" fill="#D78C74"/>
<path d="M70.6169 311.191C71.5616 311.191 72.3274 310.426 72.3274 309.482C72.3274 308.539 71.5616 307.773 70.6169 307.773C69.6723 307.773 68.9065 308.539 68.9065 309.482C68.9065 310.426 69.6723 311.191 70.6169 311.191Z" fill="#D78C74"/>
<path d="M69.1345 312.229C69.8937 312.229 70.5092 311.614 70.5092 310.856C70.5092 310.097 69.8937 309.482 69.1345 309.482C68.3752 309.482 67.7598 310.097 67.7598 310.856C67.7598 311.614 68.3752 312.229 69.1345 312.229Z" fill="#D78C74"/>
<path d="M68.2065 313.418C68.9657 313.418 69.5812 312.804 69.5812 312.045C69.5812 311.287 68.9657 310.672 68.2065 310.672C67.4473 310.672 66.8318 311.287 66.8318 312.045C66.8318 312.804 67.4473 313.418 68.2065 313.418Z" fill="#D78C74"/>
<path d="M74.5547 311.191C75.4993 311.191 76.2651 310.426 76.2651 309.482C76.2651 308.539 75.4993 307.773 74.5547 307.773C73.61 307.773 72.8442 308.539 72.8442 309.482C72.8442 310.426 73.61 311.191 74.5547 311.191Z" fill="#D78C74"/>
<path fill-rule="evenodd" clip-rule="evenodd" d="M135.05 288.184C135.05 288.184 134.336 284.317 132.527 281.254L133.182 281.442L137.598 282.71C137.018 284.878 136.382 286.825 136.089 287.699C135.984 288.009 135.923 288.184 135.923 288.184H135.05Z" fill="#727376"/>
<path fill-rule="evenodd" clip-rule="evenodd" d="M111.214 286.004C111.127 284.689 111.054 282.929 111.116 281.154L112.1 281.112L113.87 281.038L114.781 281C114.652 281.206 114.523 281.425 114.393 281.659C113.55 283.173 112.707 285.279 112.094 288.182H111.777H111.403C111.403 288.182 111.301 287.314 111.214 286.004Z" fill="#727376"/>
<path fill-rule="evenodd" clip-rule="evenodd" d="M94.4044 315.134C94.4044 315.134 84.5786 321.813 76.6701 313.207L73.176 316.936C76.435 321.17 87.6105 329.009 98.028 321.94C108.446 314.871 94.4044 315.134 94.4044 315.134Z" fill="#2E5AA7"/>
<path fill-rule="evenodd" clip-rule="evenodd" d="M117.526 285.038C117.155 284.861 116.786 284.918 116.42 285.211L115.961 285.744C115.932 285.79 115.905 285.835 115.878 285.881L118.22 286.035C118.214 286.003 118.208 285.97 118.202 285.938C118.094 285.503 117.869 285.203 117.526 285.038Z" fill="#D78C74"/>
<path fill-rule="evenodd" clip-rule="evenodd" d="M130.076 286.817C129.773 285.636 128.66 285.641 127.88 286.672L130.076 286.817Z" fill="#D78C74"/>
<path d="M370.032 235.678V288.828" stroke="#D2AE6D" stroke-width="2.66683" stroke-miterlimit="22.9256" stroke-linecap="round"/>
<path fill-rule="evenodd" clip-rule="evenodd" d="M367.021 288.828H373.044L376.278 302.326H363.788L367.021 288.828Z" fill="#D2AE6D"/>
<path fill-rule="evenodd" clip-rule="evenodd" d="M127.894 293.878C128.474 292.595 127.172 292.495 126.267 292.428C123.529 292.225 120.802 291.928 118.068 291.695C117.542 291.65 116.927 292.082 117.07 292.646C117.148 292.949 117.239 293.239 117.342 293.518C119.076 293.993 122.419 294.623 127.608 294.459C127.707 294.274 127.803 294.08 127.894 293.878Z" fill="#4B4B4D"/>
<path fill-rule="evenodd" clip-rule="evenodd" d="M121.464 297.752L122.578 297.955L122.788 299.957L120.545 299.847L121.464 297.752Z" fill="#4B4B4D"/>
<path d="M334.965 302.117L335.844 302.118L336.534 302.12C336.552 302.12 336.562 302.129 336.562 302.148L336.567 302.297L336.568 302.899C336.568 302.917 336.577 302.926 336.595 302.926L336.765 302.928L337.672 302.929L338.154 302.93C338.17 302.93 338.178 302.938 338.178 302.954L338.179 303.305L338.179 304.24V305.11V306.05L338.179 306.888L338.178 307.848L338.176 308.539C338.176 308.559 338.166 308.569 338.147 308.569H333.381C333.356 308.569 333.335 308.548 333.335 308.522L333.334 305.097L333.335 304.201L333.347 303.296L333.338 302.954C333.338 302.938 333.346 302.93 333.361 302.93L334.065 302.928L334.919 302.926C334.937 302.926 334.946 302.917 334.946 302.899L334.957 302.393L334.965 302.117Z" fill="#D2AE6D"/>
<path d="M340.359 306.146C341.71 306.151 341.385 305.535 341.397 308.744C341.401 309.603 341.049 309.344 343.082 309.374C345.242 309.407 346.999 311.187 347.04 313.273L347.007 333.972C346.543 336.673 343.028 335.783 343.025 335.975C343.008 337.014 343.607 336.767 340.369 336.767C338.648 336.767 338.979 336.998 338.979 335.979L322.861 335.981C322.861 337.018 323.523 336.767 319.604 336.767C318.616 336.767 318.82 336.967 318.82 335.978C318.82 335.697 314.709 336.976 314.792 333.096C314.849 330.404 314.105 326.575 317.792 325.622C319.331 325.225 330.267 325.714 331.328 325.397C332.988 324.902 332.518 321.775 332.394 320.435C332.225 318.611 329.738 319.044 327.727 319.047C325.653 319.051 325.972 318.791 325.334 321.325C325.022 322.566 325.721 322.255 322.089 322.264L322.088 323.061C323.092 323.077 322.862 322.68 322.86 324.651L319.628 324.661L319.632 323.062C320.642 323.062 320.434 323.283 320.434 322.285L317.31 322.257C317.03 320.23 316.131 313.904 316.548 312.329C317.435 308.98 321.242 309.323 321.243 309.399L321.263 318.225C323.286 318.234 322.853 318.596 322.855 316.837L322.885 307.759C324.882 307.759 324.465 307.359 324.465 309.346L339.795 309.345L339.852 306.146H340.359ZM339.453 321.475C339.138 321.504 338.837 321.562 338.55 321.651C337.33 322.078 336.483 322.891 336.008 324.089C335.907 324.359 335.836 324.651 335.793 324.967C335.763 325.295 335.759 325.605 335.781 325.897C335.818 326.23 335.883 326.528 335.979 326.793C336.241 327.533 336.677 328.148 337.288 328.638L337.646 328.892C337.927 329.069 338.232 329.211 338.563 329.318C338.843 329.409 339.141 329.468 339.455 329.493C339.768 329.516 340.075 329.507 340.378 329.466C340.69 329.417 340.986 329.338 341.267 329.23C342.416 328.748 343.199 327.921 343.615 326.749C343.703 326.471 343.764 326.182 343.796 325.881C343.823 325.594 343.82 325.294 343.785 324.981C343.741 324.656 343.664 324.345 343.554 324.048C343.109 322.961 342.357 322.196 341.296 321.752C340.998 321.634 340.695 321.552 340.384 321.506C340.074 321.46 339.763 321.45 339.453 321.475ZM339.476 313.424C336.289 313.837 336.956 318.911 340.349 318.163C343.217 317.531 342.556 313.059 339.476 313.424Z" fill="#D2AE6D"/>
<path fill-rule="evenodd" clip-rule="evenodd" d="M187.433 172.997C192.199 172.849 192.57 174.578 195.227 178.555C195.526 179.004 195.799 179.415 196.122 179.898C196.364 180.259 196.832 180.875 196.977 181.247L187.449 181.25L187.433 172.997ZM197.459 175.942C197.692 175.677 198.767 174.998 199.049 174.8C199.578 174.429 200.146 173.992 200.657 173.732L200.666 178.683C200.627 179.072 200.166 179.421 199.918 179.609L197.459 175.942ZM204 175.557L203.976 171.541C204.094 171.231 204.424 171.092 204.703 170.895L207.28 169.181C207.281 169.996 207.274 170.814 207.284 171.629C207.29 172.218 207.327 172.257 206.991 172.58C206.761 172.799 206.607 172.954 206.384 173.176C205.574 173.986 204.783 174.753 204 175.557ZM210.593 166.978C210.7 166.712 210.747 166.731 210.975 166.574L213.898 164.613C213.898 165.693 214.048 165.534 213.449 166.118L210.612 168.937L210.593 166.978ZM195.503 173.13C195.33 172.691 194.638 172.02 194.298 171.736C193.819 171.337 193.397 171.022 192.782 170.671C191.644 170.02 190.171 169.683 188.637 169.68C187.179 169.676 179.172 169.524 178.478 169.825C177.134 170.406 177.503 172.374 177.503 174.037V184.367C177.503 186.01 177.416 187.908 177.517 189.52L200.659 189.519C200.713 188.221 200.667 186.855 200.667 185.572C200.667 183.222 200.466 183.804 201.722 182.55C203.094 181.181 204.399 179.873 205.771 178.505C207.144 177.136 208.449 175.827 209.821 174.458C210.517 173.764 211.149 173.131 211.845 172.436C212.401 171.881 213.319 170.847 213.88 170.433C214.03 172.31 213.637 175.185 214.068 176.861C214.311 177.807 214.771 178.49 215.284 179.003C215.559 179.278 215.824 179.491 216.204 179.719C216.621 179.969 216.856 180.125 217.061 180.584C218.004 182.693 214.737 183.862 214.011 181.823C213.858 181.393 214.008 180.076 212.793 179.687C211.165 179.165 209.775 180.835 211.132 183.493C211.566 184.344 211.99 184.791 212.684 185.302C215.589 187.443 220.321 185.596 220.513 181.528C220.612 179.423 219.447 177.823 218.242 177.081C217.288 176.493 217.207 176.376 217.211 174.812L217.211 164.74C217.211 162.663 217.732 159.815 215.599 159.768C214.682 159.748 212.246 161.688 211.409 162.271C210.081 163.196 208.801 164.073 207.482 164.976L199.565 170.411C198.888 170.866 198.279 171.299 197.585 171.787C197.154 172.09 195.947 172.987 195.503 173.13Z" fill="#D2AE6D"/>
<path fill-rule="evenodd" clip-rule="evenodd" d="M178.426 196.235C180.405 195.738 181.981 197.117 182.365 198.633C182.874 200.638 181.474 202.265 179.963 202.641C175.769 203.683 174.068 197.329 178.426 196.235ZM188.341 196.24C190.317 195.767 191.914 197.108 192.288 198.617C192.788 200.638 191.406 202.277 189.875 202.645C187.87 203.126 186.243 201.764 185.873 200.216C185.373 198.122 186.753 196.621 188.341 196.24ZM198.305 196.224C200.301 195.769 201.922 197.181 202.248 198.748C202.66 200.726 201.292 202.293 199.787 202.646C195.498 203.653 193.993 197.206 198.305 196.224ZM170.931 200.207C171.306 203.409 173.97 205.991 177.432 206.049C181.545 206.117 185.722 206.05 189.842 206.05C191.973 206.05 200.665 206.201 202.085 205.9C205.046 205.271 207.672 202.378 207.24 198.658C206.867 195.454 204.169 192.872 200.701 192.823C196.581 192.765 192.416 192.822 188.291 192.822C186.152 192.822 177.498 192.666 176.062 192.978C173.128 193.617 170.497 196.491 170.931 200.207Z" fill="#D2AE6D"/>
<path d="M340.354 323.133L340.603 323.206C340.84 323.298 341.051 323.413 341.235 323.55C341.452 323.715 341.635 323.905 341.783 324.12C341.908 324.311 342.007 324.507 342.079 324.709L342.153 324.981C342.212 325.288 342.219 325.587 342.173 325.875L342.1 326.207L341.861 326.727C341.499 327.303 340.992 327.673 340.338 327.838C340.056 327.893 339.773 327.907 339.488 327.879C338.403 327.734 337.559 326.912 337.396 325.831C337.363 325.547 337.369 325.267 337.415 324.991C337.697 323.92 338.385 323.282 339.481 323.08C339.766 323.057 340.057 323.075 340.354 323.133Z" fill="#D2AE6D"/>
<path d="M340.579 315.967C340.532 316.146 340.451 316.292 340.337 316.405C340.069 316.627 339.775 316.675 339.453 316.547C339.21 316.425 339.057 316.23 338.996 315.961C338.848 314.736 340.701 314.679 340.579 315.967Z" fill="#D2AE6D"/>
<path d="M350.269 312.348V313.252V314.15V315.068V315.949V316.861V317.731L350.27 318.662L350.281 319.034L349.414 319.035H348.683C348.667 319.035 348.653 319.022 348.653 319.006L348.654 313.26C348.64 312.77 348.569 312.288 348.442 311.814C348.437 311.795 348.446 311.794 348.462 311.787L350.232 311.792C350.252 311.792 350.269 311.808 350.269 311.828L350.269 312.348Z" fill="#D2AE6D"/>
<path fill-rule="evenodd" clip-rule="evenodd" d="M0.550293 224.881H95.328C96.5982 224.881 97.6375 225.919 97.6375 227.188V230.231C97.6375 231.5 96.5982 232.539 95.328 232.539H0.550293V224.881Z" fill="#5172B0"/>
<path d="M49.5103 240.059H9.03137C8.47295 240.059 8.02026 241.092 8.02026 242.366V245.409C8.02026 246.683 8.47295 247.717 9.03137 247.717H49.5103C50.0687 247.717 50.5214 246.683 50.5214 245.409V242.366C50.5214 241.092 50.0687 240.059 49.5103 240.059Z" fill="#5172B0"/>
<path d="M87.9817 240.059H55.9367C55.4946 240.059 55.1362 241.092 55.1362 242.366V245.409C55.1362 246.683 55.4946 247.717 55.9367 247.717H87.9817C88.4238 247.717 88.7822 246.683 88.7822 245.409V242.366C88.7822 241.092 88.4238 240.059 87.9817 240.059Z" fill="#5172B0"/>
<path d="M65.1162 253.373H33.0712C32.6291 253.373 32.2708 254.406 32.2708 255.681V258.723C32.2708 259.998 32.6291 261.031 33.0712 261.031H65.1162C65.5583 261.031 65.9167 259.998 65.9167 258.723V255.681C65.9167 254.406 65.5583 253.373 65.1162 253.373Z" fill="#5172B0"/>
<path fill-rule="evenodd" clip-rule="evenodd" d="M0.550293 253.373H22.4688C23.739 253.373 24.7783 254.411 24.7783 255.681V258.723C24.7783 259.993 23.739 261.031 22.4688 261.031H0.550293V253.373Z" fill="#5172B0"/>
<path fill-rule="evenodd" clip-rule="evenodd" d="M124.791 64.5293C115.163 64.5293 106.896 70.3495 103.319 78.6603C101.125 77.636 98.677 77.0628 96.095 77.0628C90.0256 77.0628 84.6954 80.2242 81.6628 84.9885C80.2455 84.4843 78.7193 84.209 77.1285 84.209C69.664 84.209 63.6128 90.2551 63.6128 97.7135H166.538C166.538 88.8851 159.375 81.7283 150.54 81.7283C149.471 81.7283 148.428 81.8338 147.418 82.0334C144.823 71.9669 135.677 64.5293 124.791 64.5293Z" fill="#93AFDB"/>
<path fill-rule="evenodd" clip-rule="evenodd" d="M346.253 51.4238C363.604 51.4238 378.502 61.9121 384.947 76.8884C388.902 75.0428 393.313 74.0099 397.966 74.0099C408.903 74.0099 418.508 79.7069 423.973 88.2923C426.527 87.3836 429.277 86.8873 432.144 86.8873C445.595 86.8873 456.5 97.7828 456.5 111.223H271.024C271.024 95.3141 283.932 82.4172 299.854 82.4172C301.779 82.4172 303.659 82.6073 305.479 82.9669C310.155 64.8268 326.638 51.4238 346.253 51.4238Z" fill="#93AFDB"/>
<path fill-rule="evenodd" clip-rule="evenodd" d="M254.557 255.129C255.977 254.641 256.653 256.759 255.273 257.231C254.608 257.458 254.014 257.019 253.867 256.558C253.65 255.879 254.031 255.31 254.557 255.129ZM256.014 282.897L256.031 280.648L246.943 280.633C246.589 280.582 246.236 280.37 246.21 280.07C246.107 280.01 246.148 280.177 246.097 279.925C245.914 279.465 246.01 263.951 246.01 261.233C246.01 260.19 245.819 259.067 246.483 258.594C246.866 258.321 248.74 258.357 249.356 258.433C249.457 259.439 249.847 260 250.51 260.351C251.259 260.746 252.347 260.625 253.325 260.625L257.963 260.626C258.697 260.625 258.709 260.537 259.269 260.406C259.492 260.167 259.758 260.167 260.107 259.614C260.342 259.241 260.448 258.953 260.47 258.414C261.131 258.389 261.814 258.41 262.477 258.406C263.167 258.402 263.59 258.553 263.749 259.138C263.897 259.498 263.855 266.327 263.821 267.28L266.049 267.31C266.049 265.742 266.049 264.176 266.049 262.61C266.049 261.274 266.244 259.209 265.751 258.151C265.297 257.176 264.396 256.342 262.994 256.192C261.707 256.055 259.651 256.172 258.264 256.172C258.212 255.098 257.887 254.544 257.373 253.934C256.596 253.013 255.603 252.972 255.322 252.84H254.461C253.994 253.09 253.268 253.04 252.465 253.924C252.015 254.419 251.567 255.215 251.582 256.172C250.301 256.172 246.892 256.013 245.967 256.386C244.266 257.072 243.796 258.323 243.796 260.043V277.579C243.796 279.924 243.637 281.05 245.163 282.233L245.976 282.669C246.976 283.026 248.957 282.884 250.128 282.883C251.196 282.882 255.3 282.833 256.014 282.897Z" fill="#D2AE6D"/>
<path fill-rule="evenodd" clip-rule="evenodd" d="M267.187 283.092C267.141 282.802 267.15 279.552 267.202 279.294C267.435 278.154 269.191 278.165 269.368 279.34C269.422 279.695 269.421 282.824 269.359 283.141C269.266 283.613 268.818 283.992 268.242 283.98C267.708 283.968 267.268 283.592 267.187 283.092ZM264.363 281.961C264.861 281.49 265.67 281.909 265.889 282.321C266.179 282.67 266.065 283.213 265.834 283.567C265.65 283.85 265.157 284.082 264.628 283.952C263.712 283.727 263.521 282.254 264.363 281.961ZM261.022 281.954L261.141 281.874C262.339 281.193 263.389 283.114 262.157 283.843C261.534 284.212 260.867 283.86 260.624 283.437C260.312 282.894 260.558 282.152 261.022 281.954ZM264.586 278.492C266.023 277.998 266.625 280.161 265.307 280.595C264.692 280.798 264.054 280.425 263.894 279.923C263.667 279.216 264.078 278.666 264.586 278.492ZM261.599 280.649C260.14 280.649 260.148 278.439 261.599 278.434C263.057 278.429 263.058 280.649 261.599 280.649ZM260.47 271.756H269.385L269.399 275.088L260.482 275.069L260.47 271.756ZM271.575 284.407C271.715 283.712 271.628 274.701 271.628 273.196C271.628 271.83 271.733 270.888 270.931 270.135C270.126 269.377 269.173 269.529 267.805 269.529C266.398 269.529 261.263 269.455 260.309 269.536C259.285 269.623 258.494 270.377 258.309 271.285C258.19 271.863 258.27 281.103 258.27 282.528C258.27 283.912 258.128 284.85 258.957 285.608C259.793 286.373 260.73 286.224 262.1 286.224C263.354 286.224 264.608 286.224 265.861 286.224C268.214 286.224 271.087 286.838 271.575 284.407Z" fill="#D2AE6D"/>
<path fill-rule="evenodd" clip-rule="evenodd" d="M251.663 264.068C251.379 264.208 251.051 264.28 250.714 264.451C250.519 264.551 250.431 264.582 250.266 264.695C250.12 264.794 250.047 264.874 249.877 264.935C249.758 265.094 249.508 265.274 249.348 265.466C249.201 265.643 249.041 265.889 248.884 266.071C248.821 266.233 248.771 266.331 248.686 266.497C248.58 266.703 248.583 266.754 248.498 266.935C248.34 267.407 248.246 267.812 248.245 268.375C248.245 268.666 248.248 268.865 248.294 269.137C248.334 269.375 248.42 269.582 248.41 269.817L248.696 270.43C248.884 270.671 249.016 270.971 249.228 271.217C249.447 271.472 249.599 271.621 249.853 271.843C250.256 272.196 250.846 272.53 251.499 272.707C252.568 272.999 253.686 272.877 254.673 272.414C254.967 272.276 255.206 272.04 255.452 271.946C255.627 271.698 255.835 271.559 256.067 271.308C256.255 271.107 256.387 270.806 256.584 270.631C256.704 270.289 256.85 270.055 256.973 269.64C257.087 269.25 257.147 268.863 257.148 268.419L252.698 268.432L252.696 263.957L251.663 264.068Z" fill="#D2AE6D"/>
<path fill-rule="evenodd" clip-rule="evenodd" d="M256.02 275.074C254.654 275.171 252.97 275.087 251.569 275.087C250.282 275.087 248.236 274.704 248.243 276.201C248.246 276.857 248.727 277.29 249.374 277.327C250.708 277.401 254.521 277.329 256.026 277.329L256.02 275.074Z" fill="#D2AE6D"/>
<path fill-rule="evenodd" clip-rule="evenodd" d="M253.816 263.236L253.809 267.245L253.807 267.307L258.267 267.295C258.154 265.752 257.74 265 256.955 264.182C256.276 263.474 255.218 262.867 253.811 262.867L253.816 263.236Z" fill="#D2AE6D"/>
<path fill-rule="evenodd" clip-rule="evenodd" d="M258.832 348.385C258.832 348.186 258.832 347.988 258.832 347.789C258.832 347.69 258.832 347.591 258.832 347.491C258.832 347.311 258.796 347.336 258.976 347.336C259.305 347.336 259.536 347.342 259.744 347.534C260.063 347.829 260.085 348.457 259.692 348.754C259.461 348.929 259.138 348.929 258.833 348.914C258.827 348.815 258.832 348.505 258.832 348.385ZM258.744 342.926H262.852C263.934 342.926 264.918 343.368 265.631 344.081C266.344 344.793 266.786 345.776 266.786 346.857V350.961C266.786 352.043 266.344 353.026 265.631 353.738C264.918 354.45 263.934 354.893 262.852 354.893H258.744C257.662 354.893 256.678 354.45 255.965 353.738C255.252 353.026 254.809 352.043 254.809 350.961V346.857C254.809 345.776 255.252 344.793 255.965 344.081C256.678 343.368 257.662 342.926 258.744 342.926ZM262.852 343.753H258.744C257.89 343.753 257.113 344.103 256.55 344.665C255.987 345.228 255.637 346.004 255.637 346.857V350.961C255.637 351.814 255.987 352.591 256.55 353.153C257.113 353.716 257.89 354.065 258.744 354.065H262.852C263.705 354.065 264.482 353.716 265.045 353.153C265.608 352.591 265.958 351.814 265.958 350.961V346.857C265.958 346.004 265.608 345.228 265.045 344.665C264.482 344.103 263.705 343.753 262.852 343.753ZM262.35 351.206C262.873 351.206 263.382 351.04 263.614 350.571C263.756 350.284 263.747 349.914 263.615 349.646C263.443 349.298 263.073 349.149 262.725 349.023C262.631 348.989 262.538 348.951 262.457 348.909C262.378 348.868 262.294 348.814 262.268 348.724C262.234 348.608 262.298 348.503 262.364 348.458C262.619 348.286 263.086 348.454 263.345 348.563C263.401 348.587 263.499 348.643 263.534 348.651L263.533 347.884C263.275 347.741 262.933 347.655 262.624 347.655C262.24 347.655 261.906 347.757 261.674 347.936C261.561 348.024 261.463 348.12 261.386 348.261C261.242 348.525 261.187 348.894 261.363 349.163C261.623 349.56 262.234 349.653 262.481 349.814C262.564 349.869 262.651 349.945 262.686 350.051C262.728 350.177 262.7 350.314 262.614 350.376C262.331 350.576 261.786 350.386 261.511 350.272C261.446 350.245 261.321 350.177 261.304 350.171C261.302 350.315 261.299 350.841 261.305 350.929L261.53 351.034C261.793 351.144 262.049 351.206 262.35 351.206ZM258.831 349.729C258.886 349.712 259.163 349.717 259.246 349.71C259.387 349.698 259.499 349.688 259.634 349.66C260.048 349.571 260.465 349.322 260.69 348.978C261.087 348.373 261.025 347.395 260.407 346.938C260.365 346.906 260.323 346.878 260.277 346.853C259.972 346.68 259.585 346.612 259.215 346.612C259.075 346.612 257.956 346.622 257.879 346.633L257.878 351.187H258.831V349.729Z" fill="#2E5AA7"/>
<path fill-rule="evenodd" clip-rule="evenodd" d="M235.324 439.65C235.429 439.678 236.746 439.677 236.852 439.649C236.955 439.604 237.465 439.597 237.67 439.532C237.922 439.451 238.053 439.304 238.097 439.023C238.169 438.56 237.969 437.566 238.256 437.298C238.385 437.177 239.677 436.752 240.235 436.457C241.037 436.034 240.93 436.54 241.907 437.344C242.427 437.773 242.726 437.467 243.153 437.095C243.244 437.017 243.313 436.966 243.401 436.886C243.57 436.731 243.83 436.395 244.106 436.167C244.311 435.997 244.861 435.409 244.938 435.093C245.011 434.799 244.836 434.584 244.69 434.45C244.526 434.298 244.381 434.139 244.22 433.98C243.283 433.054 243.769 433.473 244.445 431.465C244.71 430.675 244.691 430.718 245.59 430.718C247.002 430.718 247.079 430.792 247.049 428.368C247.022 426.308 246.738 426.757 244.929 426.692C244.556 427.179 244.252 427.436 243.757 427.788C243.551 427.934 243.276 428.076 243.02 428.192L242.162 428.51C242.146 430.081 241.762 431.379 240.802 432.524L240.604 432.753C240.328 433.076 240.243 433.132 239.906 433.423C239.653 433.642 239.18 433.942 238.814 434.125C237.915 434.575 236.872 434.796 235.844 434.755C235.232 434.73 234.853 434.607 234.31 434.498L232.455 436.601C232.422 436.64 232.445 436.605 232.414 436.653C232.58 436.793 233.201 436.992 233.455 437.077C234.027 437.271 234.088 437.253 234.087 437.935C234.087 438.87 233.942 439.406 234.667 439.566C234.845 439.605 235.2 439.593 235.324 439.65Z" fill="#5172B0"/>
<path fill-rule="evenodd" clip-rule="evenodd" d="M225.159 427.902V429.745C225.162 429.753 225.166 429.756 225.168 429.77C225.169 429.785 225.182 429.812 225.184 429.822C225.242 430.075 225.205 430.538 225.644 430.671C225.916 430.753 226.681 430.718 227.012 430.717C227.561 430.715 227.584 430.91 227.734 431.375L228.137 432.373C228.14 432.378 228.146 432.385 228.151 432.391C228.276 432.316 228.296 432.246 228.407 432.154L229.476 431.2C229.528 431.154 229.55 431.118 229.601 431.07L230.294 430.48C230.241 430.01 230.081 429.813 230.049 428.937C229.962 426.558 231.245 424.407 233.351 423.315C234.2 422.875 235.2 422.647 236.287 422.659C236.345 422.521 236.374 422.372 236.426 422.229C236.585 421.793 236.754 421.471 237.004 421.098C237.087 420.974 237.158 420.88 237.246 420.769C237.474 420.483 237.486 420.507 237.649 420.319C237.749 420.205 238.023 420.019 238.123 419.911C238.104 419.502 238.166 418.576 238.068 418.259C237.9 417.717 237.184 417.866 236.852 417.775H235.193C235.018 417.84 234.715 417.825 234.511 417.894C233.847 418.12 234.154 418.994 234.086 419.827C234.05 420.254 233.54 420.31 233.137 420.451C232.777 420.577 232.374 420.754 232.042 420.924C231.357 421.273 231.369 421.113 231.008 420.757C230.527 420.282 230.109 419.676 229.571 419.935C229.262 420.084 228.759 420.576 228.5 420.829C228.422 420.906 228.417 420.952 228.325 421.025C228.149 421.165 228.043 421.285 227.922 421.419C227.8 421.552 227.669 421.695 227.55 421.845C227.248 422.225 227.114 422.456 227.442 422.897C227.625 423.144 227.985 423.464 228.214 423.691C228.347 423.823 228.527 423.905 228.494 424.209C228.475 424.386 228.335 424.598 228.261 424.748C228.095 425.089 227.932 425.472 227.799 425.852C227.634 426.324 227.641 426.695 227.068 426.694C226.716 426.694 225.859 426.648 225.579 426.765C225.135 426.951 225.237 427.614 225.159 427.902Z" fill="#5172B0"/>
<defs>
<linearGradient id="paint0_linear_233_6293" x1="285.052" y1="409.161" x2="310.065" y2="409.161" gradientUnits="userSpaceOnUse">
<stop stop-color="#2E5AA7"/>
<stop offset="1" stop-color="#5172B0"/>
</linearGradient>
<linearGradient id="paint1_linear_233_6293" x1="147.89" y1="333.081" x2="175.753" y2="333.082" gradientUnits="userSpaceOnUse">
<stop stop-color="#D2AE6D"/>
<stop offset="1" stop-color="#96743B"/>
</linearGradient>
</defs>
</svg>
