<svg width="386" height="365" viewBox="0 0 386 365" fill="none" xmlns="http://www.w3.org/2000/svg">
<path d="M194.146 365.001C299.828 365.001 385.5 315.41 385.5 254.236C385.5 193.062 299.828 143.471 194.146 143.471C88.4636 143.471 2.79138 193.062 2.79138 254.236C2.79138 315.41 88.4636 365.001 194.146 365.001Z" fill="#F0F0F0"/>
<path opacity="0.05" d="M227.806 231.416C221.639 229.385 213.718 230.348 209.279 233.667L187.136 250.226C173.022 260.78 162.522 273.032 161.75 286.226C161.214 295.395 162.569 305.831 169.39 313.146C169.794 313.578 170.108 313.972 170.404 314.343C171.101 315.217 171.695 315.961 173.107 316.779C174.521 317.597 175.808 317.941 177.318 318.345C177.958 318.516 178.637 318.697 179.383 318.93C192.041 322.882 210.125 323.623 225.97 323.271C248.559 322.769 269.509 316.724 287.578 308.628L316.441 295.696C322.175 293.127 323.838 288.542 320.331 284.973L308.501 272.932C302.486 266.81 297.245 260.437 292.815 253.862C290.797 250.867 286.727 248.511 281.553 247.343C270.193 244.779 259.184 241.745 248.608 238.263L227.806 231.416Z" fill="black"/>
<rect x="201.372" y="259.146" width="65.3086" height="34.4173" fill="#455A64"/>
<path fill-rule="evenodd" clip-rule="evenodd" d="M226.969 224.7C220.801 222.67 212.881 223.632 208.442 226.951L186.299 243.51C172.185 254.064 161.685 266.316 160.913 279.511C160.377 288.679 161.732 299.115 168.553 306.43C168.956 306.863 169.271 307.257 169.567 307.627C170.264 308.501 170.858 309.245 172.27 310.063C173.683 310.881 174.97 311.225 176.481 311.629C177.121 311.8 177.8 311.982 178.546 312.214C191.204 316.166 209.288 316.907 225.133 316.555C247.722 316.053 268.672 310.009 286.741 301.913L315.604 288.981C321.338 286.411 323.001 281.827 319.494 278.257L307.664 266.216C301.649 260.094 296.407 253.721 291.978 247.146C289.96 244.151 285.89 241.795 280.715 240.627C269.356 238.063 258.346 235.029 247.77 231.547L226.969 224.7ZM257.057 281.703C260.509 281.552 263.163 279.813 262.985 277.818C262.808 275.823 259.866 274.328 256.414 274.478L220.202 276.056L221.085 269.264C221.345 267.266 218.762 265.563 215.315 265.46C211.869 265.358 208.864 266.894 208.605 268.892L207.188 279.791C207.053 280.83 207.695 281.842 208.95 282.569C210.206 283.296 211.954 283.667 213.749 283.589L257.057 281.703Z" fill="#B1DAFB"/>
<path opacity="0.1" d="M49.5037 279.93L17.2429 261.261L226.942 139.877L259.203 158.546L49.5037 279.93Z" fill="black"/>
<path d="M38.5856 244.639C38.5856 244.639 38.234 232.963 33.2437 223.511C28.2535 214.058 20.8351 207.788 13.5255 206.587C6.21597 205.387 -0.289778 211.683 7.1956 216.996C14.681 222.31 28.2702 228.245 33.2521 246.209L38.5856 244.639Z" fill="#37474F"/>
<path d="M36.6766 241.458H36.7603C36.8591 241.425 36.9414 241.355 36.9898 241.263C37.0382 241.171 37.049 241.063 37.0198 240.963C30.849 221.143 16.7323 211.901 10.1345 209.786C10.085 209.77 10.0328 209.764 9.98102 209.768C9.92921 209.772 9.87873 209.787 9.83247 209.81C9.78621 209.834 9.74507 209.867 9.71141 209.906C9.67774 209.946 9.65221 209.992 9.63626 210.042C9.62032 210.091 9.61428 210.144 9.61848 210.196C9.62269 210.248 9.63706 210.298 9.66077 210.345C9.68449 210.391 9.71708 210.432 9.75669 210.466C9.7963 210.5 9.84216 210.525 9.89164 210.541C16.3555 212.615 30.1876 221.689 36.2663 241.198C36.2945 241.282 36.3507 241.354 36.4254 241.401C36.5001 241.448 36.5888 241.468 36.6766 241.458Z" fill="white"/>
<path d="M0.639614 234.851C1.13362 236.329 2.60725 237.21 3.98878 237.924C5.37031 238.637 6.87743 239.41 7.53051 240.828C8.83669 243.682 5.91454 247.25 7.34631 250.062C7.69071 250.625 8.14486 251.112 8.68151 251.494C9.21817 251.876 9.82628 252.146 10.4694 252.287C11.5331 252.54 12.609 252.739 13.693 252.883C14.2089 252.912 14.726 252.912 15.242 252.883C16.7823 252.69 18.343 253.015 19.6796 253.806C21.7142 255.216 22.1245 258.003 23.2297 260.219C23.9198 261.534 24.8856 262.682 26.0607 263.587C27.2357 264.491 28.5923 265.129 30.0369 265.458C32.4483 266.003 36.1491 265.802 36.8775 264.778C37.4385 264.005 36.2412 261.42 36.2998 260.438C36.4492 257.99 36.3679 255.533 36.057 253.101C35.8712 251.992 35.8206 250.864 35.9063 249.743C36.0319 248.492 36.1491 247.225 36.2579 245.999C36.3668 244.774 36.7938 243.615 36.4338 242.205C36.0298 240.876 35.4317 239.614 34.6587 238.461C33.947 237.303 33.227 236.144 32.4985 235.002C31.6829 233.613 30.6985 232.33 29.568 231.183C28.5457 230.232 27.3404 229.5 26.0258 229.032C24.7113 228.564 23.3153 228.371 21.9235 228.463C19.621 228.631 17.2849 229.697 14.9657 229.37C12.6464 229.042 10.5364 228.237 8.20035 228.178C6.97002 228.096 5.73727 228.296 4.59556 228.763C3.45385 229.23 2.43315 229.951 1.61087 230.872C1.13216 231.403 0.792689 232.044 0.62312 232.739C0.453552 233.433 0.459221 234.159 0.639614 234.851Z" fill="#455A64"/>
<path d="M35.4375 258.532C35.4831 258.525 35.5269 258.509 35.5663 258.485C35.6057 258.46 35.64 258.429 35.6672 258.391C35.6944 258.354 35.714 258.311 35.7249 258.266C35.7358 258.221 35.7377 258.175 35.7305 258.129C32.0716 236.371 10.0508 231.2 4.801 231.082C4.70774 231.082 4.61829 231.119 4.55234 231.185C4.48639 231.251 4.44934 231.341 4.44934 231.435C4.44934 231.528 4.48639 231.618 4.55234 231.684C4.61829 231.75 4.70774 231.787 4.801 231.787C9.94197 231.896 31.4771 236.958 35.0523 258.247C35.0687 258.334 35.1175 258.412 35.1889 258.465C35.2604 258.518 35.3492 258.542 35.4375 258.532Z" fill="white"/>
<path d="M11.6584 245.445C11.7299 245.439 11.7975 245.409 11.851 245.361C14.0811 243.767 16.6341 242.684 19.3287 242.191C22.0233 241.698 24.7931 241.806 27.4414 242.507C27.4859 242.518 27.5323 242.52 27.5776 242.513C27.623 242.506 27.6665 242.49 27.7056 242.466C27.7446 242.442 27.7784 242.41 27.8049 242.372C27.8314 242.334 27.8502 242.292 27.86 242.247C27.8712 242.202 27.8732 242.156 27.8662 242.11C27.8591 242.065 27.8429 242.021 27.8187 241.982C27.7945 241.943 27.7627 241.909 27.7252 241.882C27.6878 241.856 27.6453 241.837 27.6004 241.827C24.8476 241.101 21.969 240.994 19.1699 241.512C16.3707 242.03 13.7201 243.161 11.4072 244.824C11.3371 244.884 11.2927 244.969 11.2833 245.062C11.274 245.154 11.3004 245.246 11.357 245.319C11.3942 245.362 11.4408 245.396 11.493 245.418C11.5453 245.439 11.6019 245.449 11.6584 245.445Z" fill="white"/>
<path d="M124.215 63.3105H121.687V66.6599H124.215V63.3105Z" fill="#B1DAFB"/>
<path opacity="0.15" d="M124.215 63.3105H121.687V66.6599H124.215V63.3105Z" fill="black"/>
<path d="M36.283 119.185L239.217 1.7207V151.814L36.283 269.278V119.185Z" fill="#B1DAFB"/>
<path opacity="0.15" d="M36.283 119.185L239.217 1.7207V151.814L36.283 269.278V119.185Z" fill="black"/>
<path d="M137.737 63.5543L140.861 65.4011C144.712 67.676 159.758 67.1219 169.714 61.3633L250.328 14.6901L236.245 6.53906L137.737 63.5543Z" fill="white"/>
<path d="M250.345 14.6982L169.73 61.3631C159.775 67.1385 144.72 67.6841 140.877 65.4176L137.737 63.554V207.099L140.861 208.946C144.72 211.221 159.767 210.667 169.722 204.908L250.286 158.252H250.336L250.345 14.6982Z" fill="#FAFAFA"/>
<path d="M250.345 14.6982L169.73 61.3631C159.775 67.1385 144.72 67.6841 140.877 65.4176L137.737 63.554V207.099L140.861 208.946C144.72 211.221 159.767 210.667 169.722 204.908L250.336 158.235L250.345 14.6982Z" fill="#F5F5F5"/>
<path d="M168.868 61.876C158.938 67.1981 144.586 67.6514 140.877 65.452L137.737 63.5549V207.1L140.861 208.947C144.612 211.155 158.921 210.693 168.86 205.379L168.868 61.876Z" fill="#EBEBEB"/>
<path d="M152.449 66.4592C147.199 66.9461 142.728 66.5095 140.877 65.4183L137.737 63.5547V207.1L140.861 208.947C142.728 210.047 147.199 210.483 152.44 209.996L152.449 66.4592Z" fill="#E0E0E0"/>
<path d="M140.651 65.2756C144.503 67.5589 143.649 76.5074 133.71 82.2995L53.4307 129.124L38.9373 120.746L137.738 63.5547L140.651 65.2756Z" fill="white"/>
<path d="M38.9624 120.746L53.4308 129.124V272.694L38.9624 264.317V120.746Z" fill="#E0E0E0"/>
<path d="M133.71 82.2908L130.118 84.3894L53.4305 129.124V272.669L133.71 225.836C141.003 221.589 142.753 217.878 142.778 214.562V69.0527C142.761 74.2741 139.621 78.6056 133.71 82.2908Z" fill="#F5F5F5"/>
<path d="M33.3693 117.464L36.283 119.185V269.278L33.3693 267.591V117.464Z" fill="#B1DAFB"/>
<path opacity="0.3" d="M33.3693 117.464L36.283 119.185V269.278L33.3693 267.591V117.464Z" fill="black"/>
<path d="M33.3693 117.464L236.312 0L239.217 1.71247L36.283 119.185L33.3693 117.464Z" fill="#B1DAFB"/>
<path d="M145.122 51.4323C144.483 51.1052 143.776 50.9346 143.058 50.9346C142.341 50.9346 141.633 51.1052 140.994 51.4323L122.574 62.1185C121.435 62.7733 121.435 63.8478 122.574 64.5025L126.677 66.8782L149.284 53.808L145.122 51.4323Z" fill="#B1DAFB"/>
<g opacity="0.3">
<path d="M63.2188 139.331L130.11 100.59L131.994 99.4904C132.446 99.2264 132.832 98.8622 133.122 98.4257C133.412 97.9893 133.599 97.4921 133.668 96.9721C133.668 96.1327 132.906 95.8976 131.994 96.4516L130.11 97.5513L63.2188 136.275C62.7585 136.534 62.364 136.896 62.0663 137.333C61.7685 137.769 61.5755 138.269 61.5023 138.793C61.5442 139.641 62.281 139.876 63.2188 139.331Z" fill="black"/>
<path d="M63.2189 146.66L130.11 107.919L131.994 106.82C132.446 106.555 132.832 106.191 133.122 105.755C133.412 105.318 133.599 104.821 133.669 104.301C133.669 103.462 132.907 103.227 131.994 103.781L130.11 104.88L63.2189 143.612C62.7586 143.871 62.3642 144.233 62.0664 144.67C61.7687 145.107 61.5757 145.607 61.5024 146.131C61.5443 146.979 62.2811 147.222 63.2189 146.66Z" fill="black"/>
<path d="M63.2188 154.004L130.118 115.264L132.002 114.164C132.454 113.9 132.84 113.536 133.13 113.1C133.421 112.663 133.607 112.166 133.677 111.646C133.677 110.806 132.915 110.571 132.002 111.125L130.118 112.242L63.2188 150.949C62.7585 151.208 62.364 151.57 62.0663 152.006C61.7685 152.443 61.5755 152.943 61.5023 153.467C61.5442 154.315 62.281 154.558 63.2188 154.004Z" fill="black"/>
<path d="M63.2189 161.34L130.11 122.6L131.994 121.5C132.446 121.236 132.832 120.872 133.122 120.435C133.412 119.999 133.599 119.502 133.669 118.982C133.669 118.142 132.907 117.907 131.994 118.461L130.11 119.561L63.2189 158.285C62.7586 158.544 62.3642 158.905 62.0664 159.342C61.7687 159.779 61.5757 160.279 61.5024 160.803C61.5443 161.651 62.2811 161.894 63.2189 161.34Z" fill="black"/>
<path d="M63.2189 168.677L130.11 129.937L131.994 128.837C132.446 128.573 132.832 128.209 133.122 127.772C133.412 127.336 133.599 126.839 133.669 126.319C133.669 125.479 132.907 125.244 131.994 125.798L130.11 126.898L63.2189 165.622C62.7586 165.88 62.3642 166.242 62.0664 166.679C61.7687 167.116 61.5757 167.616 61.5024 168.14C61.5443 168.988 62.2811 169.231 63.2189 168.677Z" fill="black"/>
<path d="M63.2189 176.04L130.11 137.299L131.994 136.199C132.446 135.935 132.832 135.571 133.122 135.135C133.412 134.698 133.599 134.201 133.669 133.681C133.669 132.842 132.907 132.607 131.994 133.161L130.11 134.26L63.2189 172.959C62.7586 173.218 62.3642 173.58 62.0664 174.016C61.7687 174.453 61.5757 174.953 61.5024 175.477C61.5443 176.325 62.2811 176.568 63.2189 176.04Z" fill="black"/>
<path d="M63.2189 183.351L130.11 144.611L131.994 143.511C132.446 143.246 132.831 142.882 133.121 142.446C133.412 142.009 133.599 141.512 133.669 140.993C133.669 140.153 132.907 139.91 131.994 140.464L130.11 141.563L63.2189 180.296C62.7586 180.554 62.3642 180.916 62.0664 181.353C61.7687 181.79 61.5757 182.29 61.5024 182.814C61.5443 183.662 62.2811 183.905 63.2189 183.351Z" fill="black"/>
<path d="M63.2188 190.688L130.118 151.947L132.002 150.848C132.454 150.583 132.839 150.219 133.13 149.782C133.42 149.346 133.607 148.849 133.677 148.329C133.677 147.49 132.915 147.246 132.002 147.8L130.118 148.9L63.2188 187.632C62.7585 187.891 62.364 188.253 62.0663 188.69C61.7685 189.127 61.5755 189.627 61.5023 190.151C61.5442 190.998 62.281 191.242 63.2188 190.688Z" fill="black"/>
<path d="M63.2189 198.024L130.118 159.25L132.002 158.151C132.454 157.886 132.84 157.522 133.13 157.085C133.42 156.649 133.607 156.152 133.677 155.632C133.677 154.793 132.915 154.549 132.002 155.103L130.118 156.203L63.2189 194.969C62.7586 195.228 62.3642 195.589 62.0664 196.026C61.7687 196.463 61.5757 196.963 61.5024 197.487C61.5443 198.335 62.2811 198.578 63.2189 198.024Z" fill="black"/>
<path d="M63.2188 205.362L130.11 166.621L131.994 165.522C132.445 165.257 132.831 164.893 133.121 164.456C133.411 164.02 133.599 163.523 133.668 163.003C133.668 162.164 132.906 161.92 131.994 162.474L130.11 163.574L63.2188 202.306C62.7585 202.565 62.364 202.927 62.0663 203.364C61.7685 203.801 61.5755 204.301 61.5023 204.825C61.5442 205.672 62.281 205.916 63.2188 205.362Z" fill="black"/>
<path d="M63.2189 212.698L130.11 173.957L131.994 172.858C132.446 172.593 132.831 172.229 133.121 171.792C133.412 171.356 133.599 170.859 133.669 170.339C133.669 169.5 132.907 169.256 131.994 169.81L130.11 170.91L63.2189 209.617C62.7664 209.881 62.3802 210.245 62.0899 210.681C61.7996 211.118 61.613 211.615 61.5443 212.135C61.5443 212.975 62.2811 213.252 63.2189 212.698Z" fill="black"/>
<path d="M63.2188 220.035L130.11 181.294L131.994 180.195C132.445 179.93 132.831 179.566 133.121 179.13C133.411 178.693 133.599 178.196 133.668 177.676C133.668 176.837 132.906 176.594 131.994 177.148L130.11 178.247L63.2188 216.979C62.7585 217.238 62.364 217.6 62.0663 218.037C61.7685 218.474 61.5755 218.974 61.5023 219.498C61.5442 220.346 62.281 220.589 63.2188 220.035Z" fill="black"/>
<path d="M63.2188 227.372L130.118 188.631L132.002 187.532C132.454 187.267 132.839 186.903 133.13 186.466C133.42 186.03 133.607 185.533 133.677 185.013C133.677 184.174 132.915 183.93 132.002 184.485L130.118 185.584L63.2188 224.316C62.7589 224.576 62.3648 224.938 62.0671 225.374C61.7694 225.811 61.5761 226.311 61.5023 226.835C61.5442 227.682 62.281 227.926 63.2188 227.372Z" fill="black"/>
<path d="M63.2188 234.709L130.11 195.968L131.994 194.869C132.445 194.604 132.831 194.24 133.121 193.803C133.411 193.367 133.599 192.87 133.668 192.35C133.668 191.511 132.906 191.267 131.994 191.821L130.11 192.921L63.2188 231.653C62.7589 231.912 62.3648 232.275 62.0671 232.711C61.7694 233.148 61.5761 233.648 61.5023 234.172C61.5442 235.019 62.281 235.263 63.2188 234.709Z" fill="black"/>
<path d="M63.2189 242.045L130.11 203.305L131.994 202.205C132.446 201.941 132.831 201.576 133.121 201.14C133.412 200.704 133.599 200.207 133.669 199.687C133.669 198.847 132.907 198.604 131.994 199.158L130.11 200.258L63.2189 238.998C62.7668 239.262 62.3809 239.626 62.0907 240.063C61.8004 240.499 61.6136 240.997 61.5443 241.517C61.5443 242.356 62.2811 242.599 63.2189 242.045Z" fill="black"/>
<path d="M63.2189 249.382L130.11 210.642L131.994 209.542C132.446 209.278 132.831 208.913 133.121 208.477C133.412 208.041 133.599 207.544 133.669 207.024C133.669 206.184 132.907 205.941 131.994 206.495L130.11 207.595L63.2189 246.327C62.759 246.586 62.3649 246.948 62.0672 247.385C61.7695 247.822 61.5763 248.321 61.5024 248.845C61.5443 249.693 62.2811 249.911 63.2189 249.382Z" fill="black"/>
<path d="M63.2188 256.719L130.118 218.012L132.002 216.912C132.454 216.648 132.839 216.283 133.13 215.847C133.42 215.411 133.607 214.914 133.677 214.394C133.677 213.555 132.915 213.311 132.002 213.865L130.118 214.965L63.2188 253.663C62.7589 253.923 62.3648 254.285 62.0671 254.721C61.7694 255.158 61.5761 255.658 61.5023 256.182C61.5442 257.029 62.281 257.273 63.2188 256.719Z" fill="black"/>
</g>
<g opacity="0.3">
<path d="M159.214 78.7982C158.142 79.0417 157.272 79.8727 157.272 80.6954C157.272 81.518 158.109 82.0301 159.214 81.7783C162.892 80.9796 166.435 79.6477 169.73 77.8245L240.18 36.9518C240.633 36.6892 241.02 36.3254 241.311 35.8887C241.601 35.452 241.787 34.954 241.855 34.4335C241.855 33.594 241.084 33.3926 240.18 33.9382L169.73 74.8109C166.437 76.6455 162.894 77.9888 159.214 78.7982Z" fill="black"/>
<path d="M159.214 86.1349C158.142 86.3867 157.272 87.2178 157.272 88.0405C157.272 88.8631 158.109 89.3668 159.214 89.1233C162.895 88.3086 166.438 86.9596 169.73 85.1192L240.18 44.2465C240.634 43.9844 241.021 43.6208 241.311 43.1839C241.602 42.7471 241.788 42.2489 241.855 41.7282C241.855 40.8887 241.084 40.6789 240.18 41.2329L169.73 82.1056C166.439 83.955 162.897 85.3124 159.214 86.1349Z" fill="black"/>
<path d="M159.214 93.4808C158.731 93.552 158.283 93.7747 157.934 94.1171C157.585 94.4594 157.353 94.9037 157.272 95.3864C157.272 96.2258 158.109 96.7127 159.214 96.4609C162.895 95.649 166.438 94.3029 169.73 92.4651L240.18 51.5924C240.633 51.3298 241.02 50.9661 241.311 50.5293C241.601 50.0926 241.787 49.5946 241.855 49.0741C241.855 48.2347 241.084 48.0332 240.18 48.5788L169.73 89.4515C166.439 91.3007 162.897 92.6581 159.214 93.4808Z" fill="black"/>
<path d="M159.214 100.818C158.142 101.069 157.272 101.9 157.272 102.723C157.272 103.546 158.109 104.049 159.214 103.806C162.894 102.99 166.436 101.644 169.73 99.8102L240.18 58.9291C240.634 58.667 241.021 58.3034 241.312 57.8666C241.602 57.4297 241.788 56.9315 241.855 56.4108C241.855 55.5713 241.084 55.3615 240.18 55.9155L169.73 96.7882C166.439 98.6376 162.897 99.9951 159.214 100.818Z" fill="black"/>
<path d="M159.214 108.161C158.731 108.233 158.283 108.455 157.934 108.798C157.585 109.14 157.353 109.584 157.272 110.067C157.272 110.906 158.109 111.393 159.214 111.142C162.895 110.33 166.438 108.984 169.73 107.146L240.18 66.2731C240.633 66.0105 241.02 65.6467 241.311 65.21C241.601 64.7732 241.787 64.2753 241.855 63.7548C241.855 62.9153 241.084 62.7139 240.18 63.2595L169.73 104.132C166.439 105.981 162.897 107.339 159.214 108.161Z" fill="black"/>
<path d="M159.214 115.499C158.142 115.751 157.272 116.582 157.272 117.404C157.272 118.227 158.109 118.739 159.214 118.487C162.894 117.672 166.436 116.326 169.73 114.491L240.18 73.6271C240.634 73.365 241.021 73.0014 241.311 72.5646C241.602 72.1277 241.788 71.6295 241.855 71.1088C241.855 70.2693 241.084 70.0595 240.18 70.6135L169.73 111.486C166.438 113.33 162.896 114.682 159.214 115.499Z" fill="black"/>
<path d="M159.214 122.844C158.731 122.915 158.283 123.138 157.934 123.48C157.585 123.822 157.353 124.267 157.272 124.749C157.272 125.589 158.109 126.076 159.214 125.824C162.895 125.012 166.438 123.666 169.73 121.828L240.18 80.9555C240.633 80.6929 241.02 80.3291 241.311 79.8924C241.601 79.4556 241.787 78.9577 241.855 78.4371C241.855 77.5977 241.084 77.3962 240.18 77.9419L169.73 118.815C166.439 120.664 162.896 122.021 159.214 122.844Z" fill="black"/>
<path d="M159.214 130.181C158.142 130.433 157.272 131.264 157.272 132.087C157.272 132.909 158.109 133.421 159.214 133.17C162.894 132.354 166.436 131.008 169.73 129.174L240.18 88.3012C240.633 88.0376 241.019 87.6736 241.309 87.237C241.599 86.8005 241.786 86.303 241.855 85.7829C241.855 84.9434 241.084 84.7336 240.18 85.2876L169.73 126.16C166.439 128.007 162.896 129.361 159.214 130.181Z" fill="black"/>
<path d="M159.214 137.526C158.731 137.597 158.283 137.82 157.934 138.162C157.585 138.504 157.353 138.949 157.272 139.431C157.272 140.271 158.109 140.758 159.214 140.506C162.895 139.694 166.438 138.348 169.73 136.51L240.18 95.6374C240.634 95.3753 241.021 95.0116 241.312 94.5748C241.602 94.1379 241.788 93.6397 241.855 93.119C241.855 92.2796 241.084 92.0781 240.18 92.6238L169.73 133.496C166.439 135.346 162.897 136.703 159.214 137.526Z" fill="black"/>
<path d="M159.214 144.863C158.142 145.115 157.272 145.946 157.272 146.769C157.272 147.591 158.109 148.103 159.214 147.851C162.894 147.036 166.436 145.69 169.73 143.856L240.18 103.008C240.633 102.745 241.019 102.381 241.309 101.944C241.599 101.508 241.786 101.01 241.855 100.49C241.855 99.6505 241.084 99.4406 240.18 99.9946L169.73 140.867C166.438 142.705 162.895 144.051 159.214 144.863Z" fill="black"/>
<path d="M159.214 152.208C158.731 152.279 158.283 152.502 157.934 152.844C157.585 153.187 157.353 153.631 157.272 154.114C157.272 154.953 158.109 155.44 159.214 155.188C162.896 154.38 166.439 153.034 169.73 151.193L240.18 110.32C240.634 110.058 241.021 109.694 241.311 109.257C241.602 108.82 241.788 108.322 241.855 107.802C241.855 106.962 241.084 106.752 240.18 107.298L169.73 148.171C166.44 150.023 162.897 151.383 159.214 152.208Z" fill="black"/>
<path d="M159.214 159.544C158.142 159.796 157.272 160.627 157.272 161.45C157.272 162.273 158.109 162.785 159.214 162.533C162.894 161.717 166.436 160.371 169.73 158.537L240.18 117.664C240.633 117.401 241.019 117.037 241.309 116.6C241.599 116.164 241.786 115.666 241.855 115.146C241.855 114.307 241.084 114.097 240.18 114.651L169.73 155.524C166.439 157.37 162.896 158.725 159.214 159.544Z" fill="black"/>
<path d="M159.214 166.89C158.142 167.142 157.272 167.973 157.272 168.795C157.272 169.618 158.109 170.122 159.214 169.878C162.895 169.064 166.438 167.715 169.73 165.874L240.18 125.002C240.634 124.739 241.021 124.376 241.312 123.939C241.602 123.502 241.788 123.004 241.855 122.483C241.855 121.644 241.084 121.434 240.18 121.98L169.73 162.861C166.438 164.706 162.895 166.064 159.214 166.89Z" fill="black"/>
<path d="M159.214 174.226C158.142 174.478 157.272 175.309 157.272 176.132C157.272 176.954 158.109 177.466 159.214 177.215C162.894 176.399 166.436 175.053 169.73 173.219L240.18 132.388C240.633 132.125 241.019 131.76 241.309 131.324C241.599 130.887 241.786 130.39 241.855 129.87C241.855 129.03 241.084 128.82 240.18 129.375L169.73 170.247C166.437 172.079 162.894 173.42 159.214 174.226Z" fill="black"/>
<path d="M159.214 181.572C158.142 181.824 157.272 182.655 157.272 183.478C157.272 184.301 158.109 184.804 159.214 184.561C162.895 183.746 166.438 182.397 169.73 180.557L240.18 139.684C240.634 139.422 241.021 139.058 241.312 138.621C241.602 138.185 241.788 137.686 241.855 137.166C241.855 136.326 241.084 136.116 240.18 136.67L169.73 177.543C166.438 179.389 162.895 180.746 159.214 181.572Z" fill="black"/>
<path d="M159.214 188.909C158.142 189.161 157.272 189.992 157.272 190.814C157.272 191.637 158.109 192.149 159.214 191.897C162.895 191.085 166.438 189.739 169.73 187.901L240.18 147.029C240.633 146.765 241.019 146.401 241.309 145.965C241.599 145.528 241.786 145.031 241.855 144.51C241.855 143.671 241.084 143.461 240.18 144.015L169.73 184.888C166.439 186.734 162.896 188.089 159.214 188.909Z" fill="black"/>
<path d="M159.214 196.253C158.142 196.505 157.272 197.336 157.272 198.159C157.272 198.982 158.109 199.485 159.214 199.242C162.895 198.427 166.438 197.078 169.73 195.238L240.18 154.365C240.634 154.103 241.021 153.739 241.311 153.302C241.602 152.866 241.788 152.367 241.855 151.847C241.855 151.007 241.084 150.797 240.18 151.351L169.73 192.224C166.438 194.07 162.895 195.427 159.214 196.253Z" fill="black"/>
</g>
<path opacity="0.2" d="M50.2406 127.369L61.7952 119.814L49.2358 126.69V140.91L50.2406 127.369Z" fill="black"/>
<path opacity="0.2" d="M43.0483 123.096L65.5966 110.043L44.0866 123.718L43.0483 152.46V123.096Z" fill="black"/>
<path opacity="0.2" d="M50.2405 270.848L49.8135 248.645L48.7167 269.966L50.2405 270.848Z" fill="black"/>
<path opacity="0.2" d="M44.5973 267.549L43.7768 234.475L43.2493 266.802L44.5973 267.549Z" fill="black"/>
<path opacity="0.2" d="M229.58 22.2624L245.748 12.0547L246.945 12.743L229.58 22.2624Z" fill="black"/>
<path opacity="0.2" d="M241.453 9.55273L213.713 26.1234L242.34 10.0648L241.453 9.55273Z" fill="black"/>
<path opacity="0.3" d="M59.1829 203.365V208.972L136.607 164.154V158.547L59.1829 203.365Z" fill="#B1DAFB"/>
<path opacity="0.3" d="M59.1829 210.592V216.2L136.607 171.374V165.774L59.1829 210.592Z" fill="#B1DAFB"/>
<path opacity="0.3" d="M59.1829 218.197V223.796L136.607 178.978V173.379L59.1829 218.197Z" fill="#B1DAFB"/>
<path opacity="0.3" d="M59.1829 225.533V231.133L101.826 206.167V200.568L59.1829 225.533Z" fill="#B1DAFB"/>
<path opacity="0.3" d="M181.77 132.406L243.068 96.9229V102.53L181.77 138.484V132.406Z" fill="#B1DAFB"/>
<path opacity="0.3" d="M168.868 147.348L243.069 104.436V110.043L168.868 153.426C165.117 155.734 160.596 156.783 155.764 157.421V151.394C160.367 150.98 164.831 149.602 168.868 147.348Z" fill="#B1DAFB"/>
<path opacity="0.3" d="M168.868 154.424L243.069 111.512V117.119L168.868 160.502C165.117 162.81 160.596 163.86 155.764 164.498V158.47C160.367 158.061 164.833 156.682 168.868 154.424Z" fill="#B1DAFB"/>
<path opacity="0.3" d="M168.868 161.502L243.069 118.598V124.197L168.868 167.588C165.117 169.888 160.596 170.946 155.764 171.584V165.548C160.367 165.138 164.833 163.759 168.868 161.502Z" fill="#B1DAFB"/>
<path opacity="0.3" d="M59.1829 137.392V142.991L136.607 98.1733V92.5742L59.1829 137.392Z" fill="#B1DAFB"/>
<path opacity="0.3" d="M59.1829 144.62V150.219L136.607 105.401V99.8018L59.1829 144.62Z" fill="#B1DAFB"/>
<path opacity="0.1" d="M205.206 61.0707V115.66L250.311 89.5531V34.9639L205.206 61.0707Z" fill="black"/>
<path d="M261.773 86.5142C261.773 86.5142 259.58 90.2497 251.726 94.8079L211.997 117.809L207.232 70.3548L252.312 44.248L255.284 76.5751C255.695 81.0494 257.428 85.8091 261.773 86.5142Z" fill="#455A64"/>
<path fill-rule="evenodd" clip-rule="evenodd" d="M221.767 75.2234C220.476 76.3815 219.641 78.3453 219.814 79.8166L220.677 87.157C221.226 91.8356 222.65 95.9035 225.588 97.843C227.63 99.1907 230.217 100.269 232.813 99.6647C232.967 99.629 233.1 99.6087 233.224 99.5896C233.519 99.5446 233.77 99.5062 234.147 99.2881C234.524 99.0698 234.775 98.8175 235.07 98.5214C235.194 98.396 235.327 98.2628 235.48 98.121C238.08 95.7153 240.664 91.6239 242.697 87.9054C245.595 82.6043 246.998 76.9435 247.542 71.6763L248.412 63.2629C248.585 61.5914 247.75 60.5942 246.459 60.9306L242.105 62.0651C239.891 62.6419 237.723 63.0061 235.616 63.1551C234.656 63.223 233.57 63.8517 232.611 64.8949C230.504 67.1849 228.335 69.3311 226.121 71.3171L221.767 75.2234ZM238.923 75.8578C239.348 75.0379 239.302 74.1909 238.818 73.9658C238.335 73.7407 237.597 74.2229 237.171 75.0427L232.703 83.644L231.255 82.5331C230.829 82.2063 230.092 82.5776 229.609 83.3625C229.125 84.1474 229.078 85.0486 229.504 85.3753L231.828 87.158C232.049 87.328 232.368 87.3142 232.703 87.1202C233.038 86.9263 233.357 86.5708 233.579 86.1444L238.923 75.8578Z" fill="white"/>
<path d="M252.128 44.2478L207.023 70.3546L207.015 61.9769L252.128 35.8701V44.2478Z" fill="#37474F"/>
</svg>
