<svg width="248" height="236" viewBox="0 0 248 236" fill="none" xmlns="http://www.w3.org/2000/svg">
<path d="M112.834 225.167C175.15 225.167 225.667 174.761 225.667 112.583C225.667 50.4052 175.15 0 112.834 0C50.5174 0 0 50.4052 0 112.583C0 174.761 50.5174 225.167 112.834 225.167Z" fill="#5172B0"/>
<path fill-rule="evenodd" clip-rule="evenodd" d="M148.153 55.0603L241.219 164.378L99.8028 138.616L6.73877 29.3006L148.153 55.0603L241.219 164.376L244.593 158.544L151.529 49.2265L10.1133 23.4668L6.74024 29.3006L148.153 55.0603Z" fill="#FEFEFE"/>
<path fill-rule="evenodd" clip-rule="evenodd" d="M130.824 85.0086C164.62 104.477 187.751 127.636 182.486 136.734L156.1 182.334L33.7114 111.829L60.0967 66.2284C65.3606 57.1313 97.0274 65.5386 130.824 85.0086Z" fill="#5172B0"/>
<path d="M85.373 163.549C119.17 183.018 150.835 191.426 156.1 182.327C161.364 173.229 138.234 150.071 104.437 130.601C70.6405 111.132 38.975 102.724 33.7105 111.823C28.446 120.921 51.5761 144.079 85.373 163.549Z" fill="#FEFEFE"/>
<path d="M86.6313 161.374C118.523 179.746 148.081 188.237 152.65 180.34C157.22 172.443 135.071 151.148 103.179 132.776C71.2872 114.404 41.7296 105.913 37.1601 113.81C32.5906 121.707 54.7397 143.002 86.6313 161.374Z" fill="#FEFEFE"/>
<path fill-rule="evenodd" clip-rule="evenodd" d="M151.529 49.2265L244.593 158.544L241.219 164.378L173.619 152.063L156.1 182.334C150.836 191.432 119.171 183.025 85.3733 163.555C51.5769 144.086 28.446 120.926 33.7114 111.829L51.2269 81.5567L6.74023 29.3006L10.1133 23.4668L151.529 49.2265Z" stroke="#5172B0" stroke-width="1.59987" stroke-miterlimit="22.9256" stroke-linecap="round" stroke-linejoin="round"/>
<path d="M241.217 164.376V229.232" stroke="#5172B0" stroke-width="1.59987" stroke-miterlimit="22.9256" stroke-linecap="round"/>
<path d="M241.217 236C244.963 236 248 232.97 248 229.232C248 225.495 244.963 222.465 241.217 222.465C237.471 222.465 234.435 225.495 234.435 229.232C234.435 232.97 237.471 236 241.217 236Z" fill="#5172B0"/>
</svg>
