<svg width="394" height="317" viewBox="0 0 394 317" fill="none" xmlns="http://www.w3.org/2000/svg">
<path d="M73.7744 286.675H45.4167V286.888H73.7744V286.675Z" fill="#EBEBEB"/>
<path d="M193.147 286.786H147.031V286.999H193.147V286.786Z" fill="#EBEBEB"/>
<path d="M107.492 291.066H91.0613V291.279H107.492V291.066Z" fill="#EBEBEB"/>
<path d="M382.369 290.964H365.904V291.177H382.369V290.964Z" fill="#EBEBEB"/>
<path d="M358.276 290.964H332.341V291.177H358.276V290.964Z" fill="#EBEBEB"/>
<path d="M318.059 289.56H281.619V289.773H318.059V289.56Z" fill="#EBEBEB"/>
<path d="M203.422 240.626H38.0962C36.8011 240.624 35.5597 240.111 34.6447 239.2C33.7297 238.289 33.2158 237.055 33.2158 235.768V4.81593C33.2271 3.53624 33.746 2.31265 34.6598 1.41093C35.5736 0.50921 36.8084 0.00219217 38.0962 0H203.422C204.718 0 205.962 0.511873 206.879 1.42301C207.796 2.33415 208.311 3.56992 208.311 4.85847V235.768C208.311 237.056 207.796 238.292 206.879 239.203C205.962 240.114 204.718 240.626 203.422 240.626ZM38.0962 0.170175C36.8578 0.172429 35.671 0.662883 34.7961 1.53389C33.9212 2.40489 33.4299 3.58527 33.4299 4.81593V235.768C33.4299 236.998 33.9212 238.179 34.7961 239.05C35.671 239.921 36.8578 240.411 38.0962 240.413H203.422C204.661 240.411 205.849 239.921 206.725 239.05C207.601 238.179 208.094 236.999 208.097 235.768V4.81593C208.094 3.58449 207.601 2.40413 206.725 1.53337C205.849 0.662607 204.661 0.172424 203.422 0.170175H38.0962Z" fill="#EBEBEB"/>
<path d="M388.628 240.626H223.294C221.998 240.624 220.756 240.111 219.84 239.201C218.923 238.29 218.407 237.055 218.405 235.768V4.81593C218.419 3.53546 218.939 2.31188 219.855 1.4104C220.77 0.508913 222.006 0.00216826 223.294 0H388.628C389.914 0.00442835 391.147 0.512436 392.059 1.41391C392.971 2.31539 393.489 3.53771 393.5 4.81593V235.768C393.5 237.053 392.987 238.286 392.074 239.197C391.161 240.108 389.922 240.622 388.628 240.626ZM223.294 0.170175C222.055 0.172424 220.867 0.662607 219.991 1.53337C219.115 2.40413 218.621 3.58449 218.619 4.81593V235.768C218.621 236.999 219.115 238.179 219.991 239.05C220.867 239.921 222.055 240.411 223.294 240.413H388.628C389.867 240.411 391.055 239.921 391.931 239.05C392.807 238.179 393.301 236.999 393.303 235.768V4.81593C393.301 3.58449 392.807 2.40413 391.931 1.53337C391.055 0.662607 389.867 0.172424 388.628 0.170175H223.294Z" fill="#EBEBEB"/>
<path d="M259.264 278.575H283.511V158.687H259.264V278.575Z" fill="#E6E6E6"/>
<path d="M263.861 278.575H259.255V265.557H268.69L263.861 278.575Z" fill="#F0F0F0"/>
<path d="M349.885 278.575H374.133V158.687H349.885V278.575Z" fill="#E6E6E6"/>
<path d="M259.264 270.585H353.909V158.687H259.264V270.585Z" fill="#F0F0F0"/>
<path d="M262.834 232.551V254.308H305.037V232.551H262.834Z" fill="#E6E6E6"/>
<path d="M308.128 232.551V254.308H350.33V232.551H308.128Z" fill="#E6E6E6"/>
<path d="M325.055 236.193H333.403C335.198 236.194 336.974 235.831 338.623 235.126C340.272 234.421 341.759 233.388 342.992 232.092H315.465C316.698 233.388 318.185 234.421 319.834 235.126C321.483 235.831 323.259 236.194 325.055 236.193Z" fill="#F0F0F0"/>
<path d="M279.333 236.193H287.681C289.476 236.194 291.253 235.831 292.902 235.126C294.551 234.421 296.037 233.388 297.271 232.092H269.744C270.977 233.388 272.464 234.421 274.112 235.126C275.761 235.831 277.538 236.194 279.333 236.193Z" fill="#F0F0F0"/>
<path d="M262.825 198.729V220.486H305.028V198.729H262.825Z" fill="#E6E6E6"/>
<path d="M308.128 198.738V220.494H350.33V198.738H308.128Z" fill="#E6E6E6"/>
<path d="M325.055 202.371H333.403C335.197 202.367 336.973 202 338.62 201.292C340.267 200.584 341.752 199.55 342.984 198.253H315.465C316.698 199.551 318.184 200.586 319.833 201.294C321.482 202.002 323.258 202.368 325.055 202.371Z" fill="#F0F0F0"/>
<path d="M279.333 202.371H287.681C289.475 202.372 291.251 202.009 292.9 201.305C294.548 200.602 296.036 199.572 297.271 198.278H269.744C270.979 199.572 272.466 200.602 274.114 201.305C275.763 202.009 277.539 202.372 279.333 202.371Z" fill="#F0F0F0"/>
<path d="M262.834 164.916V186.672H305.037V164.916H262.834Z" fill="#E6E6E6"/>
<path d="M308.128 164.916V186.672H350.33V164.916H308.128Z" fill="#E6E6E6"/>
<path d="M325.055 168.557H333.403C335.198 168.559 336.974 168.195 338.623 167.49C340.272 166.785 341.759 165.752 342.992 164.456H315.465C316.698 165.752 318.185 166.785 319.834 167.49C321.483 168.195 323.259 168.559 325.055 168.557Z" fill="#F0F0F0"/>
<path d="M279.333 168.557H287.681C289.476 168.559 291.253 168.195 292.902 167.49C294.551 166.785 296.037 165.752 297.271 164.456H269.744C270.977 165.752 272.464 166.785 274.112 167.49C275.761 168.195 277.538 168.559 279.333 168.557Z" fill="#F0F0F0"/>
<path d="M349.303 278.575H353.909V265.557H344.474L349.303 278.575Z" fill="#F0F0F0"/>
<path d="M353.293 76.3826L357 86.4569H353.293L330.543 76.3826H353.293Z" fill="#F5F5F5"/>
<path d="M357 76.3826V86.4569L334.259 76.3826H357Z" fill="#E6E6E6"/>
<path d="M264.101 76.3826L267.808 86.4569H264.101L241.36 76.3826H264.101Z" fill="#F5F5F5"/>
<path d="M267.809 76.3826V86.4569L245.068 76.3826H267.809Z" fill="#E6E6E6"/>
<path d="M373.696 69.1842H348.96V76.8505H373.696V69.1842Z" fill="#E6E6E6"/>
<path d="M225.983 76.8591L348.96 76.8591V69.1927L225.983 69.1927V76.8591Z" fill="#F5F5F5"/>
<path d="M323.984 42.5435C323.984 42.5435 324.233 69.1928 333.488 69.1928C342.744 69.1928 342.984 42.5435 342.984 42.5435H323.984Z" fill="#F0F0F0"/>
<path d="M266.593 60.4968C266.593 60.4968 267.243 69.1842 292.142 69.1842C317.04 69.1842 317.691 60.4968 317.691 60.4968H266.593Z" fill="#F0F0F0"/>
<path d="M192.599 278.575H194.251L198.986 255.389L199.843 251.322L204.98 226.051H224.827L235.555 278.575H237.216L226.282 225.089C226.246 224.906 226.147 224.741 226.002 224.623C225.856 224.505 225.674 224.441 225.486 224.443H204.321C204.134 224.442 203.953 224.506 203.809 224.624C203.665 224.742 203.567 224.907 203.533 225.089L198.995 247.28L198.139 251.339L192.599 278.575Z" fill="#F0F0F0"/>
<path d="M160.808 278.575H162.461L173.197 226.051H192.993L198.13 251.338L198.986 255.389L203.73 278.575H205.382L199.817 251.347L198.961 247.305L194.423 225.115C194.379 224.936 194.277 224.776 194.133 224.659C193.99 224.543 193.812 224.475 193.627 224.468H172.538C172.35 224.466 172.168 224.53 172.023 224.648C171.877 224.766 171.778 224.931 171.742 225.115L160.808 278.575Z" fill="#F0F0F0"/>
<path d="M227.789 218.316H170.192C168.871 218.318 167.605 218.841 166.671 219.769C165.737 220.697 165.211 221.956 165.209 223.268V223.438C165.209 223.919 165.401 224.38 165.743 224.72C166.085 225.06 166.549 225.251 167.033 225.251H230.949C231.432 225.251 231.896 225.06 232.238 224.72C232.58 224.38 232.772 223.919 232.772 223.438V223.268C232.77 221.956 232.244 220.697 231.31 219.769C230.376 218.841 229.11 218.318 227.789 218.316Z" fill="#F0F0F0"/>
<path d="M134.796 278.575H136.449L141.184 255.389L142.04 251.322L147.177 226.051H166.973L177.735 278.575H179.396L168.463 225.089C168.427 224.906 168.327 224.741 168.182 224.623C168.036 224.505 167.854 224.441 167.666 224.443H146.518C146.331 224.442 146.15 224.506 146.006 224.624C145.862 224.742 145.764 224.907 145.73 225.089L141.192 247.28L140.336 251.339L134.796 278.575Z" fill="#F0F0F0"/>
<path d="M103.005 278.575H104.666L115.395 226.051H135.199L140.336 251.339L141.192 255.389L145.936 278.575H147.588L142.023 251.347L141.166 247.306L136.637 225.089C136.593 224.91 136.491 224.751 136.348 224.634C136.204 224.517 136.026 224.45 135.841 224.443H114.735C114.548 224.441 114.365 224.505 114.22 224.623C114.074 224.741 113.975 224.906 113.939 225.089L103.005 278.575Z" fill="#F0F0F0"/>
<path d="M170.03 218.316H112.39C111.069 218.318 109.802 218.841 108.868 219.769C107.934 220.697 107.409 221.956 107.406 223.268V223.438C107.406 223.919 107.599 224.38 107.941 224.72C108.283 225.06 108.746 225.251 109.23 225.251H173.155C173.394 225.251 173.631 225.204 173.851 225.113C174.072 225.021 174.273 224.888 174.441 224.719C174.61 224.551 174.743 224.351 174.834 224.131C174.925 223.911 174.971 223.676 174.97 223.438V223.268C174.968 221.963 174.448 220.711 173.523 219.784C172.598 218.857 171.343 218.33 170.03 218.316Z" fill="#F0F0F0"/>
<path d="M72.7042 151.115H155.457L155.457 19.3743H72.7042L72.7042 151.115Z" fill="#E6E6E6"/>
<path d="M67.3014 151.115H152.931L152.931 19.3743H67.3014L67.3014 151.115Z" fill="#F0F0F0"/>
<path d="M72.7042 161.095H155.457V151.106H72.7042V161.095Z" fill="#E6E6E6"/>
<path d="M58.2942 161.095H143.924V151.106H58.2942V161.095Z" fill="#F0F0F0"/>
<path d="M145.354 143.593V26.896L74.8619 26.896L74.8619 143.593H145.354Z" fill="#FAFAFA"/>
<path d="M145.961 143.584L121.165 26.896H100.188L124.984 143.584H145.961Z" fill="white"/>
<path d="M140.25 129.647C140.394 129.647 140.531 129.591 140.632 129.49C140.733 129.39 140.79 129.253 140.79 129.111V31.7885C140.79 31.6464 140.733 31.51 140.632 31.4095C140.531 31.309 140.394 31.2525 140.25 31.2525C140.107 31.2525 139.97 31.309 139.869 31.4095C139.768 31.51 139.711 31.6464 139.711 31.7885V129.111C139.711 129.253 139.768 129.39 139.869 129.49C139.97 129.591 140.107 129.647 140.25 129.647Z" fill="#F0F0F0"/>
<path d="M120.481 143.584L95.6847 26.896H87.5079L112.295 143.584H120.481Z" fill="white"/>
<path d="M75.8292 143.593L75.8292 26.896H74.8703L74.8703 143.593H75.8292Z" fill="#E6E6E6"/>
<path opacity="0.6" d="M65.5033 32.6734H148.256L148.958 29.8145H66.2054L65.5033 32.6734Z" fill="#F0F0F0"/>
<path opacity="0.6" d="M65.5033 39.3187H148.256L148.958 36.4683H66.2054L65.5033 39.3187Z" fill="#F0F0F0"/>
<path opacity="0.6" d="M65.5033 45.9725H148.256L148.958 43.1136H66.2054L65.5033 45.9725Z" fill="#F0F0F0"/>
<path opacity="0.6" d="M65.5033 52.6178H148.256L148.958 49.7674H66.2054L65.5033 52.6178Z" fill="#F0F0F0"/>
<path opacity="0.6" d="M65.5033 59.2716H148.256L148.958 56.4212H66.2054L65.5033 59.2716Z" fill="#F0F0F0"/>
<path opacity="0.6" d="M65.5033 65.9254H148.256L148.958 63.0665H66.2054L65.5033 65.9254Z" fill="#F0F0F0"/>
<path d="M214.552 317C306.237 317 380.563 312.688 380.563 307.368C380.563 302.049 306.237 297.736 214.552 297.736C122.867 297.736 48.5419 302.049 48.5419 307.368C48.5419 312.688 122.867 317 214.552 317Z" fill="#F5F5F5"/>
<path d="M208.661 176.751H156.356C155.618 176.751 155.02 177.346 155.02 178.079V199.759C155.02 200.492 155.618 201.086 156.356 201.086H208.661C209.399 201.086 209.997 200.492 209.997 199.759V178.079C209.997 177.346 209.399 176.751 208.661 176.751Z" fill="url(#paint0_linear_141_5165)"/>
<path opacity="0.6" d="M208.661 176.751H156.356C155.618 176.751 155.02 177.346 155.02 178.079V199.759C155.02 200.492 155.618 201.086 156.356 201.086H208.661C209.399 201.086 209.997 200.492 209.997 199.759V178.079C209.997 177.346 209.399 176.751 208.661 176.751Z" fill="white"/>
<path opacity="0.1" d="M208.653 176.751H156.33C155.976 176.751 155.636 176.891 155.386 177.14C155.135 177.389 154.994 177.727 154.994 178.079V185.03L182.222 190.357C182.388 190.391 182.56 190.391 182.727 190.357L209.963 185.03V178.079C209.963 177.731 209.826 177.397 209.581 177.149C209.336 176.901 209.003 176.758 208.653 176.751Z" fill="black"/>
<path d="M209.8 167.851H193.824V165.188C193.821 164.087 193.38 163.033 192.597 162.254C191.814 161.476 190.753 161.038 189.645 161.036H175.372C174.265 161.038 173.203 161.476 172.42 162.254C171.637 163.033 171.196 164.087 171.194 165.188V167.851H155.226C154.876 167.851 154.541 167.989 154.293 168.235C154.046 168.481 153.907 168.814 153.907 169.162V182.273C153.909 182.576 154.015 182.869 154.209 183.103C154.402 183.337 154.67 183.498 154.969 183.558L182.256 188.893C182.424 188.919 182.594 188.919 182.761 188.893L210.049 183.558C210.348 183.498 210.618 183.338 210.812 183.104C211.007 182.87 211.115 182.577 211.119 182.273V169.162C211.119 168.814 210.98 168.481 210.733 168.235C210.486 167.989 210.15 167.851 209.8 167.851ZM174.371 165.188C174.373 164.924 174.479 164.671 174.666 164.483C174.853 164.296 175.107 164.188 175.372 164.184H189.645C189.911 164.188 190.165 164.296 190.352 164.483C190.539 164.671 190.645 164.924 190.647 165.188V167.851H174.379L174.371 165.188Z" fill="url(#paint1_linear_141_5165)"/>
<path opacity="0.6" d="M209.8 167.851H193.824V165.188C193.821 164.087 193.38 163.033 192.597 162.254C191.814 161.476 190.753 161.038 189.645 161.036H175.372C174.265 161.038 173.203 161.476 172.42 162.254C171.637 163.033 171.196 164.087 171.194 165.188V167.851H155.226C154.876 167.851 154.541 167.989 154.293 168.235C154.046 168.481 153.907 168.814 153.907 169.162V182.273C153.909 182.576 154.015 182.869 154.209 183.103C154.402 183.337 154.67 183.498 154.969 183.558L182.256 188.893C182.424 188.919 182.594 188.919 182.761 188.893L210.049 183.558C210.348 183.498 210.618 183.338 210.812 183.104C211.007 182.87 211.115 182.577 211.119 182.273V169.162C211.119 168.814 210.98 168.481 210.733 168.235C210.486 167.989 210.15 167.851 209.8 167.851ZM174.371 165.188C174.373 164.924 174.479 164.671 174.666 164.483C174.853 164.296 175.107 164.188 175.372 164.184H189.645C189.911 164.188 190.165 164.296 190.352 164.483C190.539 164.671 190.645 164.924 190.647 165.188V167.851H174.379L174.371 165.188Z" fill="white"/>
<path d="M185.33 185.311H179.696C178.996 185.311 178.429 185.875 178.429 186.57V190.11C178.429 190.806 178.996 191.369 179.696 191.369H185.33C186.03 191.369 186.597 190.806 186.597 190.11V186.57C186.597 185.875 186.03 185.311 185.33 185.311Z" fill="url(#paint2_linear_141_5165)"/>
<path opacity="0.3" d="M185.33 185.311H179.696C178.996 185.311 178.429 185.875 178.429 186.57V190.11C178.429 190.806 178.996 191.369 179.696 191.369H185.33C186.03 191.369 186.597 190.806 186.597 190.11V186.57C186.597 185.875 186.03 185.311 185.33 185.311Z" fill="white"/>
<path d="M208.661 20.2251H156.356C155.618 20.2251 155.02 20.8194 155.02 21.5525V43.2326C155.02 43.9657 155.618 44.56 156.356 44.56H208.661C209.399 44.56 209.997 43.9657 209.997 43.2326V21.5525C209.997 20.8194 209.399 20.2251 208.661 20.2251Z" fill="url(#paint3_linear_141_5165)"/>
<path opacity="0.6" d="M208.661 20.2251H156.356C155.618 20.2251 155.02 20.8194 155.02 21.5525V43.2326C155.02 43.9657 155.618 44.56 156.356 44.56H208.661C209.399 44.56 209.997 43.9657 209.997 43.2326V21.5525C209.997 20.8194 209.399 20.2251 208.661 20.2251Z" fill="white"/>
<path opacity="0.1" d="M208.653 20.2251H156.33C155.976 20.2251 155.636 20.3649 155.386 20.6139C155.135 20.8628 154.994 21.2004 154.994 21.5525V28.5041L182.222 33.8305C182.388 33.8644 182.56 33.8644 182.727 33.8305L209.963 28.5041V21.5525C209.963 21.2048 209.826 20.871 209.581 20.6228C209.336 20.3746 209.003 20.2318 208.653 20.2251Z" fill="black"/>
<path d="M209.8 11.3251H193.823V8.66189C193.821 7.56134 193.38 6.5065 192.597 5.72829C191.814 4.95008 190.753 4.51189 189.645 4.50964H175.372C174.265 4.51189 173.203 4.95008 172.42 5.72829C171.637 6.5065 171.196 7.56134 171.194 8.66189V11.3251H155.226C154.876 11.3251 154.54 11.4632 154.293 11.7089C154.046 11.9546 153.907 12.2879 153.907 12.6355V25.7474C153.907 26.0505 154.013 26.3442 154.207 26.5785C154.4 26.8128 154.669 26.9731 154.969 27.0322L182.256 32.3331C182.423 32.367 182.595 32.367 182.761 32.3331L210.049 26.9981C210.345 26.9423 210.613 26.788 210.809 26.5607C211.005 26.3334 211.117 26.0466 211.127 25.7474V12.6355C211.127 12.4627 211.093 12.2916 211.026 12.132C210.959 11.9725 210.862 11.8277 210.738 11.7059C210.615 11.5841 210.469 11.4878 210.308 11.4224C210.147 11.3571 209.974 11.324 209.8 11.3251ZM174.37 8.66189C174.37 8.39707 174.476 8.14298 174.663 7.95493C174.851 7.76688 175.106 7.66011 175.372 7.65786H189.645C189.91 7.66009 190.164 7.76569 190.351 7.9519C190.538 8.13812 190.645 8.39004 190.647 8.65338V11.3166H174.379L174.37 8.66189Z" fill="url(#paint4_linear_141_5165)"/>
<path opacity="0.6" d="M209.8 11.3251H193.823V8.66189C193.821 7.56134 193.38 6.5065 192.597 5.72829C191.814 4.95008 190.753 4.51189 189.645 4.50964H175.372C174.265 4.51189 173.203 4.95008 172.42 5.72829C171.637 6.5065 171.196 7.56134 171.194 8.66189V11.3251H155.226C154.876 11.3251 154.54 11.4632 154.293 11.7089C154.046 11.9546 153.907 12.2879 153.907 12.6355V25.7474C153.907 26.0505 154.013 26.3442 154.207 26.5785C154.4 26.8128 154.669 26.9731 154.969 27.0322L182.256 32.3331C182.423 32.367 182.595 32.367 182.761 32.3331L210.049 26.9981C210.345 26.9423 210.613 26.788 210.809 26.5607C211.005 26.3334 211.117 26.0466 211.127 25.7474V12.6355C211.127 12.4627 211.093 12.2916 211.026 12.132C210.959 11.9725 210.862 11.8277 210.738 11.7059C210.615 11.5841 210.469 11.4878 210.308 11.4224C210.147 11.3571 209.974 11.324 209.8 11.3251ZM174.37 8.66189C174.37 8.39707 174.476 8.14298 174.663 7.95493C174.851 7.76688 175.106 7.66011 175.372 7.65786H189.645C189.91 7.66009 190.164 7.76569 190.351 7.9519C190.538 8.13812 190.645 8.39004 190.647 8.65338V11.3166H174.379L174.37 8.66189Z" fill="white"/>
<path d="M185.33 28.7934H179.696C178.996 28.7934 178.429 29.3572 178.429 30.0527V33.5923C178.429 34.2878 178.996 34.8516 179.696 34.8516H185.33C186.03 34.8516 186.597 34.2878 186.597 33.5923V30.0527C186.597 29.3572 186.03 28.7934 185.33 28.7934Z" fill="url(#paint5_linear_141_5165)"/>
<path opacity="0.3" d="M185.33 28.7934H179.696C178.996 28.7934 178.429 29.3572 178.429 30.0527V33.5923C178.429 34.2878 178.996 34.8516 179.696 34.8516H185.33C186.03 34.8516 186.597 34.2878 186.597 33.5923V30.0527C186.597 29.3572 186.03 28.7934 185.33 28.7934Z" fill="white"/>
<path d="M127.185 176.751H74.8788C74.1411 176.751 73.5431 177.346 73.5431 178.079V199.759C73.5431 200.492 74.1411 201.086 74.8788 201.086H127.185C127.922 201.086 128.52 200.492 128.52 199.759V178.079C128.52 177.346 127.922 176.751 127.185 176.751Z" fill="url(#paint6_linear_141_5165)"/>
<path opacity="0.6" d="M127.185 176.751H74.8788C74.1411 176.751 73.5431 177.346 73.5431 178.079V199.759C73.5431 200.492 74.1411 201.086 74.8788 201.086H127.185C127.922 201.086 128.52 200.492 128.52 199.759V178.079C128.52 177.346 127.922 176.751 127.185 176.751Z" fill="white"/>
<path opacity="0.1" d="M127.219 176.751H74.8788C74.5245 176.751 74.1848 176.891 73.9343 177.14C73.6838 177.389 73.5431 177.727 73.5431 178.079V185.03L100.771 190.357C100.94 190.391 101.115 190.391 101.284 190.357L128.52 185.03V178.079C128.52 177.732 128.384 177.4 128.141 177.152C127.898 176.904 127.567 176.76 127.219 176.751Z" fill="black"/>
<path d="M128.315 167.851H112.338V165.188C112.336 164.087 111.895 163.033 111.112 162.254C110.329 161.476 109.267 161.038 108.16 161.036H93.8952C92.7878 161.038 91.7263 161.476 90.9432 162.254C90.1601 163.033 89.7192 164.087 89.7169 165.188V167.851H73.7401C73.3904 167.851 73.055 167.989 72.8077 168.235C72.5604 168.481 72.4215 168.814 72.4215 169.162V182.273C72.4232 182.576 72.5297 182.869 72.723 183.103C72.9163 183.337 73.1847 183.498 73.4832 183.558L100.771 188.893C100.941 188.919 101.114 188.919 101.284 188.893L128.572 183.558C128.87 183.498 129.139 183.337 129.332 183.103C129.525 182.869 129.632 182.576 129.633 182.273V169.162C129.633 168.814 129.494 168.481 129.247 168.235C129 167.989 128.665 167.851 128.315 167.851ZM92.8849 165.188C92.8893 164.923 92.9972 164.67 93.1857 164.483C93.3742 164.296 93.6287 164.188 93.8952 164.184H108.16C108.426 164.188 108.681 164.296 108.869 164.483C109.058 164.67 109.166 164.923 109.17 165.188V167.851H92.902L92.8849 165.188Z" fill="url(#paint7_linear_141_5165)"/>
<path opacity="0.6" d="M128.315 167.851H112.338V165.188C112.336 164.087 111.895 163.033 111.112 162.254C110.329 161.476 109.267 161.038 108.16 161.036H93.8952C92.7878 161.038 91.7263 161.476 90.9432 162.254C90.1601 163.033 89.7192 164.087 89.7169 165.188V167.851H73.7401C73.3904 167.851 73.055 167.989 72.8077 168.235C72.5604 168.481 72.4215 168.814 72.4215 169.162V182.273C72.4232 182.576 72.5297 182.869 72.723 183.103C72.9163 183.337 73.1847 183.498 73.4832 183.558L100.771 188.893C100.941 188.919 101.114 188.919 101.284 188.893L128.572 183.558C128.87 183.498 129.139 183.337 129.332 183.103C129.525 182.869 129.632 182.576 129.633 182.273V169.162C129.633 168.814 129.494 168.481 129.247 168.235C129 167.989 128.665 167.851 128.315 167.851ZM92.8849 165.188C92.8893 164.923 92.9972 164.67 93.1857 164.483C93.3742 164.296 93.6287 164.188 93.8952 164.184H108.16C108.426 164.188 108.681 164.296 108.869 164.483C109.058 164.67 109.166 164.923 109.17 165.188V167.851H92.902L92.8849 165.188Z" fill="white"/>
<path d="M103.845 185.311H98.2107C97.5108 185.311 96.9435 185.875 96.9435 186.57V190.11C96.9435 190.806 97.5108 191.369 98.2107 191.369H103.845C104.544 191.369 105.112 190.806 105.112 190.11V186.57C105.112 185.875 104.544 185.311 103.845 185.311Z" fill="url(#paint8_linear_141_5165)"/>
<path opacity="0.3" d="M103.845 185.311H98.2107C97.5108 185.311 96.9435 185.875 96.9435 186.57V190.11C96.9435 190.806 97.5108 191.369 98.2107 191.369H103.845C104.544 191.369 105.112 190.806 105.112 190.11V186.57C105.112 185.875 104.544 185.311 103.845 185.311Z" fill="white"/>
<path d="M127.185 20.2251H74.8788C74.1411 20.2251 73.5431 20.8194 73.5431 21.5525V43.2326C73.5431 43.9657 74.1411 44.56 74.8788 44.56H127.185C127.922 44.56 128.52 43.9657 128.52 43.2326V21.5525C128.52 20.8194 127.922 20.2251 127.185 20.2251Z" fill="url(#paint9_linear_141_5165)"/>
<path opacity="0.6" d="M127.185 20.2251H74.8788C74.1411 20.2251 73.5431 20.8194 73.5431 21.5525V43.2326C73.5431 43.9657 74.1411 44.56 74.8788 44.56H127.185C127.922 44.56 128.52 43.9657 128.52 43.2326V21.5525C128.52 20.8194 127.922 20.2251 127.185 20.2251Z" fill="white"/>
<path opacity="0.1" d="M127.219 20.2251H74.8788C74.5245 20.2251 74.1848 20.3649 73.9343 20.6139C73.6838 20.8628 73.5431 21.2004 73.5431 21.5525V28.5041L100.771 33.8305C100.94 33.8647 101.115 33.8647 101.284 33.8305L128.52 28.5041V21.5525C128.52 21.2062 128.384 20.8737 128.141 20.6257C127.898 20.3777 127.567 20.234 127.219 20.2251Z" fill="black"/>
<path d="M128.315 11.3251H112.338V8.66183C112.336 7.56128 111.895 6.50644 111.112 5.72823C110.329 4.95002 109.267 4.51183 108.16 4.50958H93.8952C92.7878 4.51183 91.7263 4.95002 90.9432 5.72823C90.1601 6.50644 89.7192 7.56128 89.7169 8.66183V11.3251H73.7401C73.3904 11.3251 73.055 11.4631 72.8077 11.7088C72.5604 11.9546 72.4215 12.2879 72.4215 12.6354V25.7473C72.4216 26.0505 72.5275 26.3442 72.7211 26.5785C72.9147 26.8127 73.184 26.9731 73.4832 27.0321L100.771 32.333C100.94 32.3672 101.115 32.3672 101.284 32.333L128.572 26.9981C128.871 26.939 129.14 26.7787 129.334 26.5444C129.527 26.3101 129.633 26.0164 129.633 25.7133V12.6354C129.633 12.2879 129.494 11.9546 129.247 11.7088C129 11.4631 128.665 11.3251 128.315 11.3251ZM92.8849 8.66183C92.8871 8.39623 92.9943 8.14215 93.1833 7.95433C93.3723 7.76652 93.628 7.66003 93.8952 7.6578H108.16C108.425 7.65999 108.68 7.76531 108.869 7.9513C109.057 8.13728 109.166 8.3892 109.17 8.65332V11.3165H92.902L92.8849 8.66183Z" fill="url(#paint10_linear_141_5165)"/>
<path opacity="0.6" d="M128.315 11.3251H112.338V8.66183C112.336 7.56128 111.895 6.50644 111.112 5.72823C110.329 4.95002 109.267 4.51183 108.16 4.50958H93.8952C92.7878 4.51183 91.7263 4.95002 90.9432 5.72823C90.1601 6.50644 89.7192 7.56128 89.7169 8.66183V11.3251H73.7401C73.3904 11.3251 73.055 11.4631 72.8077 11.7088C72.5604 11.9546 72.4215 12.2879 72.4215 12.6354V25.7473C72.4216 26.0505 72.5275 26.3442 72.7211 26.5785C72.9147 26.8127 73.184 26.9731 73.4832 27.0321L100.771 32.333C100.94 32.3672 101.115 32.3672 101.284 32.333L128.572 26.9981C128.871 26.939 129.14 26.7787 129.334 26.5444C129.527 26.3101 129.633 26.0164 129.633 25.7133V12.6354C129.633 12.2879 129.494 11.9546 129.247 11.7088C129 11.4631 128.665 11.3251 128.315 11.3251ZM92.8849 8.66183C92.8871 8.39623 92.9943 8.14215 93.1833 7.95433C93.3723 7.76652 93.628 7.66003 93.8952 7.6578H108.16C108.425 7.65999 108.68 7.76531 108.869 7.9513C109.057 8.13728 109.166 8.3892 109.17 8.65332V11.3165H92.902L92.8849 8.66183Z" fill="white"/>
<path d="M103.845 28.7934H98.2107C97.5108 28.7934 96.9435 29.3572 96.9435 30.0527V33.5923C96.9435 34.2878 97.5108 34.8516 98.2107 34.8516H103.845C104.544 34.8516 105.112 34.2878 105.112 33.5923V30.0527C105.112 29.3572 104.544 28.7934 103.845 28.7934Z" fill="url(#paint11_linear_141_5165)"/>
<path opacity="0.3" d="M103.845 28.7934H98.2107C97.5108 28.7934 96.9435 29.3572 96.9435 30.0527V33.5923C96.9435 34.2878 97.5108 34.8516 98.2107 34.8516H103.845C104.544 34.8516 105.112 34.2878 105.112 33.5923V30.0527C105.112 29.3572 104.544 28.7934 103.845 28.7934Z" fill="white"/>
<path d="M120.369 122.823H74.8788C74.5223 122.823 74.1804 122.682 73.9283 122.432C73.6762 122.181 73.5345 121.842 73.5345 121.487V99.8156C73.5359 99.6369 73.5737 99.4603 73.6459 99.2966C73.6807 99.2202 73.7207 99.1463 73.7657 99.0754C73.8134 99.0026 73.871 98.9367 73.937 98.8797C74.1864 98.6304 74.5251 98.4897 74.8788 98.4883H117.938C117.579 101.458 117.462 104.451 117.586 107.439C117.586 107.924 117.586 108.409 117.664 108.886C117.723 109.779 117.792 110.681 117.895 111.575C118.335 115.398 119.164 119.166 120.369 122.823Z" fill="url(#paint12_linear_141_5165)"/>
<path opacity="0.6" d="M120.369 122.823H74.8788C74.5223 122.823 74.1804 122.682 73.9283 122.432C73.6762 122.181 73.5345 121.842 73.5345 121.487V99.8156C73.5359 99.6369 73.5737 99.4603 73.6459 99.2966C73.6807 99.2202 73.7207 99.1463 73.7657 99.0754C73.8134 99.0026 73.871 98.9367 73.937 98.8797C74.1864 98.6304 74.5251 98.4897 74.8788 98.4883H117.938C117.579 101.458 117.462 104.451 117.586 107.439C117.586 107.924 117.586 108.409 117.664 108.886C117.723 109.779 117.792 110.681 117.895 111.575C118.335 115.398 119.164 119.166 120.369 122.823Z" fill="white"/>
<path opacity="0.1" d="M117.938 98.4883C117.579 101.458 117.462 104.451 117.586 107.439C117.586 107.924 117.586 108.409 117.664 108.886L105.112 111.336L101.276 112.085C101.11 112.128 100.936 112.128 100.771 112.085L96.9433 111.345L73.5431 106.767V99.8071C73.5458 99.6322 73.5806 99.4591 73.6458 99.2966C73.6806 99.2202 73.7207 99.1463 73.7657 99.0754C73.8134 99.0026 73.871 98.9367 73.9369 98.8797C74.1864 98.6304 74.5251 98.4897 74.8788 98.4883H117.938Z" fill="black"/>
<path d="M119.727 89.5882H112.347V86.925C112.342 85.8236 111.899 84.7688 111.115 83.9908C110.33 83.2129 109.268 82.7749 108.16 82.7727H93.8952C92.7871 82.7727 91.7243 83.2102 90.9407 83.9889C90.1571 84.7676 89.7169 85.8237 89.7169 86.925V89.5882H73.7401C73.5669 89.5882 73.3955 89.6221 73.2355 89.6879C73.0755 89.7538 72.9301 89.8503 72.8077 89.972C72.6853 90.0936 72.5881 90.2381 72.5219 90.3971C72.4556 90.556 72.4215 90.7264 72.4215 90.8985V104.002C72.4216 104.307 72.5284 104.603 72.7236 104.839C72.9188 105.075 73.1903 105.236 73.4918 105.295H73.5431L96.9433 109.881L100.771 110.622C100.937 110.656 101.109 110.656 101.276 110.622L105.112 109.873L117.587 107.431C117.462 104.443 117.579 101.449 117.938 98.4798C118.293 95.473 118.892 92.4995 119.727 89.5882ZM92.8849 86.925C92.8894 86.6608 92.9975 86.4089 93.1863 86.2229C93.375 86.0369 93.6294 85.9316 93.8952 85.9294H108.16C108.425 85.9317 108.678 86.0373 108.866 86.2235C109.053 86.4097 109.159 86.6616 109.161 86.925V89.5882H92.8935L92.8849 86.925Z" fill="url(#paint13_linear_141_5165)"/>
<path opacity="0.6" d="M119.727 89.5882H112.347V86.925C112.342 85.8236 111.899 84.7688 111.115 83.9908C110.33 83.2129 109.268 82.7749 108.16 82.7727H93.8952C92.7871 82.7727 91.7243 83.2102 90.9407 83.9889C90.1571 84.7676 89.7169 85.8237 89.7169 86.925V89.5882H73.7401C73.5669 89.5882 73.3955 89.6221 73.2355 89.6879C73.0755 89.7538 72.9301 89.8503 72.8077 89.972C72.6853 90.0936 72.5881 90.2381 72.5219 90.3971C72.4556 90.556 72.4215 90.7264 72.4215 90.8985V104.002C72.4216 104.307 72.5284 104.603 72.7236 104.839C72.9188 105.075 73.1903 105.236 73.4918 105.295H73.5431L96.9433 109.881L100.771 110.622C100.937 110.656 101.109 110.656 101.276 110.622L105.112 109.873L117.587 107.431C117.462 104.443 117.579 101.449 117.938 98.4798C118.293 95.473 118.892 92.4995 119.727 89.5882ZM92.8849 86.925C92.8894 86.6608 92.9975 86.4089 93.1863 86.2229C93.375 86.0369 93.6294 85.9316 93.8952 85.9294H108.16C108.425 85.9317 108.678 86.0373 108.866 86.2235C109.053 86.4097 109.159 86.6616 109.161 86.925V89.5882H92.8935L92.8849 86.925Z" fill="white"/>
<path d="M103.845 107.048H98.2107C97.5108 107.048 96.9435 107.612 96.9435 108.307V111.847C96.9435 112.542 97.5108 113.106 98.2107 113.106H103.845C104.544 113.106 105.112 112.542 105.112 111.847V108.307C105.112 107.612 104.544 107.048 103.845 107.048Z" fill="url(#paint14_linear_141_5165)"/>
<path opacity="0.3" d="M103.845 107.048H98.2107C97.5108 107.048 96.9435 107.612 96.9435 108.307V111.847C96.9435 112.542 97.5108 113.106 98.2107 113.106H103.845C104.544 113.106 105.112 112.542 105.112 111.847V108.307C105.112 107.612 104.544 107.048 103.845 107.048Z" fill="white"/>
<path d="M237.833 201.078H290.138C290.876 201.078 291.474 200.483 291.474 199.75V178.07C291.474 177.337 290.876 176.743 290.138 176.743H237.833C237.095 176.743 236.497 177.337 236.497 178.07V199.75C236.497 200.483 237.095 201.078 237.833 201.078Z" fill="url(#paint15_linear_141_5165)"/>
<path opacity="0.6" d="M237.833 201.078H290.138C290.876 201.078 291.474 200.483 291.474 199.75V178.07C291.474 177.337 290.876 176.743 290.138 176.743H237.833C237.095 176.743 236.497 177.337 236.497 178.07V199.75C236.497 200.483 237.095 201.078 237.833 201.078Z" fill="white"/>
<path opacity="0.1" d="M237.841 176.751H290.138C290.493 176.751 290.832 176.891 291.083 177.14C291.333 177.389 291.474 177.727 291.474 178.079V185.03L264.212 190.357C264.046 190.391 263.874 190.391 263.707 190.357L236.471 185.03V178.079C236.471 177.901 236.507 177.726 236.576 177.563C236.645 177.399 236.747 177.251 236.875 177.128C237.002 177.004 237.154 176.907 237.32 176.842C237.486 176.778 237.663 176.747 237.841 176.751Z" fill="black"/>
<path d="M236.702 167.851H252.679V165.188C252.682 164.087 253.122 163.033 253.906 162.254C254.689 161.476 255.75 161.038 256.858 161.036H271.131C272.238 161.038 273.3 161.476 274.083 162.254C274.866 163.033 275.307 164.087 275.309 165.188V167.851H291.277C291.45 167.851 291.622 167.885 291.782 167.951C291.942 168.017 292.087 168.113 292.21 168.235C292.332 168.357 292.429 168.501 292.495 168.66C292.562 168.819 292.596 168.99 292.596 169.162V182.273C292.594 182.576 292.488 182.869 292.294 183.103C292.101 183.337 291.833 183.498 291.534 183.558L264.212 188.893C264.042 188.919 263.869 188.919 263.699 188.893L236.411 183.558C236.113 183.498 235.844 183.337 235.651 183.103C235.458 182.869 235.351 182.576 235.35 182.273V169.162C235.35 168.987 235.385 168.813 235.453 168.652C235.522 168.491 235.622 168.345 235.748 168.223C235.874 168.101 236.023 168.005 236.187 167.941C236.351 167.877 236.526 167.847 236.702 167.851ZM272.132 165.188C272.13 164.924 272.024 164.671 271.837 164.483C271.65 164.296 271.396 164.188 271.131 164.184H256.858C256.591 164.188 256.337 164.296 256.148 164.483C255.96 164.67 255.852 164.923 255.847 165.188V167.851H272.115L272.132 165.188Z" fill="url(#paint16_linear_141_5165)"/>
<path opacity="0.6" d="M236.702 167.851H252.679V165.188C252.682 164.087 253.122 163.033 253.906 162.254C254.689 161.476 255.75 161.038 256.858 161.036H271.131C272.238 161.038 273.3 161.476 274.083 162.254C274.866 163.033 275.307 164.087 275.309 165.188V167.851H291.277C291.45 167.851 291.622 167.885 291.782 167.951C291.942 168.017 292.087 168.113 292.21 168.235C292.332 168.357 292.429 168.501 292.495 168.66C292.562 168.819 292.596 168.99 292.596 169.162V182.273C292.594 182.576 292.488 182.869 292.294 183.103C292.101 183.337 291.833 183.498 291.534 183.558L264.212 188.893C264.042 188.919 263.869 188.919 263.699 188.893L236.411 183.558C236.113 183.498 235.844 183.337 235.651 183.103C235.458 182.869 235.351 182.576 235.35 182.273V169.162C235.35 168.987 235.385 168.813 235.453 168.652C235.522 168.491 235.622 168.345 235.748 168.223C235.874 168.101 236.023 168.005 236.187 167.941C236.351 167.877 236.526 167.847 236.702 167.851ZM272.132 165.188C272.13 164.924 272.024 164.671 271.837 164.483C271.65 164.296 271.396 164.188 271.131 164.184H256.858C256.591 164.188 256.337 164.296 256.148 164.483C255.96 164.67 255.852 164.923 255.847 165.188V167.851H272.115L272.132 165.188Z" fill="white"/>
<path d="M261.173 191.369H266.807C267.507 191.369 268.074 190.805 268.074 190.11V186.57C268.074 185.875 267.507 185.311 266.807 185.311H261.173C260.473 185.311 259.906 185.875 259.906 186.57V190.11C259.906 190.805 260.473 191.369 261.173 191.369Z" fill="url(#paint17_linear_141_5165)"/>
<path opacity="0.3" d="M261.173 191.369H266.807C267.507 191.369 268.074 190.805 268.074 190.11V186.57C268.074 185.875 267.507 185.311 266.807 185.311H261.173C260.473 185.311 259.906 185.875 259.906 186.57V190.11C259.906 190.805 260.473 191.369 261.173 191.369Z" fill="white"/>
<path d="M237.833 44.5516L290.138 44.5516C290.876 44.5516 291.474 43.9574 291.474 43.2243V21.5441C291.474 20.811 290.876 20.2167 290.138 20.2167L237.833 20.2167C237.095 20.2167 236.497 20.811 236.497 21.5441V43.2243C236.497 43.9574 237.095 44.5516 237.833 44.5516Z" fill="url(#paint18_linear_141_5165)"/>
<path opacity="0.6" d="M237.833 44.5516L290.138 44.5516C290.876 44.5516 291.474 43.9574 291.474 43.2243V21.5441C291.474 20.811 290.876 20.2167 290.138 20.2167L237.833 20.2167C237.095 20.2167 236.497 20.811 236.497 21.5441V43.2243C236.497 43.9574 237.095 44.5516 237.833 44.5516Z" fill="white"/>
<path opacity="0.1" d="M237.841 20.2251H290.138C290.493 20.2251 290.832 20.3649 291.083 20.6139C291.333 20.8628 291.474 21.2004 291.474 21.5525V28.5041L264.212 33.8305C264.046 33.8644 263.874 33.8644 263.707 33.8305L236.505 28.5041V21.5525C236.505 21.2004 236.646 20.8628 236.897 20.6139C237.147 20.3649 237.487 20.2251 237.841 20.2251Z" fill="black"/>
<path d="M236.702 11.3251H252.679V8.66191C252.681 7.56136 253.122 6.50652 253.905 5.72831C254.689 4.9501 255.75 4.51191 256.857 4.50966H271.13C271.682 4.5063 272.228 4.61116 272.739 4.81822C273.249 5.02528 273.713 5.33046 274.105 5.71626C274.496 6.10205 274.807 6.56086 275.019 7.06635C275.232 7.57185 275.342 8.11407 275.343 8.66191V11.3251H291.311C291.661 11.3251 291.996 11.4632 292.244 11.7089C292.491 11.9547 292.63 12.2879 292.63 12.6355V25.7474C292.63 26.0505 292.524 26.3443 292.33 26.5785C292.137 26.8128 291.867 26.9731 291.568 27.0322L264.212 32.3331C264.043 32.3673 263.868 32.3673 263.699 32.3331L236.411 26.9982C236.112 26.9391 235.843 26.7788 235.649 26.5445C235.455 26.3102 235.35 26.0165 235.349 25.7134V12.6355C235.349 12.4605 235.385 12.2873 235.453 12.126C235.521 11.9648 235.622 11.8188 235.748 11.6967C235.874 11.5745 236.023 11.4787 236.187 11.4149C236.351 11.3511 236.526 11.3206 236.702 11.3251ZM272.132 8.66191C272.132 8.39709 272.027 8.14299 271.839 7.95494C271.652 7.7669 271.397 7.66013 271.13 7.65788H256.857C256.592 7.66006 256.337 7.76539 256.148 7.95137C255.96 8.13736 255.852 8.38928 255.847 8.6534V11.3166H272.115L272.132 8.66191Z" fill="url(#paint19_linear_141_5165)"/>
<path opacity="0.6" d="M236.702 11.3251H252.679V8.66191C252.681 7.56136 253.122 6.50652 253.905 5.72831C254.689 4.9501 255.75 4.51191 256.857 4.50966H271.13C271.682 4.5063 272.228 4.61116 272.739 4.81822C273.249 5.02528 273.713 5.33046 274.105 5.71626C274.496 6.10205 274.807 6.56086 275.019 7.06635C275.232 7.57185 275.342 8.11407 275.343 8.66191V11.3251H291.311C291.661 11.3251 291.996 11.4632 292.244 11.7089C292.491 11.9547 292.63 12.2879 292.63 12.6355V25.7474C292.63 26.0505 292.524 26.3443 292.33 26.5785C292.137 26.8128 291.867 26.9731 291.568 27.0322L264.212 32.3331C264.043 32.3673 263.868 32.3673 263.699 32.3331L236.411 26.9982C236.112 26.9391 235.843 26.7788 235.649 26.5445C235.455 26.3102 235.35 26.0165 235.349 25.7134V12.6355C235.349 12.4605 235.385 12.2873 235.453 12.126C235.521 11.9648 235.622 11.8188 235.748 11.6967C235.874 11.5745 236.023 11.4787 236.187 11.4149C236.351 11.3511 236.526 11.3206 236.702 11.3251ZM272.132 8.66191C272.132 8.39709 272.027 8.14299 271.839 7.95494C271.652 7.7669 271.397 7.66013 271.13 7.65788H256.857C256.592 7.66006 256.337 7.76539 256.148 7.95137C255.96 8.13736 255.852 8.38928 255.847 8.6534V11.3166H272.115L272.132 8.66191Z" fill="white"/>
<path d="M261.173 34.8431H266.807C267.507 34.8431 268.074 34.2793 268.074 33.5838V30.0442C268.074 29.3487 267.507 28.7849 266.807 28.7849H261.173C260.473 28.7849 259.906 29.3487 259.906 30.0442V33.5838C259.906 34.2793 260.473 34.8431 261.173 34.8431Z" fill="url(#paint20_linear_141_5165)"/>
<path opacity="0.3" d="M261.173 34.8431H266.807C267.507 34.8431 268.074 34.2793 268.074 33.5838V30.0442C268.074 29.3487 267.507 28.7849 266.807 28.7849H261.173C260.473 28.7849 259.906 29.3487 259.906 30.0442V33.5838C259.906 34.2793 260.473 34.8431 261.173 34.8431Z" fill="white"/>
<path d="M244.682 122.823H290.147C290.502 122.821 290.842 122.679 291.092 122.429C291.342 122.179 291.483 121.84 291.483 121.487V99.8156C291.481 99.6369 291.443 99.4603 291.371 99.2966C291.34 99.2186 291.3 99.1444 291.251 99.0754C291.204 99.0026 291.146 98.9367 291.08 98.8797C290.957 98.7555 290.811 98.6569 290.649 98.5897C290.487 98.5225 290.314 98.488 290.138 98.4883H247.088C247.446 101.458 247.564 104.451 247.439 107.439C247.439 107.924 247.439 108.409 247.362 108.886C247.311 109.779 247.234 110.681 247.131 111.575C246.699 115.397 245.878 119.165 244.682 122.823Z" fill="url(#paint21_linear_141_5165)"/>
<path opacity="0.6" d="M244.682 122.823H290.147C290.502 122.821 290.842 122.679 291.092 122.429C291.342 122.179 291.483 121.84 291.483 121.487V99.8156C291.481 99.6369 291.443 99.4603 291.371 99.2966C291.34 99.2186 291.3 99.1444 291.251 99.0754C291.204 99.0026 291.146 98.9367 291.08 98.8797C290.957 98.7555 290.811 98.6569 290.649 98.5897C290.487 98.5225 290.314 98.488 290.138 98.4883H247.088C247.446 101.458 247.564 104.451 247.439 107.439C247.439 107.924 247.439 108.409 247.362 108.886C247.311 109.779 247.234 110.681 247.131 111.575C246.699 115.397 245.878 119.165 244.682 122.823Z" fill="white"/>
<path opacity="0.1" d="M247.088 98.4883C247.446 101.458 247.564 104.451 247.439 107.439C247.439 107.924 247.439 108.409 247.362 108.886L259.931 111.336L263.767 112.085C263.933 112.128 264.107 112.128 264.272 112.085L268.1 111.345L291.5 106.767V99.8071C291.497 99.6322 291.462 99.4592 291.397 99.2966C291.366 99.2186 291.325 99.1444 291.277 99.0754C291.23 99.0026 291.172 98.9367 291.106 98.8797C290.983 98.7555 290.836 98.6569 290.675 98.5897C290.513 98.5225 290.339 98.488 290.164 98.4883H247.088Z" fill="black"/>
<path d="M245.29 89.5882H252.679V86.925C252.681 85.8244 253.122 84.7696 253.906 83.9914C254.689 83.2131 255.75 82.775 256.858 82.7727H271.122C272.231 82.7727 273.295 83.2099 274.079 83.9884C274.864 84.7668 275.307 85.8229 275.309 86.925V89.5882H291.277C291.627 89.5882 291.962 89.7262 292.209 89.972C292.457 90.2177 292.596 90.551 292.596 90.8985V104.002C292.596 104.306 292.49 104.601 292.297 104.837C292.103 105.072 291.834 105.234 291.534 105.295H291.474L268.074 109.881L264.212 110.613C264.046 110.647 263.874 110.647 263.707 110.613L259.871 109.864L247.396 107.422C247.639 101.391 246.917 95.3601 245.256 89.5541L245.29 89.5882ZM272.132 86.925C272.128 86.6608 272.02 86.4089 271.831 86.2229C271.642 86.0369 271.388 85.9316 271.122 85.9294H256.858C256.593 85.9317 256.339 86.0373 256.152 86.2235C255.964 86.4097 255.858 86.6616 255.856 86.925V89.5882H272.124L272.132 86.925Z" fill="url(#paint22_linear_141_5165)"/>
<path opacity="0.6" d="M245.29 89.5882H252.679V86.925C252.681 85.8244 253.122 84.7696 253.906 83.9914C254.689 83.2131 255.75 82.775 256.858 82.7727H271.122C272.231 82.7727 273.295 83.2099 274.079 83.9884C274.864 84.7668 275.307 85.8229 275.309 86.925V89.5882H291.277C291.627 89.5882 291.962 89.7262 292.209 89.972C292.457 90.2177 292.596 90.551 292.596 90.8985V104.002C292.596 104.306 292.49 104.601 292.297 104.837C292.103 105.072 291.834 105.234 291.534 105.295H291.474L268.074 109.881L264.212 110.613C264.046 110.647 263.874 110.647 263.707 110.613L259.871 109.864L247.396 107.422C247.639 101.391 246.917 95.3601 245.256 89.5541L245.29 89.5882ZM272.132 86.925C272.128 86.6608 272.02 86.4089 271.831 86.2229C271.642 86.0369 271.388 85.9316 271.122 85.9294H256.858C256.593 85.9317 256.339 86.0373 256.152 86.2235C255.964 86.4097 255.858 86.6616 255.856 86.925V89.5882H272.124L272.132 86.925Z" fill="white"/>
<path d="M261.173 113.115H266.807C267.507 113.115 268.074 112.551 268.074 111.855V108.316C268.074 107.62 267.507 107.056 266.807 107.056H261.173C260.473 107.056 259.906 107.62 259.906 108.316V111.855C259.906 112.551 260.473 113.115 261.173 113.115Z" fill="url(#paint23_linear_141_5165)"/>
<path opacity="0.3" d="M261.173 113.115H266.807C267.507 113.115 268.074 112.551 268.074 111.855V108.316C268.074 107.62 267.507 107.056 266.807 107.056H261.173C260.473 107.056 259.906 107.62 259.906 108.316V111.855C259.906 112.551 260.473 113.115 261.173 113.115Z" fill="white"/>
<path d="M222.857 93.2043H147.699C146.64 93.2043 145.781 94.0576 145.781 95.1102V126.261C145.781 127.313 146.64 128.167 147.699 128.167H222.857C223.917 128.167 224.775 127.313 224.775 126.261V95.1102C224.775 94.0576 223.917 93.2043 222.857 93.2043Z" fill="url(#paint24_linear_141_5165)"/>
<path d="M195.527 87.6396H175.021C173.466 87.6373 171.976 87.0225 170.876 85.93C169.777 84.8374 169.158 83.3562 169.156 81.8111V76.5783C169.158 75.0332 169.777 73.552 170.876 72.4594C171.976 71.3669 173.466 70.7521 175.021 70.7498H195.527C197.083 70.7498 198.575 71.3639 199.674 72.4569C200.774 73.55 201.392 75.0325 201.392 76.5783V81.7856C201.396 82.5532 201.246 83.3138 200.953 84.0239C200.66 84.734 200.229 85.3795 199.684 85.9235C199.139 86.4674 198.491 86.899 197.778 87.1935C197.064 87.488 196.3 87.6396 195.527 87.6396ZM175.021 75.0297C174.608 75.0341 174.214 75.1984 173.921 75.4876C173.628 75.7768 173.461 76.1682 173.454 76.5783V81.7856C173.454 82.2031 173.621 82.6035 173.918 82.8987C174.215 83.1939 174.618 83.3597 175.038 83.3597H195.544C195.964 83.3597 196.367 83.1939 196.664 82.8987C196.961 82.6035 197.128 82.2031 197.128 81.7856V76.5783C197.128 76.1608 196.961 75.7604 196.664 75.4652C196.367 75.17 195.964 75.0042 195.544 75.0042L175.021 75.0297Z" fill="url(#paint25_linear_141_5165)"/>
<path opacity="0.2" d="M222.849 93.2043H147.708C147.455 93.2032 147.205 93.2517 146.971 93.3469C146.738 93.4422 146.525 93.5824 146.346 93.7595C146.167 93.9366 146.025 94.1471 145.928 94.3789C145.831 94.6107 145.781 94.8592 145.781 95.1103V105.108L184.91 112.766C185.15 112.818 185.398 112.818 185.638 112.766L224.775 105.108V95.1103C224.775 94.8592 224.725 94.6107 224.629 94.3789C224.532 94.1471 224.39 93.9366 224.211 93.7595C224.032 93.5824 223.819 93.4422 223.585 93.3469C223.352 93.2517 223.101 93.2032 222.849 93.2043Z" fill="black"/>
<path d="M224.827 102.955L185.621 110.613C185.377 110.656 185.128 110.656 184.885 110.613L145.679 102.955C145.248 102.871 144.86 102.641 144.581 102.304C144.301 101.967 144.148 101.545 144.146 101.109V82.3045C144.146 82.0576 144.195 81.8131 144.29 81.5849C144.385 81.3568 144.525 81.1495 144.7 80.9749C144.876 80.8003 145.085 80.6618 145.314 80.5673C145.544 80.4728 145.79 80.4241 146.038 80.4241H224.484C224.733 80.4241 224.979 80.4728 225.208 80.5673C225.438 80.6618 225.647 80.8003 225.822 80.9749C225.998 81.1495 226.137 81.3568 226.232 81.5849C226.328 81.8131 226.376 82.0576 226.376 82.3045V101.143C226.368 101.576 226.209 101.993 225.927 102.323C225.644 102.654 225.256 102.877 224.827 102.955Z" fill="url(#paint26_linear_141_5165)"/>
<path d="M189.337 105.516H181.228C180.226 105.516 179.413 106.324 179.413 107.32V112.417C179.413 113.413 180.226 114.221 181.228 114.221H189.337C190.339 114.221 191.152 113.413 191.152 112.417V107.32C191.152 106.324 190.339 105.516 189.337 105.516Z" fill="url(#paint27_linear_141_5165)"/>
<path opacity="0.4" d="M189.337 105.516H181.228C180.226 105.516 179.413 106.324 179.413 107.32V112.417C179.413 113.413 180.226 114.221 181.228 114.221H189.337C190.339 114.221 191.152 113.413 191.152 112.417V107.32C191.152 106.324 190.339 105.516 189.337 105.516Z" fill="black"/>
<path d="M326.701 112.635C327.686 114.652 328.413 116.558 329.27 118.549C330.126 120.54 330.751 122.522 331.419 124.556C332.773 128.679 333.772 132.909 334.407 137.2C334.493 137.736 334.535 138.315 334.595 138.902L334.681 139.753C334.681 139.906 334.681 140.016 334.681 140.195V140.748C334.71 142.038 334.598 143.328 334.347 144.594C333.922 146.795 333.318 148.957 332.54 151.061C331.078 155.059 329.256 158.918 327.095 162.59L322.745 160.761C323.713 156.881 324.689 152.924 325.425 149.104C325.785 147.273 326.04 145.424 326.187 143.564C326.238 142.804 326.221 142.041 326.136 141.284L326.042 140.748L325.922 140.067C325.828 139.616 325.768 139.166 325.656 138.706C324.803 134.95 323.699 131.255 322.351 127.645C321.701 125.798 320.982 123.96 320.262 122.114C319.543 120.268 318.747 118.413 318.01 116.711L326.701 112.635Z" fill="#D9A6A3"/>
<path d="M322.863 159.487L319.523 162.72L326.81 166.124C326.81 166.124 328.574 163.061 327.358 160.287L322.863 159.487Z" fill="#D9A6A3"/>
<path d="M316.835 167.545L322.983 170.046L326.81 166.09L319.523 162.72L316.835 167.545Z" fill="#7F3E3B"/>
<path opacity="0.2" d="M192.128 164.056C204.244 162.708 215.685 157.82 225.006 150.01C234.326 142.2 241.107 131.819 244.491 120.179C247.875 108.54 247.711 96.1649 244.018 84.6186C240.325 73.0722 233.271 62.8732 223.746 55.3109C214.221 47.7487 202.653 43.1629 190.506 42.1332C178.358 41.1036 166.177 43.6764 155.5 49.5264C144.824 55.3763 136.133 64.2407 130.526 74.9988C124.919 85.7569 122.648 97.9257 124 109.966C124.898 117.964 127.372 125.708 131.282 132.755C135.192 139.802 140.461 146.015 146.788 151.038C153.115 156.061 160.375 159.796 168.155 162.029C175.934 164.263 184.081 164.952 192.128 164.056Z" fill="url(#paint28_linear_141_5165)"/>
<path opacity="0.1" d="M147.271 54.9152L241.026 129.332C241.429 128.481 241.805 127.631 242.173 126.78C244.523 121.224 246.024 115.35 246.626 109.354L165.645 45.0961C159 47.2986 152.785 50.62 147.271 54.9152Z" fill="white"/>
<path opacity="0.1" d="M125.644 87.529L213.782 157.513C222.157 153.172 229.416 146.978 234.999 139.407L138.744 62.9644C132.54 70.0467 128.058 78.4513 125.644 87.529Z" fill="white"/>
<path d="M337.136 171.978C337.023 170.429 336.513 168.935 335.654 167.638C335.031 166.684 334.157 165.917 333.129 165.418L327.281 162.567C323.394 160.653 319.481 158.789 315.568 156.926C311.655 155.063 307.716 153.233 303.795 151.387C299.874 149.54 295.918 147.745 291.954 145.984C284.042 142.421 276.079 138.956 268.065 135.586C264.058 133.884 260.043 132.251 255.993 130.651C254.81 130.188 253.849 129.296 253.304 128.156C252.759 127.015 252.67 125.711 253.056 124.508C258.477 107.523 257.243 89.1299 249.6 73.0108C241.957 56.8918 228.47 44.2361 211.838 37.5774C195.207 30.9186 176.658 30.748 159.905 37.0999C143.153 43.4517 129.432 55.8572 121.491 71.833C113.549 87.8087 111.972 106.176 117.076 123.258C122.18 140.339 133.588 154.875 149.016 163.955C164.444 173.035 182.753 175.989 200.28 172.226C217.806 168.463 233.255 158.261 243.535 143.661C244.263 142.623 245.36 141.899 246.605 141.635C247.849 141.371 249.149 141.588 250.239 142.24C253.984 144.452 257.745 146.628 261.524 148.766C269.076 153.043 276.684 157.212 284.35 161.274C288.178 163.333 292.056 165.316 295.866 167.332C299.677 169.349 303.572 171.314 307.451 173.288C311.33 175.262 315.157 177.194 319.087 179.1L324.918 181.976C325.942 182.487 327.088 182.711 328.231 182.622C329.787 182.513 331.288 182.006 332.589 181.15C334.141 180.203 335.391 178.84 336.195 177.216C337 175.593 337.326 173.777 337.136 171.978ZM160.44 153.157C150.486 148.276 142.213 140.571 136.666 131.018C131.119 121.464 128.548 110.49 129.277 99.4839C130.006 88.4777 134.003 77.9337 140.763 69.1852C147.522 60.4367 156.741 53.8767 167.252 50.3348C177.763 46.793 189.096 46.4284 199.816 49.2871C210.536 52.1458 220.162 58.0995 227.476 66.3951C234.791 74.6908 239.466 84.9558 240.911 95.892C242.355 106.828 240.503 117.944 235.589 127.835C232.328 134.401 227.798 140.265 222.256 145.092C216.715 149.918 210.271 153.612 203.292 155.964C196.314 158.315 188.938 159.277 181.585 158.796C174.232 158.314 167.047 156.398 160.44 153.157Z" fill="url(#paint29_linear_141_5165)"/>
<path d="M294.342 86.1932C294.342 86.6952 294.077 87.1036 293.743 87.1036C293.409 87.1036 293.144 86.6952 293.144 86.1932C293.144 85.6912 293.409 85.2742 293.743 85.2742C294.077 85.2742 294.342 85.6826 294.342 86.1932Z" fill="#263238"/>
<path d="M294.19 87.2455C293.589 88.7869 292.776 90.2385 291.776 91.5595C292.122 91.8057 292.519 91.9736 292.937 92.0515C293.356 92.1294 293.786 92.1154 294.199 92.0104L294.19 87.2455Z" fill="#CB9494"/>
<path d="M296.14 83.3853C296.203 83.3836 296.263 83.3627 296.312 83.3255C296.362 83.2883 296.399 83.2367 296.418 83.1778C296.436 83.1188 296.436 83.0556 296.417 82.9967C296.398 82.9379 296.361 82.8863 296.312 82.8493C295.933 82.5675 295.493 82.3789 295.027 82.299C294.561 82.2192 294.083 82.2503 293.632 82.3898C293.591 82.4008 293.554 82.42 293.521 82.4463C293.489 82.4727 293.462 82.5054 293.443 82.5426C293.424 82.5797 293.413 82.6204 293.411 82.662C293.409 82.7036 293.416 82.7452 293.431 82.7841C293.446 82.8229 293.469 82.8582 293.499 82.8877C293.528 82.9171 293.564 82.9401 293.603 82.9551C293.642 82.97 293.684 82.9767 293.726 82.9746C293.767 82.9725 293.808 82.9617 293.846 82.9429C294.205 82.8366 294.585 82.8159 294.953 82.8825C295.322 82.949 295.67 83.1008 295.969 83.3258C296.017 83.365 296.078 83.3861 296.14 83.3853Z" fill="#263238"/>
<path d="M311.734 90.1299C310.827 94.7076 309.928 103.089 313.147 106.135C313.147 106.135 311.888 110.772 303.343 110.772C293.925 110.772 298.848 106.135 298.848 106.135C303.986 104.918 303.849 101.132 302.95 97.6261L311.734 90.1299Z" fill="#D9A6A3"/>
<path d="M314.729 103.126C315.44 103.355 314.515 107.559 314.515 107.559C314.515 107.559 313.342 110.494 298.769 109.473C297.648 109.388 298.076 105.355 299.146 104.768C302.596 102.896 312.434 102.377 314.729 103.126Z" fill="#263238"/>
<path d="M344.328 278.924C345.116 278.847 346.263 277.409 346.588 276.882C346.603 276.859 346.61 276.832 346.61 276.805C346.61 276.778 346.603 276.751 346.588 276.728C346.574 276.703 346.553 276.683 346.527 276.671C346.5 276.659 346.471 276.655 346.443 276.66C346.357 276.66 344.285 277.052 343.78 277.852C343.727 277.935 343.691 278.03 343.677 278.128C343.662 278.226 343.668 278.326 343.694 278.422C343.806 278.796 344.02 278.898 344.191 278.924H344.328ZM346.134 277.026C345.578 277.792 344.662 278.685 344.225 278.626C344.182 278.626 344.054 278.626 343.977 278.337C343.96 278.281 343.956 278.222 343.965 278.165C343.974 278.108 343.995 278.053 344.028 278.005C344.618 277.48 345.351 277.14 346.134 277.026Z" fill="url(#paint30_linear_141_5165)"/>
<path d="M346.049 277.026C346.202 277.013 346.354 276.988 346.503 276.95C346.528 276.942 346.551 276.927 346.569 276.908C346.587 276.888 346.599 276.865 346.606 276.839C346.611 276.813 346.608 276.785 346.599 276.76C346.59 276.735 346.575 276.712 346.554 276.694C346.503 276.643 345.116 275.469 344.174 275.563C344.061 275.57 343.95 275.601 343.85 275.654C343.749 275.707 343.662 275.78 343.592 275.869C343.511 275.946 343.461 276.05 343.45 276.16C343.439 276.271 343.468 276.382 343.532 276.473C343.84 276.958 345.193 277.111 346.049 277.026ZM346.118 276.729C345.261 276.831 344.011 276.66 343.772 276.312C343.772 276.312 343.703 276.201 343.823 276.048C343.871 275.992 343.93 275.945 343.996 275.912C344.062 275.878 344.134 275.858 344.208 275.852C344.918 275.95 345.583 276.255 346.118 276.729Z" fill="url(#paint31_linear_141_5165)"/>
<path d="M285.463 301.301C286.112 301.299 286.759 301.242 287.398 301.131C287.427 301.124 287.453 301.108 287.474 301.088C287.495 301.067 287.51 301.041 287.518 301.012C287.524 300.982 287.519 300.951 287.505 300.923C287.491 300.896 287.469 300.873 287.441 300.859C287.347 300.799 285.155 299.557 284.102 299.838C283.905 299.888 283.736 300.013 283.631 300.187C283.564 300.281 283.528 300.394 283.528 300.51C283.528 300.626 283.564 300.739 283.631 300.834C283.905 301.208 284.659 301.301 285.463 301.301ZM286.919 300.91C285.746 301.072 284.153 301.063 283.862 300.663C283.82 300.612 283.785 300.519 283.862 300.332C283.894 300.279 283.936 300.234 283.986 300.199C284.036 300.163 284.093 300.139 284.153 300.127C284.83 299.949 286.148 300.519 286.919 300.91Z" fill="url(#paint32_linear_141_5165)"/>
<path d="M287.33 301.132C287.361 301.14 287.394 301.14 287.424 301.132C287.444 301.115 287.46 301.094 287.47 301.07C287.481 301.047 287.485 301.021 287.484 300.996C287.484 300.927 287.305 299.243 286.508 298.588C286.39 298.49 286.254 298.417 286.106 298.373C285.959 298.329 285.805 298.315 285.652 298.332C285.241 298.375 285.13 298.579 285.096 298.749C284.984 299.455 286.491 300.808 287.245 301.149L287.33 301.132ZM285.798 298.579C285.989 298.584 286.173 298.653 286.32 298.775C286.795 299.314 287.094 299.985 287.176 300.698C286.397 300.238 285.378 299.175 285.464 298.749C285.464 298.749 285.464 298.613 285.755 298.588L285.798 298.579Z" fill="url(#paint33_linear_141_5165)"/>
<path d="M294.282 300.987H287.998L287.364 286.505H293.657L294.282 300.987Z" fill="#E69F9C"/>
<path d="M352.085 272.304L347.179 276.209L334.696 267.598L339.61 263.693L352.085 272.304Z" fill="#E69F9C"/>
<path d="M346.28 275.963L351.298 271.019C351.388 270.933 351.504 270.88 351.628 270.867C351.752 270.855 351.877 270.885 351.983 270.951L356.803 274.031C356.92 274.106 357.018 274.207 357.09 274.326C357.162 274.444 357.206 274.577 357.218 274.715C357.23 274.853 357.211 274.992 357.161 275.121C357.112 275.25 357.033 275.366 356.931 275.461C355.151 277.163 354.2 277.894 351.991 280.064C350.638 281.408 347.325 285.407 345.45 287.254C343.575 289.1 341.485 287.501 342.093 286.573C344.79 282.438 345.707 279.026 345.826 276.95C345.852 276.577 346.013 276.226 346.28 275.963Z" fill="#263238"/>
<path d="M288.032 300.264H294.882C295.006 300.263 295.127 300.305 295.224 300.382C295.32 300.46 295.387 300.568 295.413 300.689L296.654 306.245C296.685 306.379 296.686 306.518 296.655 306.651C296.624 306.785 296.563 306.91 296.476 307.016C296.39 307.123 296.28 307.209 296.155 307.267C296.03 307.325 295.893 307.354 295.755 307.351C293.272 307.351 289.693 307.173 286.577 307.173C282.938 307.173 279.795 307.368 275.523 307.368C272.954 307.368 272.227 304.773 273.305 304.535C278.229 303.471 282.244 303.352 286.491 300.749C286.949 300.447 287.483 300.279 288.032 300.264Z" fill="#263238"/>
<path d="M325.474 107.865C330.928 110.417 333.18 127.911 333.18 127.911L320.637 132.804C318.69 128.067 317.112 123.189 315.919 118.211C314.164 110.315 319.866 105.21 325.474 107.865Z" fill="url(#paint34_linear_141_5165)"/>
<path opacity="0.3" d="M325.474 107.865C330.928 110.417 333.18 127.911 333.18 127.911L320.637 132.804C318.69 128.067 317.112 123.189 315.919 118.211C314.164 110.315 319.866 105.21 325.474 107.865Z" fill="white"/>
<path opacity="0.2" d="M317.349 112.996C316.921 112.789 316.474 112.627 316.013 112.51C315.513 114.376 315.495 116.337 315.962 118.211C317.15 123.189 318.725 128.068 320.671 132.804L324.806 131.196C324.044 126.626 321.707 115.072 317.349 112.996Z" fill="black"/>
<path d="M289.102 107.729C289.102 107.729 282.407 115.242 288.726 161.759H322.375C322.606 156.654 319.361 131.587 324.344 107.405C320.623 106.694 316.859 106.222 313.076 105.993C308.314 105.72 303.54 105.72 298.778 105.993C295.512 106.32 292.277 106.9 289.102 107.729Z" fill="url(#paint35_linear_141_5165)"/>
<path opacity="0.3" d="M289.102 107.729C289.102 107.729 282.407 115.242 288.726 161.759H322.375C322.606 156.654 319.361 131.587 324.344 107.405C320.623 106.694 316.859 106.222 313.076 105.993C308.314 105.72 303.54 105.72 298.778 105.993C295.512 106.32 292.277 106.9 289.102 107.729Z" fill="white"/>
<path opacity="0.2" d="M295.892 117.701C294.368 113.157 290.704 111.702 286.97 114.399C286.217 118.807 285.686 125.912 286.294 137.177L292.861 137.118C292.861 137.118 298.144 124.465 295.892 117.701Z" fill="black"/>
<path d="M294.73 115.979C294.456 118.26 294.079 120.327 293.66 122.48C293.24 124.633 292.752 126.734 292.196 128.853C291.097 133.183 289.601 137.404 287.726 141.463C287.238 142.509 286.673 143.539 286.074 144.569C285.766 145.088 285.457 145.607 285.106 146.117C284.651 146.827 284.114 147.481 283.505 148.066C282.324 149.154 280.923 149.981 279.395 150.491C278.155 150.922 276.872 151.222 275.568 151.384C273.241 151.671 270.889 151.699 268.556 151.469C267.414 151.378 266.301 151.234 265.216 151.035C264.103 150.839 263.05 150.635 261.903 150.337L262.459 145.675C266.367 145.512 270.247 144.941 274.035 143.973C274.806 143.746 275.554 143.45 276.27 143.088C276.74 142.874 277.152 142.55 277.469 142.144C277.4 142.203 278.025 141.174 278.394 140.442C278.762 139.71 279.173 138.74 279.524 137.889C280.243 136.136 280.859 134.282 281.425 132.384C281.99 130.487 282.486 128.555 282.949 126.598C283.411 124.641 283.805 122.667 284.233 120.642C284.661 118.617 284.969 116.609 285.277 114.729L294.73 115.979Z" fill="#D9A6A3"/>
<path d="M297.51 112.315C299.283 118.024 292.09 135.042 292.09 135.042L276.944 131.255C277.871 125.876 279.432 120.624 281.593 115.608C286.474 104.989 295.378 105.431 297.51 112.315Z" fill="url(#paint36_linear_141_5165)"/>
<path opacity="0.3" d="M297.51 112.315C299.283 118.024 292.09 135.042 292.09 135.042L276.944 131.255C277.871 125.876 279.432 120.624 281.593 115.608C286.474 104.989 295.378 105.431 297.51 112.315Z" fill="white"/>
<path d="M262.673 145.7L255.55 145.522L258.975 152.882C258.975 152.882 261.869 153.264 264.249 149.376L266.758 146.406L263.872 145.828C263.477 145.751 263.076 145.709 262.673 145.7Z" fill="#D9A6A3"/>
<path d="M251.055 146.891L255.139 152.992L258.983 152.882L255.55 145.522L251.055 146.891Z" fill="#D9A6A3"/>
<path opacity="0.2" d="M287.373 286.513L287.69 293.976H293.983L293.658 286.513H287.373Z" fill="black"/>
<path opacity="0.2" d="M339.61 263.693L334.696 267.598L341.134 272.04L346.049 268.135L339.61 263.693Z" fill="black"/>
<path d="M311.375 85.2289C310.998 91.4232 311.101 95.065 307.95 98.2472C303.224 103.029 295.526 100.204 294.037 93.9929C292.692 88.4282 293.54 79.2388 299.636 76.7627C300.98 76.2101 302.445 76.0092 303.89 76.1791C305.334 76.349 306.711 76.884 307.888 77.7332C309.066 78.5823 310.004 79.7172 310.615 81.0294C311.225 82.3417 311.487 83.7875 311.375 85.2289Z" fill="#D9A6A3"/>
<path d="M316.338 79.3351C316.338 79.3351 319.618 80.3051 318.59 84.0234C317.041 89.6732 313.393 96.1738 308.684 96.5823C302.819 97.1013 300.173 91.0857 299.403 84.8658C295.892 82.4748 293.289 80.2371 294.128 77.7525C295.413 73.9236 300.071 70.6222 307.485 71.4731C314.9 72.324 318.59 77.0888 316.338 79.3351Z" fill="#263238"/>
<path d="M303.044 86.284C302.93 87.8203 302.31 89.2766 301.28 90.4278C299.91 91.9253 298.472 90.9893 298.232 89.1685C298.018 87.5178 298.463 84.7525 300.141 83.9271C301.819 83.1018 303.155 84.4291 303.044 86.284Z" fill="#D9A6A3"/>
<path d="M300.661 161.759C300.661 161.759 298.538 203.894 302.673 221.745C309.223 250.011 338.018 272.661 338.018 272.661L347.265 265.301C347.265 265.301 323.573 247.782 321.441 224.247C319.532 203.111 322.357 178.836 322.357 161.759H300.661Z" fill="url(#paint37_linear_141_5165)"/>
<path opacity="0.2" d="M300.661 161.759C300.661 161.759 298.538 203.894 302.673 221.745C309.223 250.011 338.018 272.661 338.018 272.661L347.265 265.301C347.265 265.301 323.573 247.782 321.441 224.247C319.532 203.111 322.357 178.836 322.357 161.759H300.661Z" fill="black"/>
<path opacity="0.2" d="M303.821 174.241C302.965 172.599 301.295 177.492 300.13 183.771C300.13 192.433 300.285 202.286 301.047 210.633C306.86 199.955 305.627 177.645 303.821 174.241Z" fill="black"/>
<path d="M333.822 270.849L337.333 273.555L348.01 264.952L344.808 262.068L333.822 270.849Z" fill="#2C6BDB"/>
<path opacity="0.4" d="M333.822 270.849L337.333 273.555L348.01 264.952L344.808 262.068L333.822 270.849Z" fill="#FAFAFA"/>
<path d="M288.726 161.759C288.726 161.759 279.256 201.665 278.588 220.724C277.843 242.107 285.344 292.529 285.344 292.529H296.003C296.003 292.529 297.313 241.715 297.793 222.239C298.307 201.009 310.842 161.759 310.842 161.759H288.726Z" fill="url(#paint38_linear_141_5165)"/>
<path opacity="0.2" d="M288.726 161.759C288.726 161.759 279.256 201.665 278.588 220.724C277.843 242.107 285.344 292.529 285.344 292.529H296.003C296.003 292.529 297.313 241.715 297.793 222.239C298.307 201.009 310.842 161.759 310.842 161.759H288.726Z" fill="black"/>
<path d="M283.297 288.309C283.246 288.309 283.897 292.708 283.897 292.708H296.86L297.211 288.785L283.297 288.309Z" fill="#2C6BDB"/>
<path opacity="0.4" d="M283.297 288.309C283.246 288.309 283.897 292.708 283.897 292.708H296.86L297.211 288.785L283.297 288.309Z" fill="#FAFAFA"/>
<defs>
<linearGradient id="paint0_linear_141_5165" x1="155.02" y1="188.919" x2="209.997" y2="188.919" gradientUnits="userSpaceOnUse">
<stop stop-color="#F6D365"/>
<stop offset="1" stop-color="#FDA085"/>
</linearGradient>
<linearGradient id="paint1_linear_141_5165" x1="153.907" y1="174.974" x2="211.119" y2="174.974" gradientUnits="userSpaceOnUse">
<stop stop-color="#F6D365"/>
<stop offset="1" stop-color="#FDA085"/>
</linearGradient>
<linearGradient id="paint2_linear_141_5165" x1="178.429" y1="188.34" x2="186.597" y2="188.34" gradientUnits="userSpaceOnUse">
<stop stop-color="#F6D365"/>
<stop offset="1" stop-color="#FDA085"/>
</linearGradient>
<linearGradient id="paint3_linear_141_5165" x1="155.02" y1="32.3925" x2="209.997" y2="32.3925" gradientUnits="userSpaceOnUse">
<stop stop-color="#F6D365"/>
<stop offset="1" stop-color="#FDA085"/>
</linearGradient>
<linearGradient id="paint4_linear_141_5165" x1="153.907" y1="18.4341" x2="211.127" y2="18.4341" gradientUnits="userSpaceOnUse">
<stop stop-color="#F6D365"/>
<stop offset="1" stop-color="#FDA085"/>
</linearGradient>
<linearGradient id="paint5_linear_141_5165" x1="178.429" y1="31.8225" x2="186.597" y2="31.8225" gradientUnits="userSpaceOnUse">
<stop stop-color="#F6D365"/>
<stop offset="1" stop-color="#FDA085"/>
</linearGradient>
<linearGradient id="paint6_linear_141_5165" x1="73.5431" y1="188.919" x2="128.52" y2="188.919" gradientUnits="userSpaceOnUse">
<stop stop-color="#F6D365"/>
<stop offset="1" stop-color="#FDA085"/>
</linearGradient>
<linearGradient id="paint7_linear_141_5165" x1="72.4215" y1="174.974" x2="129.633" y2="174.974" gradientUnits="userSpaceOnUse">
<stop stop-color="#F6D365"/>
<stop offset="1" stop-color="#FDA085"/>
</linearGradient>
<linearGradient id="paint8_linear_141_5165" x1="96.9435" y1="188.34" x2="105.112" y2="188.34" gradientUnits="userSpaceOnUse">
<stop stop-color="#F6D365"/>
<stop offset="1" stop-color="#FDA085"/>
</linearGradient>
<linearGradient id="paint9_linear_141_5165" x1="73.5431" y1="32.3925" x2="128.52" y2="32.3925" gradientUnits="userSpaceOnUse">
<stop stop-color="#F6D365"/>
<stop offset="1" stop-color="#FDA085"/>
</linearGradient>
<linearGradient id="paint10_linear_141_5165" x1="72.4215" y1="18.4341" x2="129.633" y2="18.4341" gradientUnits="userSpaceOnUse">
<stop stop-color="#F6D365"/>
<stop offset="1" stop-color="#FDA085"/>
</linearGradient>
<linearGradient id="paint11_linear_141_5165" x1="96.9435" y1="31.8225" x2="105.112" y2="31.8225" gradientUnits="userSpaceOnUse">
<stop stop-color="#F6D365"/>
<stop offset="1" stop-color="#FDA085"/>
</linearGradient>
<linearGradient id="paint12_linear_141_5165" x1="73.5345" y1="110.656" x2="120.369" y2="110.656" gradientUnits="userSpaceOnUse">
<stop stop-color="#F6D365"/>
<stop offset="1" stop-color="#FDA085"/>
</linearGradient>
<linearGradient id="paint13_linear_141_5165" x1="72.4215" y1="96.7099" x2="119.727" y2="96.7099" gradientUnits="userSpaceOnUse">
<stop stop-color="#F6D365"/>
<stop offset="1" stop-color="#FDA085"/>
</linearGradient>
<linearGradient id="paint14_linear_141_5165" x1="96.9435" y1="110.077" x2="105.112" y2="110.077" gradientUnits="userSpaceOnUse">
<stop stop-color="#F6D365"/>
<stop offset="1" stop-color="#FDA085"/>
</linearGradient>
<linearGradient id="paint15_linear_141_5165" x1="291.474" y1="188.91" x2="236.497" y2="188.91" gradientUnits="userSpaceOnUse">
<stop stop-color="#F6D365"/>
<stop offset="1" stop-color="#FDA085"/>
</linearGradient>
<linearGradient id="paint16_linear_141_5165" x1="235.35" y1="174.974" x2="292.596" y2="174.974" gradientUnits="userSpaceOnUse">
<stop stop-color="#F6D365"/>
<stop offset="1" stop-color="#FDA085"/>
</linearGradient>
<linearGradient id="paint17_linear_141_5165" x1="268.074" y1="188.34" x2="259.906" y2="188.34" gradientUnits="userSpaceOnUse">
<stop stop-color="#F6D365"/>
<stop offset="1" stop-color="#FDA085"/>
</linearGradient>
<linearGradient id="paint18_linear_141_5165" x1="291.474" y1="32.3842" x2="236.497" y2="32.3842" gradientUnits="userSpaceOnUse">
<stop stop-color="#F6D365"/>
<stop offset="1" stop-color="#FDA085"/>
</linearGradient>
<linearGradient id="paint19_linear_141_5165" x1="235.349" y1="18.4342" x2="292.63" y2="18.4342" gradientUnits="userSpaceOnUse">
<stop stop-color="#F6D365"/>
<stop offset="1" stop-color="#FDA085"/>
</linearGradient>
<linearGradient id="paint20_linear_141_5165" x1="268.074" y1="31.814" x2="259.906" y2="31.814" gradientUnits="userSpaceOnUse">
<stop stop-color="#F6D365"/>
<stop offset="1" stop-color="#FDA085"/>
</linearGradient>
<linearGradient id="paint21_linear_141_5165" x1="244.682" y1="110.656" x2="291.483" y2="110.656" gradientUnits="userSpaceOnUse">
<stop stop-color="#F6D365"/>
<stop offset="1" stop-color="#FDA085"/>
</linearGradient>
<linearGradient id="paint22_linear_141_5165" x1="245.256" y1="96.7057" x2="292.596" y2="96.7057" gradientUnits="userSpaceOnUse">
<stop stop-color="#F6D365"/>
<stop offset="1" stop-color="#FDA085"/>
</linearGradient>
<linearGradient id="paint23_linear_141_5165" x1="268.074" y1="110.086" x2="259.906" y2="110.086" gradientUnits="userSpaceOnUse">
<stop stop-color="#F6D365"/>
<stop offset="1" stop-color="#FDA085"/>
</linearGradient>
<linearGradient id="paint24_linear_141_5165" x1="145.781" y1="110.685" x2="224.775" y2="110.685" gradientUnits="userSpaceOnUse">
<stop stop-color="#F6D365"/>
<stop offset="1" stop-color="#FDA085"/>
</linearGradient>
<linearGradient id="paint25_linear_141_5165" x1="169.156" y1="79.1947" x2="201.392" y2="79.1947" gradientUnits="userSpaceOnUse">
<stop stop-color="#F6D365"/>
<stop offset="1" stop-color="#FDA085"/>
</linearGradient>
<linearGradient id="paint26_linear_141_5165" x1="144.146" y1="95.5345" x2="226.376" y2="95.5345" gradientUnits="userSpaceOnUse">
<stop stop-color="#F6D365"/>
<stop offset="1" stop-color="#FDA085"/>
</linearGradient>
<linearGradient id="paint27_linear_141_5165" x1="179.413" y1="109.869" x2="191.152" y2="109.869" gradientUnits="userSpaceOnUse">
<stop stop-color="#F6D365"/>
<stop offset="1" stop-color="#FDA085"/>
</linearGradient>
<linearGradient id="paint28_linear_141_5165" x1="123.62" y1="103.174" x2="246.914" y2="103.174" gradientUnits="userSpaceOnUse">
<stop stop-color="#F6D365"/>
<stop offset="1" stop-color="#FDA085"/>
</linearGradient>
<linearGradient id="paint29_linear_141_5165" x1="114.134" y1="107.549" x2="337.188" y2="107.549" gradientUnits="userSpaceOnUse">
<stop stop-color="#F6D365"/>
<stop offset="1" stop-color="#FDA085"/>
</linearGradient>
<linearGradient id="paint30_linear_141_5165" x1="343.669" y1="277.791" x2="346.61" y2="277.791" gradientUnits="userSpaceOnUse">
<stop stop-color="#F6D365"/>
<stop offset="1" stop-color="#FDA085"/>
</linearGradient>
<linearGradient id="paint31_linear_141_5165" x1="343.448" y1="276.303" x2="346.608" y2="276.303" gradientUnits="userSpaceOnUse">
<stop stop-color="#F6D365"/>
<stop offset="1" stop-color="#FDA085"/>
</linearGradient>
<linearGradient id="paint32_linear_141_5165" x1="283.528" y1="300.549" x2="287.52" y2="300.549" gradientUnits="userSpaceOnUse">
<stop stop-color="#F6D365"/>
<stop offset="1" stop-color="#FDA085"/>
</linearGradient>
<linearGradient id="paint33_linear_141_5165" x1="285.09" y1="299.737" x2="287.484" y2="299.737" gradientUnits="userSpaceOnUse">
<stop stop-color="#F6D365"/>
<stop offset="1" stop-color="#FDA085"/>
</linearGradient>
<linearGradient id="paint34_linear_141_5165" x1="315.595" y1="119.98" x2="333.18" y2="119.98" gradientUnits="userSpaceOnUse">
<stop stop-color="#F6D365"/>
<stop offset="1" stop-color="#FDA085"/>
</linearGradient>
<linearGradient id="paint35_linear_141_5165" x1="286.012" y1="133.774" x2="324.344" y2="133.774" gradientUnits="userSpaceOnUse">
<stop stop-color="#F6D365"/>
<stop offset="1" stop-color="#FDA085"/>
</linearGradient>
<linearGradient id="paint36_linear_141_5165" x1="276.944" y1="121.198" x2="297.791" y2="121.198" gradientUnits="userSpaceOnUse">
<stop stop-color="#F6D365"/>
<stop offset="1" stop-color="#FDA085"/>
</linearGradient>
<linearGradient id="paint37_linear_141_5165" x1="300.116" y1="217.21" x2="347.265" y2="217.21" gradientUnits="userSpaceOnUse">
<stop stop-color="#F6D365"/>
<stop offset="1" stop-color="#FDA085"/>
</linearGradient>
<linearGradient id="paint38_linear_141_5165" x1="278.536" y1="227.144" x2="310.842" y2="227.144" gradientUnits="userSpaceOnUse">
<stop stop-color="#F6D365"/>
<stop offset="1" stop-color="#FDA085"/>
</linearGradient>
</defs>
</svg>
