<svg width="247" height="228" viewBox="0 0 247 228" fill="none" xmlns="http://www.w3.org/2000/svg">
<path d="M124.728 228C185.954 228 235.588 178.254 235.588 116.89C235.588 55.526 185.954 5.78052 124.728 5.78052C63.5025 5.78052 13.8691 55.526 13.8691 116.89C13.8691 178.254 63.5025 228 124.728 228Z" fill="#64BFA7"/>
<path fill-rule="evenodd" clip-rule="evenodd" d="M13.8691 135.33H70.5427V192.131H13.8691V135.33Z" fill="#FEFEFE"/>
<path fill-rule="evenodd" clip-rule="evenodd" d="M13.8691 129.224H70.5427C73.9057 129.224 76.634 131.959 76.634 135.33V192.131C76.634 195.502 73.9057 198.236 70.5427 198.236H13.8691C10.5062 198.236 7.77783 195.502 7.77783 192.131V135.33C7.77783 131.959 10.5062 129.224 13.8691 129.224ZM13.8691 135.33H70.5427V192.131H13.8691V135.33Z" fill="#64BFA7"/>
<path fill-rule="evenodd" clip-rule="evenodd" d="M96.3916 95.1744C115.283 95.1744 134.174 95.1744 153.065 95.1744C153.065 127.494 153.065 159.812 153.065 192.131C134.174 192.131 115.283 192.131 96.3916 192.131C96.3916 159.812 96.3916 127.494 96.3916 95.1744Z" fill="#FEFEFE"/>
<path fill-rule="evenodd" clip-rule="evenodd" d="M96.3916 89.0693H153.065C156.428 89.0693 159.157 91.8038 159.157 95.1743V192.131C159.157 195.502 156.428 198.236 153.065 198.236H96.3916C93.0287 198.236 90.3003 195.502 90.3003 192.131V95.1743C90.3003 91.8038 93.0287 89.0693 96.3916 89.0693ZM96.3916 95.1743C115.283 95.1743 134.174 95.1743 153.065 95.1743C153.065 127.494 153.065 159.812 153.065 192.131C134.174 192.131 115.283 192.131 96.3916 192.131C96.3916 159.812 96.3916 127.494 96.3916 95.1743Z" fill="#64BFA7"/>
<path fill-rule="evenodd" clip-rule="evenodd" d="M178.914 55.0191H235.587V192.131H178.914V55.0191Z" fill="#FEFEFE"/>
<path fill-rule="evenodd" clip-rule="evenodd" d="M178.914 48.9141H235.587C238.95 48.9141 241.679 51.6486 241.679 55.0192V192.131C241.679 195.502 238.95 198.236 235.587 198.236H178.914C175.551 198.236 172.823 195.502 172.823 192.131V55.0192C172.823 51.6486 175.551 48.9141 178.914 48.9141ZM178.914 55.0192H235.587V192.131H178.914V55.0192Z" fill="#64BFA7"/>
<path d="M244.199 9.34873C245.875 9.48285 247.124 10.9568 246.99 12.637C246.856 14.3173 245.386 15.5692 243.709 15.4351L244.199 9.34873ZM3.04635 119.943V113.837L11.3897 113.521L19.3949 112.597L27.095 111.11L34.526 109.098L41.7181 106.603L48.7001 103.663L55.5023 100.32L62.1491 96.6094L68.6691 92.5767L75.0885 88.2557L81.4331 83.6954L87.7273 78.9331L93.997 74.0135L100.27 68.9787L106.572 63.8731L112.93 58.7401L119.369 53.6229L125.917 48.565L132.604 43.6108L139.457 38.8053L146.499 34.1943L153.763 29.8215L161.273 25.7356L169.06 21.9784L177.144 18.5993L185.555 15.6427L194.316 13.1562L203.452 11.1846L212.985 9.77563L222.937 8.97084L233.335 8.81506L244.199 9.34873L243.709 15.4351L233.226 14.9187L223.225 15.0687L213.67 15.8417L204.534 17.1931L195.786 19.081L187.391 21.4636L179.323 24.2991L171.552 27.5484L164.048 31.17L156.785 35.1232L149.734 39.3691L142.867 43.8618L136.161 48.5665L129.586 53.4369L123.119 58.4314L116.732 63.5081L110.397 68.6239L104.089 73.7352L97.7787 78.799L91.4399 83.7733L85.045 88.6135L78.5622 93.2719L71.9674 97.7083L65.2314 101.876L58.3256 105.729L51.2212 109.222L43.8939 112.305L36.3161 114.933L28.4649 117.058L20.3158 118.631L11.8502 119.608L3.04635 119.943ZM3.04635 119.943C1.36416 119.943 0 118.576 0 116.89C0 115.204 1.36416 113.837 3.04635 113.837V119.943Z" fill="#64BFA7"/>
<path d="M179.023 17.8884C180.6 17.3057 182.355 18.1149 182.936 19.6956C183.517 21.2763 182.71 23.0343 181.133 23.617L179.023 17.8884ZM14.5671 119.401L13.9742 113.327L19.9302 112.571L25.715 111.498L31.3415 110.128L36.8212 108.476L42.1729 106.561L47.4051 104.395L52.5294 101.999L57.5616 99.3858L62.5103 96.5734L67.3856 93.5792L72.2005 90.4208L76.9665 87.1136L81.6921 83.6782L86.3905 80.1302L91.0716 76.4857L95.7397 72.7719L105.126 65.1684L114.602 57.494L119.42 53.6607L124.294 49.8646L129.244 46.1219L134.278 42.4514L139.409 38.8674L144.648 35.3931L150.01 32.0456L155.503 28.8452L161.141 25.8093L166.933 22.9579L172.889 20.31L179.023 17.8884L181.133 23.617L175.24 25.9433L169.509 28.4904L163.924 31.2378L158.476 34.1729L153.153 37.2752L147.941 40.5304L142.831 43.9181L137.812 47.4243L132.87 51.0285L127.998 54.7135L123.181 58.4633L118.415 62.2535L108.954 69.9163L99.5559 77.5313L94.8331 81.2884L90.0916 84.9791L85.3127 88.5877L80.4891 92.0951L75.6023 95.486L70.6464 98.7368L65.6041 101.832L60.4655 104.751L55.2203 107.477L49.8543 109.985L44.3602 112.258L38.7236 114.277L32.9359 116.021L26.9871 117.469L20.8656 118.602L14.5671 119.401ZM14.5671 119.401C12.8935 119.564 11.4027 118.338 11.2401 116.661C11.0775 114.984 12.3006 113.49 13.9742 113.327L14.5671 119.401Z" fill="#FEFEFE"/>
<path fill-rule="evenodd" clip-rule="evenodd" d="M42.2059 102.313C46.3559 102.313 49.7204 105.685 49.7204 109.845C49.7204 114.004 46.3559 117.376 42.2059 117.376C38.0558 117.376 34.6914 114.004 34.6914 109.845C34.6914 105.685 38.0558 102.313 42.2059 102.313Z" fill="#64BFA7"/>
<path fill-rule="evenodd" clip-rule="evenodd" d="M42.2058 96.2085C45.9616 96.2085 49.3634 97.7343 51.8256 100.202C54.2863 102.668 55.8116 106.081 55.8116 109.845C55.8116 113.611 54.2863 117.02 51.8256 119.486C49.3649 121.953 45.9631 123.481 42.2058 123.481C38.45 123.481 35.0454 121.953 32.5847 119.486C30.1226 117.019 28.6001 113.609 28.6001 109.845C28.6001 106.081 30.1226 102.67 32.5847 100.202C35.0468 97.7343 38.45 96.2085 42.2058 96.2085ZM42.2058 102.314C46.3559 102.314 49.7203 105.686 49.7203 109.845C49.7203 114.004 46.3559 117.376 42.2058 117.376C38.0557 117.376 34.6914 114.004 34.6914 109.845C34.6914 105.686 38.0557 102.314 42.2058 102.314Z" fill="#FEFEFE"/>
<path fill-rule="evenodd" clip-rule="evenodd" d="M124.728 46.7348C128.878 46.7348 132.243 50.1068 132.243 54.2662C132.243 58.4257 128.878 61.7978 124.728 61.7978C120.578 61.7978 117.214 58.4257 117.214 54.2662C117.214 50.1068 120.578 46.7348 124.728 46.7348Z" fill="#64BFA7"/>
<path fill-rule="evenodd" clip-rule="evenodd" d="M124.728 40.6297C128.484 40.6297 131.886 42.1557 134.348 44.6234C136.809 47.0896 138.334 50.5019 138.334 54.2662C138.334 58.0319 136.809 61.4415 134.348 63.9077C131.887 66.374 128.486 67.9028 124.728 67.9028C120.973 67.9028 117.568 66.374 115.107 63.9077C112.645 61.44 111.123 58.0305 111.123 54.2662C111.123 50.5019 112.645 47.0911 115.107 44.6234C117.569 42.1557 120.973 40.6297 124.728 40.6297ZM124.728 46.7348C128.878 46.7348 132.243 50.1067 132.243 54.2662C132.243 58.4256 128.878 61.7977 124.728 61.7977C120.578 61.7977 117.214 58.4256 117.214 54.2662C117.214 50.1067 120.578 46.7348 124.728 46.7348Z" fill="#FEFEFE"/>
<path fill-rule="evenodd" clip-rule="evenodd" d="M207.251 6.1051C211.401 6.1051 214.765 9.47705 214.765 13.6365C214.765 17.796 211.401 21.1681 207.251 21.1681C203.101 21.1681 199.736 17.796 199.736 13.6365C199.736 9.47705 203.101 6.1051 207.251 6.1051Z" fill="#FEFEFE"/>
<path fill-rule="evenodd" clip-rule="evenodd" d="M207.251 0C211.007 0 214.408 1.52597 216.87 3.99366C219.331 6.45991 220.857 9.87219 220.857 13.6365C220.857 17.4022 219.331 20.8118 216.87 23.278C214.41 25.7443 211.008 27.2731 207.251 27.2731C203.495 27.2731 200.09 25.7443 197.63 23.278C195.167 20.8103 193.645 17.4008 193.645 13.6365C193.645 9.87219 195.167 6.46135 197.63 3.99366C200.092 1.52597 203.495 0 207.251 0ZM207.251 6.10507C211.401 6.10507 214.765 9.47702 214.765 13.6365C214.765 17.7959 211.401 21.168 207.251 21.168C203.101 21.168 199.736 17.7959 199.736 13.6365C199.736 9.47702 203.101 6.10507 207.251 6.10507Z" fill="#64BFA7"/>
</svg>
