<svg width="550" height="445" viewBox="0 0 550 445" fill="none" xmlns="http://www.w3.org/2000/svg">
<path d="M102.547 402.431H62.8606V402.73H102.547V402.431Z" fill="#EBEBEB"/>
<path d="M269.608 402.586H205.07V402.885H269.608V402.586Z" fill="#EBEBEB"/>
<path d="M149.734 408.594H126.74V408.893H149.734V408.594Z" fill="#EBEBEB"/>
<path d="M534.423 408.45H511.38V408.749H534.423V408.45Z" fill="#EBEBEB"/>
<path d="M500.704 408.45H464.408V408.749H500.704V408.45Z" fill="#EBEBEB"/>
<path d="M444.422 406.479H393.424V406.779H444.422V406.479Z" fill="#EBEBEB"/>
<path d="M283.987 337.787H52.6155C50.8029 337.784 49.0657 337.064 47.7852 335.786C46.5046 334.507 45.7854 332.774 45.7854 330.967V6.76053C45.8012 4.96412 46.5274 3.24646 47.8062 1.98064C49.085 0.714822 50.8133 0.00307734 52.6155 0H283.987C285.802 0 287.542 0.71856 288.825 1.9976C290.108 3.27665 290.829 5.0114 290.829 6.82025V330.967C290.829 332.776 290.108 334.511 288.825 335.79C287.542 337.069 285.802 337.787 283.987 337.787ZM52.6155 0.238889C50.8824 0.242053 49.2213 0.930546 47.997 2.15325C46.7726 3.37595 46.085 5.03295 46.085 6.76053V330.967C46.085 332.695 46.7726 334.352 47.997 335.574C49.2213 336.797 50.8824 337.486 52.6155 337.489H283.987C285.721 337.486 287.383 336.798 288.61 335.575C289.836 334.353 290.526 332.696 290.529 330.967V6.76053C290.526 5.03185 289.836 3.37488 288.61 2.15252C287.383 0.930158 285.721 0.242046 283.987 0.238889H52.6155Z" fill="#EBEBEB"/>
<path d="M543.182 337.787H311.798C309.985 337.784 308.246 337.065 306.964 335.786C305.681 334.508 304.959 332.775 304.956 330.967V6.76053C304.975 4.96303 305.704 3.24538 306.985 1.97989C308.266 0.714404 309.995 0.00304378 311.798 0H543.182C544.982 0.00621645 546.707 0.71935 547.983 1.98483C549.26 3.25032 549.984 4.96618 550 6.76053V330.967C550 332.772 549.282 334.503 548.004 335.781C546.726 337.06 544.992 337.781 543.182 337.787ZM311.798 0.238889C310.064 0.242046 308.402 0.930158 307.176 2.15252C305.949 3.37488 305.259 5.03185 305.256 6.76053V330.967C305.259 332.696 305.949 334.353 307.176 335.575C308.402 336.798 310.064 337.486 311.798 337.489H543.182C544.916 337.486 546.578 336.798 547.805 335.575C549.031 334.353 549.721 332.696 549.724 330.967V6.76053C549.721 5.03185 549.031 3.37488 547.805 2.15252C546.578 0.930158 544.916 0.242046 543.182 0.238889H311.798Z" fill="#EBEBEB"/>
<path d="M362.137 391.059H396.072V222.763H362.137V391.059Z" fill="#E6E6E6"/>
<path d="M368.572 391.059H362.125V372.784H375.33L368.572 391.059Z" fill="#F0F0F0"/>
<path d="M488.961 391.059H522.896V222.763H488.961V391.059Z" fill="#E6E6E6"/>
<path d="M362.137 379.844H494.593V222.763L362.137 222.763V379.844Z" fill="#F0F0F0"/>
<path d="M367.134 326.452V356.994H426.196V326.452H367.134Z" fill="#E6E6E6"/>
<path d="M430.522 326.452V356.994H489.584V326.452H430.522Z" fill="#E6E6E6"/>
<path d="M454.211 331.564H465.894C468.407 331.566 470.893 331.056 473.2 330.066C475.508 329.076 477.589 327.627 479.315 325.807H440.791C442.517 327.627 444.597 329.076 446.905 330.066C449.213 331.056 451.699 331.566 454.211 331.564Z" fill="#F0F0F0"/>
<path d="M390.224 331.564H401.907C404.42 331.566 406.906 331.056 409.214 330.066C411.521 329.076 413.602 327.627 415.328 325.807H376.804C378.53 327.627 380.611 329.076 382.918 330.066C385.226 331.056 387.712 331.566 390.224 331.564Z" fill="#F0F0F0"/>
<path d="M367.122 278.973V309.515H426.184V278.973H367.122Z" fill="#E6E6E6"/>
<path d="M430.522 278.985V309.527H489.584V278.985H430.522Z" fill="#E6E6E6"/>
<path d="M454.211 284.085H465.894C468.406 284.08 470.89 283.565 473.196 282.571C475.501 281.577 477.579 280.125 479.303 278.304H440.791C442.516 280.127 444.596 281.579 446.903 282.573C449.211 283.567 451.698 284.082 454.211 284.085Z" fill="#F0F0F0"/>
<path d="M390.224 284.085H401.907C404.419 284.086 406.904 283.577 409.211 282.59C411.518 281.602 413.6 280.156 415.328 278.34H376.804C378.532 280.156 380.614 281.602 382.921 282.59C385.228 283.577 387.713 284.086 390.224 284.085Z" fill="#F0F0F0"/>
<path d="M367.134 231.506V262.048H426.196V231.506H367.134Z" fill="#E6E6E6"/>
<path d="M430.522 231.506V262.048H489.584V231.506H430.522Z" fill="#E6E6E6"/>
<path d="M454.211 236.618H465.894C468.407 236.62 470.893 236.11 473.2 235.12C475.508 234.13 477.589 232.681 479.315 230.861H440.791C442.517 232.681 444.597 234.13 446.905 235.12C449.213 236.11 451.699 236.62 454.211 236.618Z" fill="#F0F0F0"/>
<path d="M390.224 236.618H401.907C404.42 236.62 406.906 236.11 409.214 235.12C411.521 234.13 413.602 232.681 415.328 230.861H376.804C378.53 232.681 380.611 234.13 382.918 235.12C385.226 236.11 387.712 236.62 390.224 236.618Z" fill="#F0F0F0"/>
<path d="M488.146 391.059H494.593V372.784H481.388L488.146 391.059Z" fill="#F0F0F0"/>
<path d="M493.73 107.225L498.918 121.367H493.73L461.892 107.225H493.73Z" fill="#F5F5F5"/>
<path d="M498.918 107.225V121.367L467.093 107.225H498.918Z" fill="#E6E6E6"/>
<path d="M368.907 107.225L374.096 121.367H368.907L337.082 107.225H368.907Z" fill="#F5F5F5"/>
<path d="M374.096 107.225V121.367L342.27 107.225H374.096Z" fill="#E6E6E6"/>
<path d="M522.284 97.1199H487.667V107.882H522.284V97.1199Z" fill="#E6E6E6"/>
<path d="M315.561 107.894L487.667 107.894V97.1319L315.561 97.1319V107.894Z" fill="#F5F5F5"/>
<path d="M452.714 59.7219C452.714 59.7219 453.061 97.1318 466.014 97.1318C478.967 97.1318 479.303 59.7219 479.303 59.7219H452.714Z" fill="#F0F0F0"/>
<path d="M372.394 84.9246C372.394 84.9246 373.305 97.1198 408.15 97.1198C442.996 97.1198 443.906 84.9246 443.906 84.9246H372.394Z" fill="#F0F0F0"/>
<path d="M268.841 391.06H271.153L277.78 358.511L278.978 352.802L286.168 317.327H313.943L328.957 391.06H331.282L315.98 315.977C315.93 315.72 315.791 315.488 315.587 315.323C315.384 315.157 315.129 315.067 314.866 315.069H285.245C284.984 315.068 284.73 315.158 284.528 315.324C284.327 315.49 284.19 315.721 284.143 315.977L277.792 347.128L276.594 352.826L268.841 391.06Z" fill="#F0F0F0"/>
<path d="M224.35 391.059H226.662L241.689 317.326H269.392L276.582 352.825L277.78 358.511L284.418 391.059H286.731L278.942 352.837L277.744 347.164L271.393 316.013C271.331 315.761 271.189 315.537 270.988 315.373C270.787 315.21 270.538 315.115 270.279 315.105H240.766C240.503 315.103 240.248 315.192 240.044 315.358C239.841 315.524 239.702 315.755 239.652 316.013L224.35 391.059Z" fill="#F0F0F0"/>
<path d="M318.089 306.469H237.483C235.634 306.472 233.862 307.206 232.555 308.509C231.248 309.812 230.512 311.578 230.509 313.421V313.66C230.509 314.335 230.778 314.982 231.256 315.459C231.735 315.936 232.384 316.204 233.061 316.204H322.511C323.188 316.204 323.837 315.936 324.316 315.459C324.794 314.982 325.063 314.335 325.063 313.66V313.421C325.06 311.578 324.324 309.812 323.017 308.509C321.71 307.206 319.938 306.472 318.089 306.469Z" fill="#F0F0F0"/>
<path d="M187.947 391.06H190.259L196.886 358.511L198.084 352.802L205.273 317.327H232.977L248.039 391.06H250.364L235.062 315.977C235.012 315.72 234.873 315.488 234.669 315.323C234.466 315.157 234.21 315.067 233.948 315.069H204.351C204.089 315.068 203.836 315.158 203.634 315.324C203.433 315.49 203.296 315.721 203.248 315.977L196.898 347.128L195.699 352.826L187.947 391.06Z" fill="#F0F0F0"/>
<path d="M143.455 391.06H145.78L160.794 317.327H188.51L195.699 352.826L196.897 358.511L203.536 391.06H205.848L198.06 352.838L196.862 347.164L190.523 315.977C190.461 315.726 190.318 315.502 190.117 315.338C189.917 315.174 189.668 315.08 189.408 315.069H159.871C159.609 315.067 159.353 315.157 159.15 315.323C158.946 315.488 158.807 315.72 158.757 315.977L143.455 391.06Z" fill="#F0F0F0"/>
<path d="M237.255 306.469H156.588C154.74 306.472 152.968 307.206 151.661 308.509C150.353 309.812 149.618 311.578 149.615 313.421V313.66C149.615 314.335 149.883 314.982 150.362 315.459C150.841 315.936 151.49 316.204 152.167 316.204H241.629C241.963 316.204 242.295 316.138 242.604 316.01C242.913 315.882 243.193 315.694 243.429 315.458C243.665 315.222 243.852 314.941 243.979 314.632C244.106 314.324 244.171 313.993 244.169 313.66V313.421C244.166 311.588 243.438 309.831 242.144 308.53C240.85 307.228 239.093 306.488 237.255 306.469Z" fill="#F0F0F0"/>
<path d="M101.049 212.132H216.861L216.861 27.1973H101.049L101.049 212.132Z" fill="#E6E6E6"/>
<path d="M93.488 212.132L213.326 212.132L213.326 27.1973L93.488 27.1973L93.488 212.132Z" fill="#F0F0F0"/>
<path d="M101.049 226.143H216.861V212.12H101.049V226.143Z" fill="#E6E6E6"/>
<path d="M80.8825 226.143L200.72 226.143V212.12H80.8825V226.143Z" fill="#F0F0F0"/>
<path d="M202.721 201.573V37.7561L104.069 37.7561L104.069 201.573H202.721Z" fill="#FAFAFA"/>
<path d="M203.572 201.562L168.87 37.7561H139.513L174.214 201.562H203.572Z" fill="white"/>
<path d="M195.58 181.997C195.78 181.997 195.972 181.917 196.113 181.776C196.255 181.635 196.335 181.444 196.335 181.244V44.6243C196.335 44.4247 196.255 44.2333 196.113 44.0922C195.972 43.9511 195.78 43.8718 195.58 43.8718C195.379 43.8718 195.187 43.9511 195.046 44.0922C194.904 44.2333 194.825 44.4247 194.825 44.6243V181.244C194.825 181.444 194.904 181.635 195.046 181.776C195.187 181.917 195.379 181.997 195.58 181.997Z" fill="#F0F0F0"/>
<path d="M167.912 201.562L133.21 37.7561H121.767L156.456 201.562H167.912Z" fill="white"/>
<path d="M105.423 201.573L105.423 37.7561H104.081L104.081 201.573H105.423Z" fill="#E6E6E6"/>
<path opacity="0.6" d="M90.9716 45.8663H206.783L207.766 41.853H91.9541L90.9716 45.8663Z" fill="#F0F0F0"/>
<path opacity="0.6" d="M90.9716 55.195H206.783L207.766 51.1936H91.9541L90.9716 55.195Z" fill="#F0F0F0"/>
<path opacity="0.6" d="M90.9716 64.5355H206.783L207.766 60.5222H91.9541L90.9716 64.5355Z" fill="#F0F0F0"/>
<path opacity="0.6" d="M90.9716 73.8642H206.783L207.766 69.8628H91.9541L90.9716 73.8642Z" fill="#F0F0F0"/>
<path opacity="0.6" d="M90.9716 83.2045H206.783L207.766 79.2031H91.9541L90.9716 83.2045Z" fill="#F0F0F0"/>
<path opacity="0.6" d="M90.9716 92.5451H206.783L207.766 88.5317H91.9541L90.9716 92.5451Z" fill="#F0F0F0"/>
<path d="M299.564 445C427.877 445 531.894 438.946 531.894 431.479C531.894 424.011 427.877 417.958 299.564 417.958C171.252 417.958 67.2341 424.011 67.2341 431.479C67.2341 438.946 171.252 445 299.564 445Z" fill="#F5F5F5"/>
<path d="M291.32 248.121H218.119C217.086 248.121 216.249 248.955 216.249 249.984V280.419C216.249 281.448 217.086 282.282 218.119 282.282H291.32C292.352 282.282 293.189 281.448 293.189 280.419V249.984C293.189 248.955 292.352 248.121 291.32 248.121Z" fill="url(#paint0_linear_141_5160)"/>
<path opacity="0.6" d="M291.32 248.121H218.119C217.086 248.121 216.249 248.955 216.249 249.984V280.419C216.249 281.448 217.086 282.282 218.119 282.282H291.32C292.352 282.282 293.189 281.448 293.189 280.419V249.984C293.189 248.955 292.352 248.121 291.32 248.121Z" fill="white"/>
<path opacity="0.1" d="M291.308 248.121H218.083C217.587 248.121 217.112 248.317 216.761 248.667C216.411 249.016 216.214 249.49 216.214 249.984V259.743L254.318 267.22C254.551 267.268 254.792 267.268 255.025 267.22L293.142 259.743V249.984C293.142 249.496 292.95 249.028 292.607 248.679C292.264 248.331 291.798 248.13 291.308 248.121Z" fill="black"/>
<path d="M292.914 235.627H270.555V231.889C270.551 230.344 269.934 228.863 268.838 227.771C267.743 226.678 266.257 226.063 264.707 226.06H244.732C243.182 226.063 241.697 226.678 240.601 227.771C239.505 228.863 238.888 230.344 238.885 231.889V235.627H216.537C216.048 235.627 215.578 235.821 215.232 236.166C214.886 236.511 214.692 236.979 214.692 237.467V255.873C214.694 256.298 214.843 256.709 215.114 257.038C215.384 257.366 215.76 257.592 216.178 257.677L254.366 265.166C254.6 265.202 254.839 265.202 255.073 265.166L293.262 257.677C293.681 257.592 294.058 257.367 294.33 257.039C294.603 256.71 294.754 256.299 294.759 255.873V237.467C294.759 236.979 294.565 236.511 294.219 236.166C293.873 235.821 293.404 235.627 292.914 235.627ZM243.33 231.889C243.333 231.518 243.482 231.163 243.744 230.9C244.005 230.636 244.36 230.485 244.732 230.479H264.707C265.079 230.485 265.434 230.636 265.696 230.9C265.958 231.163 266.106 231.518 266.109 231.889V235.627H243.342L243.33 231.889Z" fill="url(#paint1_linear_141_5160)"/>
<path opacity="0.6" d="M292.914 235.627H270.555V231.889C270.551 230.344 269.934 228.863 268.838 227.771C267.743 226.678 266.257 226.063 264.707 226.06H244.732C243.182 226.063 241.697 226.678 240.601 227.771C239.505 228.863 238.888 230.344 238.885 231.889V235.627H216.537C216.048 235.627 215.578 235.821 215.232 236.166C214.886 236.511 214.692 236.979 214.692 237.467V255.873C214.694 256.298 214.843 256.709 215.114 257.038C215.384 257.366 215.76 257.592 216.178 257.677L254.366 265.166C254.6 265.202 254.839 265.202 255.073 265.166L293.262 257.677C293.681 257.592 294.058 257.367 294.33 257.039C294.603 256.71 294.754 256.299 294.759 255.873V237.467C294.759 236.979 294.565 236.511 294.219 236.166C293.873 235.821 293.404 235.627 292.914 235.627ZM243.33 231.889C243.333 231.518 243.482 231.163 243.744 230.9C244.005 230.636 244.36 230.485 244.732 230.479H264.707C265.079 230.485 265.434 230.636 265.696 230.9C265.958 231.163 266.106 231.518 266.109 231.889V235.627H243.342L243.33 231.889Z" fill="white"/>
<path d="M258.668 260.137H250.783C249.804 260.137 249.01 260.929 249.01 261.905V266.874C249.01 267.85 249.804 268.642 250.783 268.642H258.668C259.647 268.642 260.441 267.85 260.441 266.874V261.905C260.441 260.929 259.647 260.137 258.668 260.137Z" fill="url(#paint2_linear_141_5160)"/>
<path opacity="0.3" d="M258.668 260.137H250.783C249.804 260.137 249.01 260.929 249.01 261.905V266.874C249.01 267.85 249.804 268.642 250.783 268.642H258.668C259.647 268.642 260.441 267.85 260.441 266.874V261.905C260.441 260.929 259.647 260.137 258.668 260.137Z" fill="white"/>
<path d="M291.32 28.3918H218.119C217.086 28.3918 216.249 29.2261 216.249 30.2552V60.6895C216.249 61.7186 217.086 62.5528 218.119 62.5528H291.32C292.352 62.5528 293.189 61.7186 293.189 60.6895V30.2552C293.189 29.2261 292.352 28.3918 291.32 28.3918Z" fill="url(#paint3_linear_141_5160)"/>
<path opacity="0.6" d="M291.32 28.3918H218.119C217.086 28.3918 216.249 29.2261 216.249 30.2552V60.6895C216.249 61.7186 217.086 62.5528 218.119 62.5528H291.32C292.352 62.5528 293.189 61.7186 293.189 60.6895V30.2552C293.189 29.2261 292.352 28.3918 291.32 28.3918Z" fill="white"/>
<path opacity="0.1" d="M291.308 28.3918H218.083C217.587 28.3918 217.112 28.5882 216.761 28.9376C216.411 29.287 216.214 29.761 216.214 30.2552V40.0137L254.318 47.4909C254.551 47.5386 254.792 47.5386 255.025 47.4909L293.142 40.0137V30.2552C293.142 29.7671 292.95 29.2985 292.607 28.9501C292.264 28.6017 291.798 28.4012 291.308 28.3918Z" fill="black"/>
<path d="M292.914 15.898H270.555V12.1594C270.551 10.6145 269.934 9.13373 268.838 8.04129C267.742 6.94885 266.257 6.33372 264.707 6.33057H244.732C243.182 6.33372 241.697 6.94885 240.601 8.04129C239.505 9.13373 238.888 10.6145 238.885 12.1594V15.898H216.537C216.048 15.898 215.578 16.0918 215.232 16.4368C214.886 16.7817 214.692 17.2496 214.692 17.7375V36.1438C214.692 36.5693 214.84 36.9817 215.111 37.3105C215.382 37.6394 215.759 37.8645 216.178 37.9474L254.366 45.3887C254.599 45.4364 254.84 45.4364 255.073 45.3887L293.262 37.8996C293.676 37.8212 294.051 37.6047 294.325 37.2856C294.6 36.9665 294.757 36.5638 294.771 36.1438V17.7375C294.771 17.4949 294.723 17.2547 294.63 17.0308C294.536 16.8068 294.399 16.6035 294.227 16.4325C294.054 16.2616 293.849 16.1263 293.624 16.0346C293.399 15.9429 293.157 15.8964 292.914 15.898ZM243.33 12.1594C243.33 11.7877 243.477 11.431 243.74 11.167C244.003 10.903 244.359 10.7531 244.732 10.75H264.707C265.078 10.7531 265.433 10.9014 265.695 11.1628C265.957 11.4242 266.106 11.7778 266.109 12.1475V15.8861H243.342L243.33 12.1594Z" fill="url(#paint4_linear_141_5160)"/>
<path opacity="0.6" d="M292.914 15.898H270.555V12.1594C270.551 10.6145 269.934 9.13373 268.838 8.04129C267.742 6.94885 266.257 6.33372 264.707 6.33057H244.732C243.182 6.33372 241.697 6.94885 240.601 8.04129C239.505 9.13373 238.888 10.6145 238.885 12.1594V15.898H216.537C216.048 15.898 215.578 16.0918 215.232 16.4368C214.886 16.7817 214.692 17.2496 214.692 17.7375V36.1438C214.692 36.5693 214.84 36.9817 215.111 37.3105C215.382 37.6394 215.759 37.8645 216.178 37.9474L254.366 45.3887C254.599 45.4364 254.84 45.4364 255.073 45.3887L293.262 37.8996C293.676 37.8212 294.051 37.6047 294.325 37.2856C294.6 36.9665 294.757 36.5638 294.771 36.1438V17.7375C294.771 17.4949 294.723 17.2547 294.63 17.0308C294.536 16.8068 294.399 16.6035 294.227 16.4325C294.054 16.2616 293.849 16.1263 293.624 16.0346C293.399 15.9429 293.157 15.8964 292.914 15.898ZM243.33 12.1594C243.33 11.7877 243.477 11.431 243.74 11.167C244.003 10.903 244.359 10.7531 244.732 10.75H264.707C265.078 10.7531 265.433 10.9014 265.695 11.1628C265.957 11.4242 266.106 11.7778 266.109 12.1475V15.8861H243.342L243.33 12.1594Z" fill="white"/>
<path d="M258.668 40.4199H250.783C249.804 40.4199 249.01 41.2114 249.01 42.1877V47.1566C249.01 48.1329 249.804 48.9243 250.783 48.9243H258.668C259.647 48.9243 260.441 48.1329 260.441 47.1566V42.1877C260.441 41.2114 259.647 40.4199 258.668 40.4199Z" fill="url(#paint5_linear_141_5160)"/>
<path opacity="0.3" d="M258.668 40.4199H250.783C249.804 40.4199 249.01 41.2114 249.01 42.1877V47.1566C249.01 48.1329 249.804 48.9243 250.783 48.9243H258.668C259.647 48.9243 260.441 48.1329 260.441 47.1566V42.1877C260.441 41.2114 259.647 40.4199 258.668 40.4199Z" fill="white"/>
<path d="M177.294 248.121H104.093C103.06 248.121 102.223 248.955 102.223 249.984V280.419C102.223 281.448 103.06 282.282 104.093 282.282H177.294C178.326 282.282 179.163 281.448 179.163 280.419V249.984C179.163 248.955 178.326 248.121 177.294 248.121Z" fill="url(#paint6_linear_141_5160)"/>
<path opacity="0.6" d="M177.294 248.121H104.093C103.06 248.121 102.223 248.955 102.223 249.984V280.419C102.223 281.448 103.06 282.282 104.093 282.282H177.294C178.326 282.282 179.163 281.448 179.163 280.419V249.984C179.163 248.955 178.326 248.121 177.294 248.121Z" fill="white"/>
<path opacity="0.1" d="M177.342 248.121H104.093C103.597 248.121 103.121 248.317 102.771 248.667C102.42 249.016 102.223 249.49 102.223 249.984V259.743L140.328 267.22C140.565 267.268 140.81 267.268 141.047 267.22L179.163 259.743V249.984C179.164 249.498 178.973 249.032 178.633 248.683C178.293 248.335 177.829 248.134 177.342 248.121Z" fill="black"/>
<path d="M178.876 235.627H156.516V231.889C156.513 230.344 155.896 228.863 154.8 227.771C153.704 226.678 152.219 226.063 150.669 226.06H130.706C129.156 226.063 127.67 226.678 126.575 227.771C125.479 228.863 124.862 230.344 124.858 231.889V235.627H102.499C102.009 235.627 101.54 235.821 101.194 236.166C100.848 236.511 100.654 236.979 100.654 237.467V255.873C100.656 256.298 100.805 256.709 101.075 257.038C101.346 257.366 101.722 257.592 102.139 257.677L140.328 265.166C140.566 265.202 140.809 265.202 141.047 265.166L179.235 257.677C179.653 257.592 180.029 257.366 180.299 257.038C180.57 256.709 180.719 256.298 180.721 255.873V237.467C180.721 236.979 180.527 236.511 180.181 236.166C179.835 235.821 179.365 235.627 178.876 235.627ZM129.292 231.889C129.298 231.517 129.449 231.162 129.713 230.899C129.977 230.636 130.333 230.485 130.706 230.479H150.669C151.042 230.485 151.398 230.636 151.662 230.899C151.926 231.162 152.077 231.517 152.083 231.889V235.627H129.316L129.292 231.889Z" fill="url(#paint7_linear_141_5160)"/>
<path opacity="0.6" d="M178.876 235.627H156.516V231.889C156.513 230.344 155.896 228.863 154.8 227.771C153.704 226.678 152.219 226.063 150.669 226.06H130.706C129.156 226.063 127.67 226.678 126.575 227.771C125.479 228.863 124.862 230.344 124.858 231.889V235.627H102.499C102.009 235.627 101.54 235.821 101.194 236.166C100.848 236.511 100.654 236.979 100.654 237.467V255.873C100.656 256.298 100.805 256.709 101.075 257.038C101.346 257.366 101.722 257.592 102.139 257.677L140.328 265.166C140.566 265.202 140.809 265.202 141.047 265.166L179.235 257.677C179.653 257.592 180.029 257.366 180.299 257.038C180.57 256.709 180.719 256.298 180.721 255.873V237.467C180.721 236.979 180.527 236.511 180.181 236.166C179.835 235.821 179.365 235.627 178.876 235.627ZM129.292 231.889C129.298 231.517 129.449 231.162 129.713 230.899C129.977 230.636 130.333 230.485 130.706 230.479H150.669C151.042 230.485 151.398 230.636 151.662 230.899C151.926 231.162 152.077 231.517 152.083 231.889V235.627H129.316L129.292 231.889Z" fill="white"/>
<path d="M144.63 260.137H136.745C135.766 260.137 134.972 260.929 134.972 261.905V266.874C134.972 267.85 135.766 268.642 136.745 268.642H144.63C145.609 268.642 146.403 267.85 146.403 266.874V261.905C146.403 260.929 145.609 260.137 144.63 260.137Z" fill="url(#paint8_linear_141_5160)"/>
<path opacity="0.3" d="M144.63 260.137H136.745C135.766 260.137 134.972 260.929 134.972 261.905V266.874C134.972 267.85 135.766 268.642 136.745 268.642H144.63C145.609 268.642 146.403 267.85 146.403 266.874V261.905C146.403 260.929 145.609 260.137 144.63 260.137Z" fill="white"/>
<path d="M177.294 28.3918H104.093C103.06 28.3918 102.223 29.2261 102.223 30.2552V60.6895C102.223 61.7186 103.06 62.5528 104.093 62.5528H177.294C178.326 62.5528 179.163 61.7186 179.163 60.6895V30.2552C179.163 29.2261 178.326 28.3918 177.294 28.3918Z" fill="url(#paint9_linear_141_5160)"/>
<path opacity="0.6" d="M177.294 28.3918H104.093C103.06 28.3918 102.223 29.2261 102.223 30.2552V60.6895C102.223 61.7186 103.06 62.5528 104.093 62.5528H177.294C178.326 62.5528 179.163 61.7186 179.163 60.6895V30.2552C179.163 29.2261 178.326 28.3918 177.294 28.3918Z" fill="white"/>
<path opacity="0.1" d="M177.342 28.3918H104.093C103.597 28.3918 103.121 28.5882 102.771 28.9376C102.42 29.287 102.223 29.761 102.223 30.2552V40.0137L140.328 47.4909C140.565 47.5389 140.81 47.5389 141.047 47.4909L179.163 40.0137V30.2552C179.164 29.7692 178.973 29.3023 178.633 28.9542C178.293 28.6061 177.829 28.4043 177.342 28.3918Z" fill="black"/>
<path d="M178.876 15.898H156.516V12.1594C156.513 10.6145 155.896 9.13373 154.8 8.04129C153.704 6.94885 152.219 6.33372 150.669 6.33057H130.706C129.156 6.33372 127.67 6.94885 126.575 8.04129C125.479 9.13373 124.862 10.6145 124.858 12.1594V15.898H102.499C102.009 15.898 101.54 16.0918 101.194 16.4368C100.848 16.7817 100.654 17.2496 100.654 17.7375V36.1438C100.654 36.5693 100.802 36.9817 101.073 37.3105C101.344 37.6394 101.721 37.8645 102.139 37.9474L140.328 45.3887C140.565 45.4367 140.81 45.4367 141.047 45.3887L179.235 37.8996C179.654 37.8167 180.031 37.5916 180.302 37.2628C180.573 36.9339 180.721 36.5215 180.721 36.096V17.7375C180.721 17.2496 180.527 16.7817 180.181 16.4368C179.835 16.0918 179.365 15.898 178.876 15.898ZM129.292 12.1594C129.295 11.7866 129.445 11.4299 129.71 11.1663C129.974 10.9026 130.332 10.7531 130.706 10.75H150.669C151.041 10.7531 151.397 10.9009 151.661 11.162C151.925 11.4231 152.077 11.7767 152.083 12.1475V15.8861H129.316L129.292 12.1594Z" fill="url(#paint10_linear_141_5160)"/>
<path opacity="0.6" d="M178.876 15.898H156.516V12.1594C156.513 10.6145 155.896 9.13373 154.8 8.04129C153.704 6.94885 152.219 6.33372 150.669 6.33057H130.706C129.156 6.33372 127.67 6.94885 126.575 8.04129C125.479 9.13373 124.862 10.6145 124.858 12.1594V15.898H102.499C102.009 15.898 101.54 16.0918 101.194 16.4368C100.848 16.7817 100.654 17.2496 100.654 17.7375V36.1438C100.654 36.5693 100.802 36.9817 101.073 37.3105C101.344 37.6394 101.721 37.8645 102.139 37.9474L140.328 45.3887C140.565 45.4367 140.81 45.4367 141.047 45.3887L179.235 37.8996C179.654 37.8167 180.031 37.5916 180.302 37.2628C180.573 36.9339 180.721 36.5215 180.721 36.096V17.7375C180.721 17.2496 180.527 16.7817 180.181 16.4368C179.835 16.0918 179.365 15.898 178.876 15.898ZM129.292 12.1594C129.295 11.7866 129.445 11.4299 129.71 11.1663C129.974 10.9026 130.332 10.7531 130.706 10.75H150.669C151.041 10.7531 151.397 10.9009 151.661 11.162C151.925 11.4231 152.077 11.7767 152.083 12.1475V15.8861H129.316L129.292 12.1594Z" fill="white"/>
<path d="M144.63 40.4199H136.745C135.766 40.4199 134.972 41.2114 134.972 42.1877V47.1566C134.972 48.1329 135.766 48.9243 136.745 48.9243H144.63C145.609 48.9243 146.403 48.1329 146.403 47.1566V42.1877C146.403 41.2114 145.609 40.4199 144.63 40.4199Z" fill="url(#paint11_linear_141_5160)"/>
<path opacity="0.3" d="M144.63 40.4199H136.745C135.766 40.4199 134.972 41.2114 134.972 42.1877V47.1566C134.972 48.1329 135.766 48.9243 136.745 48.9243H144.63C145.609 48.9243 146.403 48.1329 146.403 47.1566V42.1877C146.403 41.2114 145.609 40.4199 144.63 40.4199Z" fill="white"/>
<path d="M167.756 172.417H104.093C103.594 172.417 103.115 172.22 102.762 171.868C102.41 171.516 102.211 171.039 102.211 170.542V140.12C102.213 139.869 102.266 139.621 102.367 139.391C102.416 139.284 102.472 139.18 102.535 139.081C102.602 138.978 102.682 138.886 102.774 138.806C103.124 138.456 103.598 138.258 104.093 138.256H164.353C163.852 142.425 163.687 146.627 163.862 150.822C163.862 151.503 163.862 152.184 163.969 152.852C164.053 154.107 164.149 155.373 164.293 156.627C164.91 161.993 166.07 167.284 167.756 172.417Z" fill="url(#paint12_linear_141_5160)"/>
<path opacity="0.6" d="M167.756 172.417H104.093C103.594 172.417 103.115 172.22 102.762 171.868C102.41 171.516 102.211 171.039 102.211 170.542V140.12C102.213 139.869 102.266 139.621 102.367 139.391C102.416 139.284 102.472 139.18 102.535 139.081C102.602 138.978 102.682 138.886 102.774 138.806C103.124 138.456 103.598 138.258 104.093 138.256H164.353C163.852 142.425 163.687 146.627 163.862 150.822C163.862 151.503 163.862 152.184 163.969 152.852C164.053 154.107 164.149 155.373 164.293 156.627C164.91 161.993 166.07 167.284 167.756 172.417Z" fill="white"/>
<path opacity="0.1" d="M164.353 138.256C163.852 142.425 163.687 146.627 163.862 150.822C163.862 151.503 163.862 152.184 163.969 152.852L146.403 156.292L141.035 157.343C140.803 157.403 140.56 157.403 140.328 157.343L134.972 156.304L102.223 149.878V140.108C102.227 139.862 102.276 139.619 102.367 139.391C102.416 139.284 102.472 139.18 102.535 139.081C102.602 138.978 102.682 138.886 102.774 138.806C103.124 138.456 103.598 138.258 104.093 138.256H164.353Z" fill="black"/>
<path d="M166.857 125.763H156.528V122.024C156.522 120.478 155.902 118.997 154.804 117.905C153.707 116.813 152.22 116.198 150.669 116.195H130.706C129.155 116.195 127.668 116.809 126.571 117.903C125.474 118.996 124.858 120.478 124.858 122.024V125.763H102.499C102.257 125.763 102.017 125.81 101.793 125.903C101.569 125.995 101.365 126.131 101.194 126.302C101.023 126.472 100.887 126.675 100.794 126.898C100.701 127.121 100.654 127.361 100.654 127.602V145.997C100.654 146.425 100.803 146.841 101.076 147.172C101.35 147.503 101.729 147.729 102.151 147.812H102.223L134.972 154.25L140.328 155.289C140.561 155.337 140.802 155.337 141.035 155.289L146.403 154.238L163.862 150.81C163.687 146.615 163.852 142.413 164.353 138.245C164.851 134.024 165.688 129.85 166.857 125.763ZM129.292 122.024C129.298 121.653 129.449 121.3 129.714 121.039C129.978 120.778 130.334 120.63 130.706 120.627H150.669C151.04 120.63 151.394 120.778 151.657 121.039C151.919 121.301 152.068 121.655 152.071 122.024V125.763H129.304L129.292 122.024Z" fill="url(#paint13_linear_141_5160)"/>
<path opacity="0.6" d="M166.857 125.763H156.528V122.024C156.522 120.478 155.902 118.997 154.804 117.905C153.707 116.813 152.22 116.198 150.669 116.195H130.706C129.155 116.195 127.668 116.809 126.571 117.903C125.474 118.996 124.858 120.478 124.858 122.024V125.763H102.499C102.257 125.763 102.017 125.81 101.793 125.903C101.569 125.995 101.365 126.131 101.194 126.302C101.023 126.472 100.887 126.675 100.794 126.898C100.701 127.121 100.654 127.361 100.654 127.602V145.997C100.654 146.425 100.803 146.841 101.076 147.172C101.35 147.503 101.729 147.729 102.151 147.812H102.223L134.972 154.25L140.328 155.289C140.561 155.337 140.802 155.337 141.035 155.289L146.403 154.238L163.862 150.81C163.687 146.615 163.852 142.413 164.353 138.245C164.851 134.024 165.688 129.85 166.857 125.763ZM129.292 122.024C129.298 121.653 129.449 121.3 129.714 121.039C129.978 120.778 130.334 120.63 130.706 120.627H150.669C151.04 120.63 151.394 120.778 151.657 121.039C151.919 121.301 152.068 121.655 152.071 122.024V125.763H129.304L129.292 122.024Z" fill="white"/>
<path d="M144.63 150.272H136.745C135.766 150.272 134.972 151.064 134.972 152.04V157.009C134.972 157.985 135.766 158.777 136.745 158.777H144.63C145.609 158.777 146.403 157.985 146.403 157.009V152.04C146.403 151.064 145.609 150.272 144.63 150.272Z" fill="url(#paint14_linear_141_5160)"/>
<path opacity="0.3" d="M144.63 150.272H136.745C135.766 150.272 134.972 151.064 134.972 152.04V157.009C134.972 157.985 135.766 158.777 136.745 158.777H144.63C145.609 158.777 146.403 157.985 146.403 157.009V152.04C146.403 151.064 145.609 150.272 144.63 150.272Z" fill="white"/>
<path d="M332.145 282.27H405.346C406.379 282.27 407.216 281.436 407.216 280.406V249.972C407.216 248.943 406.379 248.109 405.346 248.109H332.145C331.112 248.109 330.275 248.943 330.275 249.972V280.406C330.275 281.436 331.112 282.27 332.145 282.27Z" fill="url(#paint15_linear_141_5160)"/>
<path opacity="0.6" d="M332.145 282.27H405.346C406.379 282.27 407.216 281.436 407.216 280.406V249.972C407.216 248.943 406.379 248.109 405.346 248.109H332.145C331.112 248.109 330.275 248.943 330.275 249.972V280.406C330.275 281.436 331.112 282.27 332.145 282.27Z" fill="white"/>
<path opacity="0.1" d="M332.157 248.121H405.346C405.842 248.121 406.318 248.317 406.668 248.667C407.019 249.016 407.216 249.49 407.216 249.984V259.743L369.063 267.22C368.83 267.268 368.59 267.268 368.356 267.22L330.24 259.743V249.984C330.24 249.736 330.29 249.489 330.386 249.26C330.483 249.031 330.625 248.823 330.804 248.65C330.983 248.476 331.195 248.34 331.427 248.249C331.659 248.158 331.907 248.115 332.157 248.121Z" fill="black"/>
<path d="M330.563 235.627H352.923V231.889C352.926 230.344 353.543 228.863 354.639 227.771C355.735 226.678 357.22 226.063 358.77 226.06H378.745C380.295 226.063 381.78 226.678 382.876 227.771C383.972 228.863 384.589 230.344 384.593 231.889V235.627H406.94C407.182 235.627 407.422 235.675 407.646 235.767C407.87 235.86 408.074 235.995 408.245 236.166C408.416 236.337 408.552 236.54 408.645 236.763C408.738 236.986 408.785 237.225 408.785 237.467V255.873C408.783 256.298 408.634 256.709 408.363 257.038C408.093 257.366 407.717 257.592 407.3 257.677L369.063 265.166C368.825 265.202 368.582 265.202 368.344 265.166L330.156 257.677C329.738 257.592 329.362 257.366 329.092 257.038C328.821 256.709 328.672 256.298 328.67 255.873V237.467C328.67 237.221 328.719 236.978 328.815 236.752C328.911 236.525 329.051 236.32 329.227 236.149C329.404 235.977 329.613 235.843 329.842 235.753C330.072 235.664 330.317 235.621 330.563 235.627ZM380.147 231.889C380.144 231.518 379.996 231.163 379.734 230.9C379.472 230.636 379.117 230.485 378.745 230.479H358.77C358.397 230.485 358.041 230.636 357.777 230.899C357.513 231.162 357.362 231.517 357.356 231.889V235.627H380.123L380.147 231.889Z" fill="url(#paint16_linear_141_5160)"/>
<path opacity="0.6" d="M330.563 235.627H352.923V231.889C352.926 230.344 353.543 228.863 354.639 227.771C355.735 226.678 357.22 226.063 358.77 226.06H378.745C380.295 226.063 381.78 226.678 382.876 227.771C383.972 228.863 384.589 230.344 384.593 231.889V235.627H406.94C407.182 235.627 407.422 235.675 407.646 235.767C407.87 235.86 408.074 235.995 408.245 236.166C408.416 236.337 408.552 236.54 408.645 236.763C408.738 236.986 408.785 237.225 408.785 237.467V255.873C408.783 256.298 408.634 256.709 408.363 257.038C408.093 257.366 407.717 257.592 407.3 257.677L369.063 265.166C368.825 265.202 368.582 265.202 368.344 265.166L330.156 257.677C329.738 257.592 329.362 257.366 329.092 257.038C328.821 256.709 328.672 256.298 328.67 255.873V237.467C328.67 237.221 328.719 236.978 328.815 236.752C328.911 236.525 329.051 236.32 329.227 236.149C329.404 235.977 329.613 235.843 329.842 235.753C330.072 235.664 330.317 235.621 330.563 235.627ZM380.147 231.889C380.144 231.518 379.996 231.163 379.734 230.9C379.472 230.636 379.117 230.485 378.745 230.479H358.77C358.397 230.485 358.041 230.636 357.777 230.899C357.513 231.162 357.362 231.517 357.356 231.889V235.627H380.123L380.147 231.889Z" fill="white"/>
<path d="M364.809 268.641H372.694C373.673 268.641 374.467 267.85 374.467 266.874V261.905C374.467 260.928 373.673 260.137 372.694 260.137H364.809C363.83 260.137 363.036 260.928 363.036 261.905V266.874C363.036 267.85 363.83 268.641 364.809 268.641Z" fill="url(#paint17_linear_141_5160)"/>
<path opacity="0.3" d="M364.809 268.641H372.694C373.673 268.641 374.467 267.85 374.467 266.874V261.905C374.467 260.928 373.673 260.137 372.694 260.137H364.809C363.83 260.137 363.036 260.928 363.036 261.905V266.874C363.036 267.85 363.83 268.641 364.809 268.641Z" fill="white"/>
<path d="M332.145 62.541L405.346 62.541C406.379 62.541 407.216 61.7068 407.216 60.6777V30.2434C407.216 29.2143 406.379 28.38 405.346 28.38L332.145 28.38C331.112 28.38 330.275 29.2143 330.275 30.2434V60.6777C330.275 61.7068 331.112 62.541 332.145 62.541Z" fill="url(#paint18_linear_141_5160)"/>
<path opacity="0.6" d="M332.145 62.541L405.346 62.541C406.379 62.541 407.216 61.7068 407.216 60.6777V30.2434C407.216 29.2143 406.379 28.38 405.346 28.38L332.145 28.38C331.112 28.38 330.275 29.2143 330.275 30.2434V60.6777C330.275 61.7068 331.112 62.541 332.145 62.541Z" fill="white"/>
<path opacity="0.1" d="M332.157 28.3918H405.346C405.842 28.3918 406.318 28.5882 406.668 28.9376C407.019 29.287 407.216 29.761 407.216 30.2552V40.0137L369.063 47.4909C368.83 47.5386 368.589 47.5386 368.356 47.4909L330.288 40.0137V30.2552C330.288 29.761 330.485 29.287 330.835 28.9376C331.186 28.5882 331.661 28.3918 332.157 28.3918Z" fill="black"/>
<path d="M330.563 15.8981H352.923V12.1595C352.926 10.6146 353.543 9.13384 354.639 8.0414C355.735 6.94896 357.22 6.33383 358.77 6.33068H378.745C379.516 6.32596 380.281 6.47316 380.996 6.76382C381.71 7.05449 382.36 7.4829 382.907 8.02448C383.455 8.56605 383.89 9.21012 384.188 9.91973C384.485 10.6293 384.639 11.3905 384.64 12.1595V15.8981H406.988C407.477 15.8981 407.947 16.0919 408.293 16.4369C408.639 16.7819 408.833 17.2497 408.833 17.7376V36.1439C408.833 36.5694 408.685 36.9818 408.414 37.3106C408.143 37.6395 407.766 37.8646 407.347 37.9475L369.063 45.3888C368.826 45.4368 368.581 45.4368 368.344 45.3888L330.156 37.8997C329.737 37.8168 329.36 37.5917 329.089 37.2629C328.818 36.934 328.67 36.5217 328.67 36.0961V17.7376C328.67 17.4919 328.719 17.2488 328.815 17.0224C328.91 16.7961 329.051 16.5912 329.227 16.4197C329.404 16.2483 329.613 16.1138 329.842 16.0242C330.072 15.9346 330.317 15.8918 330.563 15.8981ZM380.147 12.1595C380.147 11.7878 380 11.4311 379.737 11.1671C379.475 10.9031 379.118 10.7533 378.745 10.7501H358.77C358.398 10.7532 358.042 10.901 357.778 11.1621C357.514 11.4232 357.362 11.7768 357.356 12.1476V15.8862H380.123L380.147 12.1595Z" fill="url(#paint19_linear_141_5160)"/>
<path opacity="0.6" d="M330.563 15.8981H352.923V12.1595C352.926 10.6146 353.543 9.13384 354.639 8.0414C355.735 6.94896 357.22 6.33383 358.77 6.33068H378.745C379.516 6.32596 380.281 6.47316 380.996 6.76382C381.71 7.05449 382.36 7.4829 382.907 8.02448C383.455 8.56605 383.89 9.21012 384.188 9.91973C384.485 10.6293 384.639 11.3905 384.64 12.1595V15.8981H406.988C407.477 15.8981 407.947 16.0919 408.293 16.4369C408.639 16.7819 408.833 17.2497 408.833 17.7376V36.1439C408.833 36.5694 408.685 36.9818 408.414 37.3106C408.143 37.6395 407.766 37.8646 407.347 37.9475L369.063 45.3888C368.826 45.4368 368.581 45.4368 368.344 45.3888L330.156 37.8997C329.737 37.8168 329.36 37.5917 329.089 37.2629C328.818 36.934 328.67 36.5217 328.67 36.0961V17.7376C328.67 17.4919 328.719 17.2488 328.815 17.0224C328.91 16.7961 329.051 16.5912 329.227 16.4197C329.404 16.2483 329.613 16.1138 329.842 16.0242C330.072 15.9346 330.317 15.8918 330.563 15.8981ZM380.147 12.1595C380.147 11.7878 380 11.4311 379.737 11.1671C379.475 10.9031 379.118 10.7533 378.745 10.7501H358.77C358.398 10.7532 358.042 10.901 357.778 11.1621C357.514 11.4232 357.362 11.7768 357.356 12.1476V15.8862H380.123L380.147 12.1595Z" fill="white"/>
<path d="M364.809 48.9124H372.694C373.673 48.9124 374.467 48.1209 374.467 47.1446V42.1757C374.467 41.1994 373.673 40.4079 372.694 40.4079H364.809C363.83 40.4079 363.036 41.1994 363.036 42.1757V47.1446C363.036 48.1209 363.83 48.9124 364.809 48.9124Z" fill="url(#paint20_linear_141_5160)"/>
<path opacity="0.3" d="M364.809 48.9124H372.694C373.673 48.9124 374.467 48.1209 374.467 47.1446V42.1757C374.467 41.1994 373.673 40.4079 372.694 40.4079H364.809C363.83 40.4079 363.036 41.1994 363.036 42.1757V47.1446C363.036 48.1209 363.83 48.9124 364.809 48.9124Z" fill="white"/>
<path d="M341.731 172.417H405.358C405.855 172.414 406.331 172.215 406.681 171.864C407.031 171.513 407.228 171.037 407.228 170.542V140.12C407.226 139.869 407.173 139.621 407.072 139.391C407.028 139.282 406.972 139.177 406.904 139.081C406.837 138.978 406.757 138.886 406.665 138.806C406.492 138.631 406.287 138.493 406.061 138.399C405.835 138.304 405.592 138.256 405.346 138.256H345.098C345.599 142.425 345.764 146.627 345.589 150.822C345.589 151.503 345.589 152.184 345.482 152.852C345.41 154.107 345.302 155.373 345.158 156.627C344.553 161.992 343.405 167.283 341.731 172.417Z" fill="url(#paint21_linear_141_5160)"/>
<path opacity="0.6" d="M341.731 172.417H405.358C405.855 172.414 406.331 172.215 406.681 171.864C407.031 171.513 407.228 171.037 407.228 170.542V140.12C407.226 139.869 407.173 139.621 407.072 139.391C407.028 139.282 406.972 139.177 406.904 139.081C406.837 138.978 406.757 138.886 406.665 138.806C406.492 138.631 406.287 138.493 406.061 138.399C405.835 138.304 405.592 138.256 405.346 138.256H345.098C345.599 142.425 345.764 146.627 345.589 150.822C345.589 151.503 345.589 152.184 345.482 152.852C345.41 154.107 345.302 155.373 345.158 156.627C344.553 161.992 343.405 167.283 341.731 172.417Z" fill="white"/>
<path opacity="0.1" d="M345.098 138.256C345.599 142.425 345.764 146.627 345.589 150.822C345.589 151.503 345.589 152.184 345.482 152.852L363.072 156.292L368.44 157.343C368.672 157.403 368.915 157.403 369.147 157.343L374.503 156.304L407.252 149.878V140.108C407.248 139.862 407.199 139.619 407.108 139.391C407.064 139.282 407.008 139.177 406.94 139.081C406.873 138.978 406.793 138.886 406.701 138.806C406.529 138.631 406.323 138.493 406.097 138.399C405.871 138.304 405.628 138.256 405.382 138.256H345.098Z" fill="black"/>
<path d="M342.582 125.763H352.923V122.024C352.926 120.479 353.543 118.998 354.639 117.906C355.735 116.814 357.22 116.198 358.77 116.195H378.733C380.285 116.195 381.774 116.809 382.872 117.902C383.971 118.995 384.589 120.477 384.593 122.024V125.763H406.94C407.429 125.763 407.899 125.957 408.245 126.302C408.591 126.646 408.785 127.114 408.785 127.602V145.997C408.786 146.424 408.638 146.838 408.367 147.168C408.096 147.499 407.719 147.727 407.3 147.812H407.216L374.467 154.25L369.063 155.277C368.83 155.325 368.589 155.325 368.356 155.277L362.988 154.226L345.529 150.798C345.869 142.332 344.858 133.865 342.534 125.715L342.582 125.763ZM380.147 122.024C380.141 121.653 379.989 121.3 379.725 121.039C379.461 120.778 379.105 120.63 378.733 120.627H358.77C358.399 120.63 358.044 120.778 357.782 121.039C357.52 121.301 357.371 121.655 357.368 122.024V125.763H380.135L380.147 122.024Z" fill="url(#paint22_linear_141_5160)"/>
<path opacity="0.6" d="M342.582 125.763H352.923V122.024C352.926 120.479 353.543 118.998 354.639 117.906C355.735 116.814 357.22 116.198 358.77 116.195H378.733C380.285 116.195 381.774 116.809 382.872 117.902C383.971 118.995 384.589 120.477 384.593 122.024V125.763H406.94C407.429 125.763 407.899 125.957 408.245 126.302C408.591 126.646 408.785 127.114 408.785 127.602V145.997C408.786 146.424 408.638 146.838 408.367 147.168C408.096 147.499 407.719 147.727 407.3 147.812H407.216L374.467 154.25L369.063 155.277C368.83 155.325 368.589 155.325 368.356 155.277L362.988 154.226L345.529 150.798C345.869 142.332 344.858 133.865 342.534 125.715L342.582 125.763ZM380.147 122.024C380.141 121.653 379.989 121.3 379.725 121.039C379.461 120.778 379.105 120.63 378.733 120.627H358.77C358.399 120.63 358.044 120.778 357.782 121.039C357.52 121.301 357.371 121.655 357.368 122.024V125.763H380.135L380.147 122.024Z" fill="white"/>
<path d="M364.809 158.789H372.694C373.673 158.789 374.467 157.997 374.467 157.021V152.052C374.467 151.076 373.673 150.284 372.694 150.284H364.809C363.83 150.284 363.036 151.076 363.036 152.052V157.021C363.036 157.997 363.83 158.789 364.809 158.789Z" fill="url(#paint23_linear_141_5160)"/>
<path opacity="0.3" d="M364.809 158.789H372.694C373.673 158.789 374.467 157.997 374.467 157.021V152.052C374.467 151.076 373.673 150.284 372.694 150.284H364.809C363.83 150.284 363.036 151.076 363.036 152.052V157.021C363.036 157.997 363.83 158.789 364.809 158.789Z" fill="white"/>
<path d="M311.187 130.839H206.004C204.522 130.839 203.32 132.037 203.32 133.514V177.243C203.32 178.72 204.522 179.918 206.004 179.918H311.187C312.67 179.918 313.871 178.72 313.871 177.243V133.514C313.871 132.037 312.67 130.839 311.187 130.839Z" fill="url(#paint24_linear_141_5160)"/>
<path d="M272.939 123.027H244.241C242.065 123.024 239.979 122.161 238.44 120.627C236.902 119.094 236.036 117.014 236.033 114.845V107.5C236.036 105.331 236.902 103.251 238.44 101.718C239.979 100.184 242.065 99.3208 244.241 99.3176H272.939C275.116 99.3176 277.204 100.18 278.743 101.714C280.282 103.248 281.147 105.33 281.147 107.5V114.81C281.152 115.887 280.943 116.955 280.533 117.952C280.122 118.948 279.518 119.855 278.756 120.618C277.993 121.382 277.087 121.988 276.088 122.401C275.09 122.814 274.02 123.027 272.939 123.027ZM244.241 105.326C243.663 105.332 243.111 105.562 242.701 105.968C242.292 106.374 242.057 106.924 242.048 107.5V114.81C242.048 115.396 242.282 115.958 242.697 116.372C243.113 116.786 243.677 117.019 244.265 117.019H272.963C273.551 117.019 274.115 116.786 274.531 116.372C274.946 115.958 275.18 115.396 275.18 114.81V107.5C275.18 106.913 274.946 106.351 274.531 105.937C274.115 105.523 273.551 105.29 272.963 105.29L244.241 105.326Z" fill="url(#paint25_linear_141_5160)"/>
<path opacity="0.2" d="M311.175 130.839H206.016C205.663 130.837 205.312 130.905 204.985 131.039C204.658 131.173 204.361 131.37 204.111 131.618C203.86 131.867 203.661 132.162 203.526 132.488C203.39 132.813 203.32 133.162 203.32 133.514V147.549L258.081 158.299C258.416 158.372 258.763 158.372 259.099 158.299L313.871 147.549V133.514C313.871 133.162 313.802 132.813 313.666 132.488C313.53 132.162 313.332 131.867 313.081 131.618C312.831 131.37 312.533 131.173 312.206 131.039C311.879 130.905 311.529 130.837 311.175 130.839Z" fill="black"/>
<path d="M313.943 144.527L259.075 155.277C258.734 155.337 258.385 155.337 258.045 155.277L203.176 144.527C202.574 144.409 202.031 144.086 201.64 143.613C201.249 143.141 201.034 142.548 201.031 141.935V115.538C201.031 115.191 201.1 114.848 201.233 114.528C201.366 114.208 201.561 113.917 201.807 113.672C202.053 113.426 202.345 113.232 202.666 113.099C202.988 112.967 203.332 112.898 203.68 112.898H313.464C313.812 112.898 314.156 112.967 314.477 113.099C314.799 113.232 315.091 113.426 315.336 113.672C315.582 113.917 315.777 114.208 315.911 114.528C316.044 114.848 316.112 115.191 316.112 115.538V141.983C316.1 142.591 315.878 143.177 315.482 143.64C315.087 144.104 314.544 144.417 313.943 144.527Z" fill="url(#paint26_linear_141_5160)"/>
<path d="M264.275 148.122H252.928C251.525 148.122 250.388 149.256 250.388 150.655V157.809C250.388 159.208 251.525 160.341 252.928 160.341H264.275C265.678 160.341 266.816 159.208 266.816 157.809V150.655C266.816 149.256 265.678 148.122 264.275 148.122Z" fill="url(#paint27_linear_141_5160)"/>
<path opacity="0.4" d="M264.275 148.122H252.928C251.525 148.122 250.388 149.256 250.388 150.655V157.809C250.388 159.208 251.525 160.341 252.928 160.341H264.275C265.678 160.341 266.816 159.208 266.816 157.809V150.655C266.816 149.256 265.678 148.122 264.275 148.122Z" fill="black"/>
<path d="M456.515 158.116C457.893 160.947 458.912 163.622 460.11 166.417C461.308 169.212 462.183 171.995 463.118 174.85C465.012 180.638 466.411 186.576 467.3 192.599C467.419 193.352 467.479 194.164 467.563 194.988L467.683 196.182C467.683 196.397 467.683 196.553 467.683 196.804V197.58C467.723 199.391 467.567 201.201 467.216 202.979C466.622 206.068 465.776 209.104 464.687 212.057C462.641 217.669 460.091 223.086 457.067 228.241L450.979 225.673C452.333 220.227 453.699 214.672 454.73 209.309C455.234 206.74 455.59 204.144 455.796 201.534C455.867 200.467 455.843 199.395 455.724 198.332L455.593 197.58L455.425 196.624C455.293 195.991 455.209 195.358 455.053 194.713C453.859 189.441 452.314 184.254 450.428 179.186C449.518 176.594 448.511 174.014 447.504 171.422C446.498 168.83 445.384 166.226 444.353 163.837L456.515 158.116Z" fill="#D9A6A3"/>
<path d="M451.144 223.885L446.47 228.424L456.668 233.202C456.668 233.202 459.136 228.902 457.435 225.008L451.144 223.885Z" fill="#D9A6A3"/>
<path d="M442.708 235.197L451.312 238.708L456.668 233.154L446.471 228.424L442.708 235.197Z" fill="#7F3E3B"/>
<path opacity="0.2" d="M268.182 230.3C285.138 228.407 301.15 221.545 314.194 210.581C327.238 199.618 336.727 185.045 341.463 168.706C346.199 152.367 345.969 134.995 340.801 118.786C335.633 102.578 325.76 88.2603 312.43 77.6446C299.1 67.0288 282.911 60.5913 265.911 59.1459C248.911 57.7005 231.863 61.3122 216.922 69.5243C201.98 77.7363 189.818 90.1801 181.971 105.282C174.124 120.384 170.945 137.466 172.837 154.369C174.093 165.596 177.556 176.467 183.028 186.359C188.5 196.252 195.874 204.973 204.728 212.024C213.583 219.075 223.744 224.319 234.631 227.454C245.519 230.59 256.919 231.557 268.182 230.3Z" fill="url(#paint28_linear_141_5160)"/>
<path opacity="0.1" d="M205.405 77.089L336.614 181.555C337.177 180.36 337.705 179.166 338.22 177.971C341.508 170.172 343.608 161.927 344.451 153.509L231.12 63.3052C221.819 66.397 213.121 71.0595 205.405 77.089Z" fill="white"/>
<path opacity="0.1" d="M175.137 122.872L298.486 221.115C310.206 215.021 320.365 206.325 328.179 195.697L193.471 88.3884C184.789 98.3306 178.517 110.129 175.137 122.872Z" fill="white"/>
<path d="M471.119 241.42C470.961 239.246 470.247 237.149 469.046 235.328C468.172 233.989 466.951 232.912 465.511 232.211L457.327 228.209C451.887 225.522 446.411 222.906 440.935 220.29C435.458 217.674 429.947 215.106 424.458 212.514C418.97 209.923 413.435 207.402 407.887 204.93C396.815 199.929 385.671 195.064 374.455 190.334C368.847 187.945 363.228 185.652 357.56 183.406C355.905 182.756 354.56 181.504 353.797 179.903C353.034 178.302 352.91 176.471 353.45 174.782C361.036 150.939 359.309 125.119 348.613 102.491C337.917 79.8637 319.042 62.098 295.766 52.7505C272.49 43.403 246.531 43.1635 223.086 52.0802C199.641 60.9968 180.439 78.4114 169.325 100.838C158.211 123.265 156.004 149.048 163.147 173.027C170.29 197.006 186.255 217.411 207.846 230.158C229.438 242.904 255.062 247.051 279.59 241.768C304.118 236.486 325.739 222.164 340.125 201.669C341.144 200.212 342.679 199.196 344.421 198.825C346.163 198.455 347.981 198.758 349.508 199.674C354.748 202.78 360.012 205.834 365.301 208.836C375.869 214.84 386.518 220.692 397.246 226.394C402.602 229.284 408.03 232.067 413.363 234.898C418.695 237.729 424.147 240.488 429.575 243.259C435.003 246.03 440.359 248.742 445.859 251.417L454.019 255.455C455.453 256.173 457.057 256.487 458.657 256.362C460.834 256.208 462.935 255.497 464.756 254.296C466.927 252.967 468.677 251.052 469.802 248.774C470.928 246.495 471.385 243.946 471.119 241.42ZM223.834 214.999C209.905 208.147 198.326 197.332 190.563 183.92C182.8 170.509 179.202 155.104 180.222 139.654C181.243 124.204 186.836 109.402 196.296 97.121C205.756 84.84 218.657 75.6312 233.368 70.6592C248.079 65.6872 263.938 65.1754 278.94 69.1884C293.943 73.2014 307.414 81.5591 317.652 93.2044C327.889 104.85 334.431 119.26 336.452 134.612C338.473 149.964 335.882 165.569 329.005 179.452C324.442 188.67 318.101 196.902 310.346 203.677C302.59 210.452 293.572 215.639 283.806 218.939C274.04 222.24 263.717 223.591 253.427 222.915C243.137 222.239 233.081 219.549 223.834 214.999Z" fill="url(#paint29_linear_141_5160)"/>
<path d="M411.23 120.997C411.23 121.701 410.858 122.275 410.391 122.275C409.924 122.275 409.552 121.701 409.552 120.997C409.552 120.292 409.924 119.707 410.391 119.707C410.858 119.707 411.23 120.28 411.23 120.997Z" fill="#263238"/>
<path d="M411.017 122.474C410.175 124.638 409.038 126.675 407.638 128.53C408.123 128.875 408.677 129.111 409.263 129.22C409.849 129.33 410.452 129.31 411.029 129.163L411.017 122.474Z" fill="#CB9494"/>
<path d="M413.746 117.055C413.833 117.052 413.917 117.023 413.987 116.971C414.056 116.919 414.108 116.846 414.134 116.763C414.16 116.681 414.16 116.592 414.134 116.509C414.107 116.427 414.055 116.354 413.986 116.302C413.456 115.907 412.84 115.642 412.188 115.53C411.536 115.418 410.867 115.461 410.235 115.657C410.179 115.673 410.126 115.7 410.08 115.737C410.035 115.774 409.998 115.82 409.971 115.872C409.945 115.924 409.93 115.981 409.927 116.039C409.924 116.098 409.933 116.156 409.954 116.211C409.975 116.265 410.007 116.315 410.049 116.356C410.09 116.398 410.14 116.43 410.195 116.451C410.249 116.472 410.308 116.481 410.367 116.478C410.425 116.475 410.482 116.46 410.535 116.434C411.038 116.285 411.569 116.256 412.085 116.349C412.601 116.442 413.088 116.655 413.506 116.971C413.574 117.026 413.659 117.056 413.746 117.055Z" fill="#263238"/>
<path d="M435.57 126.523C434.299 132.949 433.041 144.714 437.547 148.99C437.547 148.99 435.785 155.5 423.827 155.5C410.646 155.5 417.536 148.99 417.536 148.99C424.725 147.282 424.534 141.967 423.275 137.046L435.57 126.523Z" fill="#D9A6A3"/>
<path d="M439.761 144.766C440.755 145.089 439.461 150.989 439.461 150.989C439.461 150.989 437.819 155.11 417.425 153.677C415.855 153.557 416.454 147.895 417.952 147.071C422.781 144.444 436.549 143.715 439.761 144.766Z" fill="#263238"/>
<path d="M481.184 391.549C482.286 391.441 483.892 389.423 484.347 388.682C484.368 388.65 484.378 388.613 484.378 388.575C484.378 388.537 484.368 388.5 484.347 388.467C484.328 388.432 484.298 388.404 484.261 388.387C484.225 388.369 484.183 388.364 484.144 388.372C484.024 388.372 481.124 388.921 480.417 390.044C480.343 390.162 480.293 390.294 480.273 390.432C480.252 390.569 480.26 390.71 480.297 390.844C480.453 391.37 480.753 391.513 480.992 391.549H481.184ZM483.712 388.885C482.934 389.96 481.651 391.215 481.04 391.131C480.98 391.131 480.801 391.131 480.693 390.725C480.669 390.647 480.664 390.564 480.676 390.484C480.688 390.403 480.719 390.326 480.765 390.259C481.591 389.523 482.616 389.045 483.712 388.885Z" fill="url(#paint30_linear_141_5160)"/>
<path d="M483.593 388.885C483.807 388.867 484.019 388.831 484.228 388.778C484.263 388.767 484.295 388.746 484.32 388.719C484.345 388.692 484.363 388.659 484.372 388.623C484.379 388.585 484.376 388.547 484.363 388.511C484.35 388.476 484.329 388.444 484.3 388.42C484.228 388.348 482.287 386.7 480.969 386.831C480.81 386.841 480.655 386.885 480.515 386.959C480.375 387.033 480.251 387.136 480.154 387.261C480.041 387.369 479.97 387.514 479.955 387.67C479.94 387.825 479.98 387.981 480.07 388.109C480.501 388.79 482.394 389.005 483.593 388.885ZM483.689 388.467C482.49 388.611 480.741 388.372 480.405 387.882C480.405 387.882 480.309 387.727 480.477 387.512C480.545 387.433 480.627 387.368 480.719 387.321C480.812 387.274 480.913 387.245 481.016 387.237C482.01 387.374 482.94 387.802 483.689 388.467Z" fill="url(#paint31_linear_141_5160)"/>
<path d="M398.804 422.962C399.712 422.959 400.617 422.879 401.512 422.724C401.552 422.713 401.588 422.691 401.618 422.662C401.647 422.633 401.669 422.596 401.68 422.556C401.687 422.514 401.68 422.47 401.661 422.431C401.642 422.393 401.61 422.361 401.572 422.341C401.44 422.258 398.372 420.514 396.899 420.908C396.623 420.978 396.386 421.154 396.239 421.398C396.146 421.531 396.095 421.689 396.095 421.852C396.095 422.014 396.146 422.173 396.239 422.305C396.623 422.831 397.677 422.962 398.804 422.962ZM400.841 422.413C399.199 422.64 396.97 422.628 396.563 422.067C396.503 421.995 396.455 421.864 396.563 421.601C396.607 421.527 396.666 421.464 396.736 421.414C396.806 421.365 396.886 421.331 396.97 421.314C397.917 421.063 399.762 421.864 400.841 422.413Z" fill="url(#paint32_linear_141_5160)"/>
<path d="M401.416 422.724C401.459 422.736 401.505 422.736 401.548 422.724C401.576 422.701 401.598 422.671 401.612 422.638C401.627 422.605 401.633 422.569 401.632 422.533C401.632 422.437 401.38 420.072 400.266 419.153C400.101 419.015 399.91 418.913 399.704 418.851C399.498 418.79 399.281 418.77 399.068 418.794C398.493 418.854 398.337 419.141 398.289 419.38C398.133 420.371 400.242 422.27 401.297 422.748L401.416 422.724ZM399.271 419.141C399.539 419.148 399.796 419.245 400.002 419.415C400.668 420.173 401.086 421.115 401.201 422.115C400.11 421.47 398.684 419.977 398.804 419.38C398.804 419.38 398.804 419.189 399.212 419.153L399.271 419.141Z" fill="url(#paint33_linear_141_5160)"/>
<path d="M411.146 422.521H402.351L401.464 402.192H410.271L411.146 422.521Z" fill="#E69F9C"/>
<path d="M492.04 382.256L485.174 387.739L467.704 375.651L474.582 370.168L492.04 382.256Z" fill="#E69F9C"/>
<path d="M483.916 387.392L490.938 380.453C491.064 380.332 491.227 380.257 491.401 380.239C491.575 380.222 491.749 380.264 491.897 380.357L498.643 384.681C498.806 384.786 498.944 384.928 499.044 385.094C499.145 385.26 499.206 385.447 499.224 385.641C499.241 385.834 499.214 386.029 499.144 386.21C499.075 386.392 498.965 386.555 498.823 386.688C496.33 389.077 495 390.104 491.909 393.15C490.015 395.037 485.378 400.651 482.754 403.243C480.13 405.835 477.206 403.589 478.057 402.287C481.831 396.482 483.113 391.692 483.281 388.778C483.317 388.255 483.543 387.762 483.916 387.392Z" fill="#263238"/>
<path d="M402.399 421.506H411.985C412.159 421.505 412.328 421.564 412.463 421.672C412.598 421.781 412.692 421.933 412.728 422.103L414.465 429.903C414.509 430.09 414.509 430.285 414.466 430.472C414.423 430.66 414.337 430.835 414.216 430.985C414.095 431.135 413.941 431.255 413.766 431.336C413.591 431.418 413.4 431.458 413.207 431.455C409.732 431.455 404.723 431.204 400.362 431.204C395.269 431.204 390.871 431.479 384.892 431.479C381.297 431.479 380.279 427.836 381.789 427.502C388.679 426.009 394.298 425.841 400.242 422.186C400.883 421.763 401.63 421.528 402.399 421.506Z" fill="#263238"/>
<path d="M454.798 151.419C462.431 155.002 465.583 179.56 465.583 179.56L448.028 186.428C445.303 179.779 443.096 172.93 441.426 165.943C438.969 154.859 446.95 147.692 454.798 151.419Z" fill="url(#paint34_linear_141_5160)"/>
<path opacity="0.3" d="M454.798 151.419C462.431 155.002 465.583 179.56 465.583 179.56L448.028 186.428C445.303 179.779 443.096 172.93 441.426 165.943C438.969 154.859 446.95 147.692 454.798 151.419Z" fill="white"/>
<path opacity="0.2" d="M443.427 158.621C442.829 158.332 442.202 158.104 441.558 157.94C440.858 160.559 440.833 163.312 441.486 165.943C443.149 172.931 445.352 179.779 448.076 186.428L453.864 184.17C452.797 177.756 449.526 161.536 443.427 158.621Z" fill="black"/>
<path d="M403.896 151.228C403.896 151.228 394.526 161.775 403.369 227.075H450.461C450.784 219.908 446.243 184.72 453.217 150.774C448.009 149.775 442.741 149.113 437.448 148.791C430.783 148.409 424.101 148.409 417.437 148.791C412.866 149.25 408.339 150.065 403.896 151.228Z" fill="url(#paint35_linear_141_5160)"/>
<path opacity="0.3" d="M403.896 151.228C403.896 151.228 394.526 161.775 403.369 227.075H450.461C450.784 219.908 446.243 184.72 453.217 150.774C448.009 149.775 442.741 149.113 437.448 148.791C430.783 148.409 424.101 148.409 417.437 148.791C412.866 149.25 408.339 150.065 403.896 151.228Z" fill="white"/>
<path opacity="0.2" d="M413.399 165.227C411.266 158.848 406.137 156.806 400.913 160.592C399.858 166.779 399.116 176.753 399.966 192.567L409.157 192.484C409.157 192.484 416.55 174.722 413.399 165.227Z" fill="black"/>
<path d="M411.772 162.81C411.389 166.011 410.862 168.914 410.274 171.936C409.687 174.957 409.004 177.908 408.225 180.882C406.688 186.961 404.594 192.886 401.97 198.583C401.287 200.053 400.497 201.498 399.658 202.943C399.226 203.672 398.795 204.4 398.304 205.117C397.667 206.113 396.915 207.031 396.063 207.852C394.41 209.381 392.449 210.541 390.311 211.256C388.576 211.863 386.78 212.283 384.955 212.511C381.699 212.913 378.407 212.953 375.141 212.63C373.544 212.503 371.986 212.3 370.468 212.021C368.911 211.746 367.437 211.46 365.831 211.041L366.61 204.496C372.079 204.267 377.509 203.466 382.81 202.107C383.889 201.789 384.936 201.373 385.938 200.865C386.596 200.564 387.171 200.109 387.615 199.539C387.519 199.623 388.394 198.177 388.909 197.15C389.425 196.123 390 194.761 390.491 193.567C391.498 191.106 392.36 188.502 393.151 185.839C393.942 183.175 394.637 180.464 395.284 177.717C395.931 174.969 396.482 172.198 397.082 169.356C397.681 166.513 398.112 163.694 398.543 161.054L411.772 162.81Z" fill="#D9A6A3"/>
<path d="M415.663 157.666C418.144 165.68 408.078 189.569 408.078 189.569L386.881 184.254C388.179 176.703 390.363 169.331 393.388 162.288C400.218 147.382 412.68 148.003 415.663 157.666Z" fill="url(#paint36_linear_141_5160)"/>
<path opacity="0.3" d="M415.663 157.666C418.144 165.68 408.078 189.569 408.078 189.569L386.881 184.254C388.179 176.703 390.363 169.331 393.388 162.288C400.218 147.382 412.68 148.003 415.663 157.666Z" fill="white"/>
<path d="M366.909 204.532L356.94 204.281L361.733 214.613C361.733 214.613 365.783 215.15 369.114 209.692L372.625 205.523L368.587 204.711C368.034 204.604 367.473 204.544 366.909 204.532Z" fill="#D9A6A3"/>
<path d="M350.649 206.204L356.365 214.768L361.745 214.613L356.94 204.281L350.649 206.204Z" fill="#D9A6A3"/>
<path opacity="0.2" d="M401.476 402.203L401.919 412.679H410.727L410.271 402.203H401.476Z" fill="black"/>
<path opacity="0.2" d="M474.582 370.168L467.704 375.651L476.714 381.886L483.592 376.403L474.582 370.168Z" fill="black"/>
<path d="M435.067 119.643C434.539 128.338 434.683 133.451 430.274 137.918C423.659 144.631 412.887 140.665 410.802 131.946C408.921 124.134 410.107 111.234 418.638 107.758C420.52 106.983 422.569 106.7 424.591 106.939C426.613 107.177 428.539 107.929 430.187 109.121C431.835 110.313 433.148 111.906 434.003 113.748C434.857 115.59 435.223 117.62 435.067 119.643Z" fill="#D9A6A3"/>
<path d="M442.013 111.369C442.013 111.369 446.602 112.731 445.165 117.951C442.996 125.882 437.891 135.007 431.301 135.581C423.093 136.309 419.39 127.865 418.312 119.133C413.399 115.777 409.756 112.635 410.93 109.148C412.728 103.773 419.246 99.1383 429.623 100.333C440 101.527 445.165 108.216 442.013 111.369Z" fill="#263238"/>
<path d="M423.407 121.124C423.248 123.281 422.38 125.325 420.939 126.941C419.022 129.043 417.009 127.729 416.673 125.173C416.374 122.856 416.997 118.974 419.345 117.816C421.694 116.657 423.563 118.52 423.407 121.124Z" fill="#D9A6A3"/>
<path d="M420.073 227.075C420.073 227.075 417.101 286.223 422.889 311.283C432.055 350.962 472.353 382.758 472.353 382.758L485.294 372.426C485.294 372.426 452.138 347.833 449.155 314.794C446.482 285.124 450.437 251.047 450.437 227.075H420.073Z" fill="url(#paint37_linear_141_5160)"/>
<path opacity="0.2" d="M420.073 227.075C420.073 227.075 417.101 286.223 422.889 311.283C432.055 350.962 472.353 382.758 472.353 382.758L485.294 372.426C485.294 372.426 452.138 347.833 449.155 314.794C446.482 285.124 450.437 251.047 450.437 227.075H420.073Z" fill="black"/>
<path opacity="0.2" d="M424.495 244.597C423.296 242.292 420.96 249.16 419.33 257.975C419.33 270.134 419.546 283.966 420.612 295.683C428.748 280.693 427.023 249.375 424.495 244.597Z" fill="black"/>
<path d="M466.482 380.214L471.395 384.012L486.337 371.936L481.855 367.887L466.482 380.214Z" fill="#2C6BDB"/>
<path opacity="0.4" d="M466.482 380.214L471.395 384.012L486.337 371.936L481.855 367.887L466.482 380.214Z" fill="#FAFAFA"/>
<path d="M403.369 227.075C403.369 227.075 390.117 283.094 389.182 309.849C388.139 339.866 398.636 410.648 398.636 410.648H413.554C413.554 410.648 415.388 339.316 416.059 311.975C416.778 282.174 434.32 227.075 434.32 227.075H403.369Z" fill="url(#paint38_linear_141_5160)"/>
<path opacity="0.2" d="M403.369 227.075C403.369 227.075 390.117 283.094 389.182 309.849C388.139 339.866 398.636 410.648 398.636 410.648H413.554C413.554 410.648 415.388 339.316 416.059 311.975C416.778 282.174 434.32 227.075 434.32 227.075H403.369Z" fill="black"/>
<path d="M395.772 404.723C395.7 404.723 396.611 410.899 396.611 410.899H414.753L415.244 405.392L395.772 404.723Z" fill="#2C6BDB"/>
<path opacity="0.4" d="M395.772 404.723C395.7 404.723 396.611 410.899 396.611 410.899H414.753L415.244 405.392L395.772 404.723Z" fill="#FAFAFA"/>
<defs>
<linearGradient id="paint0_linear_141_5160" x1="216.249" y1="265.202" x2="293.189" y2="265.202" gradientUnits="userSpaceOnUse">
<stop stop-color="#F6D365"/>
<stop offset="1" stop-color="#FDA085"/>
</linearGradient>
<linearGradient id="paint1_linear_141_5160" x1="214.692" y1="245.626" x2="294.759" y2="245.626" gradientUnits="userSpaceOnUse">
<stop stop-color="#F6D365"/>
<stop offset="1" stop-color="#FDA085"/>
</linearGradient>
<linearGradient id="paint2_linear_141_5160" x1="249.01" y1="264.389" x2="260.441" y2="264.389" gradientUnits="userSpaceOnUse">
<stop stop-color="#F6D365"/>
<stop offset="1" stop-color="#FDA085"/>
</linearGradient>
<linearGradient id="paint3_linear_141_5160" x1="216.249" y1="45.4723" x2="293.189" y2="45.4723" gradientUnits="userSpaceOnUse">
<stop stop-color="#F6D365"/>
<stop offset="1" stop-color="#FDA085"/>
</linearGradient>
<linearGradient id="paint4_linear_141_5160" x1="214.692" y1="25.8775" x2="294.771" y2="25.8775" gradientUnits="userSpaceOnUse">
<stop stop-color="#F6D365"/>
<stop offset="1" stop-color="#FDA085"/>
</linearGradient>
<linearGradient id="paint5_linear_141_5160" x1="249.01" y1="44.6721" x2="260.441" y2="44.6721" gradientUnits="userSpaceOnUse">
<stop stop-color="#F6D365"/>
<stop offset="1" stop-color="#FDA085"/>
</linearGradient>
<linearGradient id="paint6_linear_141_5160" x1="102.223" y1="265.202" x2="179.163" y2="265.202" gradientUnits="userSpaceOnUse">
<stop stop-color="#F6D365"/>
<stop offset="1" stop-color="#FDA085"/>
</linearGradient>
<linearGradient id="paint7_linear_141_5160" x1="100.654" y1="245.626" x2="180.721" y2="245.626" gradientUnits="userSpaceOnUse">
<stop stop-color="#F6D365"/>
<stop offset="1" stop-color="#FDA085"/>
</linearGradient>
<linearGradient id="paint8_linear_141_5160" x1="134.972" y1="264.389" x2="146.403" y2="264.389" gradientUnits="userSpaceOnUse">
<stop stop-color="#F6D365"/>
<stop offset="1" stop-color="#FDA085"/>
</linearGradient>
<linearGradient id="paint9_linear_141_5160" x1="102.223" y1="45.4723" x2="179.163" y2="45.4723" gradientUnits="userSpaceOnUse">
<stop stop-color="#F6D365"/>
<stop offset="1" stop-color="#FDA085"/>
</linearGradient>
<linearGradient id="paint10_linear_141_5160" x1="100.654" y1="25.8776" x2="180.721" y2="25.8776" gradientUnits="userSpaceOnUse">
<stop stop-color="#F6D365"/>
<stop offset="1" stop-color="#FDA085"/>
</linearGradient>
<linearGradient id="paint11_linear_141_5160" x1="134.972" y1="44.6721" x2="146.403" y2="44.6721" gradientUnits="userSpaceOnUse">
<stop stop-color="#F6D365"/>
<stop offset="1" stop-color="#FDA085"/>
</linearGradient>
<linearGradient id="paint12_linear_141_5160" x1="102.211" y1="155.337" x2="167.756" y2="155.337" gradientUnits="userSpaceOnUse">
<stop stop-color="#F6D365"/>
<stop offset="1" stop-color="#FDA085"/>
</linearGradient>
<linearGradient id="paint13_linear_141_5160" x1="100.654" y1="135.76" x2="166.857" y2="135.76" gradientUnits="userSpaceOnUse">
<stop stop-color="#F6D365"/>
<stop offset="1" stop-color="#FDA085"/>
</linearGradient>
<linearGradient id="paint14_linear_141_5160" x1="134.972" y1="154.525" x2="146.403" y2="154.525" gradientUnits="userSpaceOnUse">
<stop stop-color="#F6D365"/>
<stop offset="1" stop-color="#FDA085"/>
</linearGradient>
<linearGradient id="paint15_linear_141_5160" x1="407.216" y1="265.189" x2="330.275" y2="265.189" gradientUnits="userSpaceOnUse">
<stop stop-color="#F6D365"/>
<stop offset="1" stop-color="#FDA085"/>
</linearGradient>
<linearGradient id="paint16_linear_141_5160" x1="328.67" y1="245.626" x2="408.785" y2="245.626" gradientUnits="userSpaceOnUse">
<stop stop-color="#F6D365"/>
<stop offset="1" stop-color="#FDA085"/>
</linearGradient>
<linearGradient id="paint17_linear_141_5160" x1="374.467" y1="264.389" x2="363.036" y2="264.389" gradientUnits="userSpaceOnUse">
<stop stop-color="#F6D365"/>
<stop offset="1" stop-color="#FDA085"/>
</linearGradient>
<linearGradient id="paint18_linear_141_5160" x1="407.216" y1="45.4605" x2="330.275" y2="45.4605" gradientUnits="userSpaceOnUse">
<stop stop-color="#F6D365"/>
<stop offset="1" stop-color="#FDA085"/>
</linearGradient>
<linearGradient id="paint19_linear_141_5160" x1="328.67" y1="25.8777" x2="408.833" y2="25.8777" gradientUnits="userSpaceOnUse">
<stop stop-color="#F6D365"/>
<stop offset="1" stop-color="#FDA085"/>
</linearGradient>
<linearGradient id="paint20_linear_141_5160" x1="374.467" y1="44.6601" x2="363.036" y2="44.6601" gradientUnits="userSpaceOnUse">
<stop stop-color="#F6D365"/>
<stop offset="1" stop-color="#FDA085"/>
</linearGradient>
<linearGradient id="paint21_linear_141_5160" x1="341.731" y1="155.337" x2="407.228" y2="155.337" gradientUnits="userSpaceOnUse">
<stop stop-color="#F6D365"/>
<stop offset="1" stop-color="#FDA085"/>
</linearGradient>
<linearGradient id="paint22_linear_141_5160" x1="342.534" y1="135.754" x2="408.785" y2="135.754" gradientUnits="userSpaceOnUse">
<stop stop-color="#F6D365"/>
<stop offset="1" stop-color="#FDA085"/>
</linearGradient>
<linearGradient id="paint23_linear_141_5160" x1="374.467" y1="154.537" x2="363.036" y2="154.537" gradientUnits="userSpaceOnUse">
<stop stop-color="#F6D365"/>
<stop offset="1" stop-color="#FDA085"/>
</linearGradient>
<linearGradient id="paint24_linear_141_5160" x1="203.32" y1="155.379" x2="313.871" y2="155.379" gradientUnits="userSpaceOnUse">
<stop stop-color="#F6D365"/>
<stop offset="1" stop-color="#FDA085"/>
</linearGradient>
<linearGradient id="paint25_linear_141_5160" x1="236.033" y1="111.172" x2="281.147" y2="111.172" gradientUnits="userSpaceOnUse">
<stop stop-color="#F6D365"/>
<stop offset="1" stop-color="#FDA085"/>
</linearGradient>
<linearGradient id="paint26_linear_141_5160" x1="201.031" y1="134.11" x2="316.112" y2="134.11" gradientUnits="userSpaceOnUse">
<stop stop-color="#F6D365"/>
<stop offset="1" stop-color="#FDA085"/>
</linearGradient>
<linearGradient id="paint27_linear_141_5160" x1="250.388" y1="154.232" x2="266.816" y2="154.232" gradientUnits="userSpaceOnUse">
<stop stop-color="#F6D365"/>
<stop offset="1" stop-color="#FDA085"/>
</linearGradient>
<linearGradient id="paint28_linear_141_5160" x1="172.305" y1="144.834" x2="344.854" y2="144.834" gradientUnits="userSpaceOnUse">
<stop stop-color="#F6D365"/>
<stop offset="1" stop-color="#FDA085"/>
</linearGradient>
<linearGradient id="paint29_linear_141_5160" x1="159.029" y1="150.976" x2="471.192" y2="150.976" gradientUnits="userSpaceOnUse">
<stop stop-color="#F6D365"/>
<stop offset="1" stop-color="#FDA085"/>
</linearGradient>
<linearGradient id="paint30_linear_141_5160" x1="480.262" y1="389.959" x2="484.378" y2="389.959" gradientUnits="userSpaceOnUse">
<stop stop-color="#F6D365"/>
<stop offset="1" stop-color="#FDA085"/>
</linearGradient>
<linearGradient id="paint31_linear_141_5160" x1="479.952" y1="387.87" x2="484.375" y2="387.87" gradientUnits="userSpaceOnUse">
<stop stop-color="#F6D365"/>
<stop offset="1" stop-color="#FDA085"/>
</linearGradient>
<linearGradient id="paint32_linear_141_5160" x1="396.095" y1="421.906" x2="401.682" y2="421.906" gradientUnits="userSpaceOnUse">
<stop stop-color="#F6D365"/>
<stop offset="1" stop-color="#FDA085"/>
</linearGradient>
<linearGradient id="paint33_linear_141_5160" x1="398.281" y1="420.766" x2="401.632" y2="420.766" gradientUnits="userSpaceOnUse">
<stop stop-color="#F6D365"/>
<stop offset="1" stop-color="#FDA085"/>
</linearGradient>
<linearGradient id="paint34_linear_141_5160" x1="440.973" y1="168.426" x2="465.583" y2="168.426" gradientUnits="userSpaceOnUse">
<stop stop-color="#F6D365"/>
<stop offset="1" stop-color="#FDA085"/>
</linearGradient>
<linearGradient id="paint35_linear_141_5160" x1="399.571" y1="187.789" x2="453.217" y2="187.789" gradientUnits="userSpaceOnUse">
<stop stop-color="#F6D365"/>
<stop offset="1" stop-color="#FDA085"/>
</linearGradient>
<linearGradient id="paint36_linear_141_5160" x1="386.881" y1="170.136" x2="416.056" y2="170.136" gradientUnits="userSpaceOnUse">
<stop stop-color="#F6D365"/>
<stop offset="1" stop-color="#FDA085"/>
</linearGradient>
<linearGradient id="paint37_linear_141_5160" x1="419.31" y1="304.916" x2="485.294" y2="304.916" gradientUnits="userSpaceOnUse">
<stop stop-color="#F6D365"/>
<stop offset="1" stop-color="#FDA085"/>
</linearGradient>
<linearGradient id="paint38_linear_141_5160" x1="389.109" y1="318.861" x2="434.32" y2="318.861" gradientUnits="userSpaceOnUse">
<stop stop-color="#F6D365"/>
<stop offset="1" stop-color="#FDA085"/>
</linearGradient>
</defs>
</svg>
