<svg width="549" height="499" viewBox="0 0 549 499" fill="none" xmlns="http://www.w3.org/2000/svg">
<path fill-rule="evenodd" clip-rule="evenodd" d="M315.355 172.757H243.407C235.166 172.757 228.423 179.5 228.423 187.741V259.689C228.423 267.931 235.166 274.674 243.407 274.674H280.391C307.863 274.674 330.34 252.197 330.34 224.725V187.741C330.34 186.463 330.175 185.219 329.87 184.03L285.454 250.521C285.067 251.213 284.58 251.862 283.993 252.449C280.554 255.888 274.975 255.888 271.536 252.449L248.847 229.76C245.408 226.321 245.408 220.742 248.847 217.303C252.286 213.864 257.865 213.864 261.304 217.303L276.421 232.42L316.257 172.787C315.96 172.769 315.657 172.757 315.355 172.757Z" fill="#FEFEFE"/>
<path d="M62.6419 268.304C62.2754 268.972 61.4362 269.216 60.7682 268.85C60.1002 268.483 59.8562 267.644 60.2227 266.976C60.3609 266.724 106.875 179.259 253.922 154.464C315.644 144.057 368.39 122.093 409.25 97.483C464.82 64.0125 498.308 25.8038 502.385 5.23032C502.531 4.48183 503.256 3.99355 504.005 4.13959C504.753 4.28563 505.241 5.01114 505.095 5.75963C500.898 26.9374 466.93 65.9659 410.675 99.8484C369.559 124.612 316.484 146.713 254.375 157.186C108.668 181.755 62.7783 268.055 62.6419 268.304Z" fill="#93D2C3"/>
<path fill-rule="evenodd" clip-rule="evenodd" d="M83.6018 161.807H125.488C128.362 161.807 130.713 159.455 130.713 156.582V134.799C130.713 131.925 128.362 129.574 125.488 129.574H83.6018C80.728 129.574 78.3767 131.925 78.3767 134.799V156.582C78.3767 159.455 80.728 161.807 83.6018 161.807Z" fill="#93D2C3"/>
<path fill-rule="evenodd" clip-rule="evenodd" d="M154.123 161.807H196.009C198.883 161.807 201.234 159.455 201.234 156.582V108.884C201.234 106.01 198.883 103.659 196.009 103.659H154.123C151.249 103.659 148.898 106.01 148.898 108.884V156.582C148.898 159.455 151.249 161.807 154.123 161.807Z" fill="#93D2C3"/>
<path fill-rule="evenodd" clip-rule="evenodd" d="M224.645 161.807H266.531C269.405 161.807 271.756 159.455 271.756 156.582V82.9695C271.756 80.0957 269.405 77.7444 266.531 77.7444H224.645C221.771 77.7444 219.42 80.0957 219.42 82.9695V156.582C219.42 159.455 221.771 161.807 224.645 161.807Z" fill="#93D2C3"/>
<path fill-rule="evenodd" clip-rule="evenodd" d="M295.166 161.807H337.052C339.926 161.807 342.277 159.455 342.277 156.581V57.0544C342.277 54.1806 339.926 51.8293 337.052 51.8293H295.166C292.292 51.8293 289.941 54.1806 289.941 57.0544V156.581C289.941 159.455 292.292 161.807 295.166 161.807Z" fill="#93D2C3"/>
<path fill-rule="evenodd" clip-rule="evenodd" d="M365.687 161.807H407.574C410.447 161.807 412.799 159.455 412.799 156.581V31.1399C412.799 28.2661 410.447 25.9148 407.574 25.9148H365.687C362.814 25.9148 360.462 28.2661 360.462 31.1399V156.581C360.462 159.455 362.814 161.807 365.687 161.807Z" fill="#93D2C3"/>
<path fill-rule="evenodd" clip-rule="evenodd" d="M436.209 161.807H478.095C480.969 161.807 483.32 159.455 483.32 156.582V5.22508C483.32 2.35129 480.969 0 478.095 0H436.209C433.335 0 430.984 2.35129 430.984 5.22508V156.582C430.984 159.455 433.335 161.807 436.209 161.807Z" fill="#93D2C3"/>
<path d="M380.404 198.055L411.709 197.997L411.766 198.766L411.756 253.089L380.403 253.087L380.404 198.055ZM424.665 104.352L505.483 137.513H343.847L424.665 104.352ZM450.388 216.323C451.216 215.885 462.859 216.003 463.939 216.226L464.016 229.425C463.792 229.468 451.321 229.831 450.392 229.319L450.388 216.323ZM447.065 216.303L447.061 229.342C446.108 229.915 432.793 229.466 432.588 229.406L432.524 216.248C433.313 216.02 446.285 215.846 447.065 216.303ZM450.392 197.998L463.918 198.005L463.953 213.669L450.393 213.765L450.392 197.998ZM432.587 197.998H447.022L447.054 213.762H432.576L432.587 197.998ZM450.388 173.143H463.964L463.95 186.388H450.392L450.388 173.143ZM432.583 173.143H447.041L447.053 186.186L447.051 186.387L432.599 186.388L432.583 173.143ZM397.6 173.24L411.756 173.139L411.755 186.385L397.62 186.381L397.6 173.24ZM380.402 173.208L394.887 173.146L394.885 186.312L380.426 186.386L380.402 173.208ZM450.389 170.662C450.389 168.216 450.103 156.325 450.526 154.936L463.947 154.982L463.953 170.654L450.389 170.662ZM432.583 154.939L447.053 154.939L447.053 170.662H432.583V154.939ZM397.677 154.941L411.625 154.94C412.057 156.411 411.756 168.153 411.756 170.666L397.598 170.572L397.677 154.941ZM380.402 154.942L394.887 155.024L394.888 170.611L380.403 170.601L380.402 154.942ZM343.615 150.891L359.528 150.892L359.602 253.088L351.615 253.089L351.604 258.551L343.708 258.562L343.624 267.964H505.56C505.775 267.025 505.773 259.511 505.501 258.561L495.987 258.558L495.985 253.089L488.436 253.081L488.437 156.234C488.437 149.719 487.922 150.869 490.583 150.89C495.594 150.928 500.621 150.891 505.634 150.891L505.627 140.104H343.618L343.615 150.891Z" fill="#FEFEFE"/>
<path d="M330.906 264.072C323.404 271.576 327.244 264.072 327.068 277.329C326.917 288.829 333.976 289.042 335.855 288.896C335.487 287.485 335.269 286.01 335.269 284.484C335.269 274.845 343.111 266.999 352.752 266.999C362.391 266.999 370.234 274.844 370.234 284.484C370.234 286.018 370.018 287.502 369.643 288.919C395.734 288.938 432.018 288.869 459.162 288.455C458.864 287.177 458.691 285.852 458.691 284.484C458.691 274.845 466.533 266.999 476.173 266.999C485.814 266.999 493.658 274.844 493.658 284.484C493.658 285.457 493.556 286.403 493.404 287.335C495.344 287.161 496.528 286.968 496.797 286.752C500.287 283.961 498.89 266.517 494.179 262.856C489.469 259.195 492.084 257.274 491.914 250.47C491.818 246.803 488.791 241.586 486.015 237.537C488.223 236.896 490.385 236.15 492.451 235.088C492.712 234.955 492.873 234.773 493.055 234.603C493.911 233.807 493.994 232.708 493.556 231.751C493.546 231.711 493.526 231.676 493.511 231.636C493.462 231.537 493.418 231.438 493.355 231.343C492.952 230.504 492.203 229.816 491.038 229.71C487.68 229.409 484.372 229.292 481.139 228.24C480.767 228.12 480.433 228.105 480.11 228.123L480.053 227.963C480.053 227.963 454.76 221.51 422.838 222.208C390.912 222.905 390.042 242.091 362.48 244.012C334.92 245.932 330.906 264.072 330.906 264.072ZM418.323 226.39C423.294 225.747 429.099 225.823 434.924 226.275L429.623 246.059H384.855C391.073 234.954 406.245 227.952 418.323 226.39ZM438.499 226.597C452.976 228.075 466.542 231.466 466.542 231.466L469.397 246.059H433.284L438.499 226.597ZM476.176 269.788C468.065 269.788 461.485 276.367 461.485 284.481C461.485 285.852 461.733 287.15 462.082 288.409C463.808 294.604 469.43 299.175 476.176 299.175C483.238 299.175 489.129 294.188 490.54 287.547C490.75 286.558 490.87 285.537 490.87 284.484C490.869 276.367 484.289 269.788 476.176 269.788ZM352.751 269.788C344.637 269.788 338.06 276.367 338.06 284.481C338.06 286.013 338.361 287.46 338.797 288.851C340.666 294.816 346.169 299.173 352.755 299.173C359.314 299.173 364.803 294.848 366.693 288.914C367.142 287.507 367.449 286.035 367.449 284.481C367.446 276.367 360.868 269.788 352.751 269.788Z" fill="#FEFEFE"/>
<path d="M0 495.636H548.633" stroke="#93D2C3" stroke-width="5.33329" stroke-miterlimit="22.9256"/>
<path fill-rule="evenodd" clip-rule="evenodd" d="M78.3762 495.637H195.941V462.038H78.3762V495.637Z" fill="#93D2C3"/>
<path d="M172.301 455.101H102.015C87.5169 455.101 75.7637 456.654 75.7637 458.57C75.7637 460.485 87.5169 462.038 102.015 462.038H172.301C186.8 462.038 198.553 460.485 198.553 458.57C198.553 456.654 186.8 455.101 172.301 455.101Z" fill="#F5874F"/>
<path d="M315.991 374.063H245.705C231.206 374.063 219.453 375.616 219.453 377.531C219.453 379.447 231.206 381 245.705 381H315.991C330.489 381 342.243 379.447 342.243 377.531C342.243 375.616 330.489 374.063 315.991 374.063Z" fill="#F5874F"/>
<path d="M459.682 320.038H389.395C374.897 320.038 363.144 321.591 363.144 323.506C363.144 325.422 374.897 326.974 389.395 326.974H459.682C474.18 326.974 485.933 325.422 485.933 323.506C485.933 321.591 474.18 320.038 459.682 320.038Z" fill="#F5874F"/>
<path fill-rule="evenodd" clip-rule="evenodd" d="M222.065 495.637H339.63V381H222.065V495.637Z" fill="#93D2C3"/>
<path fill-rule="evenodd" clip-rule="evenodd" d="M365.756 495.637H483.32V326.975H365.756V495.637Z" fill="#93D2C3"/>
<path d="M441.093 142.522C435.127 144.85 434.109 158.586 433.85 163.593C433.844 163.707 433.894 163.783 434 163.823C434.267 163.925 434.545 163.946 434.836 163.888C439.484 164.143 444.135 164.31 448.79 164.391C449.199 164.4 449.414 164.202 449.349 163.784C450.336 163.814 450.823 164.16 450.809 164.823C449.42 165.677 448.225 165.335 446.453 165.079C446.351 165.066 446.265 165.096 446.197 165.171C444.425 167.084 441.814 169.971 439.468 169.898C434.4 169.737 429.243 169.091 423.998 167.961C422.1 167.552 419.98 164.42 418.88 162.901C418.823 162.821 418.745 162.774 418.647 162.76C417.77 162.64 416.944 162.368 416.169 161.942C416.049 161.877 415.973 161.91 415.939 162.042L415.854 162.38C415.568 161.052 415.981 160.436 417.096 160.532C417.051 160.799 417.071 161.074 417.155 161.356C417.186 161.46 417.255 161.526 417.361 161.553C420.44 162.356 423.566 162.897 426.739 163.178C426.846 163.188 426.899 163.138 426.897 163.028C426.777 157.418 427.318 150.245 430.135 145.371C430.673 144.441 431.57 143.456 432.828 142.416C433.974 141.964 434.766 141.743 435.203 141.75C436.01 141.764 437.973 142.021 441.093 142.522Z" fill="#F5874F"/>
<path d="M432.829 142.416C431.571 143.456 430.673 144.441 430.135 145.371C427.318 150.245 426.777 157.418 426.898 163.028C426.9 163.138 426.847 163.188 426.739 163.178C423.566 162.898 420.44 162.356 417.361 161.554C417.255 161.526 417.187 161.46 417.155 161.357C417.071 161.074 417.051 160.799 417.096 160.532C417.685 151.164 422.727 143.282 432.829 142.416Z" fill="#F69260"/>
<path d="M441.093 142.522C441.8 142.52 442.318 142.803 442.647 143.37C442.62 143.478 442.566 143.559 442.485 143.614C442.408 143.667 442.307 143.678 442.216 143.644C441.405 143.31 440.729 143.437 440.189 144.026C435.763 148.85 435.256 157.721 434.836 163.888C434.545 163.947 434.267 163.925 434 163.823C433.894 163.784 433.844 163.707 433.85 163.593C434.109 158.587 435.127 144.85 441.093 142.522Z" fill="#DA733F"/>
<path d="M442.647 143.37C442.862 143.561 442.885 143.69 443.153 143.835C449.552 147.225 451.039 154.145 449.905 160.847C449.779 161.586 449.679 162.796 449.349 163.785C449.414 164.203 449.199 164.4 448.79 164.391C444.135 164.31 439.484 164.143 434.835 163.888C435.256 157.721 435.763 148.85 440.189 144.026C440.729 143.437 441.404 143.31 442.215 143.643C442.307 143.678 442.408 143.667 442.487 143.613C442.566 143.559 442.62 143.478 442.647 143.37Z" fill="#F69260"/>
<path d="M450.809 164.824C450.741 166.078 449.997 166.562 448.578 166.278L446.421 166.104C446.325 166.096 446.242 166.127 446.173 166.195L443.501 168.85L441.649 170.41C439.624 171.128 438.203 170.896 435.48 170.657C432.339 170.383 428.904 169.906 425.176 169.227C423.925 168.997 423.13 168.882 422.206 167.952C421.87 167.615 421.522 167.294 421.161 166.99C421.137 166.747 421.017 166.597 420.799 166.54C420.14 165.509 419.388 164.564 418.544 163.702C417.261 163.657 416.364 163.217 415.854 162.381L415.939 162.042C415.973 161.911 416.049 161.877 416.169 161.942C416.944 162.368 417.77 162.641 418.647 162.76C418.746 162.774 418.823 162.821 418.88 162.902C419.98 164.421 422.1 167.552 423.998 167.961C429.243 169.091 434.4 169.737 439.468 169.898C441.814 169.972 444.425 167.084 446.197 165.171C446.266 165.096 446.351 165.066 446.453 165.08C448.225 165.336 449.42 165.677 450.809 164.824Z" fill="#DA733F"/>
<path d="M418.544 163.702C419.388 164.564 420.14 165.509 420.799 166.54L419.162 166.707L418.518 166.696C418.422 166.692 418.371 166.643 418.365 166.548C418.312 165.644 418.372 164.695 418.544 163.702Z" fill="#F79C6F"/>
<path d="M448.578 166.278L448.039 166.337C447.941 166.346 447.877 166.398 447.845 166.492L446.612 170.066C446.579 170.164 446.514 170.195 446.418 170.16L445.791 169.942L443.501 168.85L446.173 166.195C446.242 166.126 446.325 166.096 446.421 166.104L448.578 166.278Z" fill="#F79C6F"/>
<path d="M420.799 166.54C421.017 166.597 421.137 166.747 421.161 166.99C420.396 168.544 419.714 170.165 419.115 171.852C418.882 170.079 418.897 168.364 419.162 166.707L420.799 166.54Z" fill="#4B4B4D"/>
<path d="M421.16 166.99C421.521 167.294 421.87 167.615 422.205 167.952C423.129 168.882 423.924 168.997 425.175 169.227C428.903 169.906 432.338 170.382 435.48 170.657C438.203 170.895 439.624 171.128 441.649 170.41C441.446 172.179 441.487 174.151 443.238 175.072C443.321 175.115 443.394 175.102 443.456 175.034C443.923 174.512 444.451 174.103 445.04 173.806C449.072 173.321 448.322 179.896 444.439 180.149C444.343 180.155 444.285 180.205 444.266 180.3C443.247 185.503 440.098 188.621 434.818 189.654C432.384 189.624 429.935 189.447 427.471 189.124C422.135 187.943 418.567 184.073 418.497 178.489C418.497 178.395 418.459 178.319 418.382 178.26C416.706 176.986 416.247 175.332 417.004 173.297C417.358 172.348 418.061 171.866 419.115 171.852C419.713 170.165 420.395 168.544 421.16 166.99ZM423.737 175.822C423.771 175.83 423.771 175.83 423.771 175.83C424.605 176.007 425.514 175.047 425.804 173.686C426.093 172.325 425.652 171.078 424.819 170.901C424.819 170.9 424.819 170.9 424.819 170.9C423.986 170.723 423.076 171.683 422.786 173.044C422.786 173.045 422.786 173.045 422.786 173.045C422.497 174.405 422.938 175.652 423.771 175.83L423.737 175.822ZM436.574 176.937C437.404 177.129 438.335 176.163 438.655 174.78C438.973 173.398 438.559 172.121 437.73 171.93C436.9 171.738 435.968 172.704 435.649 174.087C435.33 175.469 435.744 176.746 436.574 176.937ZM425.343 179.543C424.781 180.891 426.715 183.337 427.71 184.073C430.72 186.313 434.032 184.247 435.365 181.282C435.557 180.859 435.497 180.493 435.186 180.185C435.107 180.106 435.012 180.062 434.9 180.052L425.926 179.196C425.683 179.169 425.446 179.307 425.345 179.538L425.343 179.543Z" fill="#E5A185"/>
<path d="M443.501 168.85L445.791 169.942C445.237 170.828 445.102 172.739 445.04 173.807C444.451 174.103 443.923 174.512 443.456 175.034C443.394 175.103 443.321 175.116 443.239 175.073C441.487 174.151 441.446 172.179 441.649 170.41L443.501 168.85Z" fill="#4B4B4D"/>
<path d="M422.792 173.024C422.484 174.381 422.907 175.634 423.738 175.822C424.568 176.011 425.491 175.064 425.8 173.707C426.108 172.35 425.685 171.097 424.854 170.909C424.023 170.72 423.1 171.667 422.792 173.024Z" fill="#4B4B4D"/>
<path d="M435.649 174.087C435.33 175.47 435.744 176.746 436.574 176.937C437.404 177.129 438.335 176.164 438.654 174.781C438.974 173.398 438.56 172.122 437.73 171.93C436.9 171.739 435.968 172.704 435.649 174.087Z" fill="#4B4B4D"/>
<path d="M425.344 179.543C425.446 179.308 425.684 179.169 425.933 179.197L434.901 180.052C435.012 180.062 435.108 180.106 435.186 180.185C435.498 180.493 435.558 180.859 435.366 181.283C434.033 184.247 430.721 186.313 427.71 184.073C426.715 183.337 424.782 180.891 425.344 179.543Z" fill="#F7F7F7"/>
<path d="M427.471 189.124C429.936 189.447 432.385 189.624 434.818 189.654C434.892 190.057 434.818 191.069 435.13 191.261L435.065 191.302C434.997 191.349 434.964 191.414 434.968 191.496C435.039 192.809 435.283 194.336 434.715 195.502C434.093 196.781 433.082 197.529 431.68 197.745C429.858 198.027 427.059 196.903 427.104 194.675C427.127 193.601 427.185 192.51 427.277 191.399L427.471 189.124Z" fill="#D78C74"/>
<path d="M442.468 192.759C441.236 195.967 440.469 199.287 440.166 202.719C438.81 202.915 437.496 202.901 436.222 202.678C436.52 198.973 437.312 195.367 438.597 191.861C438.754 191.694 438.905 191.608 439.048 191.602C440.51 191.541 441.65 191.927 442.468 192.759ZM421.282 208.682L421.238 211.202C421.236 211.302 421.282 211.371 421.376 211.408C421.57 211.486 421.741 211.447 421.888 211.29C422.23 212.538 422.823 213.662 423.669 214.663C423.665 214.875 423.76 215.082 423.954 215.284C423.976 215.307 423.989 215.338 423.989 215.37C423.989 215.436 423.936 215.491 423.869 215.493L420.958 215.579C420.79 215.587 420.65 215.695 420.603 215.849C418.215 223.355 422.068 228.867 430.203 227.334C433.523 226.706 435.36 224.681 435.713 221.259L440.231 223.478L440.369 227.252C440.373 227.354 440.426 227.405 440.528 227.405L445.785 227.472C445.958 227.431 446.119 227.439 446.268 227.496C446.372 227.535 446.415 227.609 446.397 227.717L445.856 231.09C444.219 231.525 443.102 232.458 442.503 233.889C442.464 233.983 442.463 234.077 442.5 234.171C442.612 234.448 442.624 234.701 442.377 234.916C441.429 235.734 438.595 238.698 440.296 239.725C440.369 239.77 440.461 239.783 440.547 239.761C441.744 239.461 442.235 240.07 442.909 240.994C442.962 241.068 443.047 241.12 443.143 241.135L443.972 241.235C443.354 245.115 442.306 249.171 442.153 253.079C441.974 257.669 441.926 262.606 442.009 267.89C442.183 278.855 442.714 291.285 443.601 305.18C443.69 306.536 441.95 306.266 441.158 306.301C439.349 306.232 437.54 306.276 435.731 306.43C434.921 306.433 433.523 306.213 433.441 305.18C432.346 291.53 431.439 277.868 430.721 264.193C430.566 261.252 430.458 258.303 430.397 255.346C430.395 255.26 430.351 255.216 430.265 255.216H423.363C423.363 255.216 423.363 255.216 423.362 255.216C423.272 255.216 423.196 255.287 423.192 255.378C422.268 271.64 423.195 286.946 425.276 304.223C425.351 304.845 425.231 305.325 424.917 305.662C424.844 305.741 424.754 305.785 424.646 305.795L423.21 305.927L417.759 306.186C416.425 306.507 415.321 306.207 415.121 304.738C413.032 289.572 412.078 274.34 412.26 259.043C412.328 253.462 411.831 247.943 411.425 242.401C412.237 242.478 414.115 243.01 413.962 241.594C413.921 241.171 414.177 240.955 414.73 240.947C415.486 241.006 416.013 240.805 416.313 240.344C416.372 240.251 416.385 240.153 416.352 240.049L415.819 238.445C415.866 238.306 415.94 238.218 416.04 238.18C418.786 238.177 415.725 234.566 415.272 234.022C415.15 233.874 415.163 233.86 415.313 233.977L415.801 234.366C415.871 234.422 415.957 234.452 416.046 234.452C416.054 234.452 416.062 234.452 416.069 234.451C416.791 234.41 417.242 234.064 417.42 233.412C417.449 233.304 417.437 233.201 417.382 233.103C416.313 231.175 413.535 229.606 411.872 228.597C411.432 228.332 411.217 227.884 411.227 227.255L414.674 227.243C414.774 227.241 414.833 227.191 414.851 227.093C415.708 222.173 416.566 217.255 417.423 212.338C417.557 211.569 417.54 210.354 417.373 208.694L421.282 208.682ZM423.907 191.537C422.283 195.005 421.526 198.934 421.441 202.704C420.142 202.914 418.854 202.906 417.576 202.681C417.762 199.216 418.218 195.658 419.642 192.556C420.824 191.133 422.245 190.794 423.907 191.537Z" fill="#585570"/>
<path d="M417.576 202.681C418.853 202.907 420.142 202.914 421.44 202.704C421.668 204.675 421.615 206.667 421.281 208.682L417.373 208.694C416.975 208.155 416.96 203.652 417.317 203.081C417.434 202.889 417.521 202.755 417.576 202.681Z" fill="#DA733F"/>
<path d="M436.222 202.678C437.496 202.902 438.81 202.915 440.166 202.719C440.533 203.685 440.543 204.775 440.196 205.989L435.636 203.161L436.222 202.678Z" fill="#DA733F"/>
<path d="M456.44 203.114C459.511 205.515 462.09 208.049 464.178 210.713C466.465 213.627 466.465 217.589 464.993 221.074C463.148 225.212 460.41 228.668 457.249 231.941L453.694 235.593C453.642 235.648 453.613 235.721 453.613 235.797C453.613 235.815 453.614 235.832 453.617 235.849C454.238 239.237 451.342 242.99 447.91 243.464C447.797 243.479 447.689 243.432 447.628 243.342C447.171 242.719 446.546 242.46 445.756 242.566C445.658 242.578 445.564 242.542 445.504 242.47C445.079 241.971 444.852 240.909 443.972 241.236L443.148 241.136C443.047 241.12 442.962 241.068 442.906 240.99C442.235 240.07 441.744 239.461 440.549 239.761C440.461 239.783 440.369 239.77 440.294 239.725C438.594 238.698 441.429 235.734 442.377 234.916C442.624 234.701 442.612 234.448 442.5 234.172C442.463 234.078 442.464 233.983 442.503 233.889C443.102 232.459 444.219 231.526 445.856 231.09C447.109 231.002 448.315 231.166 449.473 231.582C449.554 231.613 449.65 231.586 449.707 231.513L451.477 229.147C453.479 226.198 457.358 219.532 456.054 215.935C455.175 213.837 453.857 212.135 452.098 210.828L456.44 203.114Z" fill="#E5A185"/>
<path d="M423.669 214.663C424.209 215.321 424.601 215.71 424.846 215.832C428.504 217.631 432.126 219.44 435.713 221.259C435.36 224.681 433.523 226.706 430.203 227.334C422.068 228.868 418.215 223.355 420.605 215.843C420.65 215.695 420.79 215.587 420.952 215.579L423.869 215.493C423.936 215.491 423.989 215.436 423.989 215.37C423.989 215.338 423.976 215.307 423.954 215.284C423.76 215.082 423.665 214.875 423.669 214.663Z" fill="#DA733F"/>
<path d="M464.993 221.074C464.948 221.388 465.042 221.617 465.276 221.762C468.912 224.031 472.531 226.301 476.134 228.574C476.268 228.657 476.376 228.786 476.438 228.936C477.22 230.893 477.188 233.336 475.993 235.058C474.671 236.968 472.143 237.66 469.956 237.895C469.567 237.938 469.182 237.864 468.799 237.671C464.951 235.754 461.101 233.844 457.249 231.941C460.411 228.668 463.148 225.212 464.993 221.074ZM435.636 203.161L440.196 205.989L447.395 210.51L456.055 215.935C457.358 219.532 453.479 226.198 451.478 229.148L445.959 226.372L440.231 223.479L435.713 221.259C432.126 219.44 428.504 217.631 424.846 215.832C424.601 215.71 424.208 215.32 423.669 214.663C422.823 213.663 422.23 212.538 421.888 211.29C420.652 205.297 426.386 200.12 432.172 201.324C433.417 201.583 434.521 202.484 435.636 203.161Z" fill="url(#paint0_linear_233_5778)"/>
<path d="M440.231 223.479L445.958 226.372L445.785 227.473L440.528 227.405C440.426 227.405 440.373 227.354 440.369 227.252L440.231 223.479ZM419.642 192.556C418.217 195.658 417.761 199.216 417.576 202.681C417.521 202.755 417.435 202.889 417.317 203.081C416.961 203.652 416.975 208.156 417.373 208.694C417.54 210.354 417.556 211.569 417.423 212.338C416.565 217.255 415.708 222.174 414.85 227.093C414.833 227.191 414.774 227.241 414.674 227.243L411.227 227.255L411.183 227.014C411.248 224.147 411.115 220.956 411.265 218.41C411.513 214.138 412.135 209.916 413.131 205.742C413.165 205.597 413.121 205.567 412.999 205.654L410.585 207.361C410.495 207.424 410.425 207.406 410.374 207.308L409.579 205.801L406.232 199.24L405.767 198.334C405.754 198.309 405.748 198.281 405.748 198.253C405.748 198.188 405.785 198.128 405.844 198.098C410.314 195.81 414.913 193.963 419.642 192.556ZM435.13 191.261L438.597 191.861C437.312 195.368 436.52 198.973 436.222 202.678L435.636 203.161C434.521 202.484 433.417 201.583 432.172 201.324C426.385 200.12 420.652 205.298 421.888 211.29C421.741 211.447 421.57 211.486 421.376 211.408C421.281 211.371 421.235 211.302 421.237 211.202L421.281 208.682C421.615 206.667 421.668 204.675 421.44 202.704C421.526 198.934 422.282 195.005 423.907 191.537L427.277 191.399C427.185 192.51 427.127 193.602 427.104 194.675C427.059 196.903 429.858 198.027 431.68 197.745C433.081 197.529 434.093 196.781 434.715 195.502C435.283 194.337 435.039 192.809 434.968 191.496C434.964 191.414 434.997 191.349 435.065 191.302L435.13 191.261ZM442.468 192.759C448.056 194.337 453.119 196.928 457.655 200.532C457.76 200.615 457.789 200.763 457.723 200.88L456.44 203.114L452.098 210.828L451.925 211.075C451.856 211.175 451.769 211.197 451.663 211.14L447.774 209.097C447.669 209.04 447.607 209.071 447.589 209.189L447.395 210.51L440.195 205.989C440.543 204.775 440.533 203.685 440.166 202.719C440.468 199.287 441.236 195.967 442.468 192.759Z" fill="#FEFEFE"/>
<path d="M409.072 227.381C409.143 227.454 409.224 227.471 409.317 227.432C409.892 227.19 410.514 227.051 411.183 227.014L411.227 227.255C411.217 227.885 411.432 228.332 411.871 228.597C413.535 229.607 416.313 231.175 417.382 233.103C417.436 233.201 417.449 233.304 417.42 233.412C417.241 234.064 416.791 234.41 416.068 234.451C416.061 234.452 416.054 234.452 416.046 234.452C415.957 234.452 415.87 234.422 415.801 234.366L415.312 233.977C415.163 233.86 415.149 233.874 415.271 234.022C415.724 234.566 418.785 238.178 416.039 238.181C415.874 237.978 415.696 237.812 415.504 237.68C415.321 237.553 415.288 237.584 415.404 237.774L415.818 238.445L416.351 240.05C416.385 240.154 416.372 240.252 416.313 240.344C416.013 240.805 415.485 241.006 414.73 240.947L414.005 240.441C413.913 240.378 413.871 240.403 413.879 240.514L413.961 241.595C414.114 243.011 412.236 242.478 411.424 242.401C410.879 242.18 407.833 241.153 408.878 240.144C408.922 240.102 408.98 240.076 409.043 240.07L410.329 239.964C410.4 239.957 410.454 239.898 410.454 239.827C410.454 239.765 410.412 239.71 410.353 239.693C407.665 239.025 405.196 237.836 403.919 235.296C403.143 233.754 403.118 232.116 403.842 230.384C403.859 230.343 403.868 230.298 403.868 230.254C403.868 230.21 403.859 230.166 403.842 230.125C402.937 227.928 397.449 220.819 395.689 217.674C393.868 214.419 393.998 211.286 396.078 208.276C398.783 204.362 402.232 201.736 406.232 199.24L409.579 205.801C406.7 207.537 403.55 209.613 401.337 212.15C400.486 213.121 400.713 213.869 401.302 214.978C402.941 218.071 406.657 224.907 409.072 227.381Z" fill="#E5A185"/>
<path d="M416.039 238.181C415.939 238.218 415.866 238.306 415.818 238.446L415.403 237.775C415.287 237.584 415.321 237.553 415.504 237.68C415.696 237.812 415.874 237.979 416.039 238.181Z" fill="#D78C74"/>
<path d="M414.73 240.947C414.176 240.955 413.92 241.171 413.961 241.595L413.879 240.515C413.871 240.403 413.913 240.378 414.005 240.441L414.73 240.947Z" fill="#D78C74"/>
<path d="M423.209 305.927L423.43 308.185C421.617 308.781 419.802 308.781 417.985 308.185L417.758 306.186L423.209 305.927Z" fill="#45474E"/>
<path d="M441.158 306.301L441.305 308.229C439.554 308.871 437.555 308.703 435.825 308.158L435.73 306.431C437.54 306.276 439.349 306.233 441.158 306.301Z" fill="#45474E"/>
<path d="M435.825 308.158C437.555 308.703 439.554 308.871 441.305 308.229C442.386 307.95 442.83 308.289 442.635 309.244C442.618 309.333 442.638 309.409 442.697 309.474C444.166 311.043 444.466 313.948 444.396 315.991C444.428 316.782 444.693 319.952 443.518 320.038C442.518 320.11 440.824 320.165 438.438 320.203C437.761 320.212 437.482 319.89 437.599 319.237C437.601 319.225 437.601 319.214 437.601 319.203C437.595 319.122 437.526 319.061 437.446 319.067C437.436 319.068 437.425 319.069 437.415 319.073C435.676 319.593 433.953 320.097 432.248 320.588C429.514 321.38 426.8 321.124 424.084 320.438C422.665 320.082 421.405 320.199 419.989 320.188C419.881 320.186 419.79 320.146 419.716 320.067C419.49 319.828 419.404 319.539 419.459 319.202C419.481 319.066 419.426 319.019 419.295 319.06C416.843 319.796 414.12 320.868 411.739 321.021C408.847 321.207 406.041 320.702 403.321 319.505C403.229 319.464 403.185 319.393 403.189 319.293L403.318 316.556C404.289 313.141 406.818 315.567 408.705 314.79C411.515 313.636 414.417 311.423 416.499 309.409C416.575 309.335 416.59 309.249 416.543 309.153C415.889 307.855 417.331 308.046 417.985 308.185C419.802 308.781 421.617 308.781 423.43 308.185C424.107 307.958 424.731 308.391 424.496 309.132C424.468 309.223 424.486 309.304 424.549 309.377C426.023 311.093 425.929 312.809 426.344 314.881C426.366 314.985 426.424 315.014 426.521 314.969C429.503 313.578 432.174 311.733 434.532 309.436C434.611 309.359 434.635 309.269 434.606 309.165L434.465 308.65C434.435 308.546 434.46 308.435 434.53 308.352C434.843 307.974 435.275 307.909 435.825 308.158Z" fill="#2A2727"/>
<path fill-rule="evenodd" clip-rule="evenodd" d="M430.596 201.834C427.835 201.834 423.806 203.804 422.697 207.552C421.589 211.3 423.822 215.232 426.582 215.232C429.343 215.232 433.062 213.065 434.17 209.317C435.278 205.569 433.356 201.834 430.596 201.834Z" fill="#DA733F"/>
<path d="M408.575 225.901L406.982 223.395C406.852 223.19 406.568 223.138 406.347 223.279L401.52 226.346C401.298 226.486 401.224 226.766 401.354 226.971L402.947 229.477C403.077 229.682 403.362 229.733 403.583 229.593L408.41 226.526C408.631 226.385 408.705 226.106 408.575 225.901Z" fill="#DA733F"/>
<path d="M402.978 227.698C403.75 228.912 405.36 229.271 406.575 228.5C407.789 227.728 408.148 226.118 407.376 224.903C406.605 223.689 404.994 223.33 403.78 224.101C402.565 224.873 402.206 226.483 402.978 227.698Z" fill="#F5874F" stroke="#F7F7F7" stroke-width="0.59691" stroke-miterlimit="22.9256"/>
<path d="M447.673 176.958C447.569 178.864 446.376 180.868 444.316 180.719C444.246 180.713 444.205 180.746 444.194 180.817C443.511 185.735 439.907 189.423 434.994 190.136C434.92 190.147 434.884 190.19 434.887 190.266L434.945 191.841C434.98 192.605 435.021 193.355 435.068 194.091C435.239 196.824 432.875 198.685 430.291 198.278C428.862 198.051 426.96 196.766 427.123 195.069C427.215 194.1 427.306 193.088 427.396 192.031L427.567 189.833C427.568 189.83 427.568 189.826 427.568 189.823C427.568 189.764 427.528 189.713 427.472 189.698C426.709 189.486 425.874 189.307 425.193 189.007C421.499 187.376 419.314 184.516 418.638 180.428C418.674 180.385 418.697 180.337 418.708 180.283C418.721 180.216 418.741 180.214 418.768 180.276C420.23 183.699 421.664 186.307 425.32 187.699C427.292 188.451 429.407 188.777 431.663 188.678C437.909 188.401 441.909 184.42 443.358 178.533C443.375 178.462 443.419 178.432 443.491 178.444C444.992 178.679 446.386 178.183 447.673 176.958Z" fill="#D78C74"/>
<path fill-rule="evenodd" clip-rule="evenodd" d="M64.0449 299.559H78.3183C79.7572 299.559 80.9308 300.733 80.9308 302.172V384.739H61.4324V302.172C61.4324 300.733 62.6059 299.559 64.0449 299.559ZM69.8591 312.67L72.3447 312.67V312.073C72.345 311.736 72.5438 311.338 72.9014 311.219L73.558 310.999C75.1686 310.463 76.4213 309.329 76.4213 307.739C76.421 304.935 74.2542 303.921 71.2707 303.921C69.2627 303.921 67.3937 304.538 65.9416 305.969L67.1348 307.639C68.3078 306.565 69.4813 306.128 71.2903 306.128C73.0409 306.128 73.8762 306.525 73.8762 307.599C73.8762 308.355 73.2202 308.773 72.3651 309.051L71.609 309.289C70.3565 309.688 69.8589 310.642 69.8591 311.537V312.67ZM69.3815 315.255C69.3815 316.23 70.1776 316.886 71.1118 316.886C72.0665 316.886 72.8416 316.23 72.8419 315.256C72.8416 314.301 72.0662 313.545 71.1118 313.545C70.1773 313.545 69.3815 314.301 69.3815 315.255Z" fill="#FEFEFE"/>
<path fill-rule="evenodd" clip-rule="evenodd" d="M89.4343 283.59H103.708C105.147 283.59 106.32 284.764 106.32 286.203V368.77H86.8218V286.203C86.8218 284.764 87.9953 283.59 89.4343 283.59ZM95.2485 296.701L97.7341 296.701V296.104C97.7344 295.767 97.9332 295.368 98.2908 295.25L98.9474 295.03C100.558 294.494 101.811 293.36 101.811 291.769C101.81 288.965 99.6436 287.952 96.6601 287.952C94.6521 287.952 92.7831 288.568 91.331 289.999L92.5242 291.67C93.6972 290.596 94.8708 290.159 96.6797 290.159C98.4303 290.159 99.2656 290.556 99.2656 291.63C99.2656 292.386 98.6096 292.804 97.7545 293.082L96.9984 293.32C95.746 293.718 95.2483 294.673 95.2485 295.568V296.701ZM94.771 299.286C94.771 300.261 95.567 300.917 96.5012 300.917C97.4559 300.917 98.231 300.26 98.2313 299.286C98.231 298.332 97.4556 297.576 96.5012 297.576C95.5667 297.576 94.771 298.332 94.771 299.286Z" fill="#FEFEFE"/>
<path fill-rule="evenodd" clip-rule="evenodd" d="M95.9343 324.522H110.208C111.647 324.522 112.82 325.695 112.82 327.134V409.702H93.3218V327.134C93.3218 325.695 94.4953 324.522 95.9343 324.522ZM101.749 337.632L104.234 337.632V337.036C104.234 336.698 104.433 336.3 104.791 336.181L105.447 335.962C107.058 335.425 108.311 334.292 108.311 332.701C108.31 329.897 106.144 328.883 103.16 328.883C101.152 328.883 99.2831 329.5 97.831 330.931L99.0242 332.602C100.197 331.527 101.371 331.09 103.18 331.09C104.93 331.09 105.766 331.488 105.766 332.562C105.766 333.318 105.11 333.735 104.254 334.014L103.498 334.252C102.246 334.65 101.748 335.604 101.749 336.499V337.632ZM101.271 340.218C101.271 341.192 102.067 341.848 103.001 341.848C103.956 341.849 104.731 341.192 104.731 340.218C104.731 339.263 103.956 338.507 103.001 338.507C102.067 338.507 101.271 339.263 101.271 340.218Z" fill="#FEFEFE"/>
<path fill-rule="evenodd" clip-rule="evenodd" d="M114.824 251.318H129.097C130.536 251.318 131.71 252.492 131.71 253.931V336.498H112.211V253.931C112.211 252.492 113.385 251.318 114.824 251.318ZM120.638 264.429L123.123 264.429V263.832C123.124 263.495 123.323 263.096 123.68 262.978L124.337 262.758C125.947 262.222 127.2 261.088 127.2 259.497C127.2 256.693 125.033 255.68 122.049 255.68C120.041 255.68 118.172 256.296 116.72 257.727L117.914 259.398C119.087 258.324 120.26 257.887 122.069 257.887C123.82 257.887 124.655 258.284 124.655 259.358C124.655 260.114 123.999 260.532 123.144 260.81L122.388 261.048C121.135 261.446 120.638 262.401 120.638 263.296V264.429ZM120.16 267.014C120.16 267.989 120.956 268.645 121.891 268.645C122.845 268.645 123.62 267.988 123.621 267.015C123.62 266.06 122.845 265.304 121.891 265.304C120.956 265.304 120.16 266.06 120.16 267.014Z" fill="#FEFEFE"/>
<path fill-rule="evenodd" clip-rule="evenodd" d="M73.7942 342.639H88.0675C89.5065 342.639 90.6801 343.813 90.6801 345.252V427.819H71.1816V345.252C71.1816 343.813 72.3552 342.639 73.7942 342.639ZM79.6084 355.75L82.094 355.75V355.153C82.0942 354.816 82.293 354.418 82.6507 354.299L83.3072 354.079C84.9179 353.543 86.1706 352.409 86.1706 350.819C86.1703 348.014 84.0035 347.001 81.0199 347.001C79.0119 347.001 77.1429 347.617 75.6909 349.049L76.884 350.719C78.0571 349.645 79.2306 349.208 81.0395 349.208C82.7902 349.208 83.6254 349.605 83.6254 350.679C83.6254 351.435 82.9694 351.853 82.1143 352.131L81.3583 352.369C80.1058 352.767 79.6081 353.722 79.6084 354.617V355.75ZM79.1308 358.335C79.1308 359.31 79.9269 359.966 80.8611 359.966C81.8157 359.966 82.5909 359.31 82.5911 358.336C82.5909 357.381 81.8155 356.625 80.8611 356.625C79.9266 356.625 79.1308 357.381 79.1308 358.335Z" fill="#FEFEFE"/>
<path fill-rule="evenodd" clip-rule="evenodd" d="M165.603 242.947H179.876C181.315 242.947 182.489 244.121 182.489 245.56V328.127H162.99V245.56C162.99 244.121 164.164 242.947 165.603 242.947ZM171.417 256.058L173.903 256.058V255.461C173.903 255.124 174.102 254.726 174.459 254.607L175.116 254.387C176.726 253.851 177.979 252.717 177.979 251.127C177.979 248.323 175.812 247.309 172.829 247.309C170.821 247.309 168.952 247.925 167.499 249.357L168.693 251.027C169.866 249.953 171.039 249.516 172.848 249.516C174.599 249.516 175.434 249.913 175.434 250.987C175.434 251.743 174.778 252.161 173.923 252.439L173.167 252.677C171.914 253.076 171.417 254.03 171.417 254.925V256.058ZM170.939 258.643C170.939 259.618 171.735 260.274 172.67 260.274C173.624 260.274 174.399 259.618 174.4 258.644C174.399 257.689 173.624 256.933 172.67 256.933C171.735 256.933 170.939 257.689 170.939 258.643Z" fill="#FEFEFE"/>
<path fill-rule="evenodd" clip-rule="evenodd" d="M176.047 307.51H190.32C191.759 307.51 192.933 308.684 192.933 310.123V392.69H173.434V310.123C173.434 308.684 174.608 307.51 176.047 307.51ZM181.861 320.621L184.347 320.621V320.024C184.347 319.687 184.546 319.289 184.903 319.17L185.56 318.95C187.171 318.414 188.423 317.28 188.423 315.69C188.423 312.886 186.256 311.872 183.273 311.872C181.265 311.872 179.396 312.488 177.944 313.92L179.137 315.59C180.31 314.516 181.483 314.079 183.292 314.079C185.043 314.079 185.878 314.476 185.878 315.55C185.878 316.306 185.222 316.724 184.367 317.002L183.611 317.24C182.358 317.639 181.861 318.593 181.861 319.488V320.621ZM181.384 323.206C181.384 324.181 182.18 324.837 183.114 324.837C184.068 324.837 184.844 324.181 184.844 323.207C184.844 322.252 184.068 321.496 183.114 321.496C182.179 321.496 181.384 322.252 181.384 323.206Z" fill="#FEFEFE"/>
<path fill-rule="evenodd" clip-rule="evenodd" d="M200.742 285.537H215.015C216.454 285.537 217.628 286.711 217.628 288.15V370.717H198.129V288.15C198.129 286.711 199.303 285.537 200.742 285.537ZM206.556 298.648L209.041 298.648V298.051C209.042 297.714 209.241 297.316 209.598 297.197L210.255 296.977C211.865 296.441 213.118 295.307 213.118 293.717C213.118 290.913 210.951 289.899 207.967 289.899C205.959 289.899 204.09 290.516 202.638 291.947L203.832 293.617C205.005 292.543 206.178 292.106 207.987 292.106C209.738 292.106 210.573 292.503 210.573 293.577C210.573 294.333 209.917 294.751 209.062 295.029L208.306 295.267C207.053 295.666 206.556 296.62 206.556 297.515V298.648ZM206.078 301.233C206.078 302.208 206.874 302.864 207.809 302.864C208.763 302.864 209.538 302.208 209.539 301.234C209.538 300.279 208.763 299.523 207.809 299.523C206.874 299.523 206.078 300.279 206.078 301.233Z" fill="#FEFEFE"/>
<path fill-rule="evenodd" clip-rule="evenodd" d="M190.992 251.318H205.266C206.705 251.318 207.878 252.492 207.878 253.931V336.498H188.38V253.931C188.38 252.492 189.553 251.318 190.992 251.318ZM196.807 264.429L199.292 264.429V263.832C199.292 263.495 199.491 263.096 199.849 262.978L200.505 262.758C202.116 262.222 203.369 261.088 203.369 259.497C203.369 256.693 201.202 255.68 198.218 255.68C196.21 255.68 194.341 256.296 192.889 257.727L194.082 259.398C195.255 258.324 196.429 257.887 198.238 257.887C199.988 257.887 200.824 258.284 200.824 259.358C200.824 260.114 200.168 260.532 199.313 260.81L198.557 261.048C197.304 261.446 196.806 262.401 196.807 263.296V264.429ZM196.329 267.014C196.329 267.989 197.125 268.645 198.059 268.645C199.014 268.645 199.789 267.988 199.789 267.015C199.789 266.06 199.014 265.304 198.059 265.304C197.125 265.304 196.329 266.06 196.329 267.014Z" fill="#FEFEFE"/>
<path fill-rule="evenodd" clip-rule="evenodd" d="M166.298 354.043H180.571C182.01 354.043 183.184 355.216 183.184 356.655V439.223H163.685V356.655C163.685 355.216 164.859 354.043 166.298 354.043ZM172.112 367.153L174.598 367.153V366.557C174.598 366.219 174.797 365.821 175.154 365.702L175.811 365.483C177.422 364.946 178.674 363.813 178.674 362.222C178.674 359.418 176.507 358.404 173.524 358.404C171.516 358.404 169.647 359.021 168.195 360.452L169.388 362.123C170.561 361.049 171.734 360.611 173.543 360.611C175.294 360.611 176.129 361.009 176.129 362.083C176.129 362.839 175.473 363.256 174.618 363.535L173.862 363.773C172.609 364.171 172.112 365.125 172.112 366.02V367.153ZM171.634 369.739C171.634 370.713 172.431 371.369 173.365 371.369C174.319 371.37 175.095 370.713 175.095 369.739C175.095 368.784 174.319 368.028 173.365 368.028C172.43 368.028 171.634 368.785 171.634 369.739Z" fill="#FEFEFE"/>
<path fill-rule="evenodd" clip-rule="evenodd" d="M105.683 368.152H119.957C121.396 368.152 122.569 369.325 122.569 370.764V453.332H103.071V370.764C103.071 369.325 104.244 368.152 105.683 368.152ZM111.498 381.262L113.983 381.263V380.666C113.983 380.328 114.182 379.93 114.54 379.811L115.196 379.592C116.807 379.056 118.06 377.922 118.06 376.331C118.059 373.527 115.893 372.513 112.909 372.513C110.901 372.513 109.032 373.13 107.58 374.561L108.773 376.232C109.946 375.158 111.12 374.721 112.929 374.721C114.679 374.72 115.515 375.118 115.515 376.192C115.515 376.948 114.859 377.366 114.003 377.644L113.247 377.882C111.995 378.28 111.497 379.234 111.498 380.13V381.262ZM111.02 383.848C111.02 384.822 111.816 385.478 112.75 385.478C113.705 385.479 114.48 384.822 114.48 383.848C114.48 382.893 113.705 382.137 112.75 382.137C111.816 382.137 111.02 382.894 111.02 383.848Z" fill="#FEFEFE"/>
<path fill-rule="evenodd" clip-rule="evenodd" d="M140.213 226.094H154.486C155.925 226.094 157.099 227.267 157.099 228.706V311.274H137.601V228.706C137.601 227.267 138.774 226.094 140.213 226.094ZM146.027 239.204L148.513 239.204V238.608C148.513 238.27 148.712 237.872 149.07 237.753L149.726 237.534C151.337 236.997 152.59 235.864 152.59 234.273C152.589 231.469 150.422 230.455 147.439 230.455C145.431 230.455 143.562 231.072 142.11 232.503L143.303 234.174C144.476 233.099 145.65 232.662 147.458 232.662C149.209 232.662 150.044 233.06 150.044 234.134C150.044 234.889 149.388 235.307 148.533 235.586L147.777 235.824C146.525 236.222 146.027 237.176 146.027 238.071V239.204ZM145.55 241.789C145.55 242.764 146.346 243.42 147.28 243.42C148.235 243.42 149.01 242.764 149.01 241.79C149.01 240.835 148.234 240.079 147.28 240.079C146.346 240.079 145.55 240.835 145.55 241.789Z" fill="#FEFEFE"/>
<path d="M120.977 375.751C121.036 376.045 117.923 378.967 121.113 382.814C121.211 382.93 121.357 382.985 121.502 382.963C121.85 382.917 122.293 382.774 122.613 383.074C123.388 383.801 124.057 382.396 124.639 383.107C125.117 383.822 125.659 383.224 126.28 383.195C126.714 383.173 127.11 383.507 127.448 383.734C127.49 383.761 127.538 383.773 127.584 383.768C128.921 383.629 128.352 380.693 128.116 379.853C128.103 379.804 128.111 379.759 128.14 379.719C129.007 378.544 128.401 377.29 127.609 376.287C127.343 376.05 125.017 374.961 125.017 374.96C122.96 375.107 123.534 375.452 120.977 375.751Z" fill="#E5A185"/>
<path fill-rule="evenodd" clip-rule="evenodd" d="M122.325 337.942C122.325 337.942 118.206 354.853 120.977 375.751L125.211 375.652L127.39 339.131L122.325 337.942Z" fill="#E5A185"/>
<path fill-rule="evenodd" clip-rule="evenodd" d="M166.144 339.67C166.144 339.67 168.423 356.926 163.421 377.405L159.223 376.852L160.981 340.308L166.144 339.67Z" fill="#E5A185"/>
<path d="M134.686 299.492C134.797 299.58 134.873 299.689 134.917 299.82L133.905 302.032L132.786 304.994C132.676 304.931 132.649 304.889 132.703 304.869C132.724 303.763 132.733 302.648 132.729 301.524C132.725 300.927 132.919 300.271 132.897 299.577L134.686 299.492Z" fill="#381911"/>
<path d="M139.573 305.017C139.739 305.845 139.669 306.643 139.365 307.409C139.207 307.912 138.946 308.296 138.583 308.562C137.707 309.204 137.067 309.057 136.665 308.121C136.228 307.105 136.38 306 137.122 304.804L137.624 304.221C138.025 303.9 138.428 303.837 138.835 304.031C139.209 304.212 139.456 304.54 139.573 305.017Z" fill="#373435"/>
<path d="M132.703 304.869C132.649 304.889 132.677 304.931 132.786 304.995L132.175 311.274C129.779 310.104 129.609 305.274 132.703 304.869Z" fill="#D78C74"/>
<path d="M152.362 308.526C151.941 309.707 150.284 311.025 149.618 309.072C149.382 308.38 149.391 307.659 149.645 306.909L150.116 305.881C151.063 304.563 152.5 304.67 152.639 306.449C152.723 307.168 152.631 307.86 152.362 308.526Z" fill="#373435"/>
<path d="M161.748 309.404C161.642 311.34 160.43 313.376 158.338 313.224C158.266 313.219 158.225 313.252 158.214 313.323C157.52 318.32 153.859 322.066 148.869 322.79C148.794 322.801 148.757 322.845 148.76 322.921L148.819 324.522C148.855 325.298 148.897 326.059 148.944 326.806C149.118 329.583 146.716 331.473 144.092 331.06C142.641 330.83 140.708 329.524 140.874 327.8C140.967 326.817 141.06 325.788 141.151 324.714L141.325 322.482C141.326 322.479 141.326 322.475 141.326 322.472C141.326 322.412 141.286 322.36 141.228 322.345C140.453 322.13 139.605 321.948 138.913 321.643C135.162 319.986 132.942 317.081 132.256 312.929C132.292 312.886 132.316 312.836 132.326 312.781C132.34 312.714 132.36 312.712 132.387 312.775C133.873 316.252 135.33 318.9 139.043 320.315C141.046 321.078 143.194 321.41 145.486 321.308C151.83 321.027 155.893 316.984 157.364 311.004C157.382 310.932 157.427 310.901 157.5 310.913C159.024 311.152 160.44 310.649 161.748 309.404Z" fill="#D78C74"/>
<path d="M159.964 361.441C156.362 391.278 155.85 408.642 157.924 439.329C158.068 441.461 156.949 440.929 155.476 441.038L149.99 441.128C149.993 441.118 149.995 441.109 149.998 441.099L148.549 440.972C148.035 440.764 147.763 440.475 147.732 440.106C146.295 423.283 145.566 406.473 144.363 389.649L141.351 389.368H137.474C137.176 389.368 136.978 396.517 136.964 397.357C136.743 411.069 137.733 425.544 139.429 439.145C139.629 440.739 138.374 440.589 137.314 440.648L131.869 440.964C130.851 440.962 129.422 441.261 129.232 439.8C128.065 430.846 127.212 421.863 126.672 412.85C125.724 396.957 124.749 377.278 125.191 361.441H159.964Z" fill="#585570"/>
<path d="M159.149 373.532C155.148 373.535 125.924 373.875 124.547 373.295C125.191 361.441 125.082 349.815 126.774 339.122C126.798 339.025 121.653 338.01 120.977 337.353C126.283 326.984 131.298 325.17 141.151 324.714C141.06 325.788 140.967 326.817 140.874 327.8C140.708 329.524 142.641 330.83 144.092 331.06C146.716 331.473 149.118 329.583 148.944 326.807C148.897 326.059 148.855 325.298 148.819 324.522C157.368 325.816 164.708 327.722 167.972 340.682C164.292 343.119 161.629 342.489 161.596 342.502C161.424 342.574 159.534 370.655 159.149 373.532Z" fill="#FEFEFE"/>
<path d="M137.314 440.648L137.514 443.072C135.75 443.658 133.962 443.648 132.152 443.042L131.869 440.964L137.314 440.648Z" fill="#474950"/>
<path d="M148.549 440.972L149.998 441.099C149.431 441.174 148.949 441.131 148.549 440.972Z" fill="#1F8368"/>
<path d="M155.476 441.039L155.652 443.156C153.91 443.643 152.101 443.591 150.225 443.002L149.99 441.128L155.476 441.039Z" fill="#474950"/>
<path d="M132.152 443.042C133.963 443.648 135.75 443.658 137.515 443.072C138.273 442.787 138.941 443.26 138.593 444.048C138.566 444.111 138.575 444.169 138.619 444.222L139.17 444.865C140.078 446.302 140.336 448.263 140.414 449.906C140.389 450.039 140.489 450.131 140.714 450.179C143.538 450.788 146.214 450.361 148.744 448.898C150.601 447.824 150.982 445.964 149.085 444.614C149.035 444.578 149.003 444.522 148.998 444.46L148.982 444.244C149.088 444.209 149.123 444.162 149.09 444.102C148.58 443.19 149.359 442.599 150.225 443.002C152.101 443.591 153.91 443.642 155.652 443.155C156.413 442.783 157.305 443.123 156.943 444.023C156.919 444.085 156.927 444.142 156.968 444.193L157.583 444.975C159.003 447.494 158.985 451.229 158.657 454.014C158.588 454.591 158.327 454.979 157.736 455.01C156.362 455.084 154.75 455.126 152.902 455.137C151.987 455.141 151.961 454.88 151.898 454.077C151.893 454.015 151.841 453.968 151.779 453.968C151.767 453.968 151.754 453.97 151.742 453.973C149.272 454.759 146.4 455.823 144.004 455.999C141.861 456.157 139.832 455.762 137.749 455.24C136.695 454.975 135.491 455.157 134.398 455.129C133.696 455.113 133.585 454.738 133.552 454.129C133.546 454.008 133.484 453.965 133.368 454C131.869 454.453 130.338 454.919 128.773 455.398C124.956 456.566 120.96 456.007 117.238 454.435C117.186 454.413 117.158 454.373 117.155 454.315C116.979 451.112 117.503 448.593 121.53 449.908C121.84 450.009 122.058 449.951 122.346 449.843C122.413 449.901 122.456 449.991 122.475 450.112C122.485 450.172 122.519 450.207 122.578 450.218C125.706 450.807 128.495 450.26 130.946 448.576C131.913 447.914 132.204 446.982 131.818 445.78C131.728 445.495 131.304 445.011 130.547 444.327C130.754 444.199 130.761 444.004 130.568 443.742C130.527 443.686 130.515 443.616 130.534 443.551C130.641 443.183 130.876 442.947 131.237 442.844C131.297 442.825 131.365 442.824 131.43 442.841L132.152 443.042Z" fill="#2D2626"/>
<path d="M148.982 444.244L148.998 444.46C149.003 444.522 149.035 444.578 149.085 444.614C150.982 445.964 150.601 447.824 148.743 448.898C146.214 450.361 143.537 450.788 140.714 450.179C140.489 450.131 140.389 450.04 140.414 449.906C143.199 449.097 146.182 446.749 148.282 444.888L148.982 444.244Z" fill="#383633"/>
<path d="M130.547 444.327C131.304 445.011 131.728 445.495 131.818 445.78C132.204 446.982 131.913 447.914 130.946 448.576C128.495 450.26 125.705 450.807 122.578 450.218C122.519 450.207 122.484 450.172 122.475 450.112C122.456 449.991 122.413 449.901 122.345 449.843C124.911 449.018 127.72 446.85 129.825 444.966L130.547 444.327Z" fill="#383633"/>
<path d="M163.421 377.211C163.362 377.505 166.475 380.427 163.286 384.275C163.187 384.39 163.041 384.445 162.897 384.424C162.548 384.377 162.105 384.234 161.785 384.535C161.01 385.261 160.341 383.856 159.76 384.568C159.281 385.283 158.74 384.685 158.119 384.655C157.685 384.633 157.288 384.967 156.95 385.195C156.908 385.222 156.861 385.233 156.814 385.228C155.477 385.09 156.046 382.153 156.282 381.314C156.296 381.265 156.288 381.22 156.258 381.179C155.391 380.005 155.997 378.75 156.789 377.748C157.055 377.51 159.382 376.421 159.382 376.42C161.438 376.567 160.864 376.912 163.421 377.211Z" fill="#E5A185"/>
<path fill-rule="evenodd" clip-rule="evenodd" d="M137.624 304.221L137.122 304.804C136.38 306 136.228 307.105 136.665 308.121C137.067 309.057 137.707 309.204 138.583 308.562C138.946 308.296 139.207 307.912 139.365 307.408C139.669 306.642 139.739 305.845 139.573 305.017C139.455 304.54 139.209 304.212 138.834 304.031C138.428 303.837 138.025 303.9 137.624 304.221ZM156.733 302.42C156.193 300.356 155.378 297.987 152.773 296.272C152.773 296.272 148.88 298.245 144.014 298.245C142.345 298.245 140.52 297.54 138.914 296.367C138.914 296.367 138.439 296.586 137.737 297.239C137.089 297.842 136.248 298.816 135.406 300.33C135.299 300.187 135.198 300.035 135.103 299.875C135.078 299.833 135.043 299.816 134.996 299.824C134.962 299.83 134.935 299.828 134.917 299.82L133.905 302.032L132.786 304.994L132.175 311.273L132.256 312.929C132.292 312.886 132.316 312.837 132.326 312.781C132.34 312.714 132.36 312.712 132.387 312.775C133.872 316.252 135.329 318.901 139.043 320.315C141.046 321.079 143.194 321.41 145.486 321.308C151.83 321.027 155.893 316.984 157.364 311.004C157.382 310.932 157.427 310.901 157.5 310.913C159.024 311.152 160.44 310.649 161.747 309.404C161.791 308.84 161.62 308.287 161.235 307.744C160.685 306.967 159.908 306.769 159.007 306.967C159.201 305.987 159.325 305.017 159.382 304.057C159.41 303.56 159.594 303.242 159.853 302.851L157.421 301.84L156.733 302.42ZM149.644 306.909C149.391 307.659 149.382 308.38 149.618 309.072C150.284 311.025 151.941 309.707 152.362 308.526C152.63 307.86 152.723 307.168 152.639 306.449C152.5 304.671 151.063 304.563 150.116 305.881L149.644 306.909Z" fill="#E5A185"/>
<path fill-rule="evenodd" clip-rule="evenodd" d="M138.914 296.367C138.914 296.367 134.838 298.242 132.892 307.472H132.136C132.136 307.472 130.314 291.979 135.113 291.662C139.912 291.344 138.914 296.367 138.914 296.367Z" fill="#4B4B4D"/>
<path fill-rule="evenodd" clip-rule="evenodd" d="M138.914 296.367C138.914 296.367 138.439 296.585 137.737 297.239C137.045 296.606 134.85 292.072 135.113 291.662C137.729 287.572 138.914 296.367 138.914 296.367Z" fill="#373435"/>
<path fill-rule="evenodd" clip-rule="evenodd" d="M158.005 307.472C158.005 307.472 156.596 299.841 152.773 296.952C152.773 296.952 148.447 298.677 143.581 298.677C138.715 298.677 132.962 292.256 134.699 286.127H141.234L140.469 283.943C140.469 283.943 149.992 284.647 155.137 288.311L156.388 285.775L158.005 290.143C158.005 290.143 162.157 289.861 162.088 294.299C162.018 298.738 158.96 307.472 158.96 307.472H158.005Z" fill="#4B4B4D"/>
<path fill-rule="evenodd" clip-rule="evenodd" d="M140.87 304.99L135.398 305.881C135.398 305.881 137.893 299.56 140.87 304.99Z" fill="#E5A185"/>
<path fill-rule="evenodd" clip-rule="evenodd" d="M148.863 305.587L154.062 307.51C154.062 307.51 152.826 300.828 148.863 305.587Z" fill="#E5A185"/>
<path d="M139 314.854L148.236 315.549" stroke="#373435" stroke-width="1.33342" stroke-miterlimit="22.9256" stroke-linecap="round"/>
<path d="M145.892 197.937C149.181 197.937 151.847 195.271 151.847 191.982C151.847 188.693 149.181 186.027 145.892 186.027C142.604 186.027 139.938 188.693 139.938 191.982C139.938 195.271 142.604 197.937 145.892 197.937Z" fill="#64BFA7" stroke="#93D2C3" stroke-width="3.99987" stroke-miterlimit="22.9256" stroke-linecap="round"/>
<path d="M280.848 156.469C284.137 156.469 286.803 153.803 286.803 150.515C286.803 147.226 284.137 144.56 280.848 144.56C277.559 144.56 274.893 147.226 274.893 150.515C274.893 153.803 277.559 156.469 280.848 156.469Z" fill="#64BFA7" stroke="#93D2C3" stroke-width="3.99987" stroke-miterlimit="22.9256" stroke-linecap="round"/>
<path d="M424.665 95.3246C427.953 95.3246 430.619 92.6585 430.619 89.3698C430.619 86.0811 427.953 83.415 424.665 83.415C421.376 83.415 418.71 86.0811 418.71 89.3698C418.71 92.6585 421.376 95.3246 424.665 95.3246Z" fill="#64BFA7" stroke="#93D2C3" stroke-width="3.99987" stroke-miterlimit="22.9256" stroke-linecap="round"/>
<path fill-rule="evenodd" clip-rule="evenodd" d="M304.442 258.637C304.442 258.637 308.243 258.684 303.241 279.163L298.825 279.855L299.279 259.275L304.442 258.637Z" fill="#E5A185"/>
<path d="M272.984 218.459C273.095 218.547 273.172 218.656 273.215 218.787L272.203 220.999L271.084 223.962C270.975 223.898 270.947 223.856 271.001 223.836C271.023 222.73 271.032 221.615 271.028 220.491C271.023 219.894 271.218 219.239 271.195 218.544L272.984 218.459Z" fill="#381911"/>
<path d="M298.262 280.409C294.66 310.245 294.148 327.61 296.223 358.296C296.367 360.429 295.247 359.897 293.774 360.006L288.288 360.095C288.291 360.086 288.294 360.076 288.296 360.067L286.848 359.939C286.333 359.732 286.061 359.443 286.03 359.073C284.593 342.25 283.864 325.441 282.662 308.616L279.65 308.336H275.772C275.474 308.336 275.276 315.485 275.263 316.325C275.042 330.037 276.031 344.512 277.727 358.112C277.928 359.707 276.673 359.557 275.612 359.615L270.167 359.931C269.149 359.929 267.72 360.229 267.53 358.768C266.363 349.814 265.51 340.83 264.97 331.817C264.022 315.925 263.047 296.246 263.49 280.409H298.262Z" fill="#585570"/>
<path d="M297.447 292.499C293.446 292.502 264.223 292.842 262.845 292.263C263.49 280.409 263.38 268.783 265.072 258.09C265.096 257.992 259.951 256.978 259.276 256.32C264.581 245.952 269.596 244.137 279.45 243.682C279.358 244.756 279.265 245.784 279.172 246.768C279.007 248.492 280.939 249.797 282.39 250.028C285.015 250.44 287.417 248.551 287.243 245.774C287.195 245.027 286.109 244.265 286.073 243.49C294.622 244.784 303.006 246.689 306.271 259.649C302.591 262.087 299.928 261.456 299.894 261.47C299.722 261.542 297.833 289.623 297.447 292.499Z" fill="#FEFEFE"/>
<path d="M275.612 359.616L275.813 362.04C274.048 362.625 272.261 362.615 270.45 362.01L270.167 359.931L275.612 359.616Z" fill="#474950"/>
<path d="M286.848 359.939L288.297 360.067C287.73 360.141 287.247 360.099 286.848 359.939Z" fill="#1F8368"/>
<path d="M293.774 360.006L293.95 362.123C292.209 362.61 290.4 362.558 288.523 361.969L288.288 360.095L293.774 360.006Z" fill="#474950"/>
<path d="M270.45 362.009C272.261 362.615 274.048 362.625 275.813 362.04C276.572 361.754 277.24 362.228 276.892 363.015C276.864 363.078 276.873 363.136 276.918 363.189L277.468 363.833C278.377 365.269 278.634 367.23 278.713 368.873C278.687 369.007 278.787 369.098 279.012 369.147C281.836 369.755 284.512 369.328 287.042 367.866C288.9 366.791 289.28 364.931 287.384 363.582C287.334 363.546 287.302 363.489 287.297 363.428L287.281 363.211C287.386 363.176 287.422 363.129 287.388 363.069C286.878 362.157 287.657 361.566 288.523 361.969C290.4 362.558 292.209 362.61 293.95 362.123C294.711 361.75 295.604 362.09 295.242 362.991C295.217 363.053 295.225 363.109 295.266 363.161L295.881 363.942C297.302 366.461 297.283 370.197 296.955 372.981C296.887 373.558 296.626 373.947 296.035 373.977C294.66 374.051 293.049 374.093 291.2 374.104C290.286 374.108 290.259 373.847 290.197 373.044C290.191 372.982 290.14 372.935 290.078 372.935C290.065 372.935 290.053 372.937 290.041 372.941C287.57 373.726 284.699 374.79 282.303 374.966C280.16 375.124 278.13 374.73 276.048 374.208C274.993 373.942 273.789 374.124 272.697 374.096C271.994 374.08 271.883 373.706 271.851 373.096C271.844 372.975 271.783 372.932 271.667 372.967C270.168 373.42 268.636 373.886 267.071 374.365C263.254 375.533 259.258 374.975 255.536 373.402C255.484 373.38 255.456 373.341 255.454 373.283C255.278 370.079 255.802 367.56 259.829 368.875C260.138 368.976 260.357 368.918 260.644 368.811C260.712 368.869 260.755 368.958 260.774 369.08C260.783 369.139 260.817 369.174 260.877 369.185C264.004 369.774 266.793 369.228 269.244 367.544C270.212 366.881 270.502 365.949 270.117 364.747C270.026 364.463 269.603 363.978 268.846 363.294C269.052 363.166 269.059 362.971 268.866 362.709C268.825 362.653 268.813 362.583 268.832 362.518C268.94 362.151 269.174 361.915 269.536 361.811C269.596 361.793 269.664 361.791 269.729 361.808L270.45 362.009Z" fill="#2D2626"/>
<path d="M287.281 363.212L287.297 363.428C287.302 363.49 287.334 363.546 287.384 363.582C289.28 364.932 288.9 366.791 287.042 367.866C284.512 369.328 281.836 369.755 279.012 369.147C278.787 369.098 278.687 369.007 278.713 368.874C281.497 368.064 284.48 365.717 286.581 363.855L287.281 363.212Z" fill="#383633"/>
<path d="M268.846 363.294C269.603 363.978 270.026 364.463 270.117 364.748C270.502 365.95 270.212 366.882 269.244 367.544C266.793 369.228 264.004 369.775 260.877 369.185C260.818 369.174 260.783 369.139 260.774 369.08C260.755 368.959 260.712 368.869 260.644 368.811C263.21 367.985 266.019 365.818 268.123 363.934L268.846 363.294Z" fill="#383633"/>
<path fill-rule="evenodd" clip-rule="evenodd" d="M279.168 223.957L273.697 224.848C273.697 224.848 276.192 218.527 279.168 223.957Z" fill="#E5A185"/>
<path fill-rule="evenodd" clip-rule="evenodd" d="M287.161 224.554L292.361 226.477C292.361 226.477 291.124 219.795 287.161 224.554Z" fill="#E5A185"/>
<path d="M267.595 225.975C267.545 226.004 267.579 226.041 267.697 226.086L268.072 232.384C265.524 231.602 264.602 226.858 267.595 225.975Z" fill="#D78C74"/>
<path d="M296.992 225.926C297.19 227.855 296.31 230.055 294.22 230.231C294.148 230.237 294.113 230.276 294.113 230.348C294.207 235.392 291.175 239.662 286.359 241.156C286.286 241.179 286.257 241.227 286.271 241.303L286.579 242.875C286.736 243.635 286.896 244.381 287.059 245.112C287.664 247.827 285.586 250.069 282.929 250.07C281.46 250.069 279.348 249.081 279.243 247.352C279.181 246.366 279.112 245.335 279.035 244.26L278.859 242.028C278.859 242.025 278.858 242.021 278.858 242.018C278.849 241.959 278.801 241.914 278.742 241.908C277.943 241.817 277.077 241.769 276.345 241.575C272.381 240.524 269.736 238.001 268.41 234.006C268.44 233.958 268.455 233.906 268.457 233.849C268.46 233.781 268.48 233.775 268.516 233.834C270.526 237.036 272.378 239.426 276.266 240.244C278.364 240.686 280.537 240.678 282.786 240.221C289.008 238.953 292.391 234.326 292.912 228.19C292.918 228.115 292.958 228.078 293.032 228.079C294.575 228.077 295.895 227.359 296.992 225.926Z" fill="#D78C74"/>
<path fill-rule="evenodd" clip-rule="evenodd" d="M272.356 224.568L271.951 225.222C271.404 226.518 271.426 227.634 272.016 228.569C272.559 229.432 273.214 229.477 273.98 228.706C274.297 228.387 274.494 227.967 274.572 227.445C274.753 226.641 274.698 225.842 274.405 225.05C274.214 224.598 273.92 224.311 273.521 224.192C273.09 224.063 272.701 224.188 272.356 224.568ZM290.95 219.809C290.095 217.855 288.921 215.641 286.079 214.354C286.079 214.354 282.542 216.909 277.735 217.668C276.087 217.928 274.175 217.517 272.405 216.609C272.405 216.609 271.97 216.898 271.378 217.654C270.833 218.35 270.154 219.443 269.558 221.07C269.43 220.945 269.306 220.811 269.187 220.668C269.157 220.63 269.119 220.619 269.074 220.635C269.041 220.645 269.015 220.648 268.995 220.643L268.34 222.985L267.697 226.086L268.072 232.384L268.41 234.006C268.44 233.958 268.455 233.906 268.458 233.849C268.46 233.781 268.48 233.775 268.517 233.834C270.526 237.036 272.378 239.426 276.266 240.244C278.365 240.686 280.537 240.678 282.786 240.221C289.008 238.953 292.392 234.326 292.912 228.19C292.918 228.115 292.958 228.078 293.032 228.079C294.575 228.077 295.895 227.359 296.992 225.926C296.947 225.362 296.692 224.842 296.228 224.366C295.563 223.684 294.764 223.61 293.906 223.946C293.943 222.947 293.915 221.97 293.822 221.013C293.772 220.517 293.904 220.175 294.099 219.749L291.539 219.128L290.95 219.809ZM284.648 225.348C284.514 226.129 284.618 226.842 284.959 227.489C285.921 229.314 287.353 227.755 287.584 226.521C287.746 225.823 287.729 225.125 287.535 224.427C287.119 222.692 285.683 222.81 284.953 224.259L284.648 225.348Z" fill="#E5A185"/>
<path fill-rule="evenodd" clip-rule="evenodd" d="M272.404 216.609C272.404 216.609 268.671 219.097 268.188 228.517L267.441 228.635C267.441 228.635 263.226 213.616 267.917 212.554C272.607 211.492 272.404 216.609 272.404 216.609Z" fill="#4B4B4D"/>
<path fill-rule="evenodd" clip-rule="evenodd" d="M272.405 216.609C272.405 216.609 271.97 216.899 271.378 217.654C270.596 217.136 267.721 213.001 267.917 212.554C269.863 208.106 272.405 216.609 272.405 216.609Z" fill="#373435"/>
<path fill-rule="evenodd" clip-rule="evenodd" d="M292.994 224.601C292.994 224.601 290.413 217.282 286.186 215.026C286.186 215.026 282.182 217.404 277.375 218.163C272.569 218.922 265.884 213.477 266.645 207.151L273.099 206.132L272.003 204.094C272.003 204.094 281.52 203.305 287.173 206.122L288.013 203.421L290.291 207.484C290.291 207.484 294.349 206.558 294.973 210.953C295.596 215.348 293.937 224.452 293.937 224.452L292.994 224.601Z" fill="#4B4B4D"/>
<path d="M274.589 234.233L283.849 234.38" stroke="#373435" stroke-width="1.33342" stroke-miterlimit="22.9256" stroke-linecap="round"/>
<path d="M271.561 226.597C271.468 227.986 272.082 229.157 272.932 229.214C273.782 229.271 274.546 228.192 274.639 226.803C274.732 225.415 274.118 224.243 273.268 224.186C272.418 224.129 271.654 225.209 271.561 226.597Z" fill="#4B4B4D"/>
<path d="M284.619 225.609C284.519 227.025 285.127 228.221 285.977 228.281C286.827 228.341 287.596 227.242 287.696 225.826C287.796 224.411 287.188 223.214 286.338 223.155C285.488 223.095 284.719 224.194 284.619 225.609Z" fill="#4B4B4D"/>
<path fill-rule="evenodd" clip-rule="evenodd" d="M244.11 248.052L261.445 252.534L265.605 283.2L248.27 278.718L244.11 248.052Z" fill="#FEFEFE"/>
<path fill-rule="evenodd" clip-rule="evenodd" d="M283.107 248.052L261.445 252.534L265.605 283.2L287.267 278.718L283.107 248.052Z" fill="#93D2C3"/>
<path d="M246.583 272.908C247.718 272.908 248.769 272.31 248.93 271.573C249.091 270.836 248.301 270.239 247.165 270.239C246.03 270.239 244.979 270.836 244.818 271.573C244.657 272.31 245.447 272.908 246.583 272.908Z" fill="#E5A185"/>
<path d="M246.143 274.925C247.278 274.925 248.329 274.327 248.49 273.59C248.651 272.853 247.861 272.255 246.725 272.255C245.589 272.255 244.539 272.853 244.378 273.59C244.217 274.327 245.007 274.925 246.143 274.925Z" fill="#E5A185"/>
<path d="M246.689 276.43C247.824 276.43 248.875 275.832 249.036 275.095C249.197 274.358 248.407 273.76 247.271 273.76C246.136 273.76 245.085 274.358 244.924 275.095C244.763 275.832 245.553 276.43 246.689 276.43Z" fill="#E5A185"/>
<path d="M247.421 278.488C248.557 278.488 249.608 277.891 249.768 277.154C249.929 276.416 249.139 275.819 248.004 275.819C246.868 275.819 245.817 276.416 245.656 277.154C245.495 277.891 246.286 278.488 247.421 278.488Z" fill="#E5A185"/>
<path fill-rule="evenodd" clip-rule="evenodd" d="M303.024 280.409L286.073 279.912L287.267 276.552L304.163 273.879L303.024 280.409Z" fill="#E5A185"/>
<path d="M286.156 279.914C285.902 279.818 282.827 282.172 279.855 278.748C279.766 278.643 279.738 278.504 279.779 278.378C279.872 278.073 280.066 277.697 279.844 277.367C279.309 276.566 280.664 276.175 280.114 275.549C279.545 275.016 280.16 274.619 280.278 274.068C280.362 273.683 280.122 273.278 279.969 272.943C279.951 272.901 279.947 272.857 279.959 272.816C280.28 271.64 282.824 272.583 283.541 272.919C283.583 272.938 283.624 272.938 283.665 272.917C284.844 272.315 285.877 273.043 286.657 273.9C286.83 274.173 287.552 276.507 287.553 276.507C287.117 278.326 286.802 277.671 286.156 279.914Z" fill="#E5A185"/>
<path d="M278.16 252.905L267.862 255.102C266.451 255.403 265.373 255.956 265.454 256.336C265.535 256.716 266.744 256.78 268.156 256.478L278.454 254.281C279.865 253.98 280.943 253.428 280.862 253.048C280.781 252.668 279.571 252.604 278.16 252.905Z" fill="#FEFEFE"/>
<path d="M278.902 256.003L268.604 258.201C267.193 258.502 266.114 259.054 266.195 259.434C266.276 259.814 267.486 259.878 268.897 259.577L279.196 257.379C280.607 257.078 281.685 256.526 281.604 256.146C281.523 255.766 280.313 255.702 278.902 256.003Z" fill="#FEFEFE"/>
<path fill-rule="evenodd" clip-rule="evenodd" d="M267.193 261.647L276.495 259.662C276.873 259.581 277.33 259.816 277.33 260.203V260.204C277.33 260.59 277.167 260.958 276.789 261.038L267.487 263.023C267.108 263.104 266.652 262.869 266.652 262.482V262.482C266.652 262.095 266.814 261.728 267.193 261.647Z" fill="#FEFEFE"/>
<defs>
<linearGradient id="paint0_linear_233_5778" x1="447.688" y1="210.694" x2="439.806" y2="223.23" gradientUnits="userSpaceOnUse">
<stop stop-color="#FEFEFE"/>
<stop offset="1" stop-color="#D2D3D5"/>
</linearGradient>
</defs>
</svg>
