<svg width="246" height="280" viewBox="0 0 246 280" fill="none" xmlns="http://www.w3.org/2000/svg">
<path d="M112.069 237.967C173.963 237.967 224.139 187.75 224.139 125.805C224.139 63.8595 173.963 13.6429 112.069 13.6429C50.1752 13.6429 0 63.8595 0 125.805C0 187.75 50.1752 237.967 112.069 237.967Z" fill="#388CB9"/>
<path fill-rule="evenodd" clip-rule="evenodd" d="M240.868 23.683V24.5449C240.289 30.6 235.875 35.5617 231.353 39.2408C226.904 42.8573 222.168 46.0486 217.142 48.8134C206.445 54.6982 195.209 59.5914 183.61 64.0043C173.601 67.813 163.489 71.3319 153.278 74.5596C127.712 82.6443 101.683 89.6399 75.4368 95.1374C69.5234 96.3764 65.0095 97.1932 61.8936 97.5877C56.5591 98.2618 43.8173 97.7058 43.7984 89.6823C43.7911 86.4691 48.3778 82.3736 50.6937 80.4271C50.7359 80.3921 50.7606 80.3396 50.7606 80.2843C50.7606 80.2523 50.7519 80.2218 50.7374 80.1942C46.9188 73.4111 43.1031 66.6221 39.2859 59.8274C38.7026 58.7879 38.352 57.8328 38.2371 56.9636V56.2049C38.4975 53.9789 39.6336 52.4167 41.6454 51.5199C45.7433 49.6927 49.6158 49.0274 53.8548 50.7541C54.2607 50.9201 55.4637 51.5315 57.4668 52.5885C63.8254 55.9487 70.1781 59.3119 76.5279 62.6809C76.5613 62.6984 76.6021 62.6984 76.637 62.6795C85.7478 57.3261 95.01 52.2538 104.426 47.461C104.431 47.4581 104.435 47.4551 104.439 47.4507C104.467 47.426 104.47 47.3851 104.445 47.3575C104.442 47.3531 104.438 47.3501 104.432 47.3472C90.9601 38.5987 77.4909 29.8518 64.0261 21.109C62.5467 20.1496 61.5982 19.407 61.1807 18.8814C60.2206 17.6759 59.886 16.2287 60.177 14.5398C60.657 11.743 63.3206 10.5754 65.4881 9.21268C71.2517 5.59329 77.4502 4.27707 84.1549 5.67329C84.5855 5.76355 85.8948 6.09566 88.0841 6.67365C110.363 12.5555 132.645 18.4373 154.928 24.3163C154.993 24.3352 155.059 24.3308 155.124 24.3075C167.418 19.5336 179.869 14.9272 192.743 11.963C198.107 10.7255 203.294 9.81704 208.549 9.81267C211.378 9.80976 214.19 9.89698 216.986 10.0731C217.246 10.0892 217.256 10.1502 217.018 10.2594C210.443 13.2251 203.806 16.223 197.112 19.2528C196.863 19.3663 196.278 19.5002 196.255 19.8744C196.106 22.1135 195.949 24.3412 195.785 26.5556C195.783 26.5585 195.783 26.5613 195.783 26.5627C195.783 26.6195 195.83 26.6648 195.885 26.6648C195.9 26.6648 195.914 26.6618 195.928 26.656L228.165 11.8188C228.228 11.7897 228.293 11.7824 228.362 11.7969C234.618 13.0519 240.671 16.4137 240.868 23.683ZM186.644 115.986C185.137 116.177 183.219 115.599 182.121 114.351C173.524 104.581 164.926 94.8086 156.33 85.0351C154.471 82.924 155.11 80.9382 157.672 80.0355C169.747 75.7813 181.821 71.5241 193.895 67.2642C196.246 66.4343 197.634 67.6734 197.906 69.9533C198.95 78.7441 199.976 87.5377 200.981 96.3328C201.179 98.061 201.24 99.4077 201.166 100.373C200.725 106.122 197.253 111.212 192.121 113.745C190.541 114.526 188.244 115.785 186.644 115.986Z" fill="#FEFEFE"/>
<path fill-rule="evenodd" clip-rule="evenodd" d="M246 23.6829V24.5448V24.6L245.959 25.0268C245.575 29.0495 243.976 32.6222 241.758 35.7539C239.718 38.6322 237.154 41.1204 234.58 43.214C232.241 45.1154 229.815 46.9135 227.31 48.6009C224.779 50.3057 222.207 51.8781 219.607 53.3078C214.194 56.2852 208.576 59.044 202.798 61.6355C201.681 62.1363 200.562 62.6299 199.442 63.1147C199.455 63.1249 199.47 63.1335 199.484 63.1437C200.888 64.0944 201.898 65.4646 202.488 67.1418V67.1606C202.734 67.8638 202.909 68.602 202.997 69.3518C203.447 73.1343 203.96 77.4931 204.549 82.5582C205.06 86.9536 205.571 91.355 206.072 95.7504C206.176 96.653 206.249 97.5411 206.288 98.3972V98.4162C206.329 99.3422 206.326 100.124 206.278 100.754C205.991 104.513 204.702 108.076 202.642 111.12C200.584 114.163 197.753 116.678 194.385 118.34L194.381 118.331L193.709 118.669L193.713 118.678C191.845 119.619 189.506 120.802 187.265 121.082L187.263 121.066C185.712 121.258 183.984 121.057 182.417 120.492H182.397C180.857 119.934 179.39 119.013 178.272 117.742L152.481 88.4256C151.614 87.44 150.986 86.3729 150.594 85.265L150.588 85.2664C150.062 83.7683 149.996 82.2803 150.366 80.8521C139.066 84.3593 127.578 87.6789 115.915 90.7741C102.874 94.2363 89.7148 97.381 76.4798 100.153C73.6417 100.747 70.9839 101.27 68.5182 101.715C66.1674 102.14 64.17 102.459 62.5349 102.665L62.5146 102.683C61.4498 102.816 60.0256 102.909 58.3555 102.912C54.9864 102.919 50.8827 102.481 47.4016 101.14C42.9386 99.4221 39.44 96.3604 38.7839 91.2137H38.781C38.7199 90.7377 38.6879 90.2309 38.6864 89.7024V89.6822C38.6792 86.6233 40.3681 83.7098 42.4847 81.2479L42.505 81.2291C43.0913 80.5478 43.7183 79.8911 44.3424 79.2781L34.8155 62.3359C34.3936 61.5861 34.0459 60.8347 33.7739 60.0966V60.0761C33.4757 59.2608 33.2706 58.4425 33.1644 57.6258L33.1047 57.1688V56.9635V56.2048V55.9691L33.1455 55.6225C33.3811 53.609 34.0474 51.8503 35.134 50.3551H35.1544C36.2629 48.8307 37.7351 47.6588 39.5607 46.845C42.0861 45.7195 44.61 44.9436 47.2561 44.7091C50.0681 44.4587 52.8815 44.8197 55.7793 45.999L55.7996 46.0195C56.1604 46.168 56.6855 46.4168 57.3678 46.7633H57.3882C57.714 46.9293 58.5185 47.35 59.8524 48.0532L69.3866 53.0965L76.4711 56.8515C80.2795 54.6414 84.1141 52.4778 87.972 50.3653C90.1512 49.1714 92.2823 48.0214 94.3654 46.9135L61.2388 25.4024C59.2866 24.1358 57.9279 23.0234 57.1715 22.0712C55.2585 19.669 54.5748 16.8678 55.1246 13.6764C55.9335 8.96364 58.984 7.14094 61.9065 5.39821L61.9254 5.37774C62.532 5.01959 62.5858 5.00079 62.7677 4.88723L62.7619 4.87841C66.1921 2.72512 69.7663 1.25311 73.486 0.526611C77.2479 -0.207167 81.1494 -0.183815 85.1978 0.657699H85.2167C85.6037 0.73923 86.1419 0.867316 86.7558 1.0231L86.7544 1.02736L89.3874 1.7175L154.739 18.9672C160.533 16.7265 166.334 14.544 172.072 12.6004C178.477 10.434 184.973 8.49195 191.6 6.96616C194.412 6.31828 197.19 5.75348 199.966 5.34874C202.754 4.94254 205.6 4.69933 208.548 4.69642C210.053 4.69497 211.512 4.71676 212.92 4.75898C214.542 4.80848 215.994 4.87682 217.287 4.95689H217.326C219.974 5.13451 221.609 6.41872 222.172 8.94472L226.022 7.17146L226.019 7.16407C227.081 6.67052 228.197 6.53385 229.362 6.76825L229.364 6.76085C233.629 7.61547 237.903 9.34064 241.079 12.3573C243.957 15.0944 245.85 18.7561 245.98 23.5621L246 23.6829ZM240.868 23.6829V24.5448C240.289 30.5999 235.875 35.5616 231.352 39.2407C226.904 42.8572 222.167 46.0485 217.141 48.8133C206.445 54.6981 195.209 59.5913 183.61 64.0042C173.601 67.8129 163.489 71.3318 153.278 74.5595C127.712 82.6442 101.683 89.6398 75.4367 95.1373C69.5233 96.3763 65.0094 97.1931 61.8934 97.5876C56.559 98.2617 43.8172 97.7057 43.7983 89.6822C43.791 86.469 48.3777 82.3735 50.6936 80.4269C50.7358 80.392 50.7605 80.3395 50.7605 80.2842C50.7605 80.2522 50.7518 80.2217 50.7373 80.1941C46.9187 73.411 43.1029 66.622 39.2858 59.8273C38.7025 58.7878 38.3519 57.8327 38.237 56.9635V56.2048C38.4973 53.9788 39.6335 52.4166 41.6453 51.5198C45.7432 49.6926 49.6157 49.0273 53.8547 50.754C54.2605 50.92 55.4636 51.5314 57.4667 52.5884C63.8253 55.9486 70.178 59.3118 76.5278 62.6808C76.5612 62.6983 76.6019 62.6983 76.6369 62.6794C85.7477 57.326 95.0099 52.2537 104.426 47.4609C104.431 47.458 104.435 47.455 104.439 47.4506C104.467 47.4259 104.47 47.385 104.445 47.3574C104.442 47.353 104.438 47.35 104.432 47.3471C90.96 38.5986 77.4908 29.8517 64.026 21.1089C62.5466 20.1495 61.5981 19.4069 61.1806 18.8813C60.2205 17.6758 59.8859 16.2286 60.1768 14.5397C60.6569 11.7429 63.3205 10.5753 65.488 9.21258C71.2516 5.59319 77.4501 4.27697 84.1548 5.67319C84.5854 5.76345 85.8947 6.09556 88.084 6.67356C110.363 12.5554 132.645 18.4372 154.928 24.3162C154.993 24.3351 155.059 24.3307 155.124 24.3074C167.418 19.5335 179.869 14.9271 192.743 11.9629C198.107 10.7254 203.294 9.81694 208.548 9.81257C211.378 9.80966 214.19 9.89688 216.986 10.073C217.246 10.0891 217.256 10.1501 217.018 10.2593C210.442 13.225 203.806 16.2229 197.112 19.2527C196.863 19.3662 196.278 19.5001 196.255 19.8743C196.106 22.1134 195.949 24.3411 195.785 26.5555C195.783 26.5584 195.783 26.5612 195.783 26.5626C195.783 26.6194 195.83 26.6647 195.885 26.6647C195.9 26.6647 195.914 26.6617 195.927 26.6559L228.165 11.8187C228.228 11.7896 228.293 11.7823 228.362 11.7968C234.618 13.0518 240.671 16.4136 240.868 23.6829ZM186.643 115.986C185.136 116.177 183.219 115.599 182.121 114.351C173.523 104.58 164.926 94.8085 156.33 85.035C154.471 82.9239 155.11 80.938 157.671 80.0354C169.747 75.7812 181.821 71.524 193.895 67.2641C196.246 66.4342 197.634 67.6733 197.906 69.9532C198.95 78.744 199.976 87.5376 200.981 96.3327C201.179 98.0609 201.24 99.4076 201.166 100.373C200.725 106.122 197.253 111.212 192.12 113.745C190.541 114.526 188.244 115.785 186.643 115.986Z" fill="#388CB9"/>
<path d="M139.399 101.701L44.4028 127.176C39.9651 128.366 37.3316 132.932 38.5207 137.373L74.553 271.958C75.7421 276.4 80.3035 279.035 84.7411 277.845L179.738 252.37C184.175 251.18 186.809 246.615 185.62 242.174L149.587 107.588C148.398 103.147 143.837 100.511 139.399 101.701Z" fill="#FEFEFE" stroke="#388CB9" stroke-width="0.762496" stroke-miterlimit="22.9256"/>
<path d="M114.274 198.007C131.789 193.31 142.183 175.292 137.49 157.762C132.797 140.233 114.794 129.83 97.2785 134.527C79.7635 139.224 69.3692 157.242 74.0624 174.772C78.7556 192.301 96.7589 202.704 114.274 198.007Z" stroke="#388CB9" stroke-width="0.321199" stroke-miterlimit="22.9256"/>
<path d="M103.297 166.93L94.8005 135.19L99.7582 133.859L108.255 165.599L103.297 166.93Z" fill="#388CB9"/>
<path d="M73.3989 172.287L105.112 163.783L106.441 168.745L74.7285 177.249L73.3989 172.287Z" fill="#388CB9"/>
<path d="M126.052 140.416C120.782 143.894 111.903 147.612 101.528 150.395C91.152 153.177 81.6062 154.4 75.3044 154.025" stroke="#388CB9" stroke-width="1.33342" stroke-miterlimit="22.9256"/>
<path d="M103.297 166.93L108.255 165.599L116.753 197.339L111.796 198.67L103.297 166.93Z" fill="#388CB9"/>
<path d="M136.249 178.504C129.948 178.129 120.402 179.352 110.025 182.134C99.6504 184.917 90.7724 188.634 85.502 192.112" stroke="#388CB9" stroke-width="1.33342" stroke-miterlimit="22.9256"/>
<path d="M136.826 155.28L138.155 160.241L106.441 168.745L105.112 163.784L136.826 155.28Z" fill="#388CB9"/>
<path d="M124.111 161.346L119.154 162.677L118.713 161.112L118.239 159.577L117.735 158.079L117.199 156.616L116.636 155.189L116.045 153.803L115.43 152.457L114.791 151.155L114.131 149.899L113.45 148.687L112.752 147.525L112.039 146.416L111.31 145.358L110.569 144.354L109.819 143.408L109.06 142.517L108.296 141.689L107.529 140.92L106.763 140.218L105.999 139.576L105.239 139.004L104.49 138.497L103.75 138.059L103.027 137.686L102.32 137.383L101.63 137.145L100.966 136.97L100.324 136.859L99.7043 136.808L99.1035 136.817L98.5187 136.881L97.9441 137.005L96.6145 132.043L97.6953 131.812L98.7864 131.689L99.8788 131.675L100.97 131.764L102.054 131.95L103.123 132.23L104.173 132.594L105.212 133.039L106.234 133.563L107.237 134.159L108.224 134.825L109.193 135.558L110.146 136.354L111.082 137.213L111.999 138.133L112.9 139.11L113.782 140.144L114.646 141.233L115.488 142.376L116.31 143.568L117.11 144.812L117.887 146.104L118.64 147.444L119.368 148.828L120.067 150.255L120.741 151.727L121.384 153.238L121.996 154.787L122.577 156.376L123.124 157.999L123.636 159.656L124.111 161.346ZM114.939 200.485L113.61 195.524L114.17 195.343L114.71 195.106L115.232 194.813L115.744 194.458L116.246 194.04L116.735 193.557L117.21 193.006L117.673 192.389L118.114 191.705L118.534 190.958L118.93 190.141L119.302 189.265L119.644 188.329L119.957 187.336L120.236 186.287L120.485 185.185L120.697 184.038L120.873 182.843L121.013 181.602L121.116 180.32L121.18 179.002L121.203 177.648L121.189 176.256L121.134 174.84L121.035 173.391L120.895 171.918L120.715 170.421L120.491 168.904L120.222 167.369L119.91 165.817L119.554 164.252L119.154 162.677L124.111 161.346L124.543 163.05L124.929 164.74L125.266 166.42L125.556 168.086L125.8 169.737L125.998 171.367L126.149 172.975L126.257 174.563L126.318 176.128L126.336 177.663L126.309 179.171L126.237 180.649L126.122 182.095L125.962 183.504L125.76 184.88L125.512 186.219L125.22 187.513L124.885 188.768L124.503 189.983L124.076 191.149L123.602 192.267L123.081 193.337L122.51 194.357L121.886 195.321L121.211 196.227L120.482 197.069L119.693 197.846L118.851 198.546L117.952 199.169L116.994 199.706L115.988 200.145L114.939 200.485ZM87.4411 171.182L92.3987 169.852L92.8395 171.417L93.3137 172.951L93.8171 174.449L94.3538 175.913L94.9168 177.34L95.5074 178.725L96.1228 180.072L96.7614 181.374L97.4219 182.63L98.1026 183.842L98.7994 185.003L99.5151 186.111L100.244 187.171L100.984 188.174L101.735 189.122L102.493 190.012L103.257 190.84L104.022 191.607L104.79 192.311L105.555 192.952L106.314 193.525L107.064 194.031L107.804 194.47L108.527 194.842L109.234 195.145L109.924 195.384L110.588 195.559L111.23 195.669L111.85 195.72L112.45 195.712L113.035 195.648L113.61 195.524L114.939 200.485L113.859 200.717L112.768 200.839L111.675 200.854L110.584 200.765L109.5 200.579L108.431 200.299L107.381 199.935L106.342 199.49L105.319 198.965L104.317 198.37L103.329 197.703L102.361 196.971L101.409 196.174L100.472 195.317L99.553 194.395L98.6525 193.419L97.7695 192.383L96.9083 191.296L96.066 190.153L95.2441 188.962L94.444 187.717L93.6658 186.424L92.9123 185.085L92.1849 183.7L91.4852 182.273L90.8117 180.802L90.1686 179.29L89.5562 177.741L88.9758 176.153L88.4288 174.53L87.9167 172.873L87.4411 171.182ZM96.6145 132.043L97.9441 137.005L97.384 137.185L96.8443 137.423L96.3221 137.716L95.81 138.071L95.3081 138.488L94.8194 138.972L94.3437 139.522L93.8811 140.139L93.4403 140.824L93.0199 141.571L92.6242 142.388L92.2518 143.264L91.9099 144.2L91.5972 145.194L91.3164 146.241L91.0692 147.343L90.8567 148.491L90.6807 149.686L90.541 150.926L90.4378 152.209L90.3738 153.528L90.349 154.882L90.3636 156.271L90.4203 157.689L90.5178 159.139L90.6575 160.611L90.8378 162.108L91.0618 163.625L91.331 165.159L91.6423 166.711L91.9987 168.277L92.3987 169.852L87.4411 171.182L87.009 169.479L86.6236 167.789L86.286 166.109L85.9966 164.443L85.7522 162.792L85.5543 161.161L85.403 159.553L85.2968 157.966L85.2343 156.402L85.2168 154.865L85.2445 153.356L85.3172 151.88L85.4322 150.434L85.5921 149.025L85.7943 147.649L86.0417 146.312L86.3326 145.015L86.6687 143.759L87.0512 142.546L87.4774 141.38L87.9517 140.262L88.4725 139.192L89.0441 138.171L89.6682 137.207L90.3432 136.302L91.072 135.46L91.8605 134.683L92.7028 133.982L93.6018 133.359L94.5605 132.822L95.5656 132.384L96.6145 132.043Z" fill="#388CB9"/>
<path d="M85.8277 231.086C84.4632 231.451 83.0565 230.639 82.69 229.269C82.3234 227.899 83.1336 226.49 84.4981 226.124L85.8277 231.086ZM155.437 212.418L85.8277 231.086L84.4981 226.124L154.107 207.456L155.437 212.418ZM154.107 207.456C155.472 207.091 156.879 207.903 157.245 209.273C157.612 210.643 156.802 212.053 155.437 212.418L154.107 207.456Z" fill="#388CB9"/>
<path d="M96.3961 243.541C95.0316 243.907 93.6249 243.093 93.2583 241.723C92.8917 240.353 93.702 238.945 95.0665 238.579L96.3961 243.541ZM152.506 228.494L96.3961 243.541L95.0665 238.579L151.176 223.533L152.506 228.494ZM151.176 223.533C152.541 223.167 153.947 223.981 154.314 225.351C154.68 226.721 153.87 228.129 152.506 228.494L151.176 223.533Z" fill="#388CB9"/>
</svg>
