<svg width="248" height="230" viewBox="0 0 248 230" fill="none" xmlns="http://www.w3.org/2000/svg">
<path d="M124.006 225.019C181.623 225.019 228.33 178.158 228.33 120.351C228.33 62.5452 181.623 15.6838 124.006 15.6838C66.3902 15.6838 19.6829 62.5452 19.6829 120.351C19.6829 178.158 66.3902 225.019 124.006 225.019Z" fill="#5E5CA7"/>
<path fill-rule="evenodd" clip-rule="evenodd" d="M132.551 16.0766C132.551 10.3744 127.943 5.75098 122.257 5.75098C116.573 5.75098 111.965 10.3744 111.965 16.0766C111.965 21.7801 116.573 26.4022 122.257 26.4022C127.943 26.4022 132.551 21.7801 132.551 16.0766ZM64.2267 144.643L64.9838 145.064C65.1029 145.129 65.1462 145.231 65.1151 145.367C63.2802 153.728 56.8222 159.818 48.8014 162.246C44.2555 163.628 39.78 164.241 35.3749 164.09C22.2435 164.389 9.27197 159.131 5.7376 145.206C5.73489 145.189 5.73218 145.168 5.73218 145.153C5.73218 145.03 5.83105 144.93 5.95292 144.93C5.95428 144.93 5.95699 144.93 5.9597 144.93C6.4797 144.945 6.72071 144.681 6.84394 144.183C14.6236 112.841 22.4155 81.5041 30.2155 50.17C30.6028 48.613 31.0267 46.9937 31.483 45.3145C30.4295 44.699 29.6887 44.2302 29.2649 43.9041C20.5779 37.2346 26.7001 23.7407 37.3804 25.5504C40.8335 26.1373 43.3374 28.1086 44.8906 31.4617C44.9313 31.5514 45.0098 31.6249 45.1086 31.6602L45.2332 31.7035C45.5745 31.6437 45.8236 31.5542 46.1527 31.5963C57.2284 33.0065 67.6704 36.395 77.4719 41.7603C89.0337 48.0928 99.7398 54.9714 112.905 57.5514C112.917 57.5514 112.928 57.5528 112.939 57.5528C113.044 57.5528 113.13 57.4687 113.13 57.3641V39.7534C113.13 39.593 113 39.4615 112.839 39.4615H103.721C103.591 39.4615 103.527 39.3976 103.527 39.2686V30.4128C103.527 30.243 103.613 30.1588 103.779 30.1588C108.283 30.148 112.535 30.2416 117.227 30.1166C118.907 30.0704 120.548 30.1072 122.149 30.2268L140.301 30.144C140.42 30.144 140.48 30.2035 140.48 30.3231V39.2686C140.48 39.3976 140.416 39.4615 140.286 39.4615H131.48C131.355 39.4615 131.295 39.5239 131.295 39.6462L131.324 57.5732C138.94 56.0773 145.1 53.6141 151.973 49.8983C158.851 46.177 165.59 42.1882 172.676 38.8636C182.042 34.4725 192.038 31.9223 202.662 31.2144C204.958 27.2173 208.242 25.2975 212.509 25.4538C223.372 25.8451 225.939 39.9843 216.626 45.0629C224.752 77.7244 232.858 110.372 240.947 143.004C241.062 143.462 241.162 144.018 241.252 144.666C241.604 144.677 241.904 144.769 242.16 144.945C242.264 145.019 242.302 145.117 242.274 145.242C240.007 155.214 232.08 161.185 222.53 163.136C218.86 163.882 215.44 164.208 212.271 164.114C199.656 164.101 186.466 159.359 183.059 145.818C182.914 145.237 183.127 144.84 183.694 144.63C183.832 144.579 183.917 144.482 183.951 144.341L208.54 45.3673C206.143 44.4747 204.26 42.8633 202.895 40.5319C192.275 41.4748 182.299 44.355 172.969 49.1741C159.468 56.1411 146.878 65.2168 131.278 66.9273L131.269 205.074C131.269 205.463 131.465 205.66 131.854 205.66L152.021 205.671C152.128 205.671 152.218 205.758 152.218 205.865V214.416C152.218 214.574 152.345 214.702 152.501 214.702L169.295 214.816C169.427 214.816 169.492 214.881 169.492 215.017L169.475 223.965C169.474 224.098 169.408 224.163 169.275 224.163L122.144 224.249H80.4483C80.2858 224.249 80.1531 224.116 80.1531 223.954V215.013C80.1531 214.882 80.2168 214.819 80.3454 214.819C85.7079 214.806 91.3954 215.157 96.7078 214.677C96.8567 214.665 96.9326 214.582 96.9326 214.428V205.866C96.9326 205.739 96.9935 205.675 97.1221 205.675L112.891 205.65C113.05 205.65 113.13 205.574 113.13 205.418V67.2943C113.131 67.1802 113.049 67.0797 112.936 67.0648C104.677 65.736 96.8757 63.1002 89.5294 59.1547C84.89 56.663 80.2723 54.1264 75.6803 51.5477C65.8518 46.029 55.6305 42.1405 44.3625 40.8634C43.2304 42.8279 41.5959 44.305 39.455 45.2927L64.2267 144.643ZM35.5496 145.091C35.5834 145.046 35.6254 145.005 35.6687 144.973C35.6254 145.005 35.5848 145.046 35.5496 145.091ZM37.0974 144.829L60.8874 144.837L37.3967 50.166C37.3912 50.1443 37.3777 50.1225 37.3601 50.1089C37.3141 50.0723 37.2463 50.0818 37.2098 50.1307C37.1962 50.1484 37.1881 50.17 37.1868 50.1931V143.766C37.1868 143.867 37.1692 143.964 37.1313 144.062C37.0703 144.233 37.0595 144.489 37.0974 144.829ZM214.193 144.793H238.076L214.428 49.8738C214.413 49.7978 214.344 49.7422 214.267 49.7422C214.174 49.7422 214.098 49.8167 214.098 49.9105C214.098 49.9105 214.098 49.912 214.098 49.9134L214.193 144.793ZM33.6294 49.92L10.1102 144.672C10.0831 144.79 10.1278 144.849 10.247 144.849H33.5942C33.7336 144.849 33.8027 144.78 33.8027 144.638C33.7553 113.03 33.7986 81.4213 33.9313 49.8128C33.9313 49.8047 33.9287 49.7992 33.9205 49.791C33.8813 49.7707 33.8284 49.7665 33.7594 49.7855C33.6903 49.8059 33.6456 49.8521 33.6294 49.92ZM211.151 49.7422C211.14 49.6566 211.068 49.5942 210.982 49.5942C210.905 49.5942 210.84 49.6444 210.818 49.7191L187.251 144.593C187.208 144.763 187.274 144.849 187.45 144.849H210.802C210.899 144.849 210.976 144.77 210.976 144.672L211.039 50.564C211.039 50.4676 211.055 50.3724 211.086 50.2828C211.15 50.0966 211.171 49.9148 211.151 49.7422Z" fill="#FEFEFE"/>
<path fill-rule="evenodd" clip-rule="evenodd" d="M132.551 16.0767C132.551 10.3745 127.943 5.75109 122.257 5.75109C116.573 5.75109 111.965 10.3745 111.965 16.0767C111.965 21.7802 116.573 26.4023 122.257 26.4023C127.943 26.4023 132.551 21.7802 132.551 16.0767ZM112.905 57.5515L112.939 57.5529C113.044 57.5529 113.13 57.4688 113.13 57.3642V39.7535C113.13 39.5932 113 39.4616 112.839 39.4616H103.721C103.591 39.4616 103.527 39.3977 103.527 39.2687V30.4129C103.527 30.2431 103.613 30.159 103.779 30.159C108.283 30.1481 112.535 30.2418 117.227 30.1168C118.907 30.0706 120.548 30.1073 122.148 30.2269L140.301 30.1441C140.42 30.1441 140.48 30.2036 140.48 30.3232V39.2687C140.48 39.3977 140.416 39.4616 140.286 39.4616H131.48C131.355 39.4616 131.295 39.524 131.295 39.6463L131.324 57.5733C138.94 56.0775 145.1 53.6142 151.973 49.8984C158.85 46.1771 165.59 42.1883 172.676 38.8637C182.042 34.4726 192.038 31.9224 202.662 31.2145C204.958 27.2175 208.242 25.2977 212.509 25.4539C223.372 25.8452 225.939 39.9845 216.626 45.063C224.752 77.7245 232.858 110.373 240.947 143.004C241.062 143.462 241.162 144.018 241.251 144.666C241.604 144.677 241.904 144.769 242.16 144.945C242.264 145.019 242.302 145.117 242.274 145.242C240.007 155.214 232.08 161.185 222.53 163.136C218.86 163.882 215.44 164.208 212.271 164.114C199.656 164.101 186.466 159.359 183.059 145.818C182.914 145.238 183.127 144.84 183.694 144.63C183.832 144.579 183.917 144.482 183.951 144.341L208.54 45.3674C206.143 44.4748 204.26 42.8635 202.895 40.532C192.275 41.4749 182.299 44.3551 172.969 49.1742C159.468 56.1413 146.878 65.2169 131.278 66.9274L131.269 205.074C131.269 205.463 131.465 205.66 131.854 205.66L152.021 205.671C152.128 205.671 152.218 205.758 152.218 205.865V214.416C152.218 214.574 152.345 214.702 152.501 214.702L169.295 214.816C169.426 214.816 169.492 214.881 169.492 215.017L169.475 223.965C169.474 224.098 169.408 224.163 169.275 224.163L122.144 224.249H80.4483C80.2858 224.249 80.1531 224.116 80.1531 223.954V215.013C80.1531 214.882 80.2168 214.819 80.3454 214.819C85.7079 214.806 91.3953 215.157 96.7077 214.677C96.8567 214.665 96.9325 214.582 96.9325 214.429V205.867C96.9325 205.739 96.9935 205.675 97.1221 205.675L112.891 205.651C113.05 205.651 113.13 205.575 113.13 205.418V67.2944C113.131 67.1803 113.049 67.0798 112.936 67.0649C104.677 65.7361 96.8757 63.1003 89.5293 59.1548C84.89 56.6631 80.2722 54.1265 75.6803 51.5478C65.8517 46.0291 55.6305 42.1406 44.3625 40.8635C43.2304 42.8281 41.5959 44.3051 39.455 45.2928L64.2267 144.643L64.9837 145.064C65.1029 145.129 65.1462 145.231 65.1151 145.367C63.2802 153.728 56.8222 159.818 48.8014 162.246C44.2555 163.628 39.78 164.241 35.3749 164.09C22.2435 164.389 9.27196 159.131 5.73759 145.206L5.73216 145.154C5.73216 145.03 5.83103 144.931 5.95291 144.931C6.47968 144.946 6.7207 144.681 6.84393 144.183L30.2155 50.1701C30.6028 48.6131 31.0267 46.9939 31.483 45.3146C30.4295 44.6991 29.6887 44.2303 29.2649 43.9042C20.5779 37.2347 26.7001 23.7408 37.3804 25.5505C40.8335 26.1374 43.3374 28.1088 44.8906 31.4619C44.9312 31.5515 45.0098 31.625 45.1086 31.6603L45.2332 31.7036C45.5744 31.6438 45.8236 31.5543 46.1527 31.5964C57.2284 33.0067 67.6704 36.3951 77.4718 41.7604C89.0337 48.093 99.7398 54.9715 112.905 57.5515ZM37.0974 144.829L60.8874 144.837L37.3966 50.1661L37.3601 50.1091C37.314 50.0724 37.2463 50.0819 37.2098 50.1308L37.1867 50.1932V143.766C37.1867 143.867 37.1691 143.965 37.1312 144.062C37.0703 144.234 37.0595 144.489 37.0974 144.829ZM214.193 144.793H238.076L214.428 49.874C214.413 49.7979 214.344 49.7423 214.267 49.7423C214.174 49.7423 214.098 49.8168 214.098 49.9106L214.193 144.793ZM33.6293 49.9201L10.1102 144.672C10.0831 144.791 10.1278 144.849 10.247 144.849H33.5941C33.7336 144.849 33.8027 144.78 33.8027 144.638C33.7553 113.03 33.7986 81.4215 33.9313 49.8129L33.9205 49.7912C33.8812 49.7708 33.8284 49.7666 33.7593 49.7856C33.6903 49.806 33.6456 49.8522 33.6293 49.9201ZM211.151 49.7423C211.14 49.6567 211.068 49.5943 210.982 49.5943C210.905 49.5943 210.84 49.6445 210.818 49.7193L187.251 144.594C187.208 144.763 187.274 144.849 187.45 144.849H210.802C210.899 144.849 210.976 144.77 210.976 144.672L211.039 50.5642C211.039 50.4677 211.055 50.3725 211.086 50.2829C211.15 50.0967 211.171 49.9149 211.151 49.7423ZM133.576 4.72124C136.484 7.64094 138.283 11.6571 138.283 16.0767C138.283 19.1377 137.429 22.0002 135.949 24.4362L140.278 24.4161L140.301 24.393C144.242 24.393 146.212 26.3696 146.212 30.3232V39.2687C146.212 40.846 145.649 42.2413 144.552 43.3907L144.396 43.5468C143.267 44.6323 141.892 45.2127 140.286 45.2127H137.013L137.021 50.2057C138.002 49.8932 138.963 49.5576 139.912 49.1989C142.997 48.0332 146.036 46.5889 149.263 44.8444C152.647 43.0143 153.859 42.3389 155.11 41.6447C160.122 38.8622 165.136 36.077 170.258 33.6736C175.329 31.296 180.509 29.4321 185.786 28.0857C190.218 26.9553 194.795 26.1632 199.512 25.7121C200.812 24.094 202.303 22.7939 203.979 21.8129C206.559 20.3035 209.472 19.6063 212.711 19.7259C217.256 19.8876 220.911 21.6757 223.539 24.3482C225.631 26.4785 227.026 29.1672 227.661 32.0353C228.281 34.849 228.17 37.8461 227.263 40.6557C226.471 43.1121 225.094 45.4272 223.096 47.3592L246.349 141.023C246.901 141.594 247.321 142.262 247.619 143.053C248.028 144.151 248.116 145.3 247.844 146.499C246.487 152.5 243.476 157.361 239.387 161.068C235.072 164.978 229.607 167.54 223.672 168.753H223.65C221.605 169.167 219.635 169.467 217.75 169.647C215.816 169.83 213.934 169.897 212.114 169.842C204.315 169.812 196.262 168.15 189.801 164.104C183.972 160.453 179.461 154.982 177.505 147.21C177.072 145.488 177.268 143.866 178.072 142.367C178.291 141.959 178.543 141.586 178.827 141.243L201.959 48.1351L201.612 47.8469C201.157 47.457 200.721 47.04 200.307 46.5944C196.446 47.0903 192.68 47.8688 189.015 48.9272C184.37 50.2681 179.89 52.052 175.589 54.2733C172.503 55.8656 169.623 57.4783 166.749 59.0856C157.354 64.3421 147.972 69.5919 136.987 71.8336L136.978 199.935L152.021 199.943V199.92C153.657 199.92 155.139 200.584 156.213 201.662L156.202 201.673C157.293 202.766 157.95 204.248 157.95 205.865V209.01L169.295 209.088V209.065C170.954 209.065 172.345 209.644 173.496 210.798L173.562 210.888C174.662 212.038 175.224 213.401 175.224 215.017H175.201L175.184 223.965H175.207C175.207 225.652 174.614 227.039 173.477 228.181C172.326 229.336 170.912 229.914 169.275 229.914V229.891L122.144 229.977V230H80.4483C78.7854 230 77.2891 229.334 76.1868 228.228C75.1116 227.149 74.4209 225.64 74.4209 223.954V215.013C74.4209 213.402 74.9991 212.023 76.0811 210.889L76.2368 210.733C77.3824 209.633 78.7732 209.068 80.3454 209.068V209.091C82.0449 209.087 83.7037 209.116 85.3693 209.146C87.3166 209.18 89.2801 209.216 91.2004 209.195V205.867C91.2004 204.267 91.7474 202.91 92.8592 201.746L93.015 201.589C94.1606 200.489 95.5283 199.924 97.1221 199.924V199.947L107.398 199.931V71.8419C104.569 71.2169 101.794 70.445 99.0775 69.5279C94.8891 68.1136 90.809 66.3392 86.8427 64.2088L79.8606 60.4198L72.8812 56.5573C68.2175 53.9392 63.5023 51.7204 58.6801 50.0289C54.8627 48.6893 50.9329 47.6594 46.8582 46.9991L45.9875 47.828L69.2832 141.255C69.722 141.739 70.0754 142.296 70.3449 142.92C70.8378 144.065 70.9799 145.3 70.6902 146.596L70.7132 146.602C69.5851 151.748 67.0529 156.228 63.5781 159.822C60.0234 163.502 55.4788 166.219 50.4576 167.743C47.9646 168.508 45.4092 169.068 42.7998 169.426C40.2986 169.768 37.7961 169.901 35.3031 169.822C27.2648 169.976 19.2115 168.268 12.7468 164.148C6.79248 160.354 2.21811 154.635 0.184148 146.622L0.101562 146.299C0.0663541 145.946 0 145.501 0 145.154C0 143.516 0.655401 142.022 1.74415 140.93C1.79155 140.977 21.9862 59.3056 24.9275 47.7572C21.6693 44.9231 19.9604 41.3663 19.5189 37.7333V37.7102C19.1696 34.8286 19.6435 31.9185 20.7891 29.3058C21.932 26.7244 23.7494 24.412 26.0948 22.6947C29.3583 20.3076 33.5738 19.0861 38.3202 19.8891C41.0177 20.3469 43.3766 21.3712 45.3862 22.9526C46.5183 23.8439 47.519 24.8997 48.3884 26.1184C53.7617 26.8873 58.9793 28.0966 64.0372 29.7365C69.5919 31.5394 74.9842 33.872 80.2032 36.7279C82.1423 37.7903 83.8229 38.7346 85.5101 39.6802H85.5332C92.7266 43.7181 99.7777 47.6758 107.398 50.1757V45.2127H103.721C102.074 45.2127 100.656 44.6176 99.5231 43.4804C98.372 42.3256 97.7952 40.9085 97.7952 39.2687V30.4129C97.7952 28.7418 98.3897 27.3084 99.538 26.1563C100.686 25.0042 102.096 24.4079 103.779 24.4079V24.4309L108.573 24.4445C107.089 22.0071 106.233 19.1418 106.233 16.0767C106.233 11.638 108.029 7.61651 110.926 4.70904H110.95C113.85 1.80021 117.85 0 122.257 0C126.681 0 130.691 1.80157 133.588 4.70904L133.576 4.72124ZM42.9189 139.102L53.5722 139.106L42.9189 96.1735V139.102ZM219.896 139.042H230.743L219.853 95.3297L219.896 139.042ZM28.0922 95.9724L17.3875 139.098H28.0868C28.0691 124.722 28.0719 110.347 28.0922 95.9724ZM205.3 95.6625L194.511 139.098H205.271L205.3 95.6625Z" fill="#5E5CA7"/>
<path fill-rule="evenodd" clip-rule="evenodd" d="M238.076 144.793L214.267 49.7423L214.098 49.9134L214.115 67.5727C223.152 83.0679 228.33 101.104 228.33 120.352C228.33 128.768 227.34 136.951 225.47 144.793H238.076ZM22.5359 144.766C20.6699 136.932 19.6827 128.757 19.6827 120.352C19.6827 101.102 24.8624 83.0679 33.8987 67.5714L33.9204 49.7911L33.6293 49.9201L10.1101 144.672L22.5359 144.766ZM42.0278 55.6115C45.6895 50.9514 49.7371 46.6105 54.1219 42.6379C51.0777 41.8662 47.8426 41.2574 44.3624 40.8634C43.2303 42.828 41.5958 44.305 39.4549 45.2928L42.0278 55.6115ZM205.993 55.621L208.54 45.3673C206.143 44.4747 204.26 42.8634 202.895 40.532C199.439 40.839 196.208 41.3365 193.164 41.9859C197.833 46.1365 202.128 50.7014 205.993 55.621Z" fill="#5E5CA7"/>
</svg>
